G04 Layer: TopLayer*
G04 EasyEDA v6.4.7, 2020-10-05T14:23:05+01:00*
G04 80753c53b72f4884ac218c40b0928968,81cdacc9909441f8a3d49748f20dc12b,10*
G04 Gerber Generator version 0.2*
G04 Scale: 100 percent, Rotated: No, Reflected: No *
G04 Dimensions in millimeters *
G04 leading zeros omitted , absolute positions ,3 integer and 3 decimal *
%FSLAX33Y33*%
%MOMM*%
G90*
D02*

%ADD11C,0.179832*%
%ADD12C,0.700001*%
%ADD13C,0.609999*%
%ADD14R,1.999996X0.449999*%
%ADD15R,0.999998X1.249997*%
%ADD16R,1.249997X0.999998*%
%ADD19R,2.400000X1.899999*%
%ADD20R,1.199896X1.599997*%
%ADD21R,0.850900X2.999740*%
%ADD22R,2.999740X0.850900*%
%ADD24C,2.032000*%
%ADD25C,0.999998*%
%ADD27C,1.499997*%
%ADD28R,1.574800X1.574800*%
%ADD29C,1.574800*%
%ADD30C,1.299997*%

%LPD*%
G54D11*
G01X1506Y30558D02*
G01X1506Y29359D01*
G01X13573Y13335D02*
G01X13573Y11595D01*
G01X10104Y7157D02*
G01X10104Y8204D01*
G01X13573Y11595D02*
G01X9700Y11595D01*
G01X8940Y10835D01*
G01X8940Y9154D01*
G01X9890Y8204D01*
G01X10104Y8204D01*
G01X14818Y13335D02*
G01X14818Y11595D01*
G01X10096Y10030D02*
G01X11142Y10030D01*
G01X11142Y10030D02*
G01X13253Y10030D01*
G01X14818Y11595D01*
G01X15791Y9448D02*
G01X15791Y6149D01*
G01X16182Y5758D01*
G01X11948Y6024D02*
G01X7018Y6024D01*
G01X5793Y7249D01*
G01X5793Y7663D01*
G01X24091Y1541D02*
G01X23058Y505D01*
G01X18234Y505D01*
G01X25138Y1541D02*
G01X24091Y1541D01*
G01X12057Y4254D02*
G01X11120Y4254D01*
G01X10581Y4795D01*
G01X25699Y25859D02*
G01X25699Y24993D01*
G01X25699Y24993D02*
G01X22283Y24993D01*
G01X22212Y24922D01*
G01X25768Y20190D02*
G01X25768Y24925D01*
G01X25699Y24993D01*
G01X22478Y17868D02*
G01X22478Y12689D01*
G01X23147Y12024D01*
G01X23977Y12024D01*
G01X29898Y6101D01*
G01X29898Y1574D01*
G01X29847Y1524D01*
G01X28206Y1524D01*
G01X26309Y3418D01*
G01X23812Y3418D01*
G01X20144Y7089D01*
G01X23525Y6586D02*
G01X22105Y8003D01*
G01X20388Y8003D01*
G01X6731Y16116D02*
G01X8702Y16116D01*
G01X10205Y17619D01*
G01X11353Y17619D01*
G01X11790Y17180D01*
G01X11790Y16741D01*
G01X13403Y15130D01*
G01X16677Y15130D01*
G01X16728Y15077D01*
G01X16728Y14681D01*
G01X18082Y13329D01*
G01X18270Y13329D01*
G01X960Y12166D02*
G01X1915Y11211D01*
G01X1915Y10121D01*
G01X7188Y26593D02*
G01X16499Y26593D01*
G01X19969Y23124D01*
G01X19969Y22819D01*
G01X25613Y16497D02*
G01X25697Y16413D01*
G01X25697Y15176D01*
G01X25613Y17363D02*
G01X25613Y16497D01*
G01X26545Y12918D02*
G01X26545Y12875D01*
G01X27978Y11445D01*
G01X28719Y11445D02*
G01X27978Y11445D01*
G01X25803Y12918D02*
G01X26545Y12918D01*
G01X28704Y6570D02*
G01X27909Y6570D01*
G01X27833Y6647D01*
G01X28704Y5704D02*
G01X28704Y6570D01*
G01X29977Y11445D02*
G01X29977Y11816D01*
G01X29212Y12580D01*
G01X28051Y12580D01*
G01X30718Y11445D02*
G01X29977Y11445D01*
G01X27696Y15176D02*
G01X28775Y15176D01*
G01X20721Y25275D02*
G01X22014Y23982D01*
G01X23649Y23982D01*
G01X20721Y24076D02*
G01X22085Y22712D01*
G01X23649Y22712D01*
G01X16146Y21983D02*
G01X16766Y21363D01*
G01X16766Y19540D01*
G01X15900Y18676D01*
G01X13444Y18676D01*
G01X13352Y18768D01*
G01X14825Y25511D02*
G01X10391Y25511D01*
G01X10114Y25232D01*
G01X10114Y24739D01*
G01X9316Y23944D01*
G01X7490Y23944D01*
G01X7142Y24292D01*
G01X5910Y24292D01*
G01X5593Y24610D01*
G01X942Y10962D02*
G01X868Y10891D01*
G01X868Y9631D01*
G01X2275Y8227D01*
G01X6494Y8227D01*
G01X7564Y7157D01*
G01X6586Y28018D02*
G01X6586Y26819D01*
G01X6586Y26819D02*
G01X6619Y26786D01*
G01X6619Y25267D01*
G01X7360Y25267D02*
G01X7360Y24904D01*
G01X7975Y24292D01*
G01X9171Y24292D01*
G01X9641Y24759D01*
G01X9641Y25311D01*
G01X10406Y26075D01*
G01X15585Y26075D01*
G01X15631Y26029D01*
G01X6619Y25267D02*
G01X7360Y25267D01*
G01X29847Y21442D02*
G01X28986Y21442D01*
G01X28318Y22110D01*
G01X28318Y22110D02*
G01X26441Y23987D01*
G01X26441Y26687D01*
G01X26385Y26743D01*
G01X22603Y26743D01*
G01X19024Y30322D01*
G01X28318Y22110D02*
G01X27078Y20868D01*
G01X29847Y20172D02*
G01X30116Y20172D01*
G01X31015Y21071D01*
G01X31015Y21689D01*
G01X30627Y22077D01*
G01X29004Y22077D01*
G01X28333Y22748D01*
G01X28333Y22895D01*
G01X28333Y22895D02*
G01X26827Y24401D01*
G01X26827Y26794D01*
G01X26530Y27091D01*
G01X24737Y27091D01*
G01X21521Y30307D01*
G01X31899Y2390D02*
G01X31899Y3258D01*
G01X32806Y4165D01*
G01X31158Y2390D02*
G01X31899Y2390D01*
G01X32806Y4511D02*
G01X32806Y4165D01*
G01X32806Y4511D02*
G01X32806Y4856D01*
G01X32806Y5547D02*
G01X34015Y6756D01*
G01X34015Y28079D01*
G01X30378Y31714D01*
G01X12834Y31714D01*
G01X12440Y31320D01*
G01X32806Y4856D02*
G01X32806Y5547D01*
G01X32776Y14190D02*
G01X32776Y14881D01*
G01X17548Y24749D02*
G01X17373Y24922D01*
G01X10789Y24922D01*
G01X30358Y17713D02*
G01X30358Y16972D01*
G01X30358Y16972D02*
G01X32438Y16972D01*
G01X32776Y14881D02*
G01X32438Y15219D01*
G01X32438Y16972D01*
G01X32804Y23482D02*
G01X32804Y22791D01*
G01X32804Y22791D02*
G01X32425Y22412D01*
G01X32425Y22362D01*
G01X2506Y23916D02*
G01X2588Y23916D01*
G01X3378Y23126D01*
G01X3378Y13736D01*
G01X5890Y11224D01*
G01X6088Y11224D01*
G01X1506Y28018D02*
G01X1506Y26819D01*
G01X1506Y26819D02*
G01X355Y25669D01*
G01X355Y13675D01*
G01X3408Y10619D01*
G01X3408Y9227D01*
G01X3754Y8882D01*
G01X8415Y8882D01*
G01X4046Y30558D02*
G01X4046Y29359D01*
G01X14094Y19237D02*
G01X13583Y19751D01*
G01X11097Y19751D01*
G01X6982Y23865D01*
G01X5438Y23865D01*
G01X5016Y24290D01*
G01X5016Y26075D01*
G01X5245Y26304D01*
G01X5245Y29309D01*
G01X5191Y29359D01*
G01X4046Y29359D01*
G01X14206Y16842D02*
G01X15646Y16842D01*
G01X17998Y15369D02*
G01X17998Y15740D01*
G01X17998Y15369D02*
G01X17998Y14998D01*
G01X16390Y16624D02*
G01X15867Y16624D01*
G01X15646Y16842D01*
G01X16390Y16624D02*
G01X17271Y15740D01*
G01X17998Y15740D01*
G01X14206Y22133D02*
G01X14579Y22506D01*
G01X14579Y24056D01*
G01X14206Y20942D02*
G01X14206Y21092D01*
G01X14206Y21092D02*
G01X14206Y22133D01*
G01X14206Y21092D02*
G01X14825Y21092D01*
G01X16146Y19771D01*
G01X7325Y11595D02*
G01X8569Y11595D01*
G01X7325Y13335D02*
G01X7325Y12466D01*
G01X2321Y1397D02*
G01X3566Y1397D01*
G01X4411Y4297D02*
G01X4411Y3251D01*
G01X3566Y3139D02*
G01X4300Y3139D01*
G01X4411Y3251D01*
G01X3566Y1397D02*
G01X3566Y3139D01*
G01X23802Y12918D02*
G01X23802Y13784D01*
G01X23802Y13784D02*
G01X23611Y13975D01*
G01X23611Y17363D01*
G01X29847Y22712D02*
G01X30690Y22712D01*
G01X8569Y12466D02*
G01X8569Y11595D01*
G01X32776Y18392D02*
G01X32776Y17701D01*
G01X32806Y9057D02*
G01X32806Y9748D01*
G01X30690Y22712D02*
G01X31473Y21930D01*
G01X31473Y19570D01*
G01X32776Y19083D02*
G01X31960Y19083D01*
G01X31473Y19570D01*
G01X32776Y18392D02*
G01X32776Y19083D01*
G01X20810Y21414D02*
G01X23621Y21414D01*
G01X23649Y21442D01*
G01X30690Y22712D02*
G01X31028Y23050D01*
G01X31028Y25214D01*
G01X32804Y26992D01*
G01X32804Y27683D02*
G01X32804Y26992D01*
G01X32806Y9748D02*
G01X32806Y13383D01*
G01X32776Y17701D02*
G01X33652Y16822D01*
G01X33652Y13594D01*
G01X33441Y13383D01*
G01X32806Y13383D01*
G01X24764Y12054D02*
G01X24544Y12273D01*
G01X24544Y12918D01*
G01X23802Y12918D02*
G01X24544Y12918D01*
G01X32806Y13383D02*
G01X29634Y13383D01*
G01X29230Y13784D01*
G01X23802Y13784D01*
G01X8569Y12466D02*
G01X8569Y13335D01*
G01X8569Y13335D02*
G01X8569Y15077D01*
G01X20810Y21414D02*
G01X20810Y22461D01*
G01X16499Y30312D02*
G01X16499Y27625D01*
G01X8074Y27625D02*
G01X16499Y27625D01*
G01X31473Y19570D02*
G01X25590Y19570D01*
G01X25204Y19956D01*
G01X25204Y20048D01*
G01X23809Y21442D01*
G01X23649Y21442D01*
G01X8569Y15077D02*
G01X10447Y16957D01*
G01X11026Y16957D01*
G01X16499Y27625D02*
G01X16499Y27086D01*
G01X20810Y22776D01*
G01X20810Y22461D01*
G01X7325Y11661D02*
G01X7325Y11595D01*
G01X7325Y12466D02*
G01X7325Y11661D01*
G01X7325Y11661D02*
G01X5783Y10121D01*
G01X4455Y10121D01*
G01X30358Y15712D02*
G01X30358Y16454D01*
G01X28417Y2390D02*
G01X27444Y3360D01*
G01X27444Y5704D01*
G01X29159Y2390D02*
G01X28417Y2390D01*
G01X27073Y5704D02*
G01X27444Y5704D01*
G01X5509Y17838D02*
G01X6144Y17838D01*
G01X6586Y17396D01*
G01X3693Y25054D02*
G01X4434Y25054D01*
G01X13947Y30322D02*
G01X12672Y30322D01*
G01X6586Y30558D02*
G01X7785Y30558D01*
G01X6586Y17396D02*
G01X7279Y17396D01*
G01X7284Y17401D01*
G01X16578Y24056D02*
G01X16578Y23106D01*
G01X20810Y18874D01*
G01X6080Y13335D02*
G01X6080Y15077D01*
G01X7284Y17401D02*
G01X7294Y17411D01*
G01X7294Y17840D01*
G01X7294Y17840D02*
G01X8536Y17840D01*
G01X18183Y16997D02*
G01X18864Y16997D01*
G01X18183Y16997D02*
G01X17998Y16997D01*
G01X17998Y16997D02*
G01X17998Y17739D01*
G01X17998Y17739D02*
G01X19133Y18874D01*
G01X20810Y18874D01*
G01X12672Y30322D02*
G01X12461Y30322D01*
G01X11338Y31445D01*
G01X8671Y31445D01*
G01X7785Y30558D01*
G01X27701Y25859D02*
G01X28442Y25859D01*
G01X28442Y25859D02*
G01X29654Y24330D01*
G01X20810Y18874D02*
G01X22351Y18874D01*
G01X23649Y20172D01*
G01X27073Y5704D02*
G01X26703Y5704D01*
G01X18864Y16997D02*
G01X18864Y12633D01*
G01X19763Y11734D01*
G01X26703Y5704D02*
G01X25961Y5704D01*
G01X19763Y11734D02*
G01X19928Y11734D01*
G01X25961Y5704D01*
G01X30358Y16454D02*
G01X28214Y16454D01*
G01X24495Y20172D01*
G01X23649Y20172D01*
G01X8884Y18188D02*
G01X17548Y18188D01*
G01X17998Y17739D01*
G01X8536Y17840D02*
G01X8884Y18188D01*
G01X8884Y18188D02*
G01X8884Y20822D01*
G01X6314Y23395D01*
G01X5417Y23395D01*
G01X4434Y24376D01*
G01X4434Y25054D01*
G01X18742Y11734D02*
G01X19763Y11734D01*
G01X18742Y11734D02*
G01X18171Y11734D01*
G01X1076Y1397D02*
G01X1076Y3139D01*
G01X12326Y1397D02*
G01X12326Y3139D01*
G01X12263Y5369D02*
G01X12621Y5013D01*
G01X12621Y3434D01*
G01X12326Y3139D01*
G01X18171Y11734D02*
G01X17033Y11734D01*
G01X12555Y7259D01*
G01X12555Y5661D01*
G01X12263Y5369D01*
G01X12263Y5369D02*
G01X3393Y5369D01*
G01X3365Y5344D01*
G01X3365Y4282D01*
G01X2222Y3139D01*
G01X1076Y3139D01*
G01X6080Y15318D02*
G01X7548Y15318D01*
G01X6080Y15077D02*
G01X6080Y15318D01*
G01X6080Y15318D02*
G01X6080Y16888D01*
G01X6586Y17396D01*
G01X5509Y20436D02*
G01X6179Y20436D01*
G01X6570Y20830D01*
G01X1691Y25054D02*
G01X2354Y25054D01*
G01X6570Y20830D02*
G01X7272Y20830D01*
G01X7272Y20830D02*
G01X7272Y20436D01*
G01X6570Y20830D02*
G01X6570Y21211D01*
G01X3845Y23936D01*
G01X3309Y23936D01*
G01X2354Y24892D01*
G01X2354Y25054D01*
G01X2354Y25054D02*
G01X2705Y25402D01*
G01X2705Y29309D01*
G01X2651Y29359D01*
G01X1506Y29359D01*
G54D12*
G01X29297Y20172D02*
G01X30397Y20172D01*
G01X29297Y21442D02*
G01X30397Y21442D01*
G01X29297Y22712D02*
G01X30397Y22712D01*
G01X29297Y23982D02*
G01X30397Y23982D01*
G01X23099Y20172D02*
G01X24199Y20172D01*
G01X23099Y21442D02*
G01X24199Y21442D01*
G01X23099Y22712D02*
G01X24199Y22712D01*
G01X23099Y23982D02*
G01X24199Y23982D01*
G54D14*
G01X7272Y20436D03*
G01X7294Y17840D03*
G01X6570Y20830D03*
G01X6586Y17396D03*
G01X7272Y20830D03*
G01X7284Y17401D03*
G36*
G01X14077Y24681D02*
G01X15077Y24681D01*
G01X15077Y23431D01*
G01X14077Y23431D01*
G01X14077Y24681D01*
G37*
G36*
G01X16077Y24681D02*
G01X17077Y24681D01*
G01X17077Y23431D01*
G01X16077Y23431D01*
G01X16077Y24681D01*
G37*
G54D16*
G01X17998Y16999D03*
G01X17998Y14999D03*
G36*
G01X34284Y21490D02*
G01X34284Y22938D01*
G01X35082Y22938D01*
G01X35082Y21490D01*
G01X34284Y21490D01*
G37*
G36*
G01X34284Y28237D02*
G01X34284Y29684D01*
G01X35082Y29684D01*
G01X35082Y28237D01*
G01X34284Y28237D01*
G37*
G36*
G01X32169Y23032D02*
G01X32169Y23931D01*
G01X33439Y23931D01*
G01X33439Y23032D01*
G01X32169Y23032D01*
G37*
G36*
G01X32169Y27233D02*
G01X32169Y28133D01*
G01X33439Y28133D01*
G01X33439Y27233D01*
G01X32169Y27233D01*
G37*
G36*
G01X34256Y12199D02*
G01X34256Y13647D01*
G01X35054Y13647D01*
G01X35054Y12199D01*
G01X34256Y12199D01*
G37*
G36*
G01X34256Y18945D02*
G01X34256Y20393D01*
G01X35054Y20393D01*
G01X35054Y18945D01*
G01X34256Y18945D01*
G37*
G36*
G01X32141Y13741D02*
G01X32141Y14640D01*
G01X33411Y14640D01*
G01X33411Y13741D01*
G01X32141Y13741D01*
G37*
G36*
G01X32141Y17942D02*
G01X32141Y18841D01*
G01X33411Y18841D01*
G01X33411Y17942D01*
G01X32141Y17942D01*
G37*
G36*
G01X34287Y2865D02*
G01X34287Y4312D01*
G01X35085Y4312D01*
G01X35085Y2865D01*
G01X34287Y2865D01*
G37*
G36*
G01X34287Y9611D02*
G01X34287Y11059D01*
G01X35085Y11059D01*
G01X35085Y9611D01*
G01X34287Y9611D01*
G37*
G36*
G01X32171Y4406D02*
G01X32171Y5306D01*
G01X33441Y5306D01*
G01X33441Y4406D01*
G01X32171Y4406D01*
G37*
G36*
G01X32171Y8608D02*
G01X32171Y9507D01*
G01X33441Y9507D01*
G01X33441Y8608D01*
G01X32171Y8608D01*
G37*
G54D19*
G01X14206Y16842D03*
G01X14206Y20942D03*
G36*
G01X28218Y12070D02*
G01X29218Y12070D01*
G01X29218Y10820D01*
G01X28218Y10820D01*
G01X28218Y12070D01*
G37*
G36*
G01X30218Y12070D02*
G01X31218Y12070D01*
G01X31218Y10820D01*
G01X30218Y10820D01*
G01X30218Y12070D01*
G37*
G54D15*
G01X3692Y25054D03*
G01X1692Y25054D03*
G36*
G01X25195Y15801D02*
G01X26195Y15801D01*
G01X26195Y14551D01*
G01X25195Y14551D01*
G01X25195Y15801D01*
G37*
G36*
G01X27195Y15801D02*
G01X28195Y15801D01*
G01X28195Y14551D01*
G01X27195Y14551D01*
G01X27195Y15801D01*
G37*
G01X25612Y17363D03*
G01X23612Y17363D03*
G01X25803Y12918D03*
G01X23803Y12918D03*
G54D14*
G01X5509Y17839D03*
G01X5509Y18489D03*
G01X5509Y19139D03*
G01X5509Y19789D03*
G01X5509Y20439D03*
G54D20*
G01X1197Y17533D03*
G01X1213Y20811D03*
G36*
G01X26203Y6329D02*
G01X27203Y6329D01*
G01X27203Y5079D01*
G01X26203Y5079D01*
G01X26203Y6329D01*
G37*
G36*
G01X28203Y6329D02*
G01X29203Y6329D01*
G01X29203Y5079D01*
G01X28203Y5079D01*
G01X28203Y6329D01*
G37*
G54D15*
G01X27700Y25859D03*
G01X25700Y25859D03*
G01X8619Y25267D03*
G01X6620Y25267D03*
G36*
G01X28657Y3015D02*
G01X29657Y3015D01*
G01X29657Y1765D01*
G01X28657Y1765D01*
G01X28657Y3015D01*
G37*
G36*
G01X30657Y3015D02*
G01X31657Y3015D01*
G01X31657Y1765D01*
G01X30657Y1765D01*
G01X30657Y3015D01*
G37*
G54D16*
G01X30358Y15713D03*
G01X30358Y17713D03*
G54D21*
G01X16060Y1399D03*
G01X14815Y1399D03*
G01X13571Y1399D03*
G01X12326Y1399D03*
G01X11082Y1399D03*
G01X9812Y1399D03*
G01X8567Y1399D03*
G01X7322Y1399D03*
G01X6078Y1399D03*
G01X4808Y1399D03*
G01X3563Y1399D03*
G01X2319Y1399D03*
G01X1074Y1399D03*
G01X16060Y13337D03*
G01X14815Y13337D03*
G01X13571Y13337D03*
G01X12326Y13337D03*
G01X11082Y13337D03*
G01X9812Y13337D03*
G01X8567Y13337D03*
G01X7322Y13337D03*
G01X6078Y13337D03*
G54D22*
G01X18168Y2999D03*
G01X18168Y4244D03*
G01X18168Y5488D03*
G01X18168Y6758D03*
G01X18168Y8003D03*
G01X18168Y9248D03*
G01X18168Y10492D03*
G01X18168Y11737D03*
G36*
G01X12932Y31339D02*
G01X14964Y31339D01*
G01X14964Y29307D01*
G01X12932Y29307D01*
G01X12932Y31339D01*
G37*
G54D24*
G01X16499Y30312D03*
G01X19024Y30322D03*
G01X21521Y30307D03*
G54D25*
G01X20721Y24076D03*
G01X20721Y25275D03*
G36*
G01X566Y28958D02*
G01X2446Y28958D01*
G01X2446Y27078D01*
G01X566Y27078D01*
G01X566Y28958D01*
G37*
G36*
G01X566Y31498D02*
G01X2446Y31498D01*
G01X2446Y29618D01*
G01X566Y29618D01*
G01X566Y31498D01*
G37*
G36*
G01X3106Y28958D02*
G01X4986Y28958D01*
G01X4986Y27078D01*
G01X3106Y27078D01*
G01X3106Y28958D01*
G37*
G36*
G01X3106Y31498D02*
G01X4986Y31498D01*
G01X4986Y29618D01*
G01X3106Y29618D01*
G01X3106Y31498D01*
G37*
G36*
G01X5646Y28958D02*
G01X7526Y28958D01*
G01X7526Y27078D01*
G01X5646Y27078D01*
G01X5646Y28958D01*
G37*
G36*
G01X5646Y31498D02*
G01X7526Y31498D01*
G01X7526Y29618D01*
G01X5646Y29618D01*
G01X5646Y31498D01*
G37*
G54D27*
G01X4724Y21539D03*
G01X4724Y16697D03*
G54D28*
G01X21826Y1551D03*
G01X25138Y1541D03*
G36*
G01X3667Y10909D02*
G01X3667Y9334D01*
G01X5242Y9334D01*
G01X5242Y10909D01*
G01X3667Y10909D01*
G37*
G54D29*
G01X1915Y10121D03*
G36*
G01X3624Y5085D02*
G01X3624Y3510D01*
G01X5199Y3510D01*
G01X5199Y5085D01*
G01X3624Y5085D01*
G37*
G01X1871Y4297D03*
G36*
G01X3629Y7927D02*
G01X3629Y6352D01*
G01X5204Y6352D01*
G01X5204Y7927D01*
G01X3629Y7927D01*
G37*
G01X1877Y7139D03*
G54D28*
G01X24048Y30177D03*
G54D29*
G01X26588Y30177D03*
G54D28*
G01X10142Y30050D03*
G36*
G01X20022Y22202D02*
G01X20022Y20627D01*
G01X21597Y20627D01*
G01X21597Y22202D01*
G01X20022Y22202D01*
G37*
G54D29*
G01X20810Y18874D03*
G01X20810Y16334D03*
G01X20810Y13794D03*
G36*
G01X9309Y10817D02*
G01X9309Y9243D01*
G01X10883Y9243D01*
G01X10883Y10817D01*
G01X9309Y10817D01*
G37*
G01X7556Y10030D03*
G36*
G01X9316Y7945D02*
G01X9316Y6370D01*
G01X10891Y6370D01*
G01X10891Y7945D01*
G01X9316Y7945D01*
G37*
G01X7564Y7157D03*
G54D13*
G01X7548Y15318D03*
G01X29654Y24330D03*
G01X11026Y16957D03*
G01X24764Y12054D03*
G01X8074Y27625D03*
G01X16146Y19771D03*
G01X16390Y16624D03*
G01X14094Y19237D03*
G01X8415Y8882D03*
G01X6088Y11224D03*
G01X2506Y23916D03*
G01X32425Y22362D03*
G01X32438Y16972D03*
G01X17548Y24749D03*
G01X10789Y24922D03*
G01X12440Y31320D03*
G01X28333Y22895D03*
G01X27078Y20868D03*
G01X15631Y26029D03*
G01X14825Y25511D03*
G01X5593Y24610D03*
G01X942Y10962D03*
G01X16146Y21983D03*
G01X13352Y18768D03*
G01X28775Y15176D03*
G01X28051Y12580D03*
G01X27833Y6647D03*
G01X960Y12166D03*
G01X7188Y26593D03*
G01X19969Y22819D03*
G01X6731Y16116D03*
G01X18270Y13329D03*
G01X20388Y8003D03*
G01X23525Y6586D03*
G01X25768Y20190D03*
G01X22478Y17868D03*
G01X20144Y7089D03*
G01X22212Y24922D03*
G01X10581Y4795D03*
G01X12057Y4254D03*
G01X18234Y505D03*
G01X15791Y9448D03*
G01X16182Y5758D03*
G01X11948Y6024D03*
G01X5793Y7663D03*
G54D30*
G01X2474Y15509D02*
G01X1574Y15509D01*
G01X2474Y22748D02*
G01X1574Y22748D01*
M00*
M02*
