G04 Layer: BottomLayer*
G04 EasyEDA v6.4.7, 2020-10-05T14:23:05+01:00*
G04 80753c53b72f4884ac218c40b0928968,81cdacc9909441f8a3d49748f20dc12b,10*
G04 Gerber Generator version 0.2*
G04 Scale: 100 percent, Rotated: No, Reflected: No *
G04 Dimensions in millimeters *
G04 leading zeros omitted , absolute positions ,3 integer and 3 decimal *
%FSLAX33Y33*%
%MOMM*%
G90*
D02*

%ADD11C,0.179832*%
%ADD12C,0.700001*%
%ADD13C,0.609999*%
%ADD24C,2.032000*%
%ADD25C,0.999998*%
%ADD27C,1.499997*%
%ADD28R,1.574800X1.574800*%
%ADD29C,1.574800*%
%ADD30C,1.299997*%
%ADD31C,0.599999*%
%ADD32C,2.000001*%

%LPD*%
G54D11*
G01X1506Y29359D02*
G01X2651Y29359D01*
G01X2705Y29309D01*
G01X2705Y25478D01*
G01X375Y23152D01*
G01X375Y4196D01*
G01X1419Y3152D01*
G01X10624Y3152D01*
G01X11493Y4020D01*
G01X11493Y4488D01*
G01X11823Y4818D01*
G01X15946Y4818D01*
G01X16375Y4391D01*
G01X18341Y4391D01*
G01X18785Y4833D01*
G01X18785Y5925D01*
G01X18983Y6123D01*
G01X20292Y6123D01*
G01X20655Y5760D01*
G01X20655Y762D01*
G01X20911Y505D01*
G01X22819Y505D01*
G01X22872Y558D01*
G01X22872Y4777D01*
G01X25907Y7810D01*
G01X15090Y11082D02*
G01X15090Y10441D01*
G01X15092Y7058D02*
G01X15587Y7556D01*
G01X15587Y8854D01*
G01X15090Y9352D01*
G01X15090Y10441D01*
G01X15791Y9448D02*
G01X15991Y9248D01*
G01X15991Y6858D01*
G01X15552Y6418D01*
G01X14155Y6418D01*
G01X16182Y5758D02*
G01X16144Y5720D01*
G01X12252Y5720D01*
G01X11948Y6024D01*
G01X6565Y23827D02*
G01X7307Y23827D01*
G01X14155Y7058D02*
G01X14155Y6418D01*
G01X5793Y7663D02*
G01X5527Y7929D01*
G01X5527Y14112D01*
G01X7307Y15895D01*
G01X7307Y23827D01*
G01X13215Y7058D02*
G01X13215Y6418D01*
G01X13213Y11082D02*
G01X13213Y11142D01*
G01X13794Y11724D01*
G01X15448Y11724D01*
G01X16352Y10817D01*
G01X16352Y6728D01*
G01X15694Y6070D01*
G01X13563Y6070D01*
G01X13215Y6418D01*
G01X17932Y1137D02*
G01X18234Y838D01*
G01X18234Y505D01*
G01X17561Y1137D02*
G01X17932Y1137D01*
G01X17561Y1137D02*
G01X17190Y1137D01*
G01X13215Y3609D02*
G01X15687Y1137D01*
G01X17190Y1137D01*
G01X13215Y3886D02*
G01X13215Y3609D01*
G01X13215Y3886D02*
G01X13215Y4163D01*
G01X10581Y4795D02*
G01X10581Y5554D01*
G01X13213Y8186D01*
G01X13215Y4163D02*
G01X12148Y4163D01*
G01X12057Y4254D01*
G01X19192Y1137D02*
G01X19933Y1137D01*
G01X19151Y3522D02*
G01X19933Y2738D01*
G01X19933Y1137D01*
G01X19601Y5257D02*
G01X19601Y3972D01*
G01X19151Y3522D01*
G01X14155Y4163D02*
G01X14155Y3522D01*
G01X19151Y3522D02*
G01X14155Y3522D01*
G01X22212Y24922D02*
G01X23639Y23495D01*
G01X23639Y22397D01*
G01X25768Y20190D02*
G01X24800Y20190D01*
G01X22478Y17868D01*
G01X20144Y7089D02*
G01X17828Y7089D01*
G01X16746Y6004D01*
G01X16746Y5524D01*
G01X16416Y5194D01*
G01X11706Y5194D01*
G01X11145Y4632D01*
G01X11145Y4279D01*
G01X10383Y3520D01*
G01X8630Y3520D01*
G01X7995Y4152D01*
G01X7995Y5184D01*
G01X6083Y7099D01*
G01X5504Y7099D01*
G01X5463Y7139D01*
G01X4417Y7139D02*
G01X5463Y7139D01*
G01X3853Y13477D02*
G01X3309Y12933D01*
G01X3309Y9951D01*
G01X2194Y8836D01*
G01X1910Y8836D01*
G01X784Y7713D01*
G01X784Y5384D01*
G01X1871Y4297D01*
G01X4594Y13477D02*
G01X3853Y13477D01*
G01X24909Y22397D02*
G01X24909Y22755D01*
G01X26479Y24325D01*
G01X28455Y24325D01*
G01X31120Y21658D01*
G01X31120Y18333D01*
G01X27802Y15016D01*
G01X27160Y15016D01*
G01X26636Y14490D01*
G01X26636Y12946D01*
G01X25016Y11328D01*
G01X25016Y8077D01*
G01X23525Y6586D01*
G01X20388Y8003D02*
G01X18270Y10121D01*
G01X18270Y13329D01*
G01X4594Y13477D02*
G01X4594Y14343D01*
G01X4594Y14343D02*
G01X4958Y14343D01*
G01X6731Y16116D01*
G01X30378Y21150D02*
G01X30378Y21582D01*
G01X30378Y21150D02*
G01X30378Y20716D01*
G01X30378Y21582D02*
G01X30378Y21866D01*
G01X28384Y23860D01*
G01X27150Y23860D01*
G01X26179Y22890D01*
G01X26179Y22397D01*
G01X7188Y26593D02*
G01X6492Y26593D01*
G01X3446Y23548D01*
G01X3446Y14653D01*
G01X960Y12166D01*
G01X26179Y22397D02*
G01X26179Y21892D01*
G01X25257Y20970D01*
G01X23375Y20970D01*
G01X21526Y22819D01*
G01X19969Y22819D01*
G01X28447Y7810D02*
G01X28447Y7259D01*
G01X27833Y6647D01*
G01X28447Y13754D02*
G01X28447Y12974D01*
G01X28051Y12580D01*
G01X27177Y13754D02*
G01X28597Y15176D01*
G01X28775Y15176D01*
G01X17599Y5257D02*
G01X18341Y5257D01*
G01X22588Y8460D02*
G01X22588Y10492D01*
G01X22588Y10492D02*
G01X22588Y11686D01*
G01X22588Y11686D02*
G01X23599Y11686D01*
G01X25666Y13754D01*
G01X25907Y13754D01*
G01X21826Y1551D02*
G01X21826Y6522D01*
G01X21826Y6522D02*
G01X21826Y7698D01*
G01X22588Y8460D01*
G01X18341Y5257D02*
G01X18341Y6164D01*
G01X18699Y6522D01*
G01X21826Y6522D01*
G01X16212Y23860D02*
G01X16212Y24297D01*
G01X16212Y23860D02*
G01X16212Y23421D01*
G01X16146Y21983D02*
G01X16146Y22479D01*
G01X16212Y22545D01*
G01X16212Y23421D02*
G01X16212Y22545D01*
G01X16212Y24297D02*
G01X19131Y27216D01*
G01X21033Y27216D01*
G01X21262Y27447D01*
G01X23192Y27447D01*
G01X24556Y27447D01*
G01X26588Y30177D01*
G01X13352Y18768D02*
G01X13352Y18161D01*
G01X7556Y12367D01*
G01X7556Y10030D01*
G01X15400Y23860D02*
G01X15400Y24297D01*
G01X15400Y23860D02*
G01X15400Y23421D01*
G01X24096Y30050D02*
G01X23573Y30050D01*
G01X24096Y30050D02*
G01X24048Y30177D01*
G01X14825Y25511D02*
G01X14825Y24874D01*
G01X15400Y24297D01*
G01X5593Y24610D02*
G01X5824Y24378D01*
G01X5824Y16233D01*
G01X942Y11351D01*
G01X942Y10962D01*
G01X15400Y24297D02*
G01X18666Y27566D01*
G01X20888Y27566D01*
G01X21117Y27795D01*
G01X21318Y27795D01*
G01X23573Y30050D01*
G01X15631Y26029D02*
G01X15499Y26162D01*
G01X14678Y26162D01*
G01X14150Y25633D01*
G01X14150Y25054D01*
G01X14612Y24592D01*
G01X14612Y23421D01*
G01X13799Y23421D02*
G01X13799Y24297D01*
G01X26179Y16352D02*
G01X26179Y15821D01*
G01X25359Y15003D01*
G01X22141Y15003D01*
G01X20810Y16334D01*
G01X13799Y24297D02*
G01X13799Y25775D01*
G01X18346Y30322D01*
G01X19024Y30322D01*
G01X27078Y20868D02*
G01X27078Y20703D01*
G01X26179Y19804D01*
G01X26179Y16352D01*
G01X13012Y23421D02*
G01X13012Y24297D01*
G01X13012Y24297D02*
G01X13012Y26189D01*
G01X15222Y28399D01*
G01X15222Y30853D01*
G01X16085Y31714D01*
G01X20114Y31714D01*
G01X21521Y30307D01*
G01X27449Y16352D02*
G01X27449Y15999D01*
G01X26248Y14798D01*
G01X25687Y14798D01*
G01X24683Y13794D01*
G01X20810Y13794D01*
G01X28333Y22895D02*
G01X28333Y17238D01*
G01X27449Y16352D01*
G01X11412Y23421D02*
G01X11412Y30292D01*
G01X12440Y31320D01*
G01X9913Y21922D02*
G01X10789Y21922D01*
G01X10789Y21922D02*
G01X10789Y24922D01*
G01X17548Y24749D02*
G01X19596Y26797D01*
G01X21104Y26797D01*
G01X21254Y26946D01*
G01X28681Y26946D01*
G01X33121Y22506D01*
G01X33121Y17655D01*
G01X32438Y16972D01*
G01X26029Y25908D02*
G01X25806Y26471D01*
G01X9913Y21135D02*
G01X10789Y21135D01*
G01X32425Y22362D02*
G01X32425Y22710D01*
G01X28615Y26520D01*
G01X25857Y26520D01*
G01X25806Y26471D01*
G01X10789Y21135D02*
G01X16108Y21135D01*
G01X17569Y22595D01*
G01X17569Y23393D01*
G01X20523Y26347D01*
G01X25681Y26347D01*
G01X25806Y26471D01*
G01X6088Y11224D02*
G01X6088Y11465D01*
G01X9037Y14411D01*
G01X9037Y16334D01*
G01X4046Y28018D02*
G01X4046Y25458D01*
G01X2506Y23916D01*
G01X9913Y16334D02*
G01X9037Y16334D01*
G01X11412Y14836D02*
G01X11412Y13959D01*
G01X11412Y13959D02*
G01X8950Y11496D01*
G01X8950Y9415D01*
G01X8415Y8882D01*
G01X14094Y19237D02*
G01X14094Y18044D01*
G01X12199Y16149D01*
G01X12199Y14836D01*
G01X17622Y16334D02*
G01X17332Y16624D01*
G01X16390Y16624D01*
G01X18498Y16334D02*
G01X17622Y16334D01*
G01X18498Y17122D02*
G01X17622Y17122D01*
G01X16146Y19771D02*
G01X16146Y18597D01*
G01X17622Y17122D01*
G01X7256Y4406D02*
G01X5567Y4406D01*
G01X5458Y4297D01*
G01X4411Y4297D02*
G01X5458Y4297D01*
G01X4411Y4297D02*
G01X4411Y5344D01*
G01X1877Y7139D02*
G01X2712Y7139D01*
G01X4411Y5344D02*
G01X4226Y5344D01*
G01X2712Y6858D01*
G01X2712Y7139D01*
G01X2712Y7139D02*
G01X2712Y7594D01*
G01X4193Y9075D01*
G01X4455Y9075D01*
G01X4455Y9598D02*
G01X4455Y9075D01*
G01X9474Y18722D02*
G01X9913Y18722D01*
G01X18059Y19535D02*
G01X17622Y19535D01*
G01X18059Y19535D02*
G01X18498Y19535D01*
G01X19375Y19535D02*
G01X20210Y20368D01*
G01X20810Y20368D01*
G01X18498Y19535D02*
G01X19375Y19535D01*
G01X20810Y21414D02*
G01X20810Y20891D01*
G01X20810Y20891D02*
G01X20810Y20368D01*
G01X18498Y17934D02*
G01X17708Y17934D01*
G01X9563Y17122D02*
G01X9037Y17122D01*
G01X4455Y9598D02*
G01X4455Y10121D01*
G01X17708Y17934D02*
G01X17622Y18021D01*
G01X17622Y19535D01*
G01X9474Y18722D02*
G01X9123Y18722D01*
G01X9563Y17122D02*
G01X9913Y17122D01*
G01X9123Y18722D02*
G01X9037Y18635D01*
G01X9037Y17122D01*
G01X8074Y27625D02*
G01X7820Y27368D01*
G01X7820Y20025D01*
G01X9123Y18722D01*
G01X24112Y11635D02*
G01X24345Y11635D01*
G01X24764Y12054D01*
G01X24112Y10797D02*
G01X24112Y11635D01*
G01X11026Y16957D02*
G01X10955Y16957D01*
G01X10789Y17122D01*
G01X9913Y17122D02*
G01X10789Y17122D01*
G01X20810Y20891D02*
G01X21155Y20546D01*
G01X25328Y20546D01*
G01X25534Y20754D01*
G01X26167Y20754D01*
G01X27449Y22037D01*
G01X27449Y22397D01*
G01X32379Y20716D02*
G01X32009Y20716D01*
G01X9255Y4406D02*
G01X9255Y5273D01*
G01X15090Y8186D02*
G01X15090Y8829D01*
G01X9474Y19535D02*
G01X9037Y19535D01*
G01X9474Y19535D02*
G01X9913Y19535D01*
G01X28178Y25654D02*
G01X27848Y25654D01*
G01X6586Y30558D02*
G01X6586Y29359D01*
G01X23639Y16352D02*
G01X23180Y16352D01*
G01X20810Y18722D01*
G01X20810Y18722D02*
G01X20810Y18874D01*
G01X18498Y20322D02*
G01X17622Y20322D01*
G01X18849Y18722D02*
G01X19375Y18722D01*
G01X18849Y18722D02*
G01X18498Y18722D01*
G01X9913Y19535D02*
G01X10789Y19535D01*
G01X29717Y7810D02*
G01X28641Y8884D01*
G01X28252Y8884D01*
G01X27177Y7810D01*
G01X28178Y25654D02*
G01X28364Y25654D01*
G01X8567Y23827D02*
G01X8567Y24693D01*
G01X28031Y25908D02*
G01X27828Y25654D01*
G01X28031Y25908D02*
G01X27848Y25654D01*
G01X18498Y20322D02*
G01X19375Y20322D01*
G01X20810Y18722D02*
G01X19375Y18722D01*
G01X8567Y22961D02*
G01X9037Y22491D01*
G01X9037Y19535D01*
G01X8567Y23827D02*
G01X8567Y22961D01*
G01X6586Y29359D02*
G01X7635Y29359D01*
G01X8638Y28356D01*
G01X8638Y24765D01*
G01X8567Y24693D01*
G01X20327Y10797D02*
G01X18933Y12192D01*
G01X18933Y15496D01*
G01X19375Y18722D02*
G01X19375Y15941D01*
G01X18933Y15496D01*
G01X18933Y15496D02*
G01X17597Y15496D01*
G01X21064Y10797D02*
G01X20327Y10797D01*
G01X28364Y25654D02*
G01X28501Y25516D01*
G01X29654Y24330D01*
G01X10789Y19535D02*
G01X11059Y19801D01*
G01X15318Y19801D01*
G01X15339Y19781D01*
G01X17622Y20322D02*
G01X17609Y20332D01*
G01X15890Y20332D01*
G01X15339Y19781D01*
G01X15339Y19781D02*
G01X15339Y16824D01*
G01X16304Y15859D01*
G01X17233Y15859D01*
G01X17597Y15496D01*
G01X15090Y8829D02*
G01X12598Y8829D01*
G01X12064Y9362D01*
G01X12064Y9362D02*
G01X12064Y11038D01*
G01X14914Y13888D01*
G01X17393Y13888D01*
G01X17597Y14089D01*
G01X17597Y15496D01*
G01X12064Y9362D02*
G01X11645Y8943D01*
G01X9946Y8943D01*
G01X8983Y7983D01*
G01X8983Y5544D01*
G01X9255Y5273D01*
G01X28031Y25908D02*
G01X26865Y24691D01*
G01X25095Y24691D01*
G01X23291Y24691D01*
G01X22392Y25590D01*
G01X22067Y25590D01*
G01X21480Y25001D01*
G01X21480Y23761D01*
G01X21036Y23317D01*
G01X20302Y23317D01*
G01X20071Y23550D01*
G01X19723Y23550D01*
G01X19375Y23202D01*
G01X19375Y20322D01*
G01X29717Y7810D02*
G01X31874Y9969D01*
G01X31874Y20581D01*
G01X32009Y20716D01*
G01X32009Y20716D02*
G01X31861Y20863D01*
G01X31861Y22440D01*
G01X29654Y24330D01*
G01X6596Y13477D02*
G01X6596Y14366D01*
G01X7548Y15318D01*
G01X25907Y7810D02*
G01X27386Y9288D01*
G01X29753Y9288D01*
G01X29806Y9342D01*
G01X29806Y13665D01*
G01X29717Y13754D01*
G01X1506Y30558D02*
G01X1506Y29359D01*
G54D31*
G01X25907Y14254D02*
G01X25907Y13254D01*
G01X27177Y14254D02*
G01X27177Y13254D01*
G01X28447Y14254D02*
G01X28447Y13254D01*
G01X29717Y14254D02*
G01X29717Y13254D01*
G01X25907Y8310D02*
G01X25907Y7310D01*
G01X27177Y8310D02*
G01X27177Y7310D01*
G01X28447Y8310D02*
G01X28447Y7310D01*
G01X29717Y8310D02*
G01X29717Y7310D01*
G54D12*
G01X27449Y17102D02*
G01X27449Y15602D01*
G01X26179Y17102D02*
G01X26179Y15602D01*
G01X24909Y17102D02*
G01X24909Y15602D01*
G01X23639Y17102D02*
G01X23639Y15602D01*
G01X27449Y23147D02*
G01X27449Y21647D01*
G01X26179Y23147D02*
G01X26179Y21647D01*
G01X24909Y23147D02*
G01X24909Y21647D01*
G01X23639Y23147D02*
G01X23639Y21647D01*
G54D32*
G01X22588Y9210D02*
G01X22588Y7710D01*
G36*
G01X19133Y22202D02*
G01X17863Y22202D01*
G01X17863Y21643D01*
G01X19133Y21643D01*
G01X19133Y22202D01*
G37*
G36*
G01X19133Y21414D02*
G01X17863Y21414D01*
G01X17863Y20855D01*
G01X19133Y20855D01*
G01X19133Y21414D01*
G37*
G36*
G01X19133Y20601D02*
G01X17863Y20601D01*
G01X17863Y20043D01*
G01X19133Y20043D01*
G01X19133Y20601D01*
G37*
G36*
G01X19133Y19814D02*
G01X17863Y19814D01*
G01X17863Y19255D01*
G01X19133Y19255D01*
G01X19133Y19814D01*
G37*
G36*
G01X19133Y19001D02*
G01X17863Y19001D01*
G01X17863Y18442D01*
G01X19133Y18442D01*
G01X19133Y19001D01*
G37*
G36*
G01X19133Y18214D02*
G01X17863Y18214D01*
G01X17863Y17655D01*
G01X19133Y17655D01*
G01X19133Y18214D01*
G37*
G36*
G01X19133Y17401D02*
G01X17863Y17401D01*
G01X17863Y16842D01*
G01X19133Y16842D01*
G01X19133Y17401D01*
G37*
G36*
G01X19133Y16614D02*
G01X17863Y16614D01*
G01X17863Y16055D01*
G01X19133Y16055D01*
G01X19133Y16614D01*
G37*
G36*
G01X17279Y15471D02*
G01X16720Y15471D01*
G01X16720Y14201D01*
G01X17279Y14201D01*
G01X17279Y15471D01*
G37*
G36*
G01X16492Y15471D02*
G01X15933Y15471D01*
G01X15933Y14201D01*
G01X16492Y14201D01*
G01X16492Y15471D01*
G37*
G36*
G01X15679Y15471D02*
G01X15120Y15471D01*
G01X15120Y14201D01*
G01X15679Y14201D01*
G01X15679Y15471D01*
G37*
G36*
G01X14892Y15471D02*
G01X14333Y15471D01*
G01X14333Y14201D01*
G01X14892Y14201D01*
G01X14892Y15471D01*
G37*
G36*
G01X14079Y15471D02*
G01X13520Y15471D01*
G01X13520Y14201D01*
G01X14079Y14201D01*
G01X14079Y15471D01*
G37*
G36*
G01X13291Y15471D02*
G01X12733Y15471D01*
G01X12733Y14201D01*
G01X13291Y14201D01*
G01X13291Y15471D01*
G37*
G36*
G01X12479Y15471D02*
G01X11920Y15471D01*
G01X11920Y14201D01*
G01X12479Y14201D01*
G01X12479Y15471D01*
G37*
G36*
G01X11691Y15471D02*
G01X11132Y15471D01*
G01X11132Y14201D01*
G01X11691Y14201D01*
G01X11691Y15471D01*
G37*
G36*
G01X10548Y16614D02*
G01X9278Y16614D01*
G01X9278Y16055D01*
G01X10548Y16055D01*
G01X10548Y16614D01*
G37*
G36*
G01X10548Y17401D02*
G01X9278Y17401D01*
G01X9278Y16842D01*
G01X10548Y16842D01*
G01X10548Y17401D01*
G37*
G36*
G01X10548Y18214D02*
G01X9278Y18214D01*
G01X9278Y17655D01*
G01X10548Y17655D01*
G01X10548Y18214D01*
G37*
G36*
G01X10548Y19001D02*
G01X9278Y19001D01*
G01X9278Y18442D01*
G01X10548Y18442D01*
G01X10548Y19001D01*
G37*
G36*
G01X10548Y19814D02*
G01X9278Y19814D01*
G01X9278Y19255D01*
G01X10548Y19255D01*
G01X10548Y19814D01*
G37*
G36*
G01X10548Y20601D02*
G01X9278Y20601D01*
G01X9278Y20043D01*
G01X10548Y20043D01*
G01X10548Y20601D01*
G37*
G36*
G01X10548Y21414D02*
G01X9278Y21414D01*
G01X9278Y20855D01*
G01X10548Y20855D01*
G01X10548Y21414D01*
G37*
G36*
G01X10548Y22202D02*
G01X9278Y22202D01*
G01X9278Y21643D01*
G01X10548Y21643D01*
G01X10548Y22202D01*
G37*
G36*
G01X11691Y24056D02*
G01X11132Y24056D01*
G01X11132Y22786D01*
G01X11691Y22786D01*
G01X11691Y24056D01*
G37*
G36*
G01X12479Y24056D02*
G01X11920Y24056D01*
G01X11920Y22786D01*
G01X12479Y22786D01*
G01X12479Y24056D01*
G37*
G36*
G01X13291Y24056D02*
G01X12733Y24056D01*
G01X12733Y22786D01*
G01X13291Y22786D01*
G01X13291Y24056D01*
G37*
G36*
G01X14079Y24056D02*
G01X13520Y24056D01*
G01X13520Y22786D01*
G01X14079Y22786D01*
G01X14079Y24056D01*
G37*
G36*
G01X14892Y24056D02*
G01X14333Y24056D01*
G01X14333Y22786D01*
G01X14892Y22786D01*
G01X14892Y24056D01*
G37*
G36*
G01X15679Y24056D02*
G01X15120Y24056D01*
G01X15120Y22786D01*
G01X15679Y22786D01*
G01X15679Y24056D01*
G37*
G36*
G01X16492Y24056D02*
G01X15933Y24056D01*
G01X15933Y22786D01*
G01X16492Y22786D01*
G01X16492Y24056D01*
G37*
G36*
G01X17279Y24056D02*
G01X16720Y24056D01*
G01X16720Y22786D01*
G01X17279Y22786D01*
G01X17279Y24056D01*
G37*
G36*
G01X26062Y9532D02*
G01X29563Y9532D01*
G01X29563Y12032D01*
G01X26062Y12032D01*
G01X26062Y9532D01*
G37*
G36*
G01X14837Y4565D02*
G01X14837Y3765D01*
G01X15347Y3765D01*
G01X15347Y4565D01*
G01X14837Y4565D01*
G37*
G36*
G01X13897Y4565D02*
G01X13897Y3765D01*
G01X14408Y3765D01*
G01X14408Y4565D01*
G01X13897Y4565D01*
G37*
G36*
G01X12957Y4565D02*
G01X12957Y3765D01*
G01X13468Y3765D01*
G01X13468Y4565D01*
G01X12957Y4565D01*
G37*
G36*
G01X12957Y7461D02*
G01X12957Y6661D01*
G01X13468Y6661D01*
G01X13468Y7461D01*
G01X12957Y7461D01*
G37*
G36*
G01X13897Y7461D02*
G01X13897Y6661D01*
G01X14408Y6661D01*
G01X14408Y7461D01*
G01X13897Y7461D01*
G37*
G36*
G01X14837Y7461D02*
G01X14837Y6661D01*
G01X15347Y6661D01*
G01X15347Y7461D01*
G01X14837Y7461D01*
G37*
G36*
G01X20100Y5882D02*
G01X19100Y5882D01*
G01X19100Y4632D01*
G01X20100Y4632D01*
G01X20100Y5882D01*
G37*
G36*
G01X18100Y5882D02*
G01X17100Y5882D01*
G01X17100Y4632D01*
G01X18100Y4632D01*
G01X18100Y5882D01*
G37*
G36*
G01X19691Y1763D02*
G01X18691Y1763D01*
G01X18691Y512D01*
G01X19691Y512D01*
G01X19691Y1763D01*
G37*
G36*
G01X17691Y1763D02*
G01X16691Y1763D01*
G01X16691Y512D01*
G01X17691Y512D01*
G01X17691Y1763D01*
G37*
G36*
G01X13465Y10684D02*
G01X13465Y11484D01*
G01X12955Y11484D01*
G01X12955Y10684D01*
G01X13465Y10684D01*
G37*
G36*
G01X14405Y10684D02*
G01X14405Y11484D01*
G01X13895Y11484D01*
G01X13895Y10684D01*
G01X14405Y10684D01*
G37*
G36*
G01X15345Y10684D02*
G01X15345Y11484D01*
G01X14834Y11484D01*
G01X14834Y10684D01*
G01X15345Y10684D01*
G37*
G36*
G01X15345Y7788D02*
G01X15345Y8589D01*
G01X14834Y8589D01*
G01X14834Y7788D01*
G01X15345Y7788D01*
G37*
G36*
G01X14405Y7788D02*
G01X14405Y8589D01*
G01X13895Y8589D01*
G01X13895Y7788D01*
G01X14405Y7788D01*
G37*
G36*
G01X13465Y7788D02*
G01X13465Y8589D01*
G01X12955Y8589D01*
G01X12955Y7788D01*
G01X13465Y7788D01*
G37*
G36*
G01X9066Y24452D02*
G01X8066Y24452D01*
G01X8066Y23202D01*
G01X9066Y23202D01*
G01X9066Y24452D01*
G37*
G36*
G01X7066Y24452D02*
G01X6066Y24452D01*
G01X6066Y23202D01*
G01X7066Y23202D01*
G01X7066Y24452D01*
G37*
G36*
G01X7095Y14102D02*
G01X6095Y14102D01*
G01X6095Y12852D01*
G01X7095Y12852D01*
G01X7095Y14102D01*
G37*
G36*
G01X5095Y14102D02*
G01X4095Y14102D01*
G01X4095Y12852D01*
G01X5095Y12852D01*
G01X5095Y14102D01*
G37*
G36*
G01X32879Y21341D02*
G01X31879Y21341D01*
G01X31879Y20091D01*
G01X32879Y20091D01*
G01X32879Y21341D01*
G37*
G36*
G01X30879Y21341D02*
G01X29879Y21341D01*
G01X29879Y20091D01*
G01X30879Y20091D01*
G01X30879Y21341D01*
G37*
G36*
G01X6755Y3781D02*
G01X7755Y3781D01*
G01X7755Y5031D01*
G01X6755Y5031D01*
G01X6755Y3781D01*
G37*
G36*
G01X8755Y3781D02*
G01X9755Y3781D01*
G01X9755Y5031D01*
G01X8755Y5031D01*
G01X8755Y3781D01*
G37*
G36*
G01X22092Y9540D02*
G01X23083Y9540D01*
G01X23083Y11445D01*
G01X22092Y11445D01*
G01X22092Y9540D01*
G37*
G36*
G01X20568Y10200D02*
G01X21559Y10200D01*
G01X21559Y11394D01*
G01X20568Y11394D01*
G01X20568Y10200D01*
G37*
G36*
G01X23616Y10200D02*
G01X24607Y10200D01*
G01X24607Y11394D01*
G01X23616Y11394D01*
G01X23616Y10200D01*
G37*
G36*
G01X28530Y26533D02*
G01X27530Y26533D01*
G01X27530Y25282D01*
G01X28530Y25282D01*
G01X28530Y26533D01*
G37*
G36*
G01X26530Y26533D02*
G01X25530Y26533D01*
G01X25530Y25282D01*
G01X26530Y25282D01*
G01X26530Y26533D01*
G37*
G36*
G01X12932Y31339D02*
G01X14964Y31339D01*
G01X14964Y29307D01*
G01X12932Y29307D01*
G01X12932Y31339D01*
G37*
G54D24*
G01X16499Y30312D03*
G01X19024Y30322D03*
G01X21521Y30307D03*
G54D25*
G01X20721Y24076D03*
G01X20721Y25275D03*
G36*
G01X566Y28958D02*
G01X2446Y28958D01*
G01X2446Y27078D01*
G01X566Y27078D01*
G01X566Y28958D01*
G37*
G36*
G01X566Y31498D02*
G01X2446Y31498D01*
G01X2446Y29618D01*
G01X566Y29618D01*
G01X566Y31498D01*
G37*
G36*
G01X3106Y28958D02*
G01X4986Y28958D01*
G01X4986Y27078D01*
G01X3106Y27078D01*
G01X3106Y28958D01*
G37*
G36*
G01X3106Y31498D02*
G01X4986Y31498D01*
G01X4986Y29618D01*
G01X3106Y29618D01*
G01X3106Y31498D01*
G37*
G36*
G01X5646Y28958D02*
G01X7526Y28958D01*
G01X7526Y27078D01*
G01X5646Y27078D01*
G01X5646Y28958D01*
G37*
G36*
G01X5646Y31498D02*
G01X7526Y31498D01*
G01X7526Y29618D01*
G01X5646Y29618D01*
G01X5646Y31498D01*
G37*
G54D27*
G01X4724Y21539D03*
G01X4724Y16697D03*
G54D28*
G01X21826Y1551D03*
G01X25138Y1541D03*
G36*
G01X3667Y10909D02*
G01X3667Y9334D01*
G01X5242Y9334D01*
G01X5242Y10909D01*
G01X3667Y10909D01*
G37*
G54D29*
G01X1915Y10121D03*
G36*
G01X3624Y5085D02*
G01X3624Y3510D01*
G01X5199Y3510D01*
G01X5199Y5085D01*
G01X3624Y5085D01*
G37*
G01X1871Y4297D03*
G36*
G01X3629Y7927D02*
G01X3629Y6352D01*
G01X5204Y6352D01*
G01X5204Y7927D01*
G01X3629Y7927D01*
G37*
G01X1877Y7139D03*
G54D28*
G01X24048Y30177D03*
G54D29*
G01X26588Y30177D03*
G54D28*
G01X10142Y30050D03*
G36*
G01X20022Y22202D02*
G01X20022Y20627D01*
G01X21597Y20627D01*
G01X21597Y22202D01*
G01X20022Y22202D01*
G37*
G54D29*
G01X20810Y18874D03*
G01X20810Y16334D03*
G01X20810Y13794D03*
G36*
G01X9309Y10817D02*
G01X9309Y9243D01*
G01X10883Y9243D01*
G01X10883Y10817D01*
G01X9309Y10817D01*
G37*
G01X7556Y10030D03*
G36*
G01X9316Y7945D02*
G01X9316Y6370D01*
G01X10891Y6370D01*
G01X10891Y7945D01*
G01X9316Y7945D01*
G37*
G01X7564Y7157D03*
G54D13*
G01X7548Y15318D03*
G01X29654Y24330D03*
G01X11026Y16957D03*
G01X24764Y12054D03*
G01X8074Y27625D03*
G01X16146Y19771D03*
G01X16390Y16624D03*
G01X14094Y19237D03*
G01X8415Y8882D03*
G01X6088Y11224D03*
G01X2506Y23916D03*
G01X32425Y22362D03*
G01X32438Y16972D03*
G01X17548Y24749D03*
G01X10789Y24922D03*
G01X12440Y31320D03*
G01X28333Y22895D03*
G01X27078Y20868D03*
G01X15631Y26029D03*
G01X14825Y25511D03*
G01X5593Y24610D03*
G01X942Y10962D03*
G01X16146Y21983D03*
G01X13352Y18768D03*
G01X28775Y15176D03*
G01X28051Y12580D03*
G01X27833Y6647D03*
G01X960Y12166D03*
G01X7188Y26593D03*
G01X19969Y22819D03*
G01X6731Y16116D03*
G01X18270Y13329D03*
G01X20388Y8003D03*
G01X23525Y6586D03*
G01X25768Y20190D03*
G01X22478Y17868D03*
G01X20144Y7089D03*
G01X22212Y24922D03*
G01X10581Y4795D03*
G01X12057Y4254D03*
G01X18234Y505D03*
G01X15791Y9448D03*
G01X16182Y5758D03*
G01X11948Y6024D03*
G01X5793Y7663D03*
G54D30*
G01X2474Y15509D02*
G01X1574Y15509D01*
G01X2474Y22748D02*
G01X1574Y22748D01*
M00*
M02*
