;Layer: Drill PTH
;EasyEDA v6.4.7, 2020-10-05T14:23:05+01:00
;80753c53b72f4884ac218c40b0928968,81cdacc9909441f8a3d49748f20dc12b,10
;Gerber Generator version 0.2
M48
METRIC,LZ,000.000
;Holesize 1 = 0.305 METRIC
T01C0.305
;Holesize 2 = 0.510 METRIC
T02C0.510
;Holesize 3 = 0.701 METRIC
T03C0.701
;Holesize 4 = 0.889 METRIC
T04C0.889
;Holesize 5 = 0.900 METRIC
T05C0.900
;Holesize 6 = 1.016 METRIC
T06C1.016
;Holesize 7 = 1.067 METRIC
T07C1.067
%
G05
G90
T01
X+007548Y+015318
X+029654Y+024330
X+011026Y+016957
X+024764Y+012054
X+008074Y+027625
X+016146Y+019771
X+016390Y+016624
X+014094Y+019237
X+008415Y+008882
X+006088Y+011224
X+002506Y+023916
X+032425Y+022362
X+032438Y+016972
X+017548Y+024749
X+010789Y+024922
X+012440Y+031320
X+028333Y+022895
X+027078Y+020868
X+015631Y+026029
X+014825Y+025511
X+005593Y+024610
X+000942Y+010962
X+016146Y+021983
X+013352Y+018768
X+028775Y+015176
X+028051Y+012580
X+027833Y+006647
X+000960Y+012166
X+007188Y+026593
X+019969Y+022819
X+006731Y+016116
X+018270Y+013329
X+020388Y+008003
X+023525Y+006586
X+025768Y+020190
X+022478Y+017868
X+020144Y+007089
X+022212Y+024922
X+010581Y+004795
X+012057Y+004254
X+018234Y+000505
X+015791Y+009448
X+016182Y+005758
X+011948Y+006024
X+005793Y+007663
T02
X+020721Y+024076
X+020721Y+025275
T03
X+001624Y+015509G85X+002424Y+015509
X+001624Y+022748G85X+002424Y+022748
T04
X+021826Y+001551
X+025138Y+001541
X+004455Y+010121
X+001915Y+010121
X+004411Y+004297
X+001871Y+004297
X+004417Y+007139
X+001877Y+007139
X+024048Y+030177
X+026588Y+030177
X+010142Y+030050
X+020810Y+021414
X+020810Y+018874
X+020810Y+016334
X+020810Y+013794
X+010096Y+010030
X+007556Y+010030
X+010104Y+007157
X+007564Y+007157
T05
X+004724Y+021539
X+004724Y+016697
T06
X+001506Y+028018
X+001506Y+030558
X+004046Y+028018
X+004046Y+030558
X+006586Y+028018
X+006586Y+030558
T07
X+013948Y+030323
X+016499Y+030312
X+019024Y+030322
X+021521Y+030307
M30
