G04 Layer: TopSilkLayer*
G04 EasyEDA v6.4.7, 2020-10-05T14:23:05+01:00*
G04 2c2162e3dd23406bb5aba25b7724e7bd,81cdacc9909441f8a3d49748f20dc12b,10*
G04 Gerber Generator version 0.2*
G04 Scale: 100 percent, Rotated: No, Reflected: No *
G04 Dimensions in millimeters *
G04 leading zeros omitted , absolute positions ,3 integer and 3 decimal *
%FSLAX33Y33*%
%MOMM*%
G90*
D02*

%ADD10C,0.254000*%
%ADD14C,0.200000*%
%ADD15C,0.177800*%

%LPD*%
G54D14*
G01X4844Y19606D02*
G01X4844Y18931D01*
G01X2344Y18931D01*
G01X2344Y19606D01*
G01X4844Y20106D02*
G01X4844Y20781D01*
G01X2344Y20781D01*
G01X2344Y20106D01*
G01X16020Y28750D02*
G01X16020Y28075D01*
G01X13520Y28075D01*
G01X13520Y28750D01*
G01X16020Y29250D02*
G01X16020Y29925D01*
G01X13520Y29925D01*
G01X13520Y29250D01*
G54D10*
G01X6832Y31167D02*
G01X4368Y31167D01*
G01X4368Y34139D02*
G01X6832Y34139D01*
G01X4114Y33885D02*
G01X4114Y31446D01*
G01X7061Y31421D02*
G01X7061Y33885D01*
G54D15*
G01X3594Y22676D02*
G01X3594Y21583D01*
G01X3594Y22676D02*
G01X4061Y22676D01*
G01X4216Y22622D01*
G01X4269Y22571D01*
G01X4320Y22467D01*
G01X4320Y22363D01*
G01X4269Y22259D01*
G01X4216Y22208D01*
G01X4061Y22155D01*
G01X3594Y22155D01*
G01X3957Y22155D02*
G01X4320Y21583D01*
G01X4663Y22467D02*
G01X4767Y22518D01*
G01X4925Y22676D01*
G01X4925Y21583D01*
G01X14770Y31820D02*
G01X14770Y30727D01*
G01X14770Y31820D02*
G01X15237Y31820D01*
G01X15392Y31766D01*
G01X15445Y31715D01*
G01X15496Y31611D01*
G01X15496Y31507D01*
G01X15445Y31403D01*
G01X15392Y31352D01*
G01X15237Y31299D01*
G01X14770Y31299D01*
G01X15133Y31299D02*
G01X15496Y30727D01*
G01X15892Y31558D02*
G01X15892Y31611D01*
G01X15943Y31715D01*
G01X15996Y31766D01*
G01X16101Y31820D01*
G01X16306Y31820D01*
G01X16410Y31766D01*
G01X16464Y31715D01*
G01X16515Y31611D01*
G01X16515Y31507D01*
G01X16464Y31403D01*
G01X16360Y31248D01*
G01X15839Y30727D01*
G01X16568Y30727D01*
G01X5588Y37370D02*
G01X5588Y36590D01*
G01X5638Y36435D01*
G01X5742Y36331D01*
G01X5900Y36277D01*
G01X6004Y36277D01*
G01X6159Y36331D01*
G01X6263Y36435D01*
G01X6314Y36590D01*
G01X6314Y37370D01*
G01X6657Y37161D02*
G01X6761Y37215D01*
G01X6918Y37370D01*
G01X6918Y36277D01*
G54D10*
G75*
G01X4108Y33896D02*
G02X4358Y34146I250J0D01*
G01*
G75*
G01X6818Y34146D02*
G02X7068Y33896I0J-250D01*
G01*
G75*
G01X6818Y31176D02*
G03X7068Y31426I0J250D01*
G01*
G75*
G01X4108Y31426D02*
G03X4358Y31176I250J0D01*
G01*
G75*
G01X5258Y32006D02*
G03X5258Y32006I-330J0D01*
G01*
M00*
M02*
