G04 ---------------------------- Layer name :BOTTOM LAYER*
G04 easyEDA 0.1*
G04 Scale: 100 percent, Rotated: No, Reflected: No *
G04 Dimensions in inches *
G04 leading zeros omitted , absolute positions ,2 integer and 4 * 
%FSLAX24Y24*%
%MOIN*%
G90*
G70D02*

%ADD11C,0.007080*%
%ADD12C,0.023622*%
%ADD13C,0.027559*%
%ADD14C,0.078740*%
%ADD15C,0.024016*%
%ADD16R,0.050000X0.022000*%
%ADD17R,0.022000X0.050000*%
%ADD18R,0.137790X0.098425*%
%ADD19R,0.020100X0.031500*%
%ADD20R,0.039370X0.049212*%
%ADD21R,0.039000X0.075000*%
%ADD22R,0.039000X0.047000*%
%ADD23R,0.080000X0.080000*%
%ADD24C,0.080000*%
%ADD26C,0.039370*%
%ADD28R,0.074000X0.074000*%
%ADD29C,0.059055*%
%ADD31R,0.062000X0.062000*%
%ADD32C,0.062000*%
%ADD34C,0.051181*%

%LPD*%
G54D11*
G01X600Y12000D02*
G01X600Y11528D01*
G01X10206Y3044D02*
G01X10789Y3626D01*
G01X11721Y3626D01*
G01X11742Y3646D01*
G01X11742Y5348D01*
G01X11706Y5384D01*
G01X2603Y5275D02*
G01X2603Y5625D01*
G01X2978Y6000D01*
G01X12609Y8125D02*
G01X12551Y8182D01*
G01X12551Y8803D01*
G01X11681Y9548D01*
G01X11706Y3044D02*
G01X12556Y3894D01*
G01X12556Y8071D01*
G01X12609Y8125D01*
G01X11043Y10169D02*
G01X10584Y9690D01*
G01X9886Y9690D01*
G01X9177Y9690D01*
G01X8822Y10044D01*
G01X8694Y10044D01*
G01X8464Y9811D01*
G01X8464Y9323D01*
G01X8289Y9148D01*
G01X8000Y9148D01*
G01X7909Y9240D01*
G01X7772Y9240D01*
G01X7635Y9103D01*
G01X7635Y7969D01*
G01X4756Y3655D02*
G01X4592Y3490D01*
G01X3923Y3490D01*
G01X3544Y3111D01*
G01X3544Y2151D01*
G01X3651Y2044D01*
G01X4756Y3655D02*
G01X4756Y4315D01*
G01X5878Y5436D01*
G01X6855Y5436D01*
G01X6935Y5515D01*
G01X6935Y6069D01*
G01X5947Y3444D02*
G01X4967Y3444D01*
G01X4756Y3655D01*
G01X6046Y7757D02*
G01X6046Y6592D01*
G01X6426Y6213D01*
G01X6792Y6213D01*
G01X6935Y6069D01*
G01X6944Y7969D02*
G01X6939Y7973D01*
G01X6263Y7973D01*
G01X6046Y7757D01*
G01X4255Y7659D02*
G01X4361Y7765D01*
G01X6038Y7765D01*
G01X6046Y7757D01*
G01X11173Y10069D02*
G01X11227Y10015D01*
G01X11681Y9548D01*
G01X8300Y4219D02*
G01X8010Y4219D01*
G01X7460Y6069D02*
G01X6935Y6069D01*
G01X7635Y7340D02*
G01X7635Y6244D01*
G01X7460Y6069D01*
G01X8010Y4219D02*
G01X7460Y4769D01*
G01X7460Y6069D01*
G01X2600Y11528D02*
G01X3013Y11528D01*
G01X3407Y11132D01*
G01X3407Y9719D01*
G01X3380Y9690D01*
G01X3380Y9350D02*
G01X3380Y9009D01*
G01X3380Y9009D02*
G01X3565Y8823D01*
G01X3565Y7659D01*
G01X8200Y7340D02*
G01X7635Y7340D01*
G01X7289Y7969D02*
G01X7635Y7969D01*
G01X11043Y10169D02*
G01X10971Y10069D01*
G01X11043Y10169D02*
G01X10963Y10069D01*
G01X3380Y9350D02*
G01X3380Y9690D01*
G01X11101Y10069D02*
G01X11173Y10069D01*
G01X11706Y3044D02*
G01X11282Y3467D01*
G01X11130Y3467D01*
G01X10706Y3044D01*
G01X3909Y7659D02*
G01X4255Y7659D01*
G01X7427Y7340D02*
G01X7289Y7340D01*
G01X7427Y7340D02*
G01X7635Y7340D01*
G01X7289Y7969D02*
G01X6944Y7969D01*
G01X8200Y7340D02*
G01X8200Y7400D01*
G01X9314Y6407D02*
G01X9132Y6407D01*
G01X8200Y7340D01*
G01X2600Y12000D02*
G01X2600Y11528D01*
G01X11101Y10069D02*
G01X10971Y10069D01*
G01X3736Y7659D02*
G01X3909Y7659D01*
G01X3736Y7659D02*
G01X3565Y7659D01*
G01X5947Y3192D02*
G01X5947Y3444D01*
G01X3651Y1703D02*
G01X3651Y2044D01*
G01X12755Y8125D02*
G01X12609Y8125D01*
G01X8200Y8194D02*
G01X8335Y8057D01*
G01X9978Y8057D01*
G01X10060Y8140D01*
G01X10309Y8140D01*
G01X10814Y8644D01*
G01X10814Y8786D01*
G01X3909Y6709D02*
G01X4255Y6709D01*
G01X4348Y6644D02*
G01X4319Y6644D01*
G01X4255Y6709D01*
G01X9500Y4219D02*
G01X9500Y4550D01*
G01X9500Y4550D02*
G01X9592Y4550D01*
G01X9756Y4715D01*
G01X3186Y10844D02*
G01X3086Y10744D01*
G01X3086Y7853D01*
G01X3598Y7340D01*
G01X3598Y7340D02*
G01X3565Y7305D01*
G01X3565Y6709D01*
G01X3771Y6709D02*
G01X3909Y6709D01*
G01X3736Y7340D02*
G01X3598Y7340D01*
G01X6978Y7030D02*
G01X6944Y7063D01*
G01X6944Y7659D01*
G01X1761Y3748D02*
G01X1761Y3953D01*
G01X3771Y6709D02*
G01X3565Y6709D01*
G01X7289Y7030D02*
G01X6978Y7030D01*
G01X8200Y8194D02*
G01X8200Y7988D01*
G01X8200Y8400D02*
G01X8200Y8194D01*
G01X7289Y7659D02*
G01X7635Y7659D01*
G01X7635Y7659D02*
G01X7964Y7988D01*
G01X8200Y7988D01*
G01X7117Y7659D02*
G01X7289Y7659D01*
G01X7117Y7659D02*
G01X6944Y7659D01*
G01X3736Y7340D02*
G01X3909Y7340D01*
G01X1761Y3748D02*
G01X1761Y3542D01*
G01X1075Y2780D02*
G01X1075Y2959D01*
G01X1657Y3542D01*
G01X1761Y3542D01*
G01X1744Y2073D02*
G01X1671Y2073D01*
G01X1075Y2669D01*
G01X1075Y2780D01*
G01X746Y2780D02*
G01X1075Y2780D01*
G01X1744Y1661D02*
G01X1744Y2073D01*
G01X1744Y1661D02*
G01X2155Y1661D01*
G01X2863Y1703D02*
G01X2198Y1703D01*
G01X2155Y1661D01*
G01X6364Y7753D02*
G01X6364Y7290D01*
G01X6944Y6709D01*
G01X7289Y6709D02*
G01X6944Y6709D01*
G01X7289Y6400D02*
G01X6944Y6400D01*
G01X6944Y6400D02*
G01X6831Y6513D01*
G01X6460Y6513D01*
G01X5556Y7542D02*
G01X5556Y7073D01*
G01X4810Y6326D01*
G01X4810Y5809D01*
G01X4500Y5465D02*
G01X3530Y4494D01*
G01X3530Y3676D01*
G01X3319Y3465D01*
G01X4500Y5809D02*
G01X4500Y5465D01*
G01X3909Y6400D02*
G01X3565Y6400D01*
G01X1600Y11000D02*
G01X1600Y9992D01*
G01X994Y9384D01*
G01X2403Y4388D02*
G01X2403Y4482D01*
G01X3565Y5642D01*
G01X3565Y6400D01*
G01X4255Y8290D02*
G01X6348Y8290D01*
G01X6923Y8865D01*
G01X6923Y9178D01*
G01X8086Y10342D01*
G01X10118Y10342D01*
G01X10167Y10390D01*
G01X12772Y8773D02*
G01X12772Y8909D01*
G01X11272Y10409D01*
G01X10186Y10409D01*
G01X10167Y10390D01*
G01X3909Y8290D02*
G01X4255Y8290D01*
G01X10255Y10169D02*
G01X10167Y10390D01*
G01X6915Y9713D02*
G01X7722Y10519D01*
G01X8315Y10519D01*
G01X8375Y10578D01*
G01X11298Y10578D01*
G01X13047Y8830D01*
G01X13047Y6919D01*
G01X12777Y6651D01*
G01X4255Y8600D02*
G01X4255Y9780D01*
G01X3909Y8600D02*
G01X4255Y8600D01*
G01X4500Y9190D02*
G01X4500Y11894D01*
G01X4905Y12300D01*
G01X11161Y8982D02*
G01X11161Y6755D01*
G01X10814Y6407D01*
G01X10814Y6407D02*
G01X10814Y6267D01*
G01X10340Y5794D01*
G01X10119Y5794D01*
G01X9725Y5400D01*
G01X8200Y5400D01*
G01X5130Y9534D02*
G01X5130Y10280D01*
G01X6000Y11150D01*
G01X6000Y12115D01*
G01X6339Y12455D01*
G01X7926Y12455D01*
G01X8480Y11901D01*
G01X5130Y9190D02*
G01X5130Y9534D01*
G01X10668Y8184D02*
G01X10668Y8119D01*
G01X10314Y7765D01*
G01X10314Y6407D01*
G01X5439Y9534D02*
G01X5439Y10117D01*
G01X7230Y11907D01*
G01X7497Y11907D01*
G01X10314Y6407D02*
G01X10314Y6198D01*
G01X9990Y5876D01*
G01X8723Y5876D01*
G01X8200Y6400D01*
G01X5439Y9190D02*
G01X5439Y9534D01*
G01X6160Y10217D02*
G01X6109Y10269D01*
G01X5785Y10269D01*
G01X5577Y10061D01*
G01X5577Y9832D01*
G01X5760Y9651D01*
G01X5760Y9190D01*
G01X6069Y9534D02*
G01X7356Y10821D01*
G01X8231Y10821D01*
G01X8321Y10911D01*
G01X8400Y10911D01*
G01X9288Y11800D01*
G01X2209Y9657D02*
G01X2300Y9567D01*
G01X2300Y6359D01*
G01X378Y4438D01*
G01X378Y4284D01*
G01X5843Y10013D02*
G01X5843Y9761D01*
G01X6069Y9534D01*
G01X9493Y11800D02*
G01X9475Y11850D01*
G01X9493Y11800D02*
G01X9288Y11800D01*
G01X6069Y9363D02*
G01X6069Y9190D01*
G01X6069Y9363D02*
G01X6069Y9534D01*
G01X5264Y7357D02*
G01X5264Y7119D01*
G01X2982Y4838D01*
G01X2982Y3917D01*
G01X6389Y9534D02*
G01X7539Y10684D01*
G01X8288Y10684D01*
G01X8377Y10775D01*
G01X9138Y10775D01*
G01X9675Y10775D01*
G01X10475Y11850D01*
G01X6389Y9190D02*
G01X6389Y8844D01*
G01X6364Y8623D02*
G01X6364Y8819D01*
G01X6389Y8844D01*
G01X6389Y9363D02*
G01X6389Y9190D01*
G01X6389Y9363D02*
G01X6389Y9534D01*
G01X7227Y2038D02*
G01X7227Y2396D01*
G01X7368Y2536D01*
G01X8600Y2536D01*
G01X8600Y2536D02*
G01X8600Y3000D01*
G01X8900Y3300D01*
G01X8600Y580D02*
G01X8600Y2536D01*
G01X8900Y4569D02*
G01X9297Y4569D01*
G01X10111Y5384D01*
G01X10206Y5384D01*
G01X8900Y4100D02*
G01X8900Y4569D01*
G01X8900Y3300D02*
G01X8900Y4100D01*
G01X6935Y2038D02*
G01X7227Y2038D01*
G01X10706Y5384D02*
G01X11265Y5944D01*
G01X11335Y5944D01*
G01X11206Y5384D02*
G01X11206Y5076D01*
G01X11051Y4921D01*
G01X11206Y3044D02*
G01X11206Y2826D01*
G01X10964Y2586D01*
G01X10314Y8786D02*
G01X10314Y8588D01*
G01X9951Y8225D01*
G01X9210Y8225D01*
G01X8481Y8953D01*
G01X7868Y8953D01*
G01X2836Y10438D02*
G01X2563Y10438D01*
G01X1363Y9240D01*
G01X1363Y5738D01*
G01X384Y4759D01*
G01X11967Y8465D02*
G01X11967Y8578D01*
G01X11181Y9363D01*
G01X10696Y9363D01*
G01X10314Y8980D01*
G01X10314Y8786D01*
G01X11967Y8296D02*
G01X11967Y8125D01*
G01X11967Y8296D02*
G01X11967Y8465D01*
G01X1815Y5615D02*
G01X1959Y5615D01*
G01X2657Y6313D01*
G01X1815Y5275D02*
G01X1815Y5615D01*
G01X8034Y3119D02*
G01X7200Y3953D01*
G01X7200Y5217D01*
G01X9814Y8786D02*
G01X9814Y8928D01*
G01X10431Y9546D01*
G01X11210Y9546D01*
G01X12259Y8496D01*
G01X12259Y7186D01*
G01X10952Y5880D01*
G01X10700Y5880D01*
G01X10493Y5673D01*
G01X10493Y5065D01*
G01X9856Y4428D01*
G01X9856Y3148D01*
G01X9268Y2561D01*
G01X1815Y5275D02*
G01X1523Y5275D01*
G01X1523Y5275D02*
G01X1309Y5061D01*
G01X1309Y3886D01*
G01X871Y3448D01*
G01X759Y3448D01*
G01X315Y3005D01*
G01X315Y2088D01*
G01X744Y1661D01*
G01X1746Y2780D02*
G01X2157Y2780D01*
G01X7938Y2759D02*
G01X7026Y2759D01*
G01X6600Y2332D01*
G01X6600Y2144D01*
G01X6469Y2013D01*
G01X4615Y2013D01*
G01X4394Y1792D01*
G01X4394Y1653D01*
G01X4094Y1355D01*
G01X3405Y1355D01*
G01X3155Y1603D01*
G01X3155Y2009D01*
G01X2401Y2763D01*
G01X2173Y2763D01*
G01X2157Y2780D01*
G01X10152Y7917D02*
G01X9771Y7917D01*
G01X8856Y7003D01*
G01X8752Y9780D02*
G01X9314Y9219D01*
G01X9314Y8786D01*
G01X7547Y1355D02*
G01X5580Y1355D01*
G01X5580Y1607D02*
G01X5580Y1355D01*
G01X7723Y2038D02*
G01X7723Y1532D01*
G01X7547Y1355D01*
G01X7547Y1355D02*
G01X7855Y1046D01*
G01X7855Y417D01*
G01X7563Y417D02*
G01X7855Y417D01*
G01X5210Y1607D02*
G01X4789Y1607D01*
G01X4753Y1644D01*
G01X4173Y1857D02*
G01X4173Y2155D01*
G01X5209Y3192D01*
G01X5210Y1498D02*
G01X5210Y1607D01*
G01X5210Y1498D02*
G01X5210Y1390D01*
G01X5210Y1390D02*
G01X6182Y417D01*
G01X6775Y417D01*
G01X6921Y417D02*
G01X6775Y417D01*
G01X6921Y417D02*
G01X7067Y417D01*
G01X7067Y417D02*
G01X7185Y298D01*
G01X7185Y167D01*
G01X5209Y4332D02*
G01X5209Y4355D01*
G01X5438Y4584D01*
G01X6089Y4584D01*
G01X6444Y4228D01*
G01X6444Y2617D01*
G01X6185Y2359D01*
G01X5347Y2359D01*
G01X5210Y2496D01*
G01X5210Y2748D02*
G01X5210Y2496D01*
G01X2288Y2986D02*
G01X2182Y3090D01*
G01X2182Y5525D01*
G01X2884Y6226D01*
G01X2884Y9350D01*
G01X5580Y2748D02*
G01X5580Y2496D01*
G01X2592Y9350D02*
G01X2884Y9350D01*
G01X6377Y2236D02*
G01X6363Y2221D01*
G01X4831Y2221D01*
G01X4710Y2340D01*
G01X6223Y3688D02*
G01X6302Y3609D01*
G01X6302Y2669D01*
G01X6130Y2496D01*
G01X5580Y2496D01*
G01X5948Y2748D02*
G01X6143Y2944D01*
G01X6143Y3455D01*
G01X5947Y3651D01*
G01X5947Y4080D01*
G01X5947Y4332D02*
G01X5947Y4080D01*
G01X600Y11528D02*
G01X1051Y11528D01*
G01X1071Y11507D01*
G01X1071Y10000D01*
G01X155Y9084D01*
G01X155Y1621D01*
G01X565Y1209D01*
G01X4190Y1209D01*
G01X4531Y1551D01*
G01X4531Y1736D01*
G01X4661Y1865D01*
G01X6285Y1865D01*
G01X6453Y1698D01*
G01X7227Y1698D01*
G01X7402Y1871D01*
G01X7402Y2301D01*
G01X7481Y2380D01*
G01X7996Y2380D01*
G01X8139Y2236D01*
G01X8139Y269D01*
G01X8239Y167D01*
G01X8990Y167D01*
G01X9011Y188D01*
G01X9011Y1850D01*
G01X10206Y3044D01*
G54D12*
G01X10206Y5580D02*
G01X10206Y5187D01*
G01X10706Y5580D02*
G01X10706Y5187D01*
G01X11206Y5580D02*
G01X11206Y5187D01*
G01X11706Y5580D02*
G01X11706Y5187D01*
G01X10206Y3240D02*
G01X10206Y2847D01*
G01X10706Y3240D02*
G01X10706Y2847D01*
G01X11206Y3240D02*
G01X11206Y2847D01*
G01X11706Y3240D02*
G01X11706Y2847D01*
G54D13*
G01X10814Y6702D02*
G01X10814Y6111D01*
G01X10314Y6702D02*
G01X10314Y6111D01*
G01X9814Y6702D02*
G01X9814Y6111D01*
G01X9314Y6702D02*
G01X9314Y6111D01*
G01X10814Y9082D02*
G01X10814Y8491D01*
G01X10314Y9082D02*
G01X10314Y8491D01*
G01X9814Y9082D02*
G01X9814Y8491D01*
G01X9314Y9082D02*
G01X9314Y8491D01*
G54D14*
G01X8900Y3595D02*
G01X8900Y3004D01*
G54D16*
G01X7289Y8600D03*
G01X7289Y8290D03*
G01X7289Y7969D03*
G01X7289Y7659D03*
G01X7289Y7340D03*
G01X7289Y7030D03*
G01X7289Y6709D03*
G01X7289Y6400D03*
G54D17*
G01X6700Y5809D03*
G01X6389Y5809D03*
G01X6069Y5809D03*
G01X5760Y5809D03*
G01X5439Y5809D03*
G01X5130Y5809D03*
G01X4810Y5809D03*
G01X4500Y5809D03*
G54D16*
G01X3909Y6400D03*
G01X3909Y6709D03*
G01X3909Y7030D03*
G01X3909Y7340D03*
G01X3909Y7659D03*
G01X3909Y7969D03*
G01X3909Y8290D03*
G01X3909Y8600D03*
G54D17*
G01X4500Y9190D03*
G01X4810Y9190D03*
G01X5130Y9190D03*
G01X5439Y9190D03*
G01X5760Y9190D03*
G01X6069Y9190D03*
G01X6389Y9190D03*
G01X6700Y9190D03*
G54D18*
G01X10956Y4213D03*
G54D19*
G01X5948Y1609D03*
G01X5578Y1609D03*
G01X5209Y1609D03*
G01X5209Y2748D03*
G01X5578Y2748D03*
G01X5948Y2748D03*
G54D20*
G01X7723Y2038D03*
G01X6935Y2038D03*
G01X7563Y417D03*
G01X6775Y417D03*
G54D19*
G01X5207Y4332D03*
G01X5577Y4332D03*
G01X5947Y4332D03*
G01X5947Y3192D03*
G01X5577Y3192D03*
G01X5207Y3192D03*
G54D20*
G01X3380Y9350D03*
G01X2592Y9350D03*
G01X2603Y5275D03*
G01X1815Y5275D03*
G01X12755Y8125D03*
G01X11967Y8125D03*
G01X2863Y1703D03*
G01X3651Y1703D03*
G54D21*
G01X8900Y4100D03*
G54D22*
G01X8300Y4219D03*
G01X9500Y4219D03*
G54D20*
G01X11042Y10169D03*
G01X10255Y10169D03*
G54D23*
G01X5498Y11907D03*
G54D24*
G01X6502Y11903D03*
G01X7497Y11907D03*
G01X8480Y11901D03*
G54D26*
G01X8164Y9448D03*
G01X8164Y9919D03*
G54D28*
G01X600Y11000D03*
G01X600Y12000D03*
G01X1600Y11000D03*
G01X1600Y12000D03*
G01X2600Y11000D03*
G01X2600Y12000D03*
G54D29*
G01X1867Y8448D03*
G01X1867Y6542D03*
G54D31*
G01X8600Y580D03*
G01X9903Y576D03*
G01X1761Y3953D03*
G54D32*
G01X761Y3953D03*
G54D31*
G01X1744Y1661D03*
G54D32*
G01X744Y1661D03*
G54D31*
G01X1746Y2780D03*
G54D32*
G01X746Y2780D03*
G54D31*
G01X9475Y11850D03*
G54D32*
G01X10475Y11850D03*
G54D31*
G01X4000Y11800D03*
G01X8200Y8400D03*
G54D32*
G01X8200Y7400D03*
G01X8200Y6400D03*
G01X8200Y5400D03*
G54D31*
G01X3982Y3917D03*
G54D32*
G01X2982Y3917D03*
G54D31*
G01X3984Y2786D03*
G54D32*
G01X2984Y2786D03*
G54D15*
G01X2978Y6000D03*
G01X11681Y9548D03*
G01X4348Y6644D03*
G01X9756Y4715D03*
G01X3186Y10844D03*
G01X6364Y7753D03*
G01X6460Y6513D03*
G01X5556Y7542D03*
G01X3319Y3465D03*
G01X2403Y4388D03*
G01X994Y9384D03*
G01X12772Y8773D03*
G01X12777Y6651D03*
G01X6915Y9713D03*
G01X4255Y9780D03*
G01X4905Y12300D03*
G01X11161Y8982D03*
G01X10668Y8184D03*
G01X6160Y10217D03*
G01X5843Y10013D03*
G01X2209Y9657D03*
G01X378Y4284D03*
G01X6364Y8623D03*
G01X5264Y7357D03*
G01X11335Y5944D03*
G01X11051Y4921D03*
G01X10964Y2586D03*
G01X384Y4759D03*
G01X2836Y10438D03*
G01X7868Y8953D03*
G01X2657Y6313D03*
G01X7200Y5217D03*
G01X8034Y3119D03*
G01X9268Y2561D03*
G01X10152Y7917D03*
G01X8856Y7003D03*
G01X7938Y2759D03*
G01X8752Y9780D03*
G01X4173Y1857D03*
G01X4753Y1644D03*
G01X7185Y167D03*
G01X6223Y3688D03*
G01X6377Y2236D03*
G01X4710Y2340D03*
G01X2288Y2986D03*
G54D23*
G01X5498Y11907D03*
G54D24*
G01X6502Y11903D03*
G01X7497Y11907D03*
G01X8480Y11901D03*
G54D26*
G01X8164Y9448D03*
G01X8164Y9919D03*
G54D28*
G01X600Y11000D03*
G01X600Y12000D03*
G01X1600Y11000D03*
G01X1600Y12000D03*
G01X2600Y11000D03*
G01X2600Y12000D03*
G54D29*
G01X1867Y8448D03*
G01X1867Y6542D03*
G54D31*
G01X8600Y580D03*
G01X9903Y576D03*
G01X1761Y3953D03*
G54D32*
G01X761Y3953D03*
G54D31*
G01X1744Y1661D03*
G54D32*
G01X744Y1661D03*
G54D31*
G01X1746Y2780D03*
G54D32*
G01X746Y2780D03*
G54D31*
G01X9475Y11850D03*
G54D32*
G01X10475Y11850D03*
G54D31*
G01X4000Y11800D03*
G01X8200Y8400D03*
G54D32*
G01X8200Y7400D03*
G01X8200Y6400D03*
G01X8200Y5400D03*
G54D31*
G01X3982Y3917D03*
G54D32*
G01X2982Y3917D03*
G54D31*
G01X3984Y2786D03*
G54D32*
G01X2984Y2786D03*
G54D34*
G01X981Y6075D02*
G01X626Y6075D01*
G01X981Y8925D02*
G01X626Y8925D01*

M00*
M02*