G04 ---------------------------- Layer name :TOP LAYER*
G04 easyEDA 0.1*
G04 Scale: 100 percent, Rotated: No, Reflected: No *
G04 Dimensions in inches *
G04 leading zeros omitted , absolute positions ,2 integer and 4 * 
%FSLAX24Y24*%
%MOIN*%
G90*
G70D02*

%ADD11C,0.007080*%
%ADD12C,0.027559*%
%ADD13C,0.024016*%
%ADD14R,0.039370X0.049212*%
%ADD15R,0.049212X0.039370*%
%ADD16R,0.031496X0.057086*%
%ADD17R,0.050000X0.035433*%
%ADD18R,0.094488X0.074803*%
%ADD19R,0.078740X0.017716*%
%ADD20R,0.047240X0.062992*%
%ADD21R,0.033500X0.118100*%
%ADD22R,0.118100X0.033500*%
%ADD23R,0.080000X0.080000*%
%ADD24C,0.080000*%
%ADD26C,0.039370*%
%ADD28R,0.074000X0.074000*%
%ADD29C,0.059055*%
%ADD31R,0.062000X0.062000*%
%ADD32C,0.062000*%
%ADD34C,0.051181*%

%LPD*%
G54D11*
G01X934Y9832D02*
G01X1071Y9969D01*
G01X1071Y11507D01*
G01X1051Y11528D01*
G01X600Y11528D01*
G01X2594Y8169D02*
G01X2594Y8319D01*
G01X1521Y9392D01*
G01X1309Y9392D01*
G01X934Y9769D01*
G01X934Y9832D01*
G01X2869Y8169D02*
G01X2869Y8015D01*
G01X2594Y8169D02*
G01X2869Y8169D01*
G01X673Y9832D02*
G01X934Y9832D01*
G01X2176Y8015D02*
G01X2440Y8015D01*
G01X2594Y8169D01*
G01X2401Y6000D02*
G01X2401Y6617D01*
G01X2600Y6817D01*
G01X2401Y5905D02*
G01X2401Y6000D01*
G01X2401Y6000D02*
G01X2978Y6000D01*
G01X4835Y2082D02*
G01X1342Y2082D01*
G01X1332Y2073D01*
G01X1332Y1655D01*
G01X882Y1205D01*
G01X430Y1205D01*
G01X7160Y4588D02*
G01X6713Y4588D01*
G01X4950Y2826D01*
G01X4950Y2198D01*
G01X4835Y2082D01*
G01X4835Y2082D02*
G01X4976Y1942D01*
G01X4976Y1321D01*
G01X4860Y1205D01*
G01X4860Y519D02*
G01X4860Y1205D01*
G01X430Y519D02*
G01X430Y1205D01*
G01X7385Y4588D02*
G01X7160Y4588D01*
G01X7385Y4588D02*
G01X7788Y4588D01*
G01X3505Y7130D02*
G01X3505Y8167D01*
G01X2492Y9180D01*
G01X2140Y9180D01*
G01X1753Y9565D01*
G01X1753Y9832D01*
G01X3367Y6992D02*
G01X3505Y7130D01*
G01X3505Y7130D02*
G01X6915Y7130D01*
G01X7093Y6953D01*
G01X11959Y6446D02*
G01X11114Y6446D01*
G01X9651Y7911D01*
G01X9318Y7911D01*
G01X7788Y4588D02*
G01X7852Y4588D01*
G01X10227Y2215D01*
G01X10519Y2215D02*
G01X10227Y2215D01*
G01X7434Y6661D02*
G01X7434Y4942D01*
G01X7788Y4588D01*
G01X10665Y2215D02*
G01X10519Y2215D01*
G01X8200Y7400D02*
G01X8806Y7400D01*
G01X9318Y7911D01*
G01X11205Y10150D02*
G01X11681Y9548D01*
G01X10913Y10150D02*
G01X11205Y10150D01*
G01X4996Y11907D02*
G01X4913Y11907D01*
G01X4471Y12348D01*
G01X3421Y12348D01*
G01X3071Y12000D01*
G01X7093Y6953D02*
G01X7539Y7400D01*
G01X8200Y7400D01*
G01X7093Y6661D02*
G01X7093Y6953D01*
G01X7165Y6661D02*
G01X7093Y6661D01*
G01X7165Y6661D02*
G01X7434Y6661D01*
G01X2878Y6992D02*
G01X3367Y6992D01*
G01X2875Y6819D02*
G01X2878Y6823D01*
G01X2878Y6992D01*
G01X2401Y5219D02*
G01X2401Y5905D01*
G01X6534Y9440D02*
G01X6534Y9065D01*
G01X8200Y7400D01*
G01X2600Y6817D02*
G01X2873Y6817D01*
G01X2875Y6819D01*
G01X2600Y12000D02*
G01X3071Y12000D01*
G01X5497Y11907D02*
G01X4996Y11907D01*
G01X1461Y9832D02*
G01X1753Y9832D01*
G01X2176Y6992D02*
G01X2426Y6992D01*
G01X2600Y6817D01*
G01X10665Y2215D02*
G01X10811Y2215D01*
G01X11486Y909D02*
G01X11194Y909D01*
G01X11194Y909D02*
G01X10811Y1292D01*
G01X10811Y2215D01*
G01X11959Y6155D02*
G01X11959Y6446D01*
G01X2890Y4559D02*
G01X2284Y3953D01*
G01X1761Y3953D01*
G01X2890Y4876D02*
G01X2890Y4559D01*
G01X2890Y4559D02*
G01X2890Y4534D01*
G01X6502Y10844D02*
G01X6502Y10632D01*
G01X8200Y8936D01*
G01X8200Y8811D01*
G01X3380Y5905D02*
G01X4119Y6644D01*
G01X4348Y6644D01*
G01X12397Y7673D02*
G01X10081Y7673D01*
G01X9930Y7826D01*
G01X9930Y7861D01*
G01X9381Y8411D01*
G01X9318Y8411D01*
G01X3186Y10844D02*
G01X6502Y10844D01*
G01X6502Y11903D02*
G01X6502Y10844D01*
G01X8200Y8400D02*
G01X8200Y8811D01*
G01X3380Y5219D02*
G01X3380Y5905D01*
G01X3380Y4876D02*
G01X3380Y5219D01*
G01X12922Y5238D02*
G01X11673Y5238D01*
G01X11514Y5396D01*
G01X9377Y5396D01*
G01X9377Y5055D02*
G01X9669Y5055D01*
G01X9756Y4715D02*
G01X9669Y4801D01*
G01X9669Y5055D01*
G01X12910Y6938D02*
G01X13256Y6592D01*
G01X13256Y5321D01*
G01X13172Y5238D01*
G01X12922Y5238D01*
G01X12922Y3807D02*
G01X12922Y5238D01*
G01X12922Y10867D02*
G01X12922Y10596D01*
G01X12089Y8911D02*
G01X12222Y9044D01*
G01X12222Y9896D01*
G01X12922Y10596D01*
G01X8200Y8400D02*
G01X9306Y8400D01*
G01X9318Y8411D01*
G01X12910Y7209D02*
G01X12910Y7482D01*
G01X12910Y7482D02*
G01X12589Y7482D01*
G01X12397Y7673D01*
G01X12089Y8911D02*
G01X12397Y8603D01*
G01X12397Y7673D01*
G01X12922Y3534D02*
G01X12922Y3807D01*
G01X12910Y7209D02*
G01X12910Y6938D01*
G01X3380Y4876D02*
G01X3380Y4534D01*
G01X11757Y8911D02*
G01X12089Y8911D01*
G01X9377Y5396D02*
G01X9302Y5471D01*
G01X9302Y6805D01*
G01X9377Y5055D02*
G01X9377Y5396D01*
G01X1411Y519D02*
G01X1411Y1205D01*
G01X1411Y1205D02*
G01X1700Y1205D01*
G01X1744Y1248D01*
G01X1744Y1661D02*
G01X1744Y1248D01*
G01X921Y519D02*
G01X1411Y519D01*
G01X2890Y5219D02*
G01X2890Y4876D01*
G01X2890Y4534D02*
G01X3380Y4534D01*
G01X5600Y8273D02*
G01X5843Y8273D01*
G01X6364Y7753D01*
G01X5600Y8273D02*
G01X5600Y8682D01*
G01X5600Y8213D02*
G01X5600Y8273D01*
G01X5600Y8682D02*
G01X5747Y8830D01*
G01X5747Y9440D01*
G01X6460Y6513D02*
G01X6806Y6165D01*
G01X7093Y6165D01*
G01X6460Y6513D02*
G01X6253Y6513D01*
G01X6167Y6600D01*
G01X7093Y6019D02*
G01X7093Y5873D01*
G01X7093Y6019D02*
G01X7093Y6165D01*
G01X5600Y6600D02*
G01X6167Y6600D01*
G01X5556Y7542D02*
G01X5355Y7744D01*
G01X4376Y7744D01*
G01X2755Y9365D01*
G01X2148Y9365D01*
G01X1982Y9532D01*
G01X1982Y10234D01*
G01X2071Y10325D01*
G01X2071Y11507D01*
G01X2051Y11528D01*
G01X1600Y11528D01*
G01X1600Y12000D02*
G01X1600Y11528D01*
G01X600Y10528D02*
G01X146Y10075D01*
G01X146Y5353D01*
G01X1348Y4150D01*
G01X1348Y3601D01*
G01X1484Y3465D01*
G01X3319Y3465D01*
G01X600Y11000D02*
G01X600Y10528D01*
G01X994Y9384D02*
G01X1026Y9384D01*
G01X1336Y9073D01*
G01X1336Y5376D01*
G01X2326Y4388D01*
G01X2403Y4388D01*
G01X12922Y8942D02*
G01X12772Y8792D01*
G01X12772Y8773D01*
G01X12922Y9213D02*
G01X12922Y8942D01*
G01X12910Y5828D02*
G01X12777Y5961D01*
G01X12777Y6651D01*
G01X11959Y6651D02*
G01X12777Y6651D01*
G01X11959Y6942D02*
G01X11959Y6651D01*
G01X6915Y9713D02*
G01X6847Y9780D01*
G01X4255Y9780D01*
G01X12910Y5555D02*
G01X12910Y5828D01*
G01X12922Y1880D02*
G01X12922Y2153D01*
G01X12922Y2153D02*
G01X13398Y2628D01*
G01X13398Y11023D01*
G01X11967Y12455D01*
G01X5060Y12455D01*
G01X4905Y12300D01*
G01X12922Y1744D02*
G01X12922Y1880D01*
G01X12922Y1744D02*
G01X12922Y1609D01*
G01X12273Y909D02*
G01X12565Y909D01*
G01X12565Y909D02*
G01X12565Y1251D01*
G01X12922Y1609D01*
G01X11161Y8982D02*
G01X10568Y9576D01*
G01X10568Y10517D01*
G01X10452Y10634D01*
G01X9746Y10634D01*
G01X8480Y11901D01*
G01X11757Y7911D02*
G01X11864Y7911D01*
G01X12218Y8265D01*
G01X12218Y8507D01*
G01X12064Y8661D01*
G01X11426Y8661D01*
G01X11161Y8925D01*
G01X11161Y8982D01*
G01X11156Y8673D02*
G01X10668Y8184D01*
G01X11156Y8673D02*
G01X10417Y9413D01*
G01X10417Y10476D01*
G01X10394Y10498D01*
G01X8906Y10498D01*
G01X7497Y11907D01*
G01X11757Y8411D02*
G01X11418Y8411D01*
G01X11156Y8673D01*
G01X2613Y9917D02*
G01X2905Y9917D01*
G01X2905Y9917D02*
G01X2905Y9773D01*
G01X3146Y9532D01*
G01X3617Y9532D01*
G01X3803Y9717D01*
G01X3803Y9934D01*
G01X4103Y10234D01*
G01X6143Y10234D01*
G01X6160Y10217D01*
G01X2600Y10528D02*
G01X2613Y10515D01*
G01X2613Y9917D01*
G01X2600Y11000D02*
G01X2600Y10528D01*
G01X378Y4284D02*
G01X348Y4257D01*
G01X348Y3761D01*
G01X903Y3207D01*
G01X2563Y3207D01*
G01X2984Y2786D01*
G01X5843Y10013D02*
G01X4098Y10013D01*
G01X3988Y9903D01*
G01X3988Y9709D01*
G01X3675Y9396D01*
G01X2955Y9396D01*
G01X2819Y9532D01*
G01X2334Y9532D01*
G01X2209Y9657D01*
G01X6364Y8623D02*
G01X6607Y8380D01*
G01X6607Y7661D01*
G01X6267Y7321D01*
G01X5300Y7321D01*
G01X5264Y7357D01*
G01X8164Y9448D02*
G01X8702Y8911D01*
G01X9318Y8911D01*
G01X8164Y9919D02*
G01X8673Y9411D01*
G01X9318Y9411D01*
G01X10910Y5944D02*
G01X11335Y5944D01*
G01X12101Y4475D02*
G01X11809Y4475D01*
G01X11809Y4475D02*
G01X11809Y4621D01*
G01X11507Y4921D01*
G01X11051Y4921D01*
G01X11307Y2215D02*
G01X11307Y2555D01*
G01X11307Y2555D02*
G01X10994Y2555D01*
G01X10964Y2586D01*
G01X10165Y5055D02*
G01X10457Y5055D01*
G01X11314Y4475D02*
G01X11022Y4475D01*
G01X10457Y5055D02*
G01X10457Y5038D01*
G01X11022Y4475D01*
G01X10090Y6805D02*
G01X10090Y6463D01*
G01X10090Y6463D02*
G01X10123Y6430D01*
G01X10123Y5944D01*
G01X2836Y10438D02*
G01X6502Y10438D01*
G01X7868Y9073D01*
G01X7868Y8953D01*
G01X384Y4759D02*
G01X761Y4382D01*
G01X761Y3953D01*
G01X2657Y6313D02*
G01X3432Y6313D01*
G01X4025Y6905D01*
G01X4476Y6905D01*
G01X4648Y6732D01*
G01X4648Y6559D01*
G01X5284Y5926D01*
G01X6572Y5926D01*
G01X6593Y5905D01*
G01X6593Y5748D01*
G01X7126Y5217D01*
G01X7200Y5217D01*
G01X9268Y2561D02*
G01X8710Y3119D01*
G01X8034Y3119D01*
G01X8856Y7003D02*
G01X8856Y4965D01*
G01X9119Y4703D01*
G01X9447Y4703D01*
G01X11777Y2371D01*
G01X11777Y588D01*
G01X11757Y569D01*
G01X11111Y569D01*
G01X10364Y1315D01*
G01X9381Y1315D01*
G01X7938Y2759D01*
G01X10152Y7917D02*
G01X10152Y9782D01*
G01X10125Y9809D01*
G01X10125Y9809D02*
G01X8780Y9809D01*
G01X8752Y9780D01*
G01X10125Y10150D02*
G01X10125Y9809D01*
G01X4753Y1644D02*
G01X4384Y1644D01*
G01X4173Y1857D01*
G01X9903Y576D02*
G01X9492Y576D01*
G01X9492Y576D02*
G01X9085Y167D01*
G01X7185Y167D01*
G01X4710Y2340D02*
G01X2769Y2340D01*
G01X2288Y2823D01*
G01X2288Y2986D01*
G01X6223Y3688D02*
G01X6223Y2390D01*
G01X6377Y2236D01*
G01X4394Y3917D02*
G01X5225Y3917D01*
G01X5840Y4534D01*
G01X3982Y3917D02*
G01X4394Y3917D01*
G01X5840Y5219D02*
G01X5840Y4534D01*
G01X5351Y4534D02*
G01X3826Y4534D01*
G01X3526Y4234D01*
G01X3526Y3573D01*
G01X3901Y3198D01*
G01X3984Y3198D01*
G01X3984Y2786D02*
G01X3984Y3198D01*
G01X5351Y5219D02*
G01X5351Y4534D01*
G01X600Y12000D02*
G01X600Y11528D01*
G54D12*
G01X11541Y7911D02*
G01X11974Y7911D01*
G01X11541Y8411D02*
G01X11974Y8411D01*
G01X11541Y8911D02*
G01X11974Y8911D01*
G01X11541Y9411D02*
G01X11974Y9411D01*
G01X9101Y7911D02*
G01X9534Y7911D01*
G01X9101Y8411D02*
G01X9534Y8411D01*
G01X9101Y8911D02*
G01X9534Y8911D01*
G01X9101Y9411D02*
G01X9534Y9411D01*
G54D14*
G01X5746Y9440D03*
G01X6534Y9440D03*
G54D15*
G01X7093Y6661D03*
G01X7093Y5873D03*
G54D16*
G01X13661Y8715D03*
G01X13661Y11371D03*
G54D17*
G01X12922Y9213D03*
G01X12922Y10867D03*
G54D16*
G01X13651Y5057D03*
G01X13651Y7713D03*
G54D17*
G01X12910Y5555D03*
G01X12910Y7209D03*
G54D16*
G01X13663Y1382D03*
G01X13663Y4038D03*
G54D17*
G01X12922Y1880D03*
G01X12922Y3534D03*
G54D18*
G01X5600Y6600D03*
G01X5600Y8213D03*
G54D14*
G01X11313Y4475D03*
G01X12101Y4475D03*
G01X1461Y9832D03*
G01X673Y9832D03*
G01X10122Y5944D03*
G01X10910Y5944D03*
G01X10090Y6805D03*
G01X9302Y6805D03*
G01X10165Y5055D03*
G01X9377Y5055D03*
G54D19*
G01X2176Y6992D03*
G01X2176Y7248D03*
G01X2176Y7503D03*
G01X2176Y7759D03*
G01X2176Y8015D03*
G54D20*
G01X478Y6871D03*
G01X484Y8163D03*
G54D14*
G01X10519Y2215D03*
G01X11307Y2215D03*
G01X10913Y10150D03*
G01X10125Y10150D03*
G01X3401Y9917D03*
G01X2613Y9917D03*
G01X11485Y909D03*
G01X12273Y909D03*
G54D15*
G01X11959Y6155D03*
G01X11959Y6942D03*
G54D21*
G01X6330Y519D03*
G01X5839Y519D03*
G01X5350Y519D03*
G01X4860Y519D03*
G01X4369Y519D03*
G01X3869Y519D03*
G01X3380Y519D03*
G01X2890Y519D03*
G01X2400Y519D03*
G01X1900Y519D03*
G01X1409Y519D03*
G01X919Y519D03*
G01X430Y519D03*
G01X6330Y5219D03*
G01X5839Y5219D03*
G01X5350Y5219D03*
G01X4860Y5219D03*
G01X4369Y5219D03*
G01X3869Y5219D03*
G01X3380Y5219D03*
G01X2890Y5219D03*
G01X2400Y5219D03*
G54D22*
G01X7160Y1150D03*
G01X7160Y1640D03*
G01X7160Y2130D03*
G01X7160Y2630D03*
G01X7160Y3119D03*
G01X7160Y3609D03*
G01X7160Y4100D03*
G01X7160Y4590D03*
G54D19*
G01X2869Y8015D03*
G01X2878Y6992D03*
G01X2594Y8169D03*
G01X2600Y6817D03*
G01X2869Y8169D03*
G01X2875Y6819D03*
G54D23*
G01X5498Y11907D03*
G54D24*
G01X6502Y11903D03*
G01X7497Y11907D03*
G01X8480Y11901D03*
G54D26*
G01X8164Y9448D03*
G01X8164Y9919D03*
G54D28*
G01X600Y11000D03*
G01X600Y12000D03*
G01X1600Y11000D03*
G01X1600Y12000D03*
G01X2600Y11000D03*
G01X2600Y12000D03*
G54D29*
G01X1867Y8448D03*
G01X1867Y6542D03*
G54D31*
G01X8600Y580D03*
G01X9903Y576D03*
G01X1761Y3953D03*
G54D32*
G01X761Y3953D03*
G54D31*
G01X1744Y1661D03*
G54D32*
G01X744Y1661D03*
G54D31*
G01X1746Y2780D03*
G54D32*
G01X746Y2780D03*
G54D31*
G01X9475Y11850D03*
G54D32*
G01X10475Y11850D03*
G54D31*
G01X4000Y11800D03*
G01X8200Y8400D03*
G54D32*
G01X8200Y7400D03*
G01X8200Y6400D03*
G01X8200Y5400D03*
G54D31*
G01X3982Y3917D03*
G54D32*
G01X2982Y3917D03*
G54D31*
G01X3984Y2786D03*
G54D32*
G01X2984Y2786D03*
G54D13*
G01X2978Y6000D03*
G01X11681Y9548D03*
G01X4348Y6644D03*
G01X9756Y4715D03*
G01X3186Y10844D03*
G01X6364Y7753D03*
G01X6460Y6513D03*
G01X5556Y7542D03*
G01X3319Y3465D03*
G01X2403Y4388D03*
G01X994Y9384D03*
G01X12772Y8773D03*
G01X12777Y6651D03*
G01X6915Y9713D03*
G01X4255Y9780D03*
G01X4905Y12300D03*
G01X11161Y8982D03*
G01X10668Y8184D03*
G01X6160Y10217D03*
G01X5843Y10013D03*
G01X2209Y9657D03*
G01X378Y4284D03*
G01X6364Y8623D03*
G01X5264Y7357D03*
G01X11335Y5944D03*
G01X11051Y4921D03*
G01X10964Y2586D03*
G01X384Y4759D03*
G01X2836Y10438D03*
G01X7868Y8953D03*
G01X2657Y6313D03*
G01X7200Y5217D03*
G01X8034Y3119D03*
G01X9268Y2561D03*
G01X10152Y7917D03*
G01X8856Y7003D03*
G01X7938Y2759D03*
G01X8752Y9780D03*
G01X4173Y1857D03*
G01X4753Y1644D03*
G01X7185Y167D03*
G01X6223Y3688D03*
G01X6377Y2236D03*
G01X4710Y2340D03*
G01X2288Y2986D03*
G54D23*
G01X5498Y11907D03*
G54D24*
G01X6502Y11903D03*
G01X7497Y11907D03*
G01X8480Y11901D03*
G54D26*
G01X8164Y9448D03*
G01X8164Y9919D03*
G54D28*
G01X600Y11000D03*
G01X600Y12000D03*
G01X1600Y11000D03*
G01X1600Y12000D03*
G01X2600Y11000D03*
G01X2600Y12000D03*
G54D29*
G01X1867Y8448D03*
G01X1867Y6542D03*
G54D31*
G01X8600Y580D03*
G01X9903Y576D03*
G01X1761Y3953D03*
G54D32*
G01X761Y3953D03*
G54D31*
G01X1744Y1661D03*
G54D32*
G01X744Y1661D03*
G54D31*
G01X1746Y2780D03*
G54D32*
G01X746Y2780D03*
G54D31*
G01X9475Y11850D03*
G54D32*
G01X10475Y11850D03*
G54D31*
G01X4000Y11800D03*
G01X8200Y8400D03*
G54D32*
G01X8200Y7400D03*
G01X8200Y6400D03*
G01X8200Y5400D03*
G54D31*
G01X3982Y3917D03*
G54D32*
G01X2982Y3917D03*
G54D31*
G01X3984Y2786D03*
G54D32*
G01X2984Y2786D03*
G54D34*
G01X981Y6075D02*
G01X626Y6075D01*
G01X981Y8925D02*
G01X626Y8925D01*

M00*
M02*