;PTH Drill file created by EasyEDA 
M48
;Holesize 1 = 0.042 INCH
T01C0.042
;Holesize 2 = 0.020 INCH
T02C0.020
;Holesize 3 = 0.040 INCH
T03C0.040
;Holesize 4 = 0.028 INCH
T04C0.028
;Holesize 5 = 0.035 INCH
T05C0.035
;Holesize 6 = 0.035 INCH
T06C0.035
;Holesize 7 = 0.012 INCH
T07C0.012
INCH,00.0000
%
G05
G90
T01
X005498Y011907
X006502Y011903
X007497Y011907
X008480Y011901
T02
X008164Y009448
X008164Y009919
T03
X000600Y011000
X000600Y012000
X001600Y011000
X001600Y012000
X002600Y011000
X002600Y012000
T04
X000646Y006075G85X000961Y006075
X000646Y008925G85X000961Y008925
T05
X001867Y008448
X001867Y006542
T06
X008600Y000580
X009903Y000576
X001761Y003953
X000761Y003953
X001744Y001661
X000744Y001661
X001746Y002780
X000746Y002780
X009475Y011850
X010475Y011850
X004000Y011800
X008200Y008400
X008200Y007400
X008200Y006400
X008200Y005400
X003982Y003917
X002982Y003917
X003984Y002786
X002984Y002786
T07
X002978Y006000
X011681Y009548
X004348Y006644
X009756Y004715
X003186Y010844
X006364Y007753
X006460Y006513
X005556Y007542
X003319Y003465
X002403Y004388
X000994Y009384
X012772Y008773
X012777Y006651
X006915Y009713
X004255Y009780
X004905Y012300
X011161Y008982
X010668Y008184
X006160Y010217
X005843Y010013
X002209Y009657
X000378Y004284
X006364Y008623
X005264Y007357
X011335Y005944
X011051Y004921
X010964Y002586
X000384Y004759
X002836Y010438
X007868Y008953
X002657Y006313
X007200Y005217
X008034Y003119
X009268Y002561
X010152Y007917
X008856Y007003
X007938Y002759
X008752Y009780
X004173Y001857
X004753Y001644
X007185Y000167
X006223Y003688
X006377Y002236
X004710Y002340
X002288Y002986
M30
