<svg xmlns="http://www.w3.org/2000/svg" xmlns:xlink="http://www.w3.org/1999/xlink" width="41.859mm" height="37.211mm" viewBox="4040.9 3041.2 164.8 146.5"><title></title><style type="text/css">
*[layerid="1"] {stroke:#FF0000;fill:#FF0000;}
*[layerid="2"] {stroke:#0000FF;fill:#0000FF;}
*[layerid="3"] {stroke:#FFFF00;fill:#FFFF00;}
*[layerid="4"] {stroke:#808000;fill:#808000;}
*[layerid="5"] {stroke:#808080;fill:#808080;}
*[layerid="6"] {stroke:#800000;fill:#800000;}
*[layerid="7"] {stroke:#800080;fill:#800080;}
*[layerid="8"] {stroke:#AA00FF;fill:#AA00FF;}
*[layerid="9"] {stroke:#6464FF;fill:#6464FF;}
*[layerid="10"] {stroke:#FF00FF;fill:#FF00FF;}
*[layerid="11"] {stroke:#C0C0C0;fill:#C0C0C0;}
*[layerid="12"] {stroke:#FFFFFF;fill:#FFFFFF;}
*[layerid="13"] {stroke:#33CC99;fill:#33CC99;}
*[layerid="14"] {stroke:#5555FF;fill:#5555FF;}
*[layerid="15"] {stroke:#F022F0;fill:#F022F0;}
*[layerid="19"] {stroke:#66CCFF;fill:#66CCFF;}
*[layerid="21"] {stroke:#800000;fill:#800000;}
*[layerid="22"] {stroke:#008000;fill:#008000;}
*[layerid="23"] {stroke:#00FF00;fill:#00FF00;}
*[layerid="24"] {stroke:#000080;fill:#000080;}
*[layerid="25"] {stroke:#70DBFA;fill:#70DBFA;}
*[layerid="26"] {stroke:#00CC66;fill:#00CC66;}
*[layerid="27"] {stroke:#9966FF;fill:#9966FF;}
*[layerid="28"] {stroke:#800080;fill:#800080;}
*[layerid="29"] {stroke:#008080;fill:#008080;}
*[layerid="30"] {stroke:#15935F;fill:#15935F;}
*[layerid="31"] {stroke:#000080;fill:#000080;}
*[layerid="32"] {stroke:#00B400;fill:#00B400;}
*[layerid="33"] {stroke:#2E4756;fill:#2E4756;}
*[layerid="34"] {stroke:#99842F;fill:#99842F;}
*[layerid="35"] {stroke:#FFFFAA;fill:#FFFFAA;}
*[layerid="36"] {stroke:#99842F;fill:#99842F;}
*[layerid="37"] {stroke:#2E4756;fill:#2E4756;}
*[layerid="38"] {stroke:#3535FF;fill:#3535FF;}
*[layerid="39"] {stroke:#8000BC;fill:#8000BC;}
*[layerid="40"] {stroke:#43AE5F;fill:#43AE5F;}
*[layerid="41"] {stroke:#C3ECCE;fill:#C3ECCE;}
*[layerid="42"] {stroke:#728978;fill:#728978;}
*[layerid="43"] {stroke:#39503F;fill:#39503F;}
*[layerid="44"] {stroke:#0C715D;fill:#0C715D;}
*[layerid="45"] {stroke:#5A8A80;fill:#5A8A80;}
*[layerid="46"] {stroke:#2B937E;fill:#2B937E;}
*[layerid="47"] {stroke:#23999D;fill:#23999D;}
*[layerid="48"] {stroke:#45B4E3;fill:#45B4E3;}
*[layerid="49"] {stroke:#215DA1;fill:#215DA1;}
*[layerid="50"] {stroke:#4564D7;fill:#4564D7;}
*[layerid="51"] {stroke:#6969E9;fill:#6969E9;}
*[layerid="52"] {stroke:#9069E9;fill:#9069E9;}
*[layerid="99"] {stroke:#00CCCC;fill:#00CCCC;}
*[layerid="100"] {stroke:#CC9999;fill:#CC9999;}
*[layerid="Hole"] {stroke:#222222;fill:#222222;}
*[layerid="DRCError"] {stroke:#FFFFFF;fill:#FFFFFF;}
*[fill="none"] {fill: none;}
*[stroke="none"] {stroke: none;}
path, polyline, polygon, line {stroke-linecap:round;}
g[c_partid="part_pad"][layerid="1"] ellipse:not([c_etype="pad_outer"]) {fill:#FF0000;}
g[c_partid="part_pad"][layerid="1"] polygon:not([c_etype="pad_outer"]) {fill:#FF0000;}
g[c_partid="part_pad"][layerid="1"] polyline:not([c_etype="pad_outer"]) {stroke:#FF0000;}
g[c_partid="part_pad"][layerid="2"] ellipse:not([c_etype="pad_outer"]) {fill:#0000FF;}
g[c_partid="part_pad"][layerid="2"] polygon:not([c_etype="pad_outer"]) {fill:#0000FF;}
g[c_partid="part_pad"][layerid="2"] polyline:not([c_etype="pad_outer"]) {stroke:#0000FF;}
g[c_partid="part_pad"][layerid="11"] ellipse:not([c_etype="pad_outer"]) {fill:#C0C0C0;}
g[c_partid="part_pad"][layerid="11"] polygon:not([c_etype="pad_outer"]) {fill:#C0C0C0;}
g[c_partid="part_pad"][layerid="11"] polyline:not([c_etype="pad_outer"]) {stroke:#C0C0C0;}
g[c_partid="part_pad"][layerid="11"] circle {fill:#222222;}
g[c_partid="part_pad"][layerid="11"] > polyline:nth-of-type(2) {stroke:#222222;}
g[c_partid="part_pad"][layerid="11"][c_shape="ELLIPSE"]  polyline:nth-last-of-type(1) {stroke:#222222;}
g[c_partid="part_pad"][layerid="11"][c_shape="RECT"]  polyline:nth-last-of-type(1) {stroke:#222222;}
g[c_partid="part_pad"][layerid="11"][c_shape="POLYGON"]  polyline:nth-last-of-type(1) {stroke:#222222;}
g[c_partid="part_via"] > * + circle, #gCurParts g[c_partid="part_via"] > * + circle {fill:#222222;}
g[c_partid="part_pad"] > polygon[c_etype="pad_outer"], #gCurParts g[c_partid="part_pad"] > polygon[c_etype="pad_outer"] {stroke-linejoin: miter;stroke-miterlimit: 100;}
g[c_partid="part_hole"] > circle {fill: #222222;}path, polyline, polygon {stroke-linejoin:round;}
rect, circle, ellipse, polyline, line, polygon, path {shape-rendering:crispEdges;}
</style>
<rect x="4040.9" y="3041.2" width="164.8" height="146.5" fill="#000000" stroke="none"/><g transform="matrix(-1, 0, 0, 1, 8246.6, 0)"><polyline points="4120.8 3089.6 4119.4 3088.2 4093.2 3088.2 4093.2 3115.8 4120.8 3115.8 4120.8 3089.6" stroke-width="1"  stroke-linecap="round" fill="none" layerid="4" net="" id="gge5" locked="" /><polyline points="4170.37 3142.46 4170.37 3127.26" stroke-width="1"  stroke-linecap="round" fill="none" layerid="4" net="" id="gge377" locked="" /><polyline points="4151.17 3142.56 4151.17 3127.26" stroke-width="1"  stroke-linecap="round" fill="none" layerid="4" net="" id="gge378" locked="" /><polyline points="4170.37 3142.56 4151.17 3142.56" stroke-width="1"  stroke-linecap="round" fill="none" layerid="4" net="" id="gge379" locked="" /><polyline points="4170.37 3127.26 4151.17 3127.26" stroke-width="1"  stroke-linecap="round" fill="none" layerid="4" net="" id="gge380" locked="" /><polyline points="4161.14 3107.33 4142.14 3107.33 4142.14 3094.93 4161.14 3094.93" stroke-width="1"  stroke-linecap="round" fill="none" layerid="4" net="" id="gge454" locked="" /><polyline points="4161.14 3094.93 4161.14 3098.63" stroke-width="1"  stroke-linecap="round" fill="none" layerid="4" net="" id="gge455" locked="" /><polyline points="4161.14 3103.63 4161.14 3107.33" stroke-width="1"  stroke-linecap="round" fill="none" layerid="4" net="" id="gge456" locked="" /><polyline points="4101.69 3159.11 4100.49 3159.11" stroke-width="1"  stroke-linecap="round" fill="none" layerid="4" net="" id="gge577" locked="" /><polyline points="4100.49 3159.11 4100.49 3158.01" stroke-width="1"  stroke-linecap="round" fill="none" layerid="4" net="" id="gge578" locked="" /><polyline points="4111.89 3159.11 4113.09 3159.11" stroke-width="1"  stroke-linecap="round" fill="none" layerid="4" net="" id="gge579" locked="" /><polyline points="4113.09 3159.11 4113.09 3158.01" stroke-width="1"  stroke-linecap="round" fill="none" layerid="4" net="" id="gge580" locked="" /><polyline points="4113.09 3152.41 4113.09 3151.31" stroke-width="1"  stroke-linecap="round" fill="none" layerid="4" net="" id="gge581" locked="" /><polyline points="4113.09 3151.31 4111.89 3151.31" stroke-width="1"  stroke-linecap="round" fill="none" layerid="4" net="" id="gge582" locked="" /><polyline points="4100.49 3152.41 4100.49 3151.31" stroke-width="1"  stroke-linecap="round" fill="none" layerid="4" net="" id="gge583" locked="" /><polyline points="4100.49 3151.31 4101.69 3151.31" stroke-width="1"  stroke-linecap="round" fill="none" layerid="4" net="" id="gge584" locked="" /><polyline points="4125.7 3153.11 4131.3 3153.11" stroke-width="1"  stroke-linecap="round" fill="none" layerid="4" net="" id="gge608" locked="" /><polyline points="4123.2 3160.11 4117.3 3160.11 4117.3 3153.11 4123.2 3153.11" stroke-width="1"  stroke-linecap="round" fill="none" layerid="4" net="" id="gge609" locked="" /><polyline points="4131.3 3153.11 4131.3 3160.11" stroke-width="1"  stroke-linecap="round" fill="none" layerid="4" net="" id="gge610" locked="" /><polyline points="4131.3 3160.11 4125.7 3160.11" stroke-width="1"  stroke-linecap="round" fill="none" layerid="4" net="" id="gge611" locked="" /><polyline points="4124.09 3169.33 4129.69 3169.33" stroke-width="1"  stroke-linecap="round" fill="none" layerid="4" net="" id="gge622" locked="" /><polyline points="4121.59 3176.33 4115.69 3176.33 4115.69 3169.33 4121.59 3169.33" stroke-width="1"  stroke-linecap="round" fill="none" layerid="4" net="" id="gge623" locked="" /><polyline points="4129.69 3169.33 4129.69 3176.33" stroke-width="1"  stroke-linecap="round" fill="none" layerid="4" net="" id="gge624" locked="" /><polyline points="4129.69 3176.33 4124.09 3176.33" stroke-width="1"  stroke-linecap="round" fill="none" layerid="4" net="" id="gge625" locked="" /><polyline points="4111.88 3135.47 4113.08 3135.47" stroke-width="1"  stroke-linecap="round" fill="none" layerid="4" net="" id="gge640" locked="" /><polyline points="4113.08 3135.47 4113.08 3136.57" stroke-width="1"  stroke-linecap="round" fill="none" layerid="4" net="" id="gge641" locked="" /><polyline points="4101.68 3135.47 4100.48 3135.47" stroke-width="1"  stroke-linecap="round" fill="none" layerid="4" net="" id="gge642" locked="" /><polyline points="4100.48 3135.47 4100.48 3136.57" stroke-width="1"  stroke-linecap="round" fill="none" layerid="4" net="" id="gge643" locked="" /><polyline points="4100.48 3142.17 4100.48 3143.27" stroke-width="1"  stroke-linecap="round" fill="none" layerid="4" net="" id="gge644" locked="" /><polyline points="4100.48 3143.27 4101.68 3143.27" stroke-width="1"  stroke-linecap="round" fill="none" layerid="4" net="" id="gge645" locked="" /><polyline points="4113.08 3142.17 4113.08 3143.27" stroke-width="1"  stroke-linecap="round" fill="none" layerid="4" net="" id="gge646" locked="" /><polyline points="4113.08 3143.27 4111.88 3143.27" stroke-width="1"  stroke-linecap="round" fill="none" layerid="4" net="" id="gge647" locked="" /><polyline points="4082.26 3080 4087.86 3080" stroke-width="1"  stroke-linecap="round" fill="none" layerid="4" net="" id="gge671" locked="" /><polyline points="4079.76 3087 4073.86 3087 4073.86 3080 4079.76 3080" stroke-width="1"  stroke-linecap="round" fill="none" layerid="4" net="" id="gge672" locked="" /><polyline points="4087.86 3080 4087.86 3087" stroke-width="1"  stroke-linecap="round" fill="none" layerid="4" net="" id="gge673" locked="" /><polyline points="4087.86 3087 4082.26 3087" stroke-width="1"  stroke-linecap="round" fill="none" layerid="4" net="" id="gge674" locked="" /><polyline points="4053.61 3132.46 4053.61 3142.36 4073.61 3142.36 4073.61 3132.46 4053.61 3132.46" stroke-width="0.8"  stroke-linecap="round" fill="none" layerid="4" net="" id="gge709" locked="" /><polyline points="4074.5 3120.75 4080.1 3120.75" stroke-width="1"  stroke-linecap="round" fill="none" layerid="4" net="" id="gge728" locked="" /><polyline points="4072 3127.75 4066.1 3127.75 4066.1 3120.75 4072 3120.75" stroke-width="1"  stroke-linecap="round" fill="none" layerid="4" net="" id="gge729" locked="" /><polyline points="4080.1 3120.75 4080.1 3127.75" stroke-width="1"  stroke-linecap="round" fill="none" layerid="4" net="" id="gge730" locked="" /><polyline points="4080.1 3127.75 4074.5 3127.75" stroke-width="1"  stroke-linecap="round" fill="none" layerid="4" net="" id="gge731" locked="" /><polyline points="4176.01 3092.25 4181.61 3092.25" stroke-width="1"  stroke-linecap="round" fill="none" layerid="4" net="" id="gge742" locked="" /><polyline points="4173.51 3099.25 4167.61 3099.25 4167.61 3092.25 4173.51 3092.25" stroke-width="1"  stroke-linecap="round" fill="none" layerid="4" net="" id="gge743" locked="" /><polyline points="4181.61 3092.25 4181.61 3099.25" stroke-width="1"  stroke-linecap="round" fill="none" layerid="4" net="" id="gge744" locked="" /><polyline points="4181.61 3099.25 4176.01 3099.25" stroke-width="1"  stroke-linecap="round" fill="none" layerid="4" net="" id="gge745" locked="" /><polyline points="4053.44 3155.39 4053.44 3165.29 4073.44 3165.29 4073.44 3155.39 4053.44 3155.39" stroke-width="0.8"  stroke-linecap="round" fill="none" layerid="4" net="" id="gge762" locked="" /><polyline points="4053.46 3144.2 4053.46 3154.1 4073.46 3154.1 4073.46 3144.2 4053.46 3144.2" stroke-width="0.8"  stroke-linecap="round" fill="none" layerid="4" net="" id="gge773" locked="" /><polyline points="4082.17 3163.46 4076.57 3163.46" stroke-width="1"  stroke-linecap="round" fill="none" layerid="4" net="" id="gge789" locked="" /><polyline points="4084.67 3156.46 4090.57 3156.46 4090.57 3163.46 4084.67 3163.46" stroke-width="1"  stroke-linecap="round" fill="none" layerid="4" net="" id="gge790" locked="" /><polyline points="4076.57 3163.46 4076.57 3156.46" stroke-width="1"  stroke-linecap="round" fill="none" layerid="4" net="" id="gge791" locked="" /><polyline points="4076.57 3156.46 4082.17 3156.46" stroke-width="1"  stroke-linecap="round" fill="none" layerid="4" net="" id="gge792" locked="" /><polyline points="4148.4 3137.8 4148.4 3146.8" stroke-width="1"  stroke-linecap="round" fill="none" layerid="4" net="" id="gge812" locked="" /><polyline points="4131.6 3146.8 4131.6 3137.9" stroke-width="1"  stroke-linecap="round" fill="none" layerid="4" net="" id="gge813" locked="" /><polyline points="4148.4 3137.8 4142.1 3137.8" stroke-width="1"  stroke-linecap="round" fill="none" layerid="4" net="" id="gge814" locked="" /><polyline points="4137.9 3137.8 4131.7 3137.8" stroke-width="1"  stroke-linecap="round" fill="none" layerid="4" net="" id="gge815" locked="" /><polyline points="4148.4 3146.8 4144.1 3146.8" stroke-width="1"  stroke-linecap="round" fill="none" layerid="4" net="" id="gge816" locked="" /><polyline points="4135.9 3146.8 4131.6 3146.8" stroke-width="1"  stroke-linecap="round" fill="none" layerid="4" net="" id="gge817" locked="" /><polyline points="4158.89 3071.81 4164.49 3071.81" stroke-width="1"  stroke-linecap="round" fill="none" layerid="4" net="" id="gge878" locked="" /><polyline points="4156.39 3078.81 4150.49 3078.81 4150.49 3071.81 4156.39 3071.81" stroke-width="1"  stroke-linecap="round" fill="none" layerid="4" net="" id="gge879" locked="" /><polyline points="4164.49 3071.81 4164.49 3078.81" stroke-width="1"  stroke-linecap="round" fill="none" layerid="4" net="" id="gge880" locked="" /><polyline points="4164.49 3078.81 4158.89 3078.81" stroke-width="1"  stroke-linecap="round" fill="none" layerid="4" net="" id="gge881" locked="" /><polyline points="4128 3128 4138 3128 4138 3088 4128 3088 4128 3095.5" stroke-width="0.8"  stroke-linecap="round" fill="none" layerid="4" net="" id="gge904" locked="" /><polyline points="4128 3128 4128 3095.5" stroke-width="0.79921"  stroke-linecap="round" fill="none" layerid="4" net="" id="gge905" locked="" /><polyline points="4075.82 3132.82 4075.82 3142.72 4095.82 3142.72 4095.82 3132.82 4075.82 3132.82" stroke-width="0.8"  stroke-linecap="round" fill="none" layerid="4" net="" id="gge1014" locked="" /><polyline points="4075.85 3144.13 4075.85 3154.03 4095.85 3154.03 4095.85 3144.13 4075.85 3144.13" stroke-width="0.8"  stroke-linecap="round" fill="none" layerid="4" net="" id="gge1025" locked="" /><g c_partid="part_pcbtext" c_etype="" c_origin="4188.71,3156.78" c_rotation="0" c_mirror="1" id="gge131568" locked="" layerid="4" c_shapetype="group" ><path c_fontsize="3.268" c_fontfamily="" c_text="Made By Jake Drew\nSmartwatch D5" d="M4188.71 3154.998L4188.71 3158.117M4188.71 3154.998L4187.522 3158.117M4186.333 3154.998L4187.522 3158.117M4186.333 3154.998L4186.333 3158.117M4183.571 3156.037L4183.571 3158.117M4183.571 3156.483L4183.868 3156.186 4184.165 3156.037 4184.611 3156.037 4184.908 3156.186 4185.205 3156.483 4185.353 3156.929 4185.353 3157.226 4185.205 3157.671 4184.908 3157.968 4184.611 3158.117 4184.165 3158.117 4183.868 3157.968 4183.571 3157.671M4180.808 3154.998L4180.808 3158.117M4180.808 3156.483L4181.105 3156.186 4181.402 3156.037 4181.847809 3156.037 4182.145 3156.186 4182.442 3156.483 4182.59 3156.929 4182.59 3157.226 4182.442 3157.671 4182.145 3157.968 4181.847809 3158.117 4181.402 3158.117 4181.105 3157.968 4180.808 3157.671M4179.828 3156.929L4178.045 3156.929 4178.045 3156.631 4178.194 3156.334 4178.342 3156.186 4178.64 3156.037 4179.085 3156.037 4179.382 3156.186 4179.679 3156.483 4179.828 3156.929 4179.828 3157.226 4179.679 3157.671 4179.382 3157.968 4179.085 3158.117 4178.64 3158.117 4178.342 3157.968 4178.045 3157.671M4174.778 3154.998L4174.778 3158.117M4174.778 3154.998L4173.441 3154.998 4172.995 3155.146145 4172.847 3155.295 4172.698 3155.592 4172.698 3155.889 4172.847 3156.186 4172.995 3156.334 4173.441 3156.483M4174.778 3156.483L4173.441 3156.483 4172.995 3156.631 4172.847 3156.78 4172.698 3157.077 4172.698 3157.523 4172.847 3157.82 4172.995 3157.968 4173.441 3158.117 4174.778 3158.117M4171.569 3156.037L4170.678 3158.117M4169.787 3156.037L4170.678 3158.117 4170.975 3158.711 4171.272 3159.008 4171.569 3159.157 4171.718 3159.157M4165.034 3154.998L4165.034 3157.374 4165.182 3157.82 4165.331 3157.968 4165.628 3158.117 4165.925 3158.117 4166.222 3157.968 4166.371 3157.82 4166.519 3157.374 4166.519 3157.077M4162.271 3156.037L4162.271 3158.117M4162.271 3156.483L4162.568 3156.186 4162.865 3156.037 4163.311 3156.037 4163.608 3156.186 4163.905 3156.483 4164.054 3156.929 4164.054 3157.226 4163.905 3157.671 4163.608 3157.968 4163.311 3158.117 4162.865 3158.117 4162.568 3157.968 4162.271 3157.671M4161.291 3154.998L4161.291 3158.117M4159.806 3156.037L4161.291 3157.523M4160.697 3156.929L4159.657 3158.117M4158.677 3156.929L4156.894 3156.929 4156.894 3156.631 4157.043 3156.334 4157.191 3156.186 4157.489 3156.037 4157.934 3156.037 4158.231 3156.186 4158.528 3156.483 4158.677 3156.929 4158.677 3157.226 4158.528 3157.671 4158.231 3157.968 4157.934 3158.117 4157.489 3158.117 4157.191 3157.968 4156.894 3157.671M4153.627 3154.998L4153.627 3158.117M4153.627 3154.998L4152.587 3154.998 4152.141 3155.146145 4151.844 3155.443 4151.696 3155.74 4151.547 3156.186 4151.547 3156.929 4151.696 3157.374 4151.844 3157.671 4152.141 3157.968 4152.587 3158.117 4153.627 3158.117M4150.567 3156.037L4150.567 3158.117M4150.567 3156.929L4150.418 3156.483 4150.121 3156.186 4149.824 3156.037 4149.379 3156.037M4148.398 3156.929L4146.616 3156.929 4146.616 3156.631 4146.764 3156.334 4146.913 3156.186 4147.21 3156.037 4147.656 3156.037 4147.953 3156.186 4148.25 3156.483 4148.398 3156.929 4148.398 3157.226 4148.25 3157.671 4147.953 3157.968 4147.656 3158.117 4147.21 3158.117 4146.913 3157.968 4146.616 3157.671M4145.636 3156.037L4145.042 3158.117M4144.447 3156.037L4145.042 3158.117M4144.447 3156.037L4143.853 3158.117M4143.259 3156.037L4143.853 3158.117M4186.631 3162.711L4186.928 3162.414 4187.373 3162.265 4187.967 3162.265 4188.413 3162.414 4188.71 3162.711 4188.71 3163.008 4188.561 3163.305 4188.413 3163.454 4188.116 3163.602 4187.225 3163.899 4186.928 3164.048 4186.779 3164.196 4186.631 3164.493 4186.631 3164.939 4186.928 3165.236 4187.373 3165.385 4187.967 3165.385 4188.413 3165.236 4188.71 3164.939M4185.65 3163.305L4185.65 3165.385M4185.65 3163.899L4185.205 3163.454 4184.908 3163.305 4184.461977 3163.305 4184.165 3163.454 4184.016 3163.899 4184.016 3165.385M4184.016 3163.899L4183.571 3163.454 4183.274 3163.305 4182.828122 3163.305 4182.531 3163.454 4182.383 3163.899 4182.383 3165.385M4179.62 3163.305L4179.62 3165.385M4179.62 3163.751L4179.917 3163.454 4180.213954 3163.305 4180.66 3163.305 4180.957 3163.454 4181.254 3163.751 4181.402 3164.196 4181.402 3164.493 4181.254 3164.939 4180.957 3165.236 4180.66 3165.385 4180.213954 3165.385 4179.917 3165.236 4179.62 3164.939M4178.64 3163.305L4178.64 3165.385M4178.64 3164.196L4178.491 3163.751 4178.194 3163.454 4177.897 3163.305 4177.451 3163.305M4176.025 3162.265L4176.025 3164.79 4175.877 3165.236 4175.58 3165.385 4175.283 3165.385M4176.471 3163.305L4175.431 3163.305M4174.302 3163.305L4173.708 3165.385M4173.114 3163.305L4173.708 3165.385M4173.114 3163.305L4172.52 3165.385M4171.926 3163.305L4172.52 3165.385M4169.163 3163.305L4169.163 3165.385M4169.163 3163.751L4169.46 3163.454 4169.757282 3163.305 4170.203 3163.305 4170.5 3163.454 4170.797 3163.751 4170.946 3164.196 4170.946 3164.493 4170.797 3164.939 4170.5 3165.236 4170.203 3165.385 4169.757282 3165.385 4169.46 3165.236 4169.163 3164.939M4167.737 3162.265L4167.737 3164.79 4167.589 3165.236 4167.292 3165.385 4166.995 3165.385M4168.183 3163.305L4167.143 3163.305M4164.232 3163.751L4164.529 3163.454 4164.826 3163.305 4165.272 3163.305 4165.569 3163.454 4165.866 3163.751 4166.014 3164.196 4166.014 3164.493 4165.866 3164.939 4165.569 3165.236 4165.272 3165.385 4164.826 3165.385 4164.529 3165.236 4164.232 3164.939M4163.252 3162.265L4163.252 3165.385M4163.252 3163.899L4162.806 3163.454 4162.509 3163.305 4162.063 3163.305 4161.766 3163.454 4161.618 3163.899 4161.618 3165.385M4158.35 3162.265L4158.35 3165.385M4158.35 3162.265L4157.31 3162.265 4156.865 3162.414 4156.568 3162.711 4156.419 3163.008 4156.271 3163.454 4156.271 3164.196 4156.419 3164.642 4156.568 3164.939 4156.865 3165.236 4157.31 3165.385 4158.35 3165.385M4153.508 3162.265L4154.993 3162.265 4155.142 3163.602 4154.993 3163.454 4154.548 3163.305 4154.102 3163.305 4153.656 3163.454 4153.359 3163.751 4153.211 3164.196 4153.211 3164.493 4153.359 3164.939 4153.656 3165.236 4154.102 3165.385 4154.548 3165.385 4154.993 3165.236 4155.142 3165.087 4155.29 3164.79" fill="none"  stroke-width="0.8"  /></g><g c_partid="part_pcbtext" c_etype="" c_origin="4107,3077.6" c_rotation="0" c_mirror="1" id="gge3" locked="" layerid="4" c_shapetype="group" ><path c_fontsize="4.5" c_fontfamily="" c_text="U10" d="M 4107 3075.15 L 4107 3078.21 L 4106.8 3078.83 L 4106.39 3079.24 L 4105.77 3079.44 L 4105.36 3079.44 L 4104.75 3079.24 L 4104.34 3078.83 L 4104.14 3078.21 L 4104.14 3075.15 M 4102.79 3075.96 L 4102.38 3075.76 L 4101.76 3075.15 L 4101.76 3079.44 M 4099.19 3075.15 L 4099.8 3075.35 L 4100.21 3075.96 L 4100.41 3076.99 L 4100.41 3077.6 L 4100.21 3078.62 L 4099.8 3079.24 L 4099.19 3079.44 L 4098.78 3079.44 L 4098.16 3079.24 L 4097.75 3078.62 L 4097.55 3077.6 L 4097.55 3076.99 L 4097.75 3075.96 L 4098.16 3075.35 L 4098.78 3075.15 L 4099.19 3075.15" fill="none"  stroke-width="0.7" c_note="note_pre" /></g><g c_partid="part_pcbtext" c_etype="" c_origin="4107,3069.6" c_rotation="0" c_mirror="true" id="rep2" locked="" layerid="4" c_shapetype="group" display="none"><path c_fontsize="4.5" c_fontfamily="" c_text="ATMEGA328P-AU" d="M4105.363636363636 3065.0590909090906L4107 3069.3545454545456M4105.363636363636 3065.0590909090906L4103.727272727273 3069.3545454545456M4106.386363636364 3067.922727272727L4104.340909090909 3067.922727272727M4100.945454545455 3065.0590909090906L4100.945454545455 3069.3545454545456M4102.377272727273 3065.0590909090906L4099.513636363637 3065.0590909090906M4098.163636363636 3065.0590909090906L4098.163636363636 3069.3545454545456M4098.163636363636 3065.0590909090906L4096.527272727272 3069.3545454545456M4094.890909090909 3065.0590909090906L4096.527272727272 3069.3545454545456M4094.890909090909 3065.0590909090906L4094.890909090909 3069.3545454545456M4093.540909090909 3065.0590909090906L4093.540909090909 3069.3545454545456M4093.540909090909 3065.0590909090906L4090.881818181818 3065.0590909090906M4093.540909090909 3067.1045454545456L4091.904545454545 3067.1045454545456M4093.540909090909 3069.3545454545456L4090.881818181818 3069.3545454545456M4086.4636363636355 3066.081818181818L4086.6681818181814 3065.672727272727 4087.0772727272724 3065.263636363636 4087.4863636363625 3065.0590909090906 4088.3045454545445 3065.0590909090906 4088.7136363636355 3065.263636363636 4089.1227272727265 3065.672727272727 4089.3272727272724 3066.081818181818 4089.5318181818175 3066.6954545454546 4089.5318181818175 3067.7181818181816 4089.3272727272724 3068.331818181818 4089.1227272727265 3068.740909090909 4088.7136363636355 3069.15 4088.3045454545445 3069.3545454545456 4087.4863636363625 3069.3545454545456 4087.0772727272724 3069.15 4086.6681818181814 3068.740909090909 4086.4636363636355 3068.331818181818 4086.4636363636355 3067.7181818181816M4087.4863636363625 3067.7181818181816L4086.4636363636355 3067.7181818181816M4083.477272727272 3065.0590909090906L4085.113636363636 3069.3545454545456M4083.477272727272 3065.0590909090906L4081.840909090909 3069.3545454545456M4084.5 3067.922727272727L4082.454545454545 3067.922727272727M4080.0818181818177 3065.0590909090906L4077.8318181818177 3065.0590909090906 4079.0590909090906 3066.6954545454546 4078.4454545454537 3066.6954545454546 4078.0363636363636 3066.9 4077.8318181818177 3067.1045454545456 4077.6272727272726 3067.7181818181816 4077.6272727272726 3068.1272727272726 4077.8318181818177 3068.740909090909 4078.2409090909086 3069.15 4078.8545454545447 3069.3545454545456 4079.4681818181816 3069.3545454545456 4080.0818181818177 3069.15 4080.2863636363636 3068.9454545454546 4080.4909090909086 3068.5363636363636M4076.072727272727 3066.081818181818L4076.072727272727 3065.8772727272726 4075.8681818181813 3065.4681818181816 4075.663636363636 3065.263636363636 4075.254545454545 3065.0590909090906 4074.4363636363632 3065.0590909090906 4074.0272727272722 3065.263636363636 4073.822727272727 3065.4681818181816 4073.6181818181813 3065.8772727272726 4073.6181818181813 3066.2863636363636 4073.822727272727 3066.6954545454546 4074.2318181818173 3067.3090909090906 4076.2772727272722 3069.3545454545456 4073.413636363636 3069.3545454545456M4071.040909090909 3065.0590909090906L4071.654545454545 3065.263636363636 4071.859090909091 3065.672727272727 4071.859090909091 3066.081818181818 4071.654545454545 3066.490909090909 4071.245454545454 3066.6954545454546 4070.427272727272 3066.9 4069.813636363636 3067.1045454545456 4069.404545454545 3067.513636363636 4069.2 3067.922727272727 4069.2 3068.5363636363636 4069.404545454545 3068.9454545454546 4069.609090909091 3069.15 4070.222727272727 3069.3545454545456 4071.040909090909 3069.3545454545456 4071.654545454545 3069.15 4071.859090909091 3068.9454545454546 4072.063636363636 3068.5363636363636 4072.063636363636 3067.922727272727 4071.859090909091 3067.513636363636 4071.45 3067.1045454545456 4070.836363636363 3066.9 4070.018181818181 3066.6954545454546 4069.609090909091 3066.490909090909 4069.404545454545 3066.081818181818 4069.404545454545 3065.672727272727 4069.609090909091 3065.263636363636 4070.222727272727 3065.0590909090906 4071.040909090909 3065.0590909090906M4067.8499999999995 3065.0590909090906L4067.8499999999995 3069.3545454545456M4067.8499999999995 3065.0590909090906L4066.0090909090904 3065.0590909090906 4065.3954545454544 3065.263636363636 4065.1909090909085 3065.4681818181816 4064.9863636363634 3065.8772727272726 4064.9863636363634 3066.490909090909 4065.1909090909085 3066.9 4065.3954545454544 3067.1045454545456 4066.0090909090904 3067.3090909090906 4067.8499999999995 3067.3090909090906M4063.636363636363 3067.513636363636L4059.954545454545 3067.513636363636M4056.9681818181807 3065.0590909090906L4058.6045454545447 3069.3545454545456M4056.9681818181807 3065.0590909090906L4055.3318181818177 3069.3545454545456M4057.9909090909086 3067.922727272727L4055.9454545454537 3067.922727272727M4053.9818181818173 3065.0590909090906L4053.9818181818173 3068.1272727272726 4053.7772727272722 3068.740909090909 4053.3681818181813 3069.15 4052.7545454545443 3069.3545454545456 4052.3454545454533 3069.3545454545456 4051.7318181818173 3069.15 4051.3227272727263 3068.740909090909 4051.1181818181813 3068.1272727272726 4051.1181818181813 3065.0590909090906" fill="none"  stroke-width="0.7" c_note="note_name" /></g><g c_partid="part_pcbtext" c_etype="" c_origin="4174.02,3131.86" c_rotation="90" c_mirror="1" id="gge374" locked="" layerid="4" c_shapetype="group" ><path c_fontsize="4.5" c_fontfamily="" c_text="U1" d="M 4171.5698 3131.86 L 4174.6398 3131.86 L 4175.2498 3132.06 L 4175.6598 3132.47 L 4175.8598 3133.09 L 4175.8598 3133.5 L 4175.6598 3134.11 L 4175.2498 3134.52 L 4174.6398 3134.72 L 4171.5698 3134.72 M 4172.3898 3136.07 L 4172.1798 3136.48 L 4171.5698 3137.1 L 4175.8598 3137.1" fill="none"  stroke-width="0.7" c_note="note_pre" /></g><g c_partid="part_pcbtext" c_etype="" c_origin="4182.02,3131.86" c_rotation="90" c_mirror="true" id="rep13" locked="" layerid="4" c_shapetype="group" display="none"><path c_fontsize="4.5" c_fontfamily="" c_text="TP4056" d="M4177.479090909092 3133.291818181818L4181.774545454546 3133.291818181818M4177.479090909092 3131.86L4177.479090909092 3134.723636363636M4177.479090909092 3136.0736363636365L4181.774545454546 3136.0736363636365M4177.479090909092 3136.0736363636365L4177.479090909092 3137.9145454545455 4177.683636363637 3138.5281818181816 4177.888181818182 3138.7327272727275 4178.297272727274 3138.9372727272726 4178.91090909091 3138.9372727272726 4179.320000000001 3138.7327272727275 4179.524545454546 3138.5281818181816 4179.729090909092 3137.9145454545455 4179.729090909092 3136.0736363636365M4177.479090909092 3142.332727272728L4180.342727272728 3140.287272727273 4180.342727272728 3143.355454545455M4177.479090909092 3142.332727272728L4181.774545454546 3142.332727272728M4177.479090909092 3145.9327272727273L4177.683636363637 3145.3190909090904 4178.297272727274 3144.9099999999994 4179.320000000001 3144.7054545454544 4179.933636363637 3144.7054545454544 4180.956363636364 3144.9099999999994 4181.570000000001 3145.3190909090904 4181.774545454546 3145.9327272727273 4181.774545454546 3146.3418181818183 4181.570000000001 3146.9554545454544 4180.956363636364 3147.3645454545454 4179.933636363637 3147.5690909090904 4179.320000000001 3147.5690909090904 4178.297272727274 3147.3645454545454 4177.683636363637 3146.9554545454544 4177.479090909092 3146.3418181818183 4177.479090909092 3145.9327272727273M4177.479090909092 3151.373636363636L4177.479090909092 3149.3281818181817 4179.320000000001 3149.123636363636 4179.115454545456 3149.3281818181817 4178.91090909091 3149.941818181818 4178.91090909091 3150.5554545454547 4179.115454545456 3151.1690909090908 4179.524545454546 3151.5781818181817 4180.138181818182 3151.782727272727 4180.547272727274 3151.782727272727 4181.16090909091 3151.5781818181817 4181.570000000001 3151.1690909090908 4181.774545454546 3150.5554545454547 4181.774545454546 3149.941818181818 4181.570000000001 3149.3281818181817 4181.365454545456 3149.123636363636 4180.956363636364 3148.9190909090908M4178.092727272728 3155.587272727272L4177.683636363637 3155.382727272727 4177.479090909092 3154.769090909091 4177.479090909092 3154.36 4177.683636363637 3153.746363636363 4178.297272727274 3153.337272727272 4179.320000000001 3153.132727272727 4180.342727272728 3153.132727272727 4181.16090909091 3153.337272727272 4181.570000000001 3153.746363636363 4181.774545454546 3154.36 4181.774545454546 3154.564545454545 4181.570000000001 3155.178181818182 4181.16090909091 3155.587272727272 4180.547272727274 3155.791818181818 4180.342727272728 3155.791818181818 4179.729090909092 3155.587272727272 4179.320000000001 3155.178181818182 4179.115454545456 3154.564545454545 4179.115454545456 3154.36 4179.320000000001 3153.746363636363 4179.729090909092 3153.337272727272 4180.342727272728 3153.132727272727" fill="none"  stroke-width="0.7" c_note="note_name" /></g><g c_partid="part_pcbtext" c_etype="" c_origin="4154.69,3104.43" c_rotation="90" c_mirror="1" id="gge452" locked="" layerid="4" c_shapetype="group" ><path c_fontsize="4.5" c_fontfamily="" c_text="U2" d="M 4152.2401 3104.4301 L 4155.3001 3104.4301 L 4155.9201 3104.6301 L 4156.3301 3105.0401 L 4156.5301 3105.6601 L 4156.5301 3106.0701 L 4156.3301 3106.6801 L 4155.9201 3107.0901 L 4155.3001 3107.2901 L 4152.2401 3107.2901 M 4153.2601 3108.8501 L 4153.0501 3108.8501 L 4152.6401 3109.0501 L 4152.4401 3109.2601 L 4152.2401 3109.6701 L 4152.2401 3110.4801 L 4152.4401 3110.8901 L 4152.6401 3111.1001 L 4153.0501 3111.3001 L 4153.4601 3111.3001 L 4153.8701 3111.1001 L 4154.4901 3110.6901 L 4156.5301 3108.6401 L 4156.5301 3111.5101" fill="none"  stroke-width="0.7" c_note="note_pre" /></g><g c_partid="part_pcbtext" c_etype="" c_origin="4162.69,3104.43" c_rotation="90" c_mirror="true" id="rep17" locked="" layerid="4" c_shapetype="group" display="none"><path c_fontsize="4.5" c_fontfamily="" c_text="LM75CIMX-5" d="M4158.14909090909 3104.43L4162.444545454546 3104.43M4162.444545454546 3104.43L4162.444545454546 3106.884545454545M4158.14909090909 3108.2345454545452L4162.444545454546 3108.2345454545452M4158.14909090909 3108.2345454545452L4162.444545454546 3109.870909090909M4158.14909090909 3111.5072727272723L4162.444545454546 3109.870909090909M4158.14909090909 3111.5072727272723L4162.444545454546 3111.5072727272723M4158.14909090909 3115.7209090909087L4162.444545454546 3113.6754545454546M4158.14909090909 3112.8572727272726L4158.14909090909 3115.7209090909087M4158.14909090909 3119.525454545454L4158.14909090909 3117.48 4159.99 3117.275454545454 4159.785454545454 3117.48 4159.580909090909 3118.093636363636 4159.580909090909 3118.707272727273 4159.785454545454 3119.320909090909 4160.194545454546 3119.73 4160.808181818182 3119.934545454545 4161.217272727272 3119.934545454545 4161.830909090909 3119.73 4162.24 3119.320909090909 4162.444545454546 3118.707272727273 4162.444545454546 3118.093636363636 4162.24 3117.48 4162.035454545454 3117.275454545454 4161.626363636364 3117.070909090909M4159.171818181818 3124.3527272727274L4158.762727272727 3124.1481818181815 4158.353636363636 3123.7390909090905 4158.14909090909 3123.3300000000004 4158.14909090909 3122.5118181818184 4158.353636363636 3122.1027272727274 4158.762727272727 3121.6936363636364 4159.171818181818 3121.4890909090905 4159.785454545454 3121.2845454545454 4160.808181818182 3121.2845454545454 4161.421818181818 3121.4890909090905 4161.830909090909 3121.6936363636364 4162.24 3122.1027272727274 4162.444545454546 3122.5118181818184 4162.444545454546 3123.3300000000004 4162.24 3123.7390909090905 4161.830909090909 3124.1481818181815 4161.421818181818 3124.3527272727274M4158.14909090909 3125.702727272727L4162.444545454546 3125.702727272727M4158.14909090909 3127.052727272727L4162.444545454546 3127.052727272727M4158.14909090909 3127.052727272727L4162.444545454546 3128.689090909091M4158.14909090909 3130.3254545454542L4162.444545454546 3128.689090909091M4158.14909090909 3130.3254545454542L4162.444545454546 3130.3254545454542M4158.14909090909 3131.6754545454546L4162.444545454546 3134.5390909090906M4158.14909090909 3134.5390909090906L4162.444545454546 3131.6754545454546M4160.603636363636 3135.889090909091L4160.603636363636 3139.570909090909M4158.14909090909 3143.3754545454544L4158.14909090909 3141.3300000000004 4159.99 3141.1254545454544 4159.785454545454 3141.3300000000004 4159.580909090909 3141.9436363636364 4159.580909090909 3142.5572727272734 4159.785454545454 3143.1709090909094 4160.194545454546 3143.5800000000004 4160.808181818182 3143.7845454545454 4161.217272727272 3143.7845454545454 4161.830909090909 3143.5800000000004 4162.24 3143.1709090909094 4162.444545454546 3142.5572727272734 4162.444545454546 3141.9436363636364 4162.24 3141.3300000000004 4162.035454545454 3141.1254545454544 4161.626363636364 3140.9209090909094" fill="none"  stroke-width="0.7" c_note="note_name" /></g><g c_partid="part_pcbtext" c_etype="" c_origin="4108.95,3155.64" c_rotation="0" c_mirror="1" id="gge571" locked="" layerid="4" c_shapetype="group" ><path c_fontsize="3" c_fontfamily="" c_text="U3" d="M 4108.95 3154.0001 L 4108.95 3156.0501 L 4108.81 3156.4601 L 4108.54 3156.7301 L 4108.13 3156.8701 L 4107.86 3156.8701 L 4107.45 3156.7301 L 4107.18 3156.4601 L 4107.04 3156.0501 L 4107.04 3154.0001 M 4105.87 3154.0001 L 4104.37 3154.0001 L 4105.19 3155.0901 L 4104.78 3155.0901 L 4104.5 3155.2301 L 4104.37 3155.3701 L 4104.23 3155.7801 L 4104.23 3156.0501 L 4104.37 3156.4601 L 4104.64 3156.7301 L 4105.05 3156.8701 L 4105.46 3156.8701 L 4105.87 3156.7301 L 4106 3156.5901 L 4106.14 3156.3201" fill="none"  stroke-width="0.7" c_note="note_pre" /></g><g c_partid="part_pcbtext" c_etype="" c_origin="4108.95,3147.64" c_rotation="0" c_mirror="true" id="rep22" locked="" layerid="4" c_shapetype="group" display="none"><path c_fontsize="3" c_fontfamily="" c_text="DW01+G" d="M4108.95 3144.612727272727L4108.95 3147.4763636363637M4108.95 3144.612727272727L4107.995454545455 3144.612727272727 4107.586363636364 3144.7490909090907 4107.313636363636 3145.021818181818 4107.177272727273 3145.294545454545 4107.040909090909 3145.703636363636 4107.040909090909 3146.385454545454 4107.177272727273 3146.794545454545 4107.313636363636 3147.0672727272727 4107.586363636364 3147.3399999999997 4107.995454545455 3147.4763636363637 4108.95 3147.4763636363637M4106.140909090909 3144.612727272727L4105.459090909091 3147.4763636363637M4104.777272727273 3144.612727272727L4105.459090909091 3147.4763636363637M4104.777272727273 3144.612727272727L4104.095454545454 3147.4763636363637M4103.413636363636 3144.612727272727L4104.095454545454 3147.4763636363637M4101.695454545455 3144.612727272727L4102.104545454546 3144.7490909090907 4102.377272727273 3145.1581818181817 4102.513636363637 3145.8399999999997 4102.513636363637 3146.2490909090907 4102.377272727273 3146.930909090909 4102.104545454546 3147.3399999999997 4101.695454545455 3147.4763636363637 4101.422727272728 3147.4763636363637 4101.013636363637 3147.3399999999997 4100.74090909091 3146.930909090909 4100.604545454546 3146.2490909090907 4100.604545454546 3145.8399999999997 4100.74090909091 3145.1581818181817 4101.013636363637 3144.7490909090907 4101.422727272728 3144.612727272727 4101.695454545455 3144.612727272727M4099.704545454546 3145.1581818181817L4099.431818181819 3145.021818181818 4099.022727272728 3144.612727272727 4099.022727272728 3147.4763636363637M4096.895454545454 3145.021818181818L4096.895454545454 3147.4763636363637M4098.122727272727 3146.2490909090907L4095.6681818181823 3146.2490909090907M4092.722727272727 3145.294545454545L4092.859090909091 3145.021818181818 4093.131818181818 3144.7490909090907 4093.4045454545458 3144.612727272727 4093.95 3144.612727272727 4094.222727272727 3144.7490909090907 4094.495454545455 3145.021818181818 4094.631818181818 3145.294545454545 4094.768181818182 3145.703636363636 4094.768181818182 3146.385454545454 4094.631818181818 3146.794545454545 4094.495454545455 3147.0672727272727 4094.222727272727 3147.3399999999997 4093.95 3147.4763636363637 4093.4045454545458 3147.4763636363637 4093.131818181818 3147.3399999999997 4092.859090909091 3147.0672727272727 4092.722727272727 3146.794545454545 4092.722727272727 3146.385454545454M4093.4045454545458 3146.385454545454L4092.722727272727 3146.385454545454" fill="none"  stroke-width="0.7" c_note="note_name" /></g><g c_partid="part_pcbtext" c_etype="" c_origin="4124.3,3148.11" c_rotation="0" c_mirror="1" id="gge606" locked="" layerid="4" c_shapetype="group" ><path c_fontsize="4.5" c_fontfamily="" c_text="R7" d="M 4124.3 3145.66 L 4124.3 3149.95 M 4124.3 3145.66 L 4122.46 3145.66 L 4121.85 3145.86 L 4121.64 3146.06 L 4121.44 3146.47 L 4121.44 3146.88 L 4121.64 3147.29 L 4121.85 3147.5 L 4122.46 3147.7 L 4124.3 3147.7 M 4122.87 3147.7 L 4121.44 3149.95 M 4117.22 3145.66 L 4119.27 3149.95 M 4120.09 3145.66 L 4117.22 3145.66" fill="none"  stroke-width="0.7" c_note="note_pre" /></g><g c_partid="part_pcbtext" c_etype="" c_origin="4124.3,3140.11" c_rotation="0" c_mirror="true" id="rep23" locked="" layerid="4" c_shapetype="group" display="none"><path c_fontsize="4.5" c_fontfamily="" c_text="100" d="M4124.3 3136.387272727273L4123.890909090909 3136.1827272727273 4123.277272727273 3135.569090909091 4123.277272727273 3139.864545454546M4120.7 3135.569090909091L4121.313636363637 3135.7736363636363 4121.722727272728 3136.387272727273 4121.927272727273 3137.4100000000003 4121.927272727273 3138.0236363636363 4121.722727272728 3139.046363636364 4121.313636363637 3139.6600000000003 4120.7 3139.864545454546 4120.290909090909 3139.864545454546 4119.677272727273 3139.6600000000003 4119.268181818182 3139.046363636364 4119.063636363637 3138.0236363636363 4119.063636363637 3137.4100000000003 4119.268181818182 3136.387272727273 4119.677272727273 3135.7736363636363 4120.290909090909 3135.569090909091 4120.7 3135.569090909091M4116.486363636363 3135.569090909091L4117.1 3135.7736363636363 4117.509090909091 3136.387272727273 4117.713636363636 3137.4100000000003 4117.713636363636 3138.0236363636363 4117.509090909091 3139.046363636364 4117.1 3139.6600000000003 4116.486363636363 3139.864545454546 4116.077272727272 3139.864545454546 4115.463636363636 3139.6600000000003 4115.054545454545 3139.046363636364 4114.85 3138.0236363636363 4114.85 3137.4100000000003 4115.054545454545 3136.387272727273 4115.463636363636 3135.7736363636363 4116.077272727272 3135.569090909091 4116.486363636363 3135.569090909091" fill="none"  stroke-width="0.7" c_note="note_name" /></g><g c_partid="part_pcbtext" c_etype="" c_origin="4122.69,3164.33" c_rotation="0" c_mirror="1" id="gge620" locked="" layerid="4" c_shapetype="group" ><path c_fontsize="4.5" c_fontfamily="" c_text="C2" d="M 4119.62 3162.9 L 4119.83 3162.49 L 4120.24 3162.08 L 4120.64 3161.88 L 4121.46 3161.88 L 4121.87 3162.08 L 4122.28 3162.49 L 4122.49 3162.9 L 4122.69 3163.51 L 4122.69 3164.53 L 4122.49 3165.15 L 4122.28 3165.56 L 4121.87 3165.97 L 4121.46 3166.17 L 4120.64 3166.17 L 4120.24 3165.97 L 4119.83 3165.56 L 4119.62 3165.15 M 4118.07 3162.9 L 4118.07 3162.69 L 4117.86 3162.28 L 4117.66 3162.08 L 4117.25 3161.88 L 4116.43 3161.88 L 4116.02 3162.08 L 4115.82 3162.28 L 4115.61 3162.69 L 4115.61 3163.1 L 4115.82 3163.51 L 4116.23 3164.13 L 4118.27 3166.17 L 4115.41 3166.17" fill="none"  stroke-width="0.7" c_note="note_pre" /></g><g c_partid="part_pcbtext" c_etype="" c_origin="4122.69,3156.33" c_rotation="0" c_mirror="true" id="rep24" locked="" layerid="4" c_shapetype="group" display="none"><path c_fontsize="4.5" c_fontfamily="" c_text="10uF" d="M4122.69 3152.6072727272726L4122.280909090909 3152.402727272727 4121.667272727273 3151.7890909090906 4121.667272727273 3156.0845454545456M4119.089999999999 3151.7890909090906L4119.703636363636 3151.993636363636 4120.112727272727 3152.6072727272726 4120.317272727272 3153.63 4120.317272727272 3154.243636363636 4120.112727272727 3155.2663636363636 4119.703636363636 3155.88 4119.089999999999 3156.0845454545456 4118.680909090908 3156.0845454545456 4118.067272727272 3155.88 4117.658181818181 3155.2663636363636 4117.453636363636 3154.243636363636 4117.453636363636 3153.63 4117.658181818181 3152.6072727272726 4118.067272727272 3151.993636363636 4118.680909090908 3151.7890909090906 4119.089999999999 3151.7890909090906M4116.103636363636 3153.220909090909L4116.103636363636 3155.2663636363636 4115.899090909091 3155.88 4115.49 3156.0845454545456 4114.876363636363 3156.0845454545456 4114.467272727272 3155.88 4113.853636363636 3155.2663636363636M4113.853636363636 3153.220909090909L4113.853636363636 3156.0845454545456M4112.503636363635 3151.7890909090906L4112.503636363635 3156.0845454545456M4112.503636363635 3151.7890909090906L4109.8445454545445 3151.7890909090906M4112.503636363635 3153.8345454545456L4110.8672727272715 3153.8345454545456" fill="none"  stroke-width="0.7" c_note="note_name" /></g><g c_partid="part_pcbtext" c_etype="" c_origin="4108.28,3139.6" c_rotation="0" c_mirror="1" id="gge634" locked="" layerid="4" c_shapetype="group" ><path c_fontsize="3" c_fontfamily="" c_text="Q1" d="M 4107.46 3137.96 L 4107.73 3138.1 L 4108.01 3138.37 L 4108.14 3138.65 L 4108.28 3139.05 L 4108.28 3139.74 L 4108.14 3140.15 L 4108.01 3140.42 L 4107.73 3140.69 L 4107.46 3140.83 L 4106.92 3140.83 L 4106.64 3140.69 L 4106.37 3140.42 L 4106.23 3140.15 L 4106.1 3139.74 L 4106.1 3139.05 L 4106.23 3138.65 L 4106.37 3138.37 L 4106.64 3138.1 L 4106.92 3137.96 L 4107.46 3137.96 M 4107.05 3140.28 L 4106.23 3141.1 M 4105.2 3138.51 L 4104.93 3138.37 L 4104.52 3137.96 L 4104.52 3140.83" fill="none"  stroke-width="0.7" c_note="note_pre" /></g><g c_partid="part_pcbtext" c_etype="" c_origin="4108.28,3131.6" c_rotation="0" c_mirror="true" id="rep25" locked="" layerid="4" c_shapetype="group" display="none"><path c_fontsize="3" c_fontfamily="" c_text="FS8205" d="M4108.28 3128.572727272727L4108.28 3131.4363636363637M4108.28 3128.572727272727L4106.507272727273 3128.572727272727M4108.28 3129.9363636363637L4107.189090909091 3129.9363636363637M4103.698181818181 3128.981818181818L4103.970909090908 3128.7090909090907 4104.379999999999 3128.572727272727 4104.925454545454 3128.572727272727 4105.334545454545 3128.7090909090907 4105.607272727272 3128.981818181818 4105.607272727272 3129.254545454545 4105.470909090908 3129.5272727272727 4105.334545454545 3129.663636363636 4105.061818181817 3129.7999999999997 4104.243636363636 3130.072727272727 4103.970909090908 3130.2090909090907 4103.834545454545 3130.3454545454542 4103.698181818181 3130.6181818181817 4103.698181818181 3131.0272727272727 4103.970909090908 3131.2999999999997 4104.379999999999 3131.4363636363637 4104.925454545454 3131.4363636363637 4105.334545454545 3131.2999999999997 4105.607272727272 3131.0272727272727M4102.1163636363635 3128.572727272727L4102.5254545454545 3128.7090909090907 4102.661818181818 3128.981818181818 4102.661818181818 3129.254545454545 4102.5254545454545 3129.5272727272727 4102.252727272727 3129.663636363636 4101.7072727272725 3129.7999999999997 4101.298181818182 3129.9363636363637 4101.0254545454545 3130.2090909090907 4100.889090909091 3130.481818181818 4100.889090909091 3130.890909090909 4101.0254545454545 3131.163636363636 4101.161818181818 3131.2999999999997 4101.570909090909 3131.4363636363637 4102.1163636363635 3131.4363636363637 4102.5254545454545 3131.2999999999997 4102.661818181818 3131.163636363636 4102.798181818182 3130.890909090909 4102.798181818182 3130.481818181818 4102.661818181818 3130.2090909090907 4102.389090909091 3129.9363636363637 4101.98 3129.7999999999997 4101.4345454545455 3129.663636363636 4101.161818181818 3129.5272727272727 4101.0254545454545 3129.254545454545 4101.0254545454545 3128.981818181818 4101.161818181818 3128.7090909090907 4101.570909090909 3128.572727272727 4102.1163636363635 3128.572727272727M4099.852727272727 3129.254545454545L4099.852727272727 3129.1181818181817 4099.716363636364 3128.8454545454542 4099.58 3128.7090909090907 4099.307272727273 3128.572727272727 4098.761818181818 3128.572727272727 4098.489090909091 3128.7090909090907 4098.352727272727 3128.8454545454542 4098.216363636364 3129.1181818181817 4098.216363636364 3129.390909090909 4098.352727272727 3129.663636363636 4098.625454545455 3130.072727272727 4099.989090909091 3131.4363636363637 4098.08 3131.4363636363637M4096.361818181818 3128.572727272727L4096.770909090909 3128.7090909090907 4097.043636363636 3129.1181818181817 4097.18 3129.7999999999997 4097.18 3130.2090909090907 4097.043636363636 3130.890909090909 4096.770909090909 3131.2999999999997 4096.361818181818 3131.4363636363637 4096.089090909091 3131.4363636363637 4095.6800000000003 3131.2999999999997 4095.4072727272733 3130.890909090909 4095.2709090909093 3130.2090909090907 4095.2709090909093 3129.7999999999997 4095.4072727272733 3129.1181818181817 4095.6800000000003 3128.7090909090907 4096.089090909091 3128.572727272727 4096.361818181818 3128.572727272727M4092.7345454545457 3128.572727272727L4094.0981818181826 3128.572727272727 4094.2345454545457 3129.7999999999997 4094.0981818181826 3129.663636363636 4093.6890909090916 3129.5272727272727 4093.2800000000007 3129.5272727272727 4092.8709090909097 3129.663636363636 4092.5981818181826 3129.9363636363637 4092.4618181818187 3130.3454545454542 4092.4618181818187 3130.6181818181817 4092.5981818181826 3131.0272727272727 4092.8709090909097 3131.2999999999997 4093.2800000000007 3131.4363636363637 4093.6890909090916 3131.4363636363637 4094.0981818181826 3131.2999999999997 4094.2345454545457 3131.163636363636 4094.3709090909097 3130.890909090909" fill="none"  stroke-width="0.7" c_note="note_name" /></g><g c_partid="part_pcbtext" c_etype="" c_origin="4080.86,3075" c_rotation="0" c_mirror="1" id="gge669" locked="" layerid="4" c_shapetype="group" ><path c_fontsize="4.5" c_fontfamily="" c_text="R8" d="M 4080.86 3072.55 L 4080.86 3076.84 M 4080.86 3072.55 L 4079.02 3072.55 L 4078.41 3072.75 L 4078.2 3072.95 L 4078 3073.36 L 4078 3073.77 L 4078.2 3074.18 L 4078.41 3074.39 L 4079.02 3074.59 L 4080.86 3074.59 M 4079.43 3074.59 L 4078 3076.84 M 4075.62 3072.55 L 4076.24 3072.75 L 4076.44 3073.16 L 4076.44 3073.57 L 4076.24 3073.98 L 4075.83 3074.18 L 4075.01 3074.39 L 4074.4 3074.59 L 4073.99 3075 L 4073.78 3075.41 L 4073.78 3076.02 L 4073.99 3076.43 L 4074.19 3076.64 L 4074.81 3076.84 L 4075.62 3076.84 L 4076.24 3076.64 L 4076.44 3076.43 L 4076.65 3076.02 L 4076.65 3075.41 L 4076.44 3075 L 4076.03 3074.59 L 4075.42 3074.39 L 4074.6 3074.18 L 4074.19 3073.98 L 4073.99 3073.57 L 4073.99 3073.16 L 4074.19 3072.75 L 4074.81 3072.55 L 4075.62 3072.55" fill="none"  stroke-width="0.7" c_note="note_pre" /></g><g c_partid="part_pcbtext" c_etype="" c_origin="4080.86,3067" c_rotation="0" c_mirror="true" id="rep26" locked="" layerid="4" c_shapetype="group" display="none"><path c_fontsize="4.5" c_fontfamily="" c_text="2K" d="M4080.6554545454546 3063.481818181818L4080.6554545454546 3063.2772727272727 4080.450909090909 3062.8681818181817 4080.2463636363636 3062.663636363636 4079.8372727272726 3062.4590909090907 4079.019090909091 3062.4590909090907 4078.61 3062.663636363636 4078.4054545454546 3062.8681818181817 4078.200909090909 3063.2772727272727 4078.200909090909 3063.6863636363637 4078.4054545454546 3064.0954545454547 4078.8145454545456 3064.7090909090907 4080.86 3066.7545454545457 4077.9963636363636 3066.7545454545457M4076.6463636363637 3062.4590909090907L4076.6463636363637 3066.7545454545457M4073.7827272727272 3062.4590909090907L4076.6463636363637 3065.322727272727M4075.6236363636363 3064.3L4073.7827272727272 3066.7545454545457" fill="none"  stroke-width="0.7" c_note="note_name" /></g><g c_partid="part_pcbtext" c_etype="" c_origin="4066.39,3135.02" c_rotation="0" c_mirror="1" id="gge701" locked="" layerid="4" c_shapetype="group" ><path c_fontsize="2.5" c_fontfamily="" c_text="P6" d="M 4066.3899 3133.6601 L 4066.3899 3136.0401 M 4066.3899 3133.6601 L 4065.3699 3133.6601 L 4065.0299 3133.7701 L 4064.9099 3133.8801 L 4064.7999 3134.1101 L 4064.7999 3134.4501 L 4064.9099 3134.6801 L 4065.0299 3134.7901 L 4065.3699 3134.9101 L 4066.3899 3134.9101 M 4062.6899 3134.0001 L 4062.7999 3133.7701 L 4063.1399 3133.6601 L 4063.3699 3133.6601 L 4063.7099 3133.7701 L 4063.9399 3134.1101 L 4064.0499 3134.6801 L 4064.0499 3135.2501 L 4063.9399 3135.7001 L 4063.7099 3135.9301 L 4063.3699 3136.0401 L 4063.2499 3136.0401 L 4062.9099 3135.9301 L 4062.6899 3135.7001 L 4062.5699 3135.3601 L 4062.5699 3135.2501 L 4062.6899 3134.9101 L 4062.9099 3134.6801 L 4063.2499 3134.5701 L 4063.3699 3134.5701 L 4063.7099 3134.6801 L 4063.9399 3134.9101 L 4064.0499 3135.2501" fill="none"  stroke-width="0.7" c_note="note_pre" /></g><g c_partid="part_pcbtext" c_etype="" c_origin="4066.39,3127.02" c_rotation="0" c_mirror="true" id="rep29" locked="" layerid="4" c_shapetype="group" display="none"><path c_fontsize="2.5" c_fontfamily="" c_text="ADDR Jumper" d="M4065.480909090909 3124.4972727272725L4066.39 3126.8836363636365M4065.480909090909 3124.4972727272725L4064.571818181818 3126.8836363636365M4066.049090909091 3126.088181818182L4064.9127272727274 3126.088181818182M4063.821818181818 3124.4972727272725L4063.821818181818 3126.8836363636365M4063.821818181818 3124.4972727272725L4063.0263636363634 3124.4972727272725 4062.6854545454544 3124.610909090909 4062.4581818181814 3124.838181818182 4062.3445454545454 3125.0654545454545 4062.230909090909 3125.4063636363635 4062.230909090909 3125.9745454545455 4062.3445454545454 3126.3154545454545 4062.4581818181814 3126.5427272727275 4062.6854545454544 3126.77 4063.0263636363634 3126.8836363636365 4063.821818181818 3126.8836363636365M4061.480909090909 3124.4972727272725L4061.480909090909 3126.8836363636365M4061.480909090909 3124.4972727272725L4060.6854545454544 3124.4972727272725 4060.3445454545454 3124.610909090909 4060.1172727272724 3124.838181818182 4060.0036363636364 3125.0654545454545 4059.89 3125.4063636363635 4059.89 3125.9745454545455 4060.0036363636364 3126.3154545454545 4060.1172727272724 3126.5427272727275 4060.3445454545454 3126.77 4060.6854545454544 3126.8836363636365 4061.480909090909 3126.8836363636365M4059.14 3124.4972727272725L4059.14 3126.8836363636365M4059.14 3124.4972727272725L4058.1172727272724 3124.4972727272725 4057.7763636363634 3124.610909090909 4057.6627272727274 3124.7245454545455 4057.549090909091 3124.951818181818 4057.549090909091 3125.179090909091 4057.6627272727274 3125.4063636363635 4057.7763636363634 3125.52 4058.1172727272724 3125.6336363636365 4059.14 3125.6336363636365M4058.3445454545454 3125.6336363636365L4057.549090909091 3126.8836363636365M4053.9127272727274 3124.4972727272725L4053.9127272727274 3126.3154545454545 4054.0263636363634 3126.6563636363635 4054.14 3126.77 4054.367272727273 3126.8836363636365 4054.5945454545454 3126.8836363636365 4054.8218181818183 3126.77 4054.9354545454544 3126.6563636363635 4055.049090909091 3126.3154545454545 4055.049090909091 3126.088181818182M4053.1627272727274 3125.2927272727275L4053.1627272727274 3126.429090909091 4053.049090909091 3126.77 4052.8218181818183 3126.8836363636365 4052.4809090909093 3126.8836363636365 4052.2536363636364 3126.77 4051.9127272727274 3126.429090909091M4051.9127272727274 3125.2927272727275L4051.9127272727274 3126.8836363636365M4051.1627272727274 3125.2927272727275L4051.1627272727274 3126.8836363636365M4051.1627272727274 3125.7472727272725L4050.8218181818183 3125.4063636363635 4050.5945454545454 3125.2927272727275 4050.2536363636364 3125.2927272727275 4050.026363636364 3125.4063636363635 4049.9127272727274 3125.7472727272725 4049.9127272727274 3126.8836363636365M4049.9127272727274 3125.7472727272725L4049.5718181818183 3125.4063636363635 4049.3445454545454 3125.2927272727275 4049.0036363636364 3125.2927272727275 4048.776363636364 3125.4063636363635 4048.6627272727274 3125.7472727272725 4048.6627272727274 3126.8836363636365M4047.9127272727274 3125.2927272727275L4047.9127272727274 3127.679090909091M4047.9127272727274 3125.6336363636365L4047.685454545455 3125.4063636363635 4047.458181818182 3125.2927272727275 4047.117272727273 3125.2927272727275 4046.89 3125.4063636363635 4046.6627272727274 3125.6336363636365 4046.549090909091 3125.9745454545455 4046.549090909091 3126.201818181818 4046.6627272727274 3126.5427272727275 4046.89 3126.77 4047.117272727273 3126.8836363636365 4047.458181818182 3126.8836363636365 4047.685454545455 3126.77 4047.9127272727274 3126.5427272727275M4045.799090909091 3125.9745454545455L4044.4354545454544 3125.9745454545455 4044.4354545454544 3125.7472727272725 4044.549090909091 3125.52 4044.6627272727274 3125.4063636363635 4044.89 3125.2927272727275 4045.230909090909 3125.2927272727275 4045.458181818182 3125.4063636363635 4045.6854545454544 3125.6336363636365 4045.799090909091 3125.9745454545455 4045.799090909091 3126.201818181818 4045.6854545454544 3126.5427272727275 4045.458181818182 3126.77 4045.230909090909 3126.8836363636365 4044.89 3126.8836363636365 4044.6627272727274 3126.77 4044.4354545454544 3126.5427272727275M4043.6854545454544 3125.2927272727275L4043.6854545454544 3126.8836363636365M4043.6854545454544 3125.9745454545455L4043.571818181818 3125.6336363636365 4043.3445454545454 3125.4063636363635 4043.1172727272724 3125.2927272727275 4042.7763636363634 3125.2927272727275" fill="none"  stroke-width="0.7" c_note="note_name" /></g><g c_partid="part_pcbtext" c_etype="" c_origin="4062.3,3124.75" c_rotation="0" c_mirror="1" id="gge726" locked="" layerid="4" c_shapetype="group" ><path c_fontsize="4.5" c_fontfamily="" c_text="R6" d="M 4062.3 3122.3 L 4062.3 3126.59 M 4062.3 3122.3 L 4060.46 3122.3 L 4059.85 3122.5 L 4059.64 3122.7 L 4059.44 3123.11 L 4059.44 3123.52 L 4059.64 3123.93 L 4059.85 3124.14 L 4060.46 3124.34 L 4062.3 3124.34 M 4060.87 3124.34 L 4059.44 3126.59 M 4055.63 3122.91 L 4055.84 3122.5 L 4056.45 3122.3 L 4056.86 3122.3 L 4057.47 3122.5 L 4057.88 3123.11 L 4058.09 3124.14 L 4058.09 3125.16 L 4057.88 3125.98 L 4057.47 3126.39 L 4056.86 3126.59 L 4056.65 3126.59 L 4056.04 3126.39 L 4055.63 3125.98 L 4055.43 3125.36 L 4055.43 3125.16 L 4055.63 3124.55 L 4056.04 3124.14 L 4056.65 3123.93 L 4056.86 3123.93 L 4057.47 3124.14 L 4057.88 3124.55 L 4058.09 3125.16" fill="none"  stroke-width="0.7" c_note="note_pre" /></g><g c_partid="part_pcbtext" c_etype="" c_origin="4062.3,3116.75" c_rotation="0" c_mirror="true" id="rep31" locked="" layerid="4" c_shapetype="group" display="none"><path c_fontsize="4.5" c_fontfamily="" c_text="1K" d="M4062.3 3113.0272727272727L4061.890909090909 3112.822727272727 4061.2772727272727 3112.2090909090907 4061.2772727272727 3116.5045454545457M4059.927272727273 3112.2090909090907L4059.927272727273 3116.5045454545457M4057.0636363636363 3112.2090909090907L4059.927272727273 3115.072727272727M4058.9045454545453 3114.05L4057.0636363636363 3116.5045454545457" fill="none"  stroke-width="0.7" c_note="note_name" /></g><g c_partid="part_pcbtext" c_etype="" c_origin="4174.61,3087.25" c_rotation="0" c_mirror="1" id="gge740" locked="" layerid="4" c_shapetype="group" ><path c_fontsize="4.5" c_fontfamily="" c_text="R10" d="M 4174.61 3084.8 L 4174.61 3089.09 M 4174.61 3084.8 L 4172.77 3084.8 L 4172.16 3085 L 4171.95 3085.2 L 4171.75 3085.61 L 4171.75 3086.02 L 4171.95 3086.43 L 4172.16 3086.64 L 4172.77 3086.84 L 4174.61 3086.84 M 4173.18 3086.84 L 4171.75 3089.09 M 4170.4 3085.61 L 4169.99 3085.41 L 4169.37 3084.8 L 4169.37 3089.09 M 4166.8 3084.8 L 4167.41 3085 L 4167.82 3085.61 L 4168.02 3086.64 L 4168.02 3087.25 L 4167.82 3088.27 L 4167.41 3088.89 L 4166.8 3089.09 L 4166.39 3089.09 L 4165.77 3088.89 L 4165.36 3088.27 L 4165.16 3087.25 L 4165.16 3086.64 L 4165.36 3085.61 L 4165.77 3085 L 4166.39 3084.8 L 4166.8 3084.8" fill="none"  stroke-width="0.7" c_note="note_pre" /></g><g c_partid="part_pcbtext" c_etype="" c_origin="4174.61,3079.25" c_rotation="0" c_mirror="true" id="rep32" locked="" layerid="4" c_shapetype="group" display="none"><path c_fontsize="4.5" c_fontfamily="" c_text="1K" d="M4174.61 3075.5272727272727L4174.200909090909 3075.322727272727 4173.587272727273 3074.7090909090907 4173.587272727273 3079.0045454545457M4172.237272727272 3074.7090909090907L4172.237272727272 3079.0045454545457M4169.373636363636 3074.7090909090907L4172.237272727272 3077.572727272727M4171.214545454545 3076.55L4169.373636363636 3079.0045454545457" fill="none"  stroke-width="0.7" c_note="note_name" /></g><g c_partid="part_pcbtext" c_etype="" c_origin="4065.19,3158.08" c_rotation="0" c_mirror="1" id="gge754" locked="" layerid="4" c_shapetype="group" ><path c_fontsize="2.5" c_fontfamily="" c_text="P4" d="M 4065.1854 3156.7199 L 4065.1854 3159.1063 M 4065.1854 3156.7199 L 4064.1627 3156.7199 L 4063.8218 3156.8335 L 4063.7081 3156.9472 L 4063.5945 3157.1744 L 4063.5945 3157.5153 L 4063.7081 3157.7426 L 4063.8218 3157.8563 L 4064.1627 3157.9699 L 4065.1854 3157.9699 M 4061.7081 3156.7199 L 4062.8445 3158.3108 L 4061.1399 3158.3108 M 4061.7081 3156.7199 L 4061.7081 3159.1063" fill="none"  stroke-width="0.7" c_note="note_pre" /></g><g c_partid="part_pcbtext" c_etype="" c_origin="4065.19,3150.08" c_rotation="0" c_mirror="true" id="rep33" locked="" layerid="4" c_shapetype="group" display="none"><path c_fontsize="2.5" c_fontfamily="" c_text="ADDR Jumper" d="M4064.280909090909 3147.5572727272724L4065.19 3149.9436363636364M4064.280909090909 3147.5572727272724L4063.371818181818 3149.9436363636364M4064.849090909091 3149.148181818182L4063.7127272727275 3149.148181818182M4062.621818181818 3147.5572727272724L4062.621818181818 3149.9436363636364M4062.621818181818 3147.5572727272724L4061.8263636363636 3147.5572727272724 4061.4854545454546 3147.670909090909 4061.2581818181816 3147.898181818182 4061.1445454545456 3148.1254545454544 4061.030909090909 3148.4663636363634 4061.030909090909 3149.0345454545454 4061.1445454545456 3149.3754545454544 4061.2581818181816 3149.6027272727274 4061.4854545454546 3149.83 4061.8263636363636 3149.9436363636364 4062.621818181818 3149.9436363636364M4060.280909090909 3147.5572727272724L4060.280909090909 3149.9436363636364M4060.280909090909 3147.5572727272724L4059.4854545454546 3147.5572727272724 4059.1445454545456 3147.670909090909 4058.9172727272726 3147.898181818182 4058.8036363636365 3148.1254545454544 4058.69 3148.4663636363634 4058.69 3149.0345454545454 4058.8036363636365 3149.3754545454544 4058.9172727272726 3149.6027272727274 4059.1445454545456 3149.83 4059.4854545454546 3149.9436363636364 4060.280909090909 3149.9436363636364M4057.94 3147.5572727272724L4057.94 3149.9436363636364M4057.94 3147.5572727272724L4056.9172727272726 3147.5572727272724 4056.5763636363636 3147.670909090909 4056.4627272727275 3147.7845454545454 4056.349090909091 3148.011818181818 4056.349090909091 3148.239090909091 4056.4627272727275 3148.4663636363634 4056.5763636363636 3148.58 4056.9172727272726 3148.6936363636364 4057.94 3148.6936363636364M4057.1445454545456 3148.6936363636364L4056.349090909091 3149.9436363636364M4052.7127272727275 3147.5572727272724L4052.7127272727275 3149.3754545454544 4052.8263636363636 3149.7163636363634 4052.94 3149.83 4053.167272727273 3149.9436363636364 4053.3945454545456 3149.9436363636364 4053.6218181818185 3149.83 4053.7354545454546 3149.7163636363634 4053.849090909091 3149.3754545454544 4053.849090909091 3149.148181818182M4051.9627272727275 3148.3527272727274L4051.9627272727275 3149.489090909091 4051.849090909091 3149.83 4051.6218181818185 3149.9436363636364 4051.2809090909095 3149.9436363636364 4051.0536363636365 3149.83 4050.7127272727275 3149.489090909091M4050.7127272727275 3148.3527272727274L4050.7127272727275 3149.9436363636364M4049.9627272727275 3148.3527272727274L4049.9627272727275 3149.9436363636364M4049.9627272727275 3148.8072727272724L4049.6218181818185 3148.4663636363634 4049.3945454545456 3148.3527272727274 4049.0536363636365 3148.3527272727274 4048.826363636364 3148.4663636363634 4048.7127272727275 3148.8072727272724 4048.7127272727275 3149.9436363636364M4048.7127272727275 3148.8072727272724L4048.3718181818185 3148.4663636363634 4048.1445454545456 3148.3527272727274 4047.8036363636365 3148.3527272727274 4047.576363636364 3148.4663636363634 4047.4627272727275 3148.8072727272724 4047.4627272727275 3149.9436363636364M4046.7127272727275 3148.3527272727274L4046.7127272727275 3150.739090909091M4046.7127272727275 3148.6936363636364L4046.485454545455 3148.4663636363634 4046.258181818182 3148.3527272727274 4045.917272727273 3148.3527272727274 4045.69 3148.4663636363634 4045.4627272727275 3148.6936363636364 4045.349090909091 3149.0345454545454 4045.349090909091 3149.261818181818 4045.4627272727275 3149.6027272727274 4045.69 3149.83 4045.917272727273 3149.9436363636364 4046.258181818182 3149.9436363636364 4046.485454545455 3149.83 4046.7127272727275 3149.6027272727274M4044.599090909091 3149.0345454545454L4043.2354545454546 3149.0345454545454 4043.2354545454546 3148.8072727272724 4043.349090909091 3148.58 4043.4627272727275 3148.4663636363634 4043.69 3148.3527272727274 4044.030909090909 3148.3527272727274 4044.258181818182 3148.4663636363634 4044.4854545454546 3148.6936363636364 4044.599090909091 3149.0345454545454 4044.599090909091 3149.261818181818 4044.4854545454546 3149.6027272727274 4044.258181818182 3149.83 4044.030909090909 3149.9436363636364 4043.69 3149.9436363636364 4043.4627272727275 3149.83 4043.2354545454546 3149.6027272727274M4042.4854545454546 3148.3527272727274L4042.4854545454546 3149.9436363636364M4042.4854545454546 3149.0345454545454L4042.371818181818 3148.6936363636364 4042.1445454545456 3148.4663636363634 4041.9172727272726 3148.3527272727274 4041.5763636363636 3148.3527272727274" fill="none"  stroke-width="0.7" c_note="note_name" /></g><g c_partid="part_pcbtext" c_etype="" c_origin="4064.86,3146.6" c_rotation="0" c_mirror="1" id="gge765" locked="" layerid="4" c_shapetype="group" ><path c_fontsize="2.5" c_fontfamily="" c_text="P5" d="M 4064.86 3145.2399 L 4064.86 3147.6199 M 4064.86 3145.2399 L 4063.84 3145.2399 L 4063.5 3145.3499 L 4063.38 3145.4599 L 4063.27 3145.6899 L 4063.27 3146.0299 L 4063.38 3146.2599 L 4063.5 3146.3699 L 4063.84 3146.4899 L 4064.86 3146.4899 M 4061.16 3145.2399 L 4062.29 3145.2399 L 4062.41 3146.2599 L 4062.29 3146.1499 L 4061.95 3146.0299 L 4061.61 3146.0299 L 4061.27 3146.1499 L 4061.04 3146.3699 L 4060.93 3146.7099 L 4060.93 3146.9399 L 4061.04 3147.2799 L 4061.27 3147.5099 L 4061.61 3147.6199 L 4061.95 3147.6199 L 4062.29 3147.5099 L 4062.41 3147.3999 L 4062.52 3147.1699" fill="none"  stroke-width="0.7" c_note="note_pre" /></g><g c_partid="part_pcbtext" c_etype="" c_origin="4064.86,3138.6" c_rotation="0" c_mirror="true" id="rep34" locked="" layerid="4" c_shapetype="group" display="none"><path c_fontsize="2.5" c_fontfamily="" c_text="ADDR Jumper" d="M4063.950909090909 3136.0772727272724L4064.86 3138.4636363636364M4063.950909090909 3136.0772727272724L4063.041818181818 3138.4636363636364M4064.519090909091 3137.668181818182L4063.3827272727276 3137.668181818182M4062.291818181818 3136.0772727272724L4062.291818181818 3138.4636363636364M4062.291818181818 3136.0772727272724L4061.4963636363636 3136.0772727272724 4061.1554545454546 3136.190909090909 4060.9281818181817 3136.418181818182 4060.8145454545456 3136.6454545454544 4060.700909090909 3136.9863636363634 4060.700909090909 3137.5545454545454 4060.8145454545456 3137.8954545454544 4060.9281818181817 3138.1227272727274 4061.1554545454546 3138.35 4061.4963636363636 3138.4636363636364 4062.291818181818 3138.4636363636364M4059.950909090909 3136.0772727272724L4059.950909090909 3138.4636363636364M4059.950909090909 3136.0772727272724L4059.1554545454546 3136.0772727272724 4058.8145454545456 3136.190909090909 4058.5872727272726 3136.418181818182 4058.4736363636366 3136.6454545454544 4058.36 3136.9863636363634 4058.36 3137.5545454545454 4058.4736363636366 3137.8954545454544 4058.5872727272726 3138.1227272727274 4058.8145454545456 3138.35 4059.1554545454546 3138.4636363636364 4059.950909090909 3138.4636363636364M4057.61 3136.0772727272724L4057.61 3138.4636363636364M4057.61 3136.0772727272724L4056.5872727272726 3136.0772727272724 4056.2463636363636 3136.190909090909 4056.1327272727276 3136.3045454545454 4056.019090909091 3136.531818181818 4056.019090909091 3136.759090909091 4056.1327272727276 3136.9863636363634 4056.2463636363636 3137.1 4056.5872727272726 3137.2136363636364 4057.61 3137.2136363636364M4056.8145454545456 3137.2136363636364L4056.019090909091 3138.4636363636364M4052.3827272727276 3136.0772727272724L4052.3827272727276 3137.8954545454544 4052.4963636363636 3138.2363636363634 4052.61 3138.35 4052.837272727273 3138.4636363636364 4053.0645454545456 3138.4636363636364 4053.2918181818186 3138.35 4053.4054545454546 3138.2363636363634 4053.519090909091 3137.8954545454544 4053.519090909091 3137.668181818182M4051.6327272727276 3136.8727272727274L4051.6327272727276 3138.009090909091 4051.519090909091 3138.35 4051.2918181818186 3138.4636363636364 4050.9509090909096 3138.4636363636364 4050.7236363636366 3138.35 4050.3827272727276 3138.009090909091M4050.3827272727276 3136.8727272727274L4050.3827272727276 3138.4636363636364M4049.6327272727276 3136.8727272727274L4049.6327272727276 3138.4636363636364M4049.6327272727276 3137.3272727272724L4049.2918181818186 3136.9863636363634 4049.0645454545456 3136.8727272727274 4048.7236363636366 3136.8727272727274 4048.496363636364 3136.9863636363634 4048.3827272727276 3137.3272727272724 4048.3827272727276 3138.4636363636364M4048.3827272727276 3137.3272727272724L4048.0418181818186 3136.9863636363634 4047.8145454545456 3136.8727272727274 4047.4736363636366 3136.8727272727274 4047.246363636364 3136.9863636363634 4047.1327272727276 3137.3272727272724 4047.1327272727276 3138.4636363636364M4046.3827272727276 3136.8727272727274L4046.3827272727276 3139.259090909091M4046.3827272727276 3137.2136363636364L4046.155454545455 3136.9863636363634 4045.928181818182 3136.8727272727274 4045.587272727273 3136.8727272727274 4045.36 3136.9863636363634 4045.1327272727276 3137.2136363636364 4045.019090909091 3137.5545454545454 4045.019090909091 3137.781818181818 4045.1327272727276 3138.1227272727274 4045.36 3138.35 4045.587272727273 3138.4636363636364 4045.928181818182 3138.4636363636364 4046.155454545455 3138.35 4046.3827272727276 3138.1227272727274M4044.269090909091 3137.5545454545454L4042.9054545454546 3137.5545454545454 4042.9054545454546 3137.3272727272724 4043.019090909091 3137.1 4043.1327272727276 3136.9863636363634 4043.36 3136.8727272727274 4043.700909090909 3136.8727272727274 4043.928181818182 3136.9863636363634 4044.1554545454546 3137.2136363636364 4044.269090909091 3137.5545454545454 4044.269090909091 3137.781818181818 4044.1554545454546 3138.1227272727274 4043.928181818182 3138.35 4043.700909090909 3138.4636363636364 4043.36 3138.4636363636364 4043.1327272727276 3138.35 4042.9054545454546 3138.1227272727274M4042.1554545454546 3136.8727272727274L4042.1554545454546 3138.4636363636364M4042.1554545454546 3137.5545454545454L4042.041818181818 3137.2136363636364 4041.8145454545456 3136.9863636363634 4041.5872727272726 3136.8727272727274 4041.2463636363636 3136.8727272727274" fill="none"  stroke-width="0.7" c_note="note_name" /></g><g c_partid="part_pcbtext" c_etype="" c_origin="4099.35,3164.24" c_rotation="0" c_mirror="1" id="gge787" locked="" layerid="4" c_shapetype="group" ><path c_fontsize="4.5" c_fontfamily="" c_text="C3" d="M 4096.28 3162.81 L 4096.49 3162.4 L 4096.9 3161.99 L 4097.3 3161.79 L 4098.12 3161.79 L 4098.53 3161.99 L 4098.94 3162.4 L 4099.15 3162.81 L 4099.35 3163.42 L 4099.35 3164.44 L 4099.15 3165.06 L 4098.94 3165.47 L 4098.53 3165.88 L 4098.12 3166.08 L 4097.3 3166.08 L 4096.9 3165.88 L 4096.49 3165.47 L 4096.28 3165.06 M 4094.52 3161.79 L 4092.27 3161.79 L 4093.5 3163.42 L 4092.89 3163.42 L 4092.48 3163.63 L 4092.27 3163.83 L 4092.07 3164.44 L 4092.07 3164.85 L 4092.27 3165.47 L 4092.68 3165.88 L 4093.3 3166.08 L 4093.91 3166.08 L 4094.52 3165.88 L 4094.73 3165.67 L 4094.93 3165.26" fill="none"  stroke-width="0.7" c_note="note_pre" /></g><g c_partid="part_pcbtext" c_etype="" c_origin="4099.35,3156.24" c_rotation="0" c_mirror="true" id="rep36" locked="" layerid="4" c_shapetype="group" display="none"><path c_fontsize="4.5" c_fontfamily="" c_text="0.1uF" d="M4098.122727272727 3151.6990909090905L4098.736363636364 3151.903636363636 4099.145454545455 3152.5172727272725 4099.35 3153.54 4099.35 3154.153636363636 4099.145454545455 3155.1763636363635 4098.736363636364 3155.79 4098.122727272727 3155.9945454545455 4097.713636363636 3155.9945454545455 4097.1 3155.79 4096.690909090909 3155.1763636363635 4096.486363636364 3154.153636363636 4096.486363636364 3153.54 4096.690909090909 3152.5172727272725 4097.1 3151.903636363636 4097.713636363636 3151.6990909090905 4098.122727272727 3151.6990909090905M4094.931818181819 3154.971818181818L4095.136363636364 3155.1763636363635 4094.931818181819 3155.380909090909 4094.727272727273 3155.1763636363635 4094.931818181819 3154.971818181818M4093.3772727272726 3152.5172727272725L4092.9681818181816 3152.312727272727 4092.3545454545456 3151.6990909090905 4092.3545454545456 3155.9945454545455M4091.004545454545 3153.130909090909L4091.004545454545 3155.1763636363635 4090.8 3155.79 4090.390909090909 3155.9945454545455 4089.7772727272722 3155.9945454545455 4089.3681818181813 3155.79 4088.754545454545 3155.1763636363635M4088.754545454545 3153.130909090909L4088.754545454545 3155.9945454545455M4087.404545454545 3151.6990909090905L4087.404545454545 3155.9945454545455M4087.404545454545 3151.6990909090905L4084.745454545454 3151.6990909090905M4087.404545454545 3153.7445454545455L4085.768181818181 3153.7445454545455" fill="none"  stroke-width="0.7" c_note="note_name" /></g><g c_partid="part_pcbtext" c_etype="" c_origin="4140,3151.95" c_rotation="0" c_mirror="1" id="gge810" locked="" layerid="4" c_shapetype="group" ><path c_fontsize="4.5" c_fontfamily="" c_text="U5" d="M 4140 3149.49 L 4140 3152.56 L 4139.8 3153.17 L 4139.39 3153.58 L 4138.77 3153.79 L 4138.36 3153.79 L 4137.75 3153.58 L 4137.34 3153.17 L 4137.14 3152.56 L 4137.14 3149.49 M 4133.33 3149.49 L 4135.38 3149.49 L 4135.58 3151.33 L 4135.38 3151.13 L 4134.76 3150.92 L 4134.15 3150.92 L 4133.54 3151.13 L 4133.13 3151.54 L 4132.92 3152.15 L 4132.92 3152.56 L 4133.13 3153.17 L 4133.54 3153.58 L 4134.15 3153.79 L 4134.76 3153.79 L 4135.38 3153.58 L 4135.58 3153.38 L 4135.79 3152.97" fill="none"  stroke-width="0.7" c_note="note_pre" /></g><g c_partid="part_pcbtext" c_etype="" c_origin="4140,3143.95" c_rotation="0" c_mirror="true" id="rep38" locked="" layerid="4" c_shapetype="group" display="none"><path c_fontsize="4.5" c_fontfamily="" c_text="HT7533-1" d="M4140 3139.4090909090905L4140 3143.7045454545455M4137.136363636364 3139.4090909090905L4137.136363636364 3143.7045454545455M4140 3141.4545454545455L4137.136363636364 3141.4545454545455M4134.354545454546 3139.4090909090905L4134.354545454546 3143.7045454545455M4135.786363636364 3139.4090909090905L4132.922727272728 3139.4090909090905M4128.709090909091 3139.4090909090905L4130.754545454545 3143.7045454545455M4131.572727272727 3139.4090909090905L4128.709090909091 3139.4090909090905M4124.904545454546 3139.4090909090905L4126.95 3139.4090909090905 4127.154545454546 3141.25 4126.95 3141.0454545454545 4126.336363636364 3140.840909090909 4125.722727272727 3140.840909090909 4125.109090909091 3141.0454545454545 4124.7 3141.4545454545455 4124.495454545455 3142.0681818181815 4124.495454545455 3142.4772727272725 4124.7 3143.090909090909 4125.109090909091 3143.5 4125.722727272727 3143.7045454545455 4126.336363636364 3143.7045454545455 4126.95 3143.5 4127.154545454546 3143.2954545454545 4127.359090909091 3142.8863636363635M4122.736363636363 3139.4090909090905L4120.486363636363 3139.4090909090905 4121.713636363636 3141.0454545454545 4121.099999999999 3141.0454545454545 4120.690909090909 3141.25 4120.486363636363 3141.4545454545455 4120.281818181818 3142.0681818181815 4120.281818181818 3142.4772727272725 4120.486363636363 3143.090909090909 4120.895454545454 3143.5 4121.50909090909 3143.7045454545455 4122.122727272727 3143.7045454545455 4122.736363636363 3143.5 4122.940909090909 3143.2954545454545 4123.145454545454 3142.8863636363635M4118.522727272727 3139.4090909090905L4116.272727272727 3139.4090909090905 4117.5 3141.0454545454545 4116.886363636363 3141.0454545454545 4116.477272727273 3141.25 4116.272727272727 3141.4545454545455 4116.068181818182 3142.0681818181815 4116.068181818182 3142.4772727272725 4116.272727272727 3143.090909090909 4116.681818181818 3143.5 4117.295454545454 3143.7045454545455 4117.909090909091 3143.7045454545455 4118.522727272727 3143.5 4118.727272727273 3143.2954545454545 4118.931818181818 3142.8863636363635M4114.718181818182 3141.863636363636L4111.036363636364 3141.863636363636M4109.686363636363 3140.2272727272725L4109.277272727272 3140.022727272727 4108.663636363636 3139.4090909090905 4108.663636363636 3143.7045454545455" fill="none"  stroke-width="0.7" c_note="note_name" /></g><g c_partid="part_pcbtext" c_etype="" c_origin="4157.49,3066.81" c_rotation="0" c_mirror="1" id="gge876" locked="" layerid="4" c_shapetype="group" ><path c_fontsize="4.5" c_fontfamily="" c_text="R9" d="M 4157.49 3064.36 L 4157.49 3068.65 M 4157.49 3064.36 L 4155.65 3064.36 L 4155.04 3064.56 L 4154.83 3064.76 L 4154.63 3065.17 L 4154.63 3065.58 L 4154.83 3065.99 L 4155.04 3066.2 L 4155.65 3066.4 L 4157.49 3066.4 M 4156.06 3066.4 L 4154.63 3068.65 M 4150.62 3065.79 L 4150.82 3066.4 L 4151.23 3066.81 L 4151.84 3067.01 L 4152.05 3067.01 L 4152.66 3066.81 L 4153.07 3066.4 L 4153.28 3065.79 L 4153.28 3065.58 L 4153.07 3064.97 L 4152.66 3064.56 L 4152.05 3064.36 L 4151.84 3064.36 L 4151.23 3064.56 L 4150.82 3064.97 L 4150.62 3065.79 L 4150.62 3066.81 L 4150.82 3067.83 L 4151.23 3068.45 L 4151.84 3068.65 L 4152.25 3068.65 L 4152.87 3068.45 L 4153.07 3068.04" fill="none"  stroke-width="0.7" c_note="note_pre" /></g><g c_partid="part_pcbtext" c_etype="" c_origin="4157.49,3058.81" c_rotation="0" c_mirror="true" id="rep42" locked="" layerid="4" c_shapetype="group" display="none"><path c_fontsize="4.5" c_fontfamily="" c_text="1K" d="M4157.49 3055.0872727272726L4157.080909090909 3054.882727272727 4156.467272727273 3054.2690909090907 4156.467272727273 3058.5645454545456M4155.117272727272 3054.2690909090907L4155.117272727272 3058.5645454545456M4152.253636363636 3054.2690909090907L4155.117272727272 3057.132727272727M4154.094545454545 3056.11L4152.253636363636 3058.5645454545456" fill="none"  stroke-width="0.7" c_note="note_name" /></g><g c_partid="part_pcbtext" c_etype="" c_origin="4133,3083" c_rotation="0" c_mirror="1" id="gge890" locked="" layerid="4" c_shapetype="group" ><path c_fontsize="4.5" c_fontfamily="" c_text="P9" d="M 4133 3080.55 L 4133 3084.84 M 4133 3080.55 L 4131.16 3080.55 L 4130.55 3080.75 L 4130.34 3080.95 L 4130.14 3081.36 L 4130.14 3081.98 L 4130.34 3082.39 L 4130.55 3082.59 L 4131.16 3082.8 L 4133 3082.8 M 4126.13 3081.98 L 4126.33 3082.59 L 4126.74 3083 L 4127.35 3083.2 L 4127.56 3083.2 L 4128.17 3083 L 4128.58 3082.59 L 4128.79 3081.98 L 4128.79 3081.77 L 4128.58 3081.16 L 4128.17 3080.75 L 4127.56 3080.55 L 4127.35 3080.55 L 4126.74 3080.75 L 4126.33 3081.16 L 4126.13 3081.98 L 4126.13 3083 L 4126.33 3084.02 L 4126.74 3084.64 L 4127.35 3084.84 L 4127.76 3084.84 L 4128.38 3084.64 L 4128.58 3084.23" fill="none"  stroke-width="0.7" c_note="note_pre" /></g><g c_partid="part_pcbtext" c_etype="" c_origin="4133,3075" c_rotation="0" c_mirror="true" id="rep43" locked="" layerid="4" c_shapetype="group" display="none"><path c_fontsize="4.5" c_fontfamily="" c_text="BMP180" d="M4133 3070.4590909090907L4133 3074.7545454545457M4133 3070.4590909090907L4131.159090909091 3070.4590909090907 4130.545454545455 3070.663636363636 4130.340909090909 3070.8681818181817 4130.136363636364 3071.2772727272727 4130.136363636364 3071.6863636363637 4130.340909090909 3072.0954545454547 4130.545454545455 3072.3 4131.159090909091 3072.5045454545457M4133 3072.5045454545457L4131.159090909091 3072.5045454545457 4130.545454545455 3072.7090909090907 4130.340909090909 3072.913636363636 4130.136363636364 3073.322727272727 4130.136363636364 3073.9363636363637 4130.340909090909 3074.3454545454547 4130.545454545455 3074.55 4131.159090909091 3074.7545454545457 4133 3074.7545454545457M4128.786363636364 3070.4590909090907L4128.786363636364 3074.7545454545457M4128.786363636364 3070.4590909090907L4127.15 3074.7545454545457M4125.513636363637 3070.4590909090907L4127.15 3074.7545454545457M4125.513636363637 3070.4590909090907L4125.513636363637 3074.7545454545457M4124.163636363636 3070.4590909090907L4124.163636363636 3074.7545454545457M4124.163636363636 3070.4590909090907L4122.322727272727 3070.4590909090907 4121.709090909091 3070.663636363636 4121.504545454545 3070.8681818181817 4121.3 3071.2772727272727 4121.3 3071.890909090909 4121.504545454545 3072.3 4121.709090909091 3072.5045454545457 4122.322727272727 3072.7090909090907 4124.163636363636 3072.7090909090907M4119.95 3071.2772727272727L4119.540909090909 3071.072727272727 4118.927272727273 3070.4590909090907 4118.927272727273 3074.7545454545457M4116.554545454545 3070.4590909090907L4117.168181818181 3070.663636363636 4117.372727272727 3071.072727272727 4117.372727272727 3071.481818181818 4117.168181818181 3071.890909090909 4116.75909090909 3072.0954545454547 4115.9409090909085 3072.3 4115.327272727272 3072.5045454545457 4114.918181818181 3072.913636363636 4114.713636363636 3073.322727272727 4114.713636363636 3073.9363636363637 4114.918181818181 3074.3454545454547 4115.122727272727 3074.55 4115.736363636363 3074.7545454545457 4116.554545454545 3074.7545454545457 4117.168181818181 3074.55 4117.372727272727 3074.3454545454547 4117.577272727272 3073.9363636363637 4117.577272727272 3073.322727272727 4117.372727272727 3072.913636363636 4116.963636363636 3072.5045454545457 4116.349999999999 3072.3 4115.5318181818175 3072.0954545454547 4115.122727272727 3071.890909090909 4114.918181818181 3071.481818181818 4114.918181818181 3071.072727272727 4115.122727272727 3070.663636363636 4115.736363636363 3070.4590909090907 4116.554545454545 3070.4590909090907M4112.136363636363 3070.4590909090907L4112.75 3070.663636363636 4113.159090909091 3071.2772727272727 4113.363636363636 3072.3 4113.363636363636 3072.913636363636 4113.159090909091 3073.9363636363637 4112.75 3074.55 4112.136363636363 3074.7545454545457 4111.727272727272 3074.7545454545457 4111.113636363636 3074.55 4110.704545454545 3073.9363636363637 4110.5 3072.913636363636 4110.5 3072.3 4110.704545454545 3071.2772727272727 4111.113636363636 3070.663636363636 4111.727272727272 3070.4590909090907 4112.136363636363 3070.4590909090907" fill="none"  stroke-width="0.7" c_note="note_name" /></g><g c_partid="part_pcbtext" c_etype="" c_origin="4088.04,3135.37" c_rotation="0" c_mirror="1" id="gge1006" locked="" layerid="4" c_shapetype="group" ><path c_fontsize="2.5" c_fontfamily="" c_text="P10" d="M 4088.0399 3134.01 L 4088.0399 3136.39 M 4088.0399 3134.01 L 4087.0199 3134.01 L 4086.6799 3134.12 L 4086.5599 3134.23 L 4086.4499 3134.46 L 4086.4499 3134.8 L 4086.5599 3135.03 L 4086.6799 3135.14 L 4087.0199 3135.26 L 4088.0399 3135.26 M 4085.6999 3134.46 L 4085.4699 3134.35 L 4085.1299 3134.01 L 4085.1299 3136.39 M 4083.6999 3134.01 L 4084.0399 3134.12 L 4084.2699 3134.46 L 4084.3799 3135.03 L 4084.3799 3135.37 L 4084.2699 3135.94 L 4084.0399 3136.28 L 4083.6999 3136.39 L 4083.4699 3136.39 L 4083.1299 3136.28 L 4082.8999 3135.94 L 4082.7899 3135.37 L 4082.7899 3135.03 L 4082.8999 3134.46 L 4083.1299 3134.12 L 4083.4699 3134.01 L 4083.6999 3134.01" fill="none"  stroke-width="0.7" c_note="note_pre" /></g><g c_partid="part_pcbtext" c_etype="" c_origin="4088.04,3127.37" c_rotation="0" c_mirror="true" id="rep45" locked="" layerid="4" c_shapetype="group" display="none"><path c_fontsize="2.5" c_fontfamily="" c_text="ADDR Jumper" d="M4087.130909090909 3124.8472727272724L4088.04 3127.2336363636364M4087.130909090909 3124.8472727272724L4086.221818181818 3127.2336363636364M4087.699090909091 3126.438181818182L4086.5627272727274 3126.438181818182M4085.471818181818 3124.8472727272724L4085.471818181818 3127.2336363636364M4085.471818181818 3124.8472727272724L4084.6763636363635 3124.8472727272724 4084.3354545454545 3124.960909090909 4084.1081818181815 3125.188181818182 4083.9945454545455 3125.4154545454544 4083.880909090909 3125.7563636363634 4083.880909090909 3126.3245454545454 4083.9945454545455 3126.6654545454544 4084.1081818181815 3126.8927272727274 4084.3354545454545 3127.12 4084.6763636363635 3127.2336363636364 4085.471818181818 3127.2336363636364M4083.130909090909 3124.8472727272724L4083.130909090909 3127.2336363636364M4083.130909090909 3124.8472727272724L4082.3354545454545 3124.8472727272724 4081.9945454545455 3124.960909090909 4081.7672727272725 3125.188181818182 4081.6536363636365 3125.4154545454544 4081.54 3125.7563636363634 4081.54 3126.3245454545454 4081.6536363636365 3126.6654545454544 4081.7672727272725 3126.8927272727274 4081.9945454545455 3127.12 4082.3354545454545 3127.2336363636364 4083.130909090909 3127.2336363636364M4080.79 3124.8472727272724L4080.79 3127.2336363636364M4080.79 3124.8472727272724L4079.767272727273 3124.8472727272724 4079.426363636364 3124.960909090909 4079.312727272727 3125.0745454545454 4079.199090909091 3125.301818181818 4079.199090909091 3125.529090909091 4079.312727272727 3125.7563636363634 4079.426363636364 3125.87 4079.767272727273 3125.9836363636364 4080.79 3125.9836363636364M4079.994545454545 3125.9836363636364L4079.199090909091 3127.2336363636364M4075.562727272727 3124.8472727272724L4075.562727272727 3126.6654545454544 4075.676363636364 3127.0063636363634 4075.79 3127.12 4076.017272727273 3127.2336363636364 4076.244545454546 3127.2336363636364 4076.471818181818 3127.12 4076.585454545455 3127.0063636363634 4076.699090909091 3126.6654545454544 4076.699090909091 3126.438181818182M4074.812727272727 3125.6427272727274L4074.812727272727 3126.779090909091 4074.699090909091 3127.12 4074.471818181818 3127.2336363636364 4074.130909090909 3127.2336363636364 4073.903636363636 3127.12 4073.562727272727 3126.779090909091M4073.562727272727 3125.6427272727274L4073.562727272727 3127.2336363636364M4072.812727272727 3125.6427272727274L4072.812727272727 3127.2336363636364M4072.812727272727 3126.0972727272724L4072.471818181818 3125.7563636363634 4072.244545454545 3125.6427272727274 4071.903636363636 3125.6427272727274 4071.676363636363 3125.7563636363634 4071.562727272727 3126.0972727272724 4071.562727272727 3127.2336363636364M4071.562727272727 3126.0972727272724L4071.221818181818 3125.7563636363634 4070.994545454545 3125.6427272727274 4070.653636363636 3125.6427272727274 4070.426363636363 3125.7563636363634 4070.312727272727 3126.0972727272724 4070.312727272727 3127.2336363636364M4069.562727272727 3125.6427272727274L4069.562727272727 3128.029090909091M4069.562727272727 3125.9836363636364L4069.335454545454 3125.7563636363634 4069.108181818182 3125.6427272727274 4068.767272727272 3125.6427272727274 4068.54 3125.7563636363634 4068.312727272727 3125.9836363636364 4068.199090909091 3126.3245454545454 4068.199090909091 3126.551818181818 4068.312727272727 3126.8927272727274 4068.54 3127.12 4068.767272727272 3127.2336363636364 4069.108181818182 3127.2336363636364 4069.335454545454 3127.12 4069.562727272727 3126.8927272727274M4067.449090909091 3126.3245454545454L4066.085454545455 3126.3245454545454 4066.085454545455 3126.0972727272724 4066.199090909091 3125.87 4066.312727272727 3125.7563636363634 4066.54 3125.6427272727274 4066.880909090909 3125.6427272727274 4067.108181818182 3125.7563636363634 4067.335454545455 3125.9836363636364 4067.449090909091 3126.3245454545454 4067.449090909091 3126.551818181818 4067.335454545455 3126.8927272727274 4067.108181818182 3127.12 4066.880909090909 3127.2336363636364 4066.54 3127.2336363636364 4066.312727272727 3127.12 4066.085454545455 3126.8927272727274M4065.335454545455 3125.6427272727274L4065.335454545455 3127.2336363636364M4065.335454545455 3126.3245454545454L4065.221818181819 3125.9836363636364 4064.994545454546 3125.7563636363634 4064.767272727273 3125.6427272727274 4064.426363636364 3125.6427272727274" fill="none"  stroke-width="0.7" c_note="note_name" /></g><g c_partid="part_pcbtext" c_etype="" c_origin="4087.74,3146.35" c_rotation="0" c_mirror="1" id="gge1017" locked="" layerid="4" c_shapetype="group" ><path c_fontsize="2.5" c_fontfamily="" c_text="P11" d="M 4087.7399 3144.99 L 4087.7399 3147.37 M 4087.7399 3144.99 L 4086.7199 3144.99 L 4086.3799 3145.1 L 4086.2599 3145.21 L 4086.1499 3145.44 L 4086.1499 3145.78 L 4086.2599 3146.01 L 4086.3799 3146.12 L 4086.7199 3146.24 L 4087.7399 3146.24 M 4085.3999 3145.44 L 4085.1699 3145.33 L 4084.8299 3144.99 L 4084.8299 3147.37 M 4084.0799 3145.44 L 4083.8499 3145.33 L 4083.5099 3144.99 L 4083.5099 3147.37" fill="none"  stroke-width="0.7" c_note="note_pre" /></g><g c_partid="part_pcbtext" c_etype="" c_origin="4087.74,3138.35" c_rotation="0" c_mirror="true" id="rep46" locked="" layerid="4" c_shapetype="group" display="none"><path c_fontsize="2.5" c_fontfamily="" c_text="ADDR Jumper" d="M4086.830909090909 3135.8272727272724L4087.74 3138.2136363636364M4086.830909090909 3135.8272727272724L4085.921818181818 3138.2136363636364M4087.399090909091 3137.418181818182L4086.2627272727273 3137.418181818182M4085.171818181818 3135.8272727272724L4085.171818181818 3138.2136363636364M4085.171818181818 3135.8272727272724L4084.3763636363633 3135.8272727272724 4084.0354545454543 3135.940909090909 4083.8081818181813 3136.168181818182 4083.6945454545453 3136.3954545454544 4083.580909090909 3136.7363636363634 4083.580909090909 3137.3045454545454 4083.6945454545453 3137.6454545454544 4083.8081818181813 3137.8727272727274 4084.0354545454543 3138.1 4084.3763636363633 3138.2136363636364 4085.171818181818 3138.2136363636364M4082.830909090909 3135.8272727272724L4082.830909090909 3138.2136363636364M4082.830909090909 3135.8272727272724L4082.0354545454543 3135.8272727272724 4081.6945454545453 3135.940909090909 4081.4672727272723 3136.168181818182 4081.3536363636363 3136.3954545454544 4081.24 3136.7363636363634 4081.24 3137.3045454545454 4081.3536363636363 3137.6454545454544 4081.4672727272723 3137.8727272727274 4081.6945454545453 3138.1 4082.0354545454543 3138.2136363636364 4082.830909090909 3138.2136363636364M4080.49 3135.8272727272724L4080.49 3138.2136363636364M4080.49 3135.8272727272724L4079.4672727272728 3135.8272727272724 4079.1263636363637 3135.940909090909 4079.012727272727 3136.0545454545454 4078.899090909091 3136.281818181818 4078.899090909091 3136.509090909091 4079.012727272727 3136.7363636363634 4079.1263636363637 3136.85 4079.4672727272728 3136.9636363636364 4080.49 3136.9636363636364M4079.6945454545453 3136.9636363636364L4078.899090909091 3138.2136363636364M4075.262727272727 3135.8272727272724L4075.262727272727 3137.6454545454544 4075.3763636363637 3137.9863636363634 4075.49 3138.1 4075.7172727272728 3138.2136363636364 4075.9445454545457 3138.2136363636364 4076.171818181818 3138.1 4076.2854545454547 3137.9863636363634 4076.399090909091 3137.6454545454544 4076.399090909091 3137.418181818182M4074.512727272727 3136.6227272727274L4074.512727272727 3137.759090909091 4074.399090909091 3138.1 4074.171818181818 3138.2136363636364 4073.830909090909 3138.2136363636364 4073.603636363636 3138.1 4073.262727272727 3137.759090909091M4073.262727272727 3136.6227272727274L4073.262727272727 3138.2136363636364M4072.512727272727 3136.6227272727274L4072.512727272727 3138.2136363636364M4072.512727272727 3137.0772727272724L4072.171818181818 3136.7363636363634 4071.944545454545 3136.6227272727274 4071.603636363636 3136.6227272727274 4071.376363636363 3136.7363636363634 4071.262727272727 3137.0772727272724 4071.262727272727 3138.2136363636364M4071.262727272727 3137.0772727272724L4070.921818181818 3136.7363636363634 4070.694545454545 3136.6227272727274 4070.353636363636 3136.6227272727274 4070.126363636363 3136.7363636363634 4070.012727272727 3137.0772727272724 4070.012727272727 3138.2136363636364M4069.262727272727 3136.6227272727274L4069.262727272727 3139.009090909091M4069.262727272727 3136.9636363636364L4069.035454545454 3136.7363636363634 4068.8081818181818 3136.6227272727274 4068.467272727272 3136.6227272727274 4068.24 3136.7363636363634 4068.012727272727 3136.9636363636364 4067.899090909091 3137.3045454545454 4067.899090909091 3137.531818181818 4068.012727272727 3137.8727272727274 4068.24 3138.1 4068.467272727272 3138.2136363636364 4068.8081818181818 3138.2136363636364 4069.035454545454 3138.1 4069.262727272727 3137.8727272727274M4067.149090909091 3137.3045454545454L4065.7854545454547 3137.3045454545454 4065.7854545454547 3137.0772727272724 4065.899090909091 3136.85 4066.012727272727 3136.7363636363634 4066.24 3136.6227272727274 4066.580909090909 3136.6227272727274 4066.8081818181818 3136.7363636363634 4067.0354545454547 3136.9636363636364 4067.149090909091 3137.3045454545454 4067.149090909091 3137.531818181818 4067.0354545454547 3137.8727272727274 4066.8081818181818 3138.1 4066.580909090909 3138.2136363636364 4066.24 3138.2136363636364 4066.012727272727 3138.1 4065.7854545454547 3137.8727272727274M4065.0354545454547 3136.6227272727274L4065.0354545454547 3138.2136363636364M4065.0354545454547 3137.3045454545454L4064.9218181818187 3136.9636363636364 4064.6945454545457 3136.7363636363634 4064.4672727272728 3136.6227272727274 4064.1263636363637 3136.6227272727274" fill="none"  stroke-width="0.7" c_note="note_name" /></g><path d="M 4171.17 3144.46 A 0.59055 0.59055 0 1 1 4171.16 3144.46" locked=""  fill="none" stroke-width="1.1811" c_helper_type="arc2" net="" layerid="4" id="gge376" /><path d="M 4161.14 3098.63 A 2.5 2.5 0 0 0 4161.14 3103.63" locked=""  fill="none" stroke-width="1" c_helper_type="arc2" net="" layerid="4" id="gge457" /><circle cx="4122.5" cy="3086.5" r="1.5" stroke-width="1" fill="none" layerid="4" id="gge6" locked=""  /><circle cx="4162.04" cy="3109.63" r="0.75" stroke-width="1" fill="none" layerid="4" id="gge482" locked=""  /><circle cx="4102.89" cy="3153.21" r="1" stroke-width="1" fill="none" layerid="4" id="gge585" locked=""  /><circle cx="4110.68" cy="3141.37" r="1" stroke-width="1" fill="none" layerid="4" id="gge648" locked=""  /><g id="gge131574" layerid="4" c_partid="part_svg" c_shapetype="group"><path d="M 4168.77 3054.71 L 4172.88 3056.78 L 4173.79 3056.78 L 4174.69 3056.78 L 4170.58 3054.71 L 4166.47 3052.65 L 4165.56 3052.65 L 4164.66 3052.65 L 4168.77 3054.71 M 4171.13 3054.51 C 4173.19 3055.53 4174.89 3056.37 4174.91 3056.37 C 4174.94 3056.37 4174.96 3055.53 4174.96 3054.51 L 4174.96 3052.64 L 4171.18 3052.64 L 4167.4 3052.64 L 4171.13 3054.51 M 4175.77 3055.12 L 4175.77 3057.6 L 4170.2 3057.6 L 4164.63 3057.6 L 4164.63 3058.82 L 4164.63 3060.05 L 4170.2 3060.05 L 4175.77 3060.05 L 4175.77 3062.53 L 4175.77 3065.01 L 4177 3065.01 L 4178.22 3065.01 L 4178.22 3062.53 L 4178.22 3060.05 L 4183.79 3060.05 L 4189.36 3060.05 L 4189.36 3058.82 L 4189.36 3057.6 L 4183.79 3057.6 L 4178.22 3057.6 L 4178.22 3055.12 L 4178.22 3052.64 L 4177 3052.64 L 4175.77 3052.64 L 4175.77 3055.12 M 4179.04 3054.51 C 4179.04 3055.53 4179.06 3056.37 4179.09 3056.37 C 4179.11 3056.37 4180.81 3055.53 4182.86 3054.51 L 4186.59 3052.64 L 4182.82 3052.64 L 4179.04 3052.64 L 4179.04 3054.51 M 4185.25 3054.7 L 4181.17 3056.75 L 4182.03 3056.77 L 4182.88 3056.78 L 4186.11 3055.17 C 4187.88 3054.29 4189.34 3053.55 4189.35 3053.54 C 4189.36 3053.54 4189.36 3053.33 4189.35 3053.09 L 4189.33 3052.65 L 4185.25 3054.7 M 4164.63 3055.41 L 4164.63 3056.78 L 4167.36 3056.78 L 4170.08 3056.78 L 4169.41 3056.43 C 4168.49 3055.94 4165.57 3054.48 4165.05 3054.24 L 4164.63 3054.05 L 4164.63 3055.41 M 4186.63 3055.39 L 4183.92 3056.75 L 4186.62 3056.77 C 4188.11 3056.78 4189.33 3056.77 4189.34 3056.76 C 4189.36 3056.75 4189.36 3056.13 4189.35 3055.39 L 4189.33 3054.04 L 4186.63 3055.39 M 4164.63 3062.23 L 4164.63 3063.6 L 4165.05 3063.41 C 4165.57 3063.17 4168.49 3061.71 4169.41 3061.22 L 4170.08 3060.87 L 4167.36 3060.87 L 4164.63 3060.87 L 4164.63 3062.23 M 4167.85 3062.49 L 4164.63 3064.1 L 4164.63 3064.55 L 4164.63 3065.01 L 4168.71 3062.97 C 4170.96 3061.84 4172.8 3060.91 4172.8 3060.89 C 4172.8 3060.88 4172.41 3060.87 4171.94 3060.87 L 4171.08 3060.87 L 4167.85 3062.49 M 4183.41 3062.94 L 4187.53 3065 L 4188.43 3065 L 4189.33 3065 L 4185.22 3062.94 L 4181.11 3060.87 L 4180.21 3060.87 L 4179.3 3060.87 L 4183.41 3062.94 M 4185.51 3061.69 C 4186.4 3062.15 4187.62 3062.76 4188.24 3063.06 L 4189.36 3063.6 L 4189.36 3062.23 L 4189.36 3060.87 L 4186.64 3060.87 L 4183.91 3060.87 L 4185.51 3061.69 M 4171.11 3063.15 L 4167.4 3065 L 4171.18 3065.01 L 4174.96 3065.01 L 4174.96 3063.14 C 4174.96 3061.68 4174.94 3061.27 4174.88 3061.28 C 4174.84 3061.28 4173.14 3062.12 4171.11 3063.15 M 4179.04 3063.14 L 4179.04 3065.01 L 4182.82 3065 L 4186.59 3065 L 4182.86 3063.14 C 4180.81 3062.11 4179.11 3061.27 4179.09 3061.27 C 4179.06 3061.27 4179.04 3062.11 4179.04 3063.14" id="gge131575" stroke="none"></path></g></g><g transform="matrix(-1, 0, 0, 1, 8246.6, 0)"><polyline points="4051.13 3051.33 4190.86 3051.23 4190.93 3177.31 4051.12 3177.28 4051.07 3051.36 4051.33 3051.39" stroke-width="1"  stroke-linecap="round" fill="none" layerid="10" net="" id="gge1026" locked="0" /></g></svg>