<svg xmlns="http://www.w3.org/2000/svg" xmlns:xlink="http://www.w3.org/1999/xlink" width="41.859mm" height="37.211mm" viewBox="4040.9 3041.2 164.8 146.5"><title></title><style type="text/css">
*[layerid="1"] {stroke:#FF0000;fill:#FF0000;}
*[layerid="2"] {stroke:#0000FF;fill:#0000FF;}
*[layerid="3"] {stroke:#FFFF00;fill:#FFFF00;}
*[layerid="4"] {stroke:#808000;fill:#808000;}
*[layerid="5"] {stroke:#808080;fill:#808080;}
*[layerid="6"] {stroke:#800000;fill:#800000;}
*[layerid="7"] {stroke:#800080;fill:#800080;}
*[layerid="8"] {stroke:#AA00FF;fill:#AA00FF;}
*[layerid="9"] {stroke:#6464FF;fill:#6464FF;}
*[layerid="10"] {stroke:#FF00FF;fill:#FF00FF;}
*[layerid="11"] {stroke:#C0C0C0;fill:#C0C0C0;}
*[layerid="12"] {stroke:#FFFFFF;fill:#FFFFFF;}
*[layerid="13"] {stroke:#33CC99;fill:#33CC99;}
*[layerid="14"] {stroke:#5555FF;fill:#5555FF;}
*[layerid="15"] {stroke:#F022F0;fill:#F022F0;}
*[layerid="19"] {stroke:#66CCFF;fill:#66CCFF;}
*[layerid="21"] {stroke:#800000;fill:#800000;}
*[layerid="22"] {stroke:#008000;fill:#008000;}
*[layerid="23"] {stroke:#00FF00;fill:#00FF00;}
*[layerid="24"] {stroke:#000080;fill:#000080;}
*[layerid="25"] {stroke:#70DBFA;fill:#70DBFA;}
*[layerid="26"] {stroke:#00CC66;fill:#00CC66;}
*[layerid="27"] {stroke:#9966FF;fill:#9966FF;}
*[layerid="28"] {stroke:#800080;fill:#800080;}
*[layerid="29"] {stroke:#008080;fill:#008080;}
*[layerid="30"] {stroke:#15935F;fill:#15935F;}
*[layerid="31"] {stroke:#000080;fill:#000080;}
*[layerid="32"] {stroke:#00B400;fill:#00B400;}
*[layerid="33"] {stroke:#2E4756;fill:#2E4756;}
*[layerid="34"] {stroke:#99842F;fill:#99842F;}
*[layerid="35"] {stroke:#FFFFAA;fill:#FFFFAA;}
*[layerid="36"] {stroke:#99842F;fill:#99842F;}
*[layerid="37"] {stroke:#2E4756;fill:#2E4756;}
*[layerid="38"] {stroke:#3535FF;fill:#3535FF;}
*[layerid="39"] {stroke:#8000BC;fill:#8000BC;}
*[layerid="40"] {stroke:#43AE5F;fill:#43AE5F;}
*[layerid="41"] {stroke:#C3ECCE;fill:#C3ECCE;}
*[layerid="42"] {stroke:#728978;fill:#728978;}
*[layerid="43"] {stroke:#39503F;fill:#39503F;}
*[layerid="44"] {stroke:#0C715D;fill:#0C715D;}
*[layerid="45"] {stroke:#5A8A80;fill:#5A8A80;}
*[layerid="46"] {stroke:#2B937E;fill:#2B937E;}
*[layerid="47"] {stroke:#23999D;fill:#23999D;}
*[layerid="48"] {stroke:#45B4E3;fill:#45B4E3;}
*[layerid="49"] {stroke:#215DA1;fill:#215DA1;}
*[layerid="50"] {stroke:#4564D7;fill:#4564D7;}
*[layerid="51"] {stroke:#6969E9;fill:#6969E9;}
*[layerid="52"] {stroke:#9069E9;fill:#9069E9;}
*[layerid="99"] {stroke:#00CCCC;fill:#00CCCC;}
*[layerid="100"] {stroke:#CC9999;fill:#CC9999;}
*[layerid="Hole"] {stroke:#222222;fill:#222222;}
*[layerid="DRCError"] {stroke:#FFFFFF;fill:#FFFFFF;}
*[fill="none"] {fill: none;}
*[stroke="none"] {stroke: none;}
path, polyline, polygon, line {stroke-linecap:round;}
g[c_partid="part_pad"][layerid="1"] ellipse:not([c_etype="pad_outer"]) {fill:#FF0000;}
g[c_partid="part_pad"][layerid="1"] polygon:not([c_etype="pad_outer"]) {fill:#FF0000;}
g[c_partid="part_pad"][layerid="1"] polyline:not([c_etype="pad_outer"]) {stroke:#FF0000;}
g[c_partid="part_pad"][layerid="2"] ellipse:not([c_etype="pad_outer"]) {fill:#0000FF;}
g[c_partid="part_pad"][layerid="2"] polygon:not([c_etype="pad_outer"]) {fill:#0000FF;}
g[c_partid="part_pad"][layerid="2"] polyline:not([c_etype="pad_outer"]) {stroke:#0000FF;}
g[c_partid="part_pad"][layerid="11"] ellipse:not([c_etype="pad_outer"]) {fill:#C0C0C0;}
g[c_partid="part_pad"][layerid="11"] polygon:not([c_etype="pad_outer"]) {fill:#C0C0C0;}
g[c_partid="part_pad"][layerid="11"] polyline:not([c_etype="pad_outer"]) {stroke:#C0C0C0;}
g[c_partid="part_pad"][layerid="11"] circle {fill:#222222;}
g[c_partid="part_pad"][layerid="11"] > polyline:nth-of-type(2) {stroke:#222222;}
g[c_partid="part_pad"][layerid="11"][c_shape="ELLIPSE"]  polyline:nth-last-of-type(1) {stroke:#222222;}
g[c_partid="part_pad"][layerid="11"][c_shape="RECT"]  polyline:nth-last-of-type(1) {stroke:#222222;}
g[c_partid="part_pad"][layerid="11"][c_shape="POLYGON"]  polyline:nth-last-of-type(1) {stroke:#222222;}
g[c_partid="part_via"] > * + circle, #gCurParts g[c_partid="part_via"] > * + circle {fill:#222222;}
g[c_partid="part_pad"] > polygon[c_etype="pad_outer"], #gCurParts g[c_partid="part_pad"] > polygon[c_etype="pad_outer"] {stroke-linejoin: miter;stroke-miterlimit: 100;}
g[c_partid="part_hole"] > circle {fill: #222222;}path, polyline, polygon {stroke-linejoin:round;}
rect, circle, ellipse, polyline, line, polygon, path {shape-rendering:crispEdges;}
</style>
<rect x="4040.9" y="3041.2" width="164.8" height="146.5" fill="#000000" stroke="none"/><polyline points="4111 3079.1 4105.4 3079.1" stroke-width="1"  stroke-linecap="round" fill="none" layerid="3" net="" id="gge107" locked="" /><polyline points="4113.5 3086.1 4119.4 3086.1 4119.4 3079.1 4113.5 3079.1" stroke-width="1"  stroke-linecap="round" fill="none" layerid="3" net="" id="gge108" locked="" /><polyline points="4105.4 3079.1 4105.4 3086.1" stroke-width="1"  stroke-linecap="round" fill="none" layerid="3" net="" id="gge109" locked="" /><polyline points="4105.4 3086.1 4111 3086.1" stroke-width="1"  stroke-linecap="round" fill="none" layerid="3" net="" id="gge110" locked="" /><polyline points="4125.43 3112.92 4125.43 3107.32" stroke-width="1"  stroke-linecap="round" fill="none" layerid="3" net="" id="gge121" locked="" /><polyline points="4118.43 3115.42 4118.43 3121.32 4125.43 3121.32 4125.43 3115.42" stroke-width="1"  stroke-linecap="round" fill="none" layerid="3" net="" id="gge122" locked="" /><polyline points="4125.43 3107.32 4118.43 3107.32" stroke-width="1"  stroke-linecap="round" fill="none" layerid="3" net="" id="gge123" locked="" /><polyline points="4118.43 3107.32 4118.43 3112.92" stroke-width="1"  stroke-linecap="round" fill="none" layerid="3" net="" id="gge124" locked="" /><polyline points="4051.118 3051.307 4190.882 3051.307" stroke-width="1"  stroke-linecap="round" fill="none" layerid="3" net="" id="gge135" locked="" /><polyline points="4051.118 3051.307 4051.118 3177.291" stroke-width="1"  stroke-linecap="round" fill="none" layerid="3" net="" id="gge136" locked="" /><polyline points="4190.882 3051.307 4190.882 3177.291" stroke-width="1"  stroke-linecap="round" fill="none" layerid="3" net="" id="gge137" locked="" /><polyline points="4051.118 3177.291 4091 3177.291" stroke-width="1"  stroke-linecap="round" fill="none" layerid="3" net="" id="gge138" locked="" /><polyline points="4051.118 3069.024 4190.882 3069.024" stroke-width="1"  stroke-linecap="round" fill="none" layerid="3" net="" id="gge139" locked="" /><polyline points="4051.118 3159.575 4190.882 3159.575" stroke-width="1"  stroke-linecap="round" fill="none" layerid="3" net="" id="gge140" locked="" /><polyline points="4096 3168.827 4146 3168.827" stroke-width="1"  stroke-linecap="round" fill="none" layerid="3" net="" id="gge141" locked="" /><polyline points="4096 3168.827 4091 3177.291" stroke-width="1"  stroke-linecap="round" fill="none" layerid="3" net="" id="gge142" locked="" /><polyline points="4146 3168.827 4151 3177.291" stroke-width="1"  stroke-linecap="round" fill="none" layerid="3" net="" id="gge143" locked="" /><polyline points="4151 3177.291 4190.882 3177.291" stroke-width="1"  stroke-linecap="round" fill="none" layerid="3" net="" id="gge144" locked="" /><polyline points="4161.892 3080.941 4148.88 3080.941 4148.88 3099.839 4163.88 3099.839 4163.88 3080.941 4161.892 3080.941" stroke-width="1"  stroke-linecap="round" fill="none" layerid="3" net="" id="gge174" locked="" /><polyline points="4176.91 3087.417 4176.91 3065.763" stroke-width="0.7874"  stroke-linecap="round" fill="none" layerid="3" net="S$34" id="gge214" locked="" /><polyline points="4190.1 3093.519 4190.097 3059.661" stroke-width="0.7874"  stroke-linecap="round" fill="none" layerid="3" net="S$34" id="gge215" locked="" /><polyline points="4190.097 3093.519 4185.255 3093.519" stroke-width="0.7874"  stroke-linecap="round" fill="none" layerid="3" net="S$41" id="gge216" locked="" /><polyline points="4190.09 3059.661 4185.255 3059.661" stroke-width="0.7874"  stroke-linecap="round" fill="none" layerid="3" net="S$41" id="gge217" locked="" /><polyline points="4185.255 3087.417 4185.255 3093.519" stroke-width="0.7874"  stroke-linecap="round" fill="none" layerid="3" net="S$44" id="gge218" locked="" /><polyline points="4176.908 3065.76 4185.06 3065.76" stroke-width="0.7874"  stroke-linecap="round" fill="none" layerid="3" net="S$47" id="gge219" locked="" /><polyline points="4176.908 3087.417 4185.06 3087.42" stroke-width="0.7874"  stroke-linecap="round" fill="none" layerid="3" net="S$47" id="gge220" locked="" /><polyline points="4185.255 3065.763 4185.255 3059.661" stroke-width="0.7874"  stroke-linecap="round" fill="none" layerid="3" net="S$44" id="gge221" locked="" /><polyline points="4190.097 3082.495 4194.034 3082.495" stroke-width="0.3937"  stroke-linecap="round" fill="none" layerid="3" net="S$52" id="gge222" locked="" /><polyline points="4190.097 3070.684 4194.034 3070.684" stroke-width="0.3937"  stroke-linecap="round" fill="none" layerid="3" net="S$52" id="gge223" locked="" /><polyline points="4194.034 3082.495 4194.034 3070.684" stroke-width="0.3937"  stroke-linecap="round" fill="none" layerid="3" net="S$55" id="gge224" locked="" /><polyline points="4176.68 3076.59 4178.68 3076.59" stroke-width="0.19685"  stroke-linecap="round" fill="none" layerid="3" net="S$59" id="gge225" locked="" /><polyline points="4179.68 3076.59 4180.68 3076.59" stroke-width="0.19685"  stroke-linecap="round" fill="none" layerid="3" net="S$61" id="gge226" locked="" /><polyline points="4181.68 3076.59 4183.68 3076.59" stroke-width="0.19685"  stroke-linecap="round" fill="none" layerid="3" net="S$63" id="gge227" locked="" /><polyline points="4184.68 3076.59 4185.68 3076.59" stroke-width="0.19685"  stroke-linecap="round" fill="none" layerid="3" net="S$65" id="gge228" locked="" /><polyline points="4186.68 3076.59 4188.68 3076.59" stroke-width="0.19685"  stroke-linecap="round" fill="none" layerid="3" net="S$67" id="gge229" locked="" /><polyline points="4189.68 3076.59 4190.68 3076.59" stroke-width="0.19685"  stroke-linecap="round" fill="none" layerid="3" net="S$69" id="gge230" locked="" /><polyline points="4191.68 3076.59 4193.68 3076.59" stroke-width="0.19685"  stroke-linecap="round" fill="none" layerid="3" net="S$67" id="gge231" locked="" /><polyline points="4194.68 3076.59 4195.68 3076.59" stroke-width="0.19685"  stroke-linecap="round" fill="none" layerid="3" net="S$69" id="gge232" locked="" /><polyline points="4176.8 3123.997 4176.8 3102.343" stroke-width="0.7874"  stroke-linecap="round" fill="none" layerid="3" net="S$34" id="gge249" locked="" /><polyline points="4189.99 3130.099 4189.987 3096.241" stroke-width="0.7874"  stroke-linecap="round" fill="none" layerid="3" net="S$34" id="gge250" locked="" /><polyline points="4189.987 3130.099 4185.145 3130.099" stroke-width="0.7874"  stroke-linecap="round" fill="none" layerid="3" net="S$41" id="gge251" locked="" /><polyline points="4189.98 3096.241 4185.145 3096.241" stroke-width="0.7874"  stroke-linecap="round" fill="none" layerid="3" net="S$41" id="gge252" locked="" /><polyline points="4185.145 3123.997 4185.145 3130.099" stroke-width="0.7874"  stroke-linecap="round" fill="none" layerid="3" net="S$44" id="gge253" locked="" /><polyline points="4176.798 3102.34 4184.95 3102.34" stroke-width="0.7874"  stroke-linecap="round" fill="none" layerid="3" net="S$47" id="gge254" locked="" /><polyline points="4176.798 3123.997 4184.95 3124" stroke-width="0.7874"  stroke-linecap="round" fill="none" layerid="3" net="S$47" id="gge255" locked="" /><polyline points="4185.145 3102.343 4185.145 3096.241" stroke-width="0.7874"  stroke-linecap="round" fill="none" layerid="3" net="S$44" id="gge256" locked="" /><polyline points="4189.987 3119.075 4193.924 3119.075" stroke-width="0.3937"  stroke-linecap="round" fill="none" layerid="3" net="S$52" id="gge257" locked="" /><polyline points="4189.987 3107.264 4193.924 3107.264" stroke-width="0.3937"  stroke-linecap="round" fill="none" layerid="3" net="S$52" id="gge258" locked="" /><polyline points="4193.924 3119.075 4193.924 3107.264" stroke-width="0.3937"  stroke-linecap="round" fill="none" layerid="3" net="S$55" id="gge259" locked="" /><polyline points="4176.57 3113.17 4178.57 3113.17" stroke-width="0.19685"  stroke-linecap="round" fill="none" layerid="3" net="S$59" id="gge260" locked="" /><polyline points="4179.57 3113.17 4180.57 3113.17" stroke-width="0.19685"  stroke-linecap="round" fill="none" layerid="3" net="S$61" id="gge261" locked="" /><polyline points="4181.57 3113.17 4183.57 3113.17" stroke-width="0.19685"  stroke-linecap="round" fill="none" layerid="3" net="S$63" id="gge262" locked="" /><polyline points="4184.57 3113.17 4185.57 3113.17" stroke-width="0.19685"  stroke-linecap="round" fill="none" layerid="3" net="S$65" id="gge263" locked="" /><polyline points="4186.57 3113.17 4188.57 3113.17" stroke-width="0.19685"  stroke-linecap="round" fill="none" layerid="3" net="S$67" id="gge264" locked="" /><polyline points="4189.57 3113.17 4190.57 3113.17" stroke-width="0.19685"  stroke-linecap="round" fill="none" layerid="3" net="S$69" id="gge265" locked="" /><polyline points="4191.57 3113.17 4193.57 3113.17" stroke-width="0.19685"  stroke-linecap="round" fill="none" layerid="3" net="S$67" id="gge266" locked="" /><polyline points="4194.57 3113.17 4195.57 3113.17" stroke-width="0.19685"  stroke-linecap="round" fill="none" layerid="3" net="S$69" id="gge267" locked="" /><polyline points="4176.92 3160.747 4176.92 3139.093" stroke-width="0.7874"  stroke-linecap="round" fill="none" layerid="3" net="S$34" id="gge284" locked="" /><polyline points="4190.11 3166.849 4190.107 3132.991" stroke-width="0.7874"  stroke-linecap="round" fill="none" layerid="3" net="S$34" id="gge285" locked="" /><polyline points="4190.107 3166.849 4185.265 3166.849" stroke-width="0.7874"  stroke-linecap="round" fill="none" layerid="3" net="S$41" id="gge286" locked="" /><polyline points="4190.1 3132.991 4185.265 3132.991" stroke-width="0.7874"  stroke-linecap="round" fill="none" layerid="3" net="S$41" id="gge287" locked="" /><polyline points="4185.265 3160.747 4185.265 3166.849" stroke-width="0.7874"  stroke-linecap="round" fill="none" layerid="3" net="S$44" id="gge288" locked="" /><polyline points="4176.918 3139.09 4185.07 3139.09" stroke-width="0.7874"  stroke-linecap="round" fill="none" layerid="3" net="S$47" id="gge289" locked="" /><polyline points="4176.918 3160.747 4185.07 3160.75" stroke-width="0.7874"  stroke-linecap="round" fill="none" layerid="3" net="S$47" id="gge290" locked="" /><polyline points="4185.265 3139.093 4185.265 3132.991" stroke-width="0.7874"  stroke-linecap="round" fill="none" layerid="3" net="S$44" id="gge291" locked="" /><polyline points="4190.107 3155.825 4194.044 3155.825" stroke-width="0.3937"  stroke-linecap="round" fill="none" layerid="3" net="S$52" id="gge292" locked="" /><polyline points="4190.107 3144.014 4194.044 3144.014" stroke-width="0.3937"  stroke-linecap="round" fill="none" layerid="3" net="S$52" id="gge293" locked="" /><polyline points="4194.044 3155.825 4194.044 3144.014" stroke-width="0.3937"  stroke-linecap="round" fill="none" layerid="3" net="S$55" id="gge294" locked="" /><polyline points="4176.69 3149.92 4178.69 3149.92" stroke-width="0.19685"  stroke-linecap="round" fill="none" layerid="3" net="S$59" id="gge295" locked="" /><polyline points="4179.69 3149.92 4180.69 3149.92" stroke-width="0.19685"  stroke-linecap="round" fill="none" layerid="3" net="S$61" id="gge296" locked="" /><polyline points="4181.69 3149.92 4183.69 3149.92" stroke-width="0.19685"  stroke-linecap="round" fill="none" layerid="3" net="S$63" id="gge297" locked="" /><polyline points="4184.69 3149.92 4185.69 3149.92" stroke-width="0.19685"  stroke-linecap="round" fill="none" layerid="3" net="S$65" id="gge298" locked="" /><polyline points="4186.69 3149.92 4188.69 3149.92" stroke-width="0.19685"  stroke-linecap="round" fill="none" layerid="3" net="S$67" id="gge299" locked="" /><polyline points="4189.69 3149.92 4190.69 3149.92" stroke-width="0.19685"  stroke-linecap="round" fill="none" layerid="3" net="S$69" id="gge300" locked="" /><polyline points="4191.69 3149.92 4193.69 3149.92" stroke-width="0.19685"  stroke-linecap="round" fill="none" layerid="3" net="S$67" id="gge301" locked="" /><polyline points="4194.69 3149.92 4195.69 3149.92" stroke-width="0.19685"  stroke-linecap="round" fill="none" layerid="3" net="S$69" id="gge302" locked="" /><polyline points="4052 3069.5 4054.5 3072" stroke-width="1"  stroke-linecap="round" fill="none" layerid="3" net="" id="gge319" locked="" /><polyline points="4059.5 3072 4062 3069.5" stroke-width="1"  stroke-linecap="round" fill="none" layerid="3" net="" id="gge320" locked="" /><polyline points="4062 3069.5 4064.5 3072" stroke-width="1"  stroke-linecap="round" fill="none" layerid="3" net="" id="gge321" locked="" /><polyline points="4069.5 3072 4072 3069.5" stroke-width="1"  stroke-linecap="round" fill="none" layerid="3" net="" id="gge322" locked="" /><polyline points="4072 3069.5 4074.5 3072" stroke-width="1"  stroke-linecap="round" fill="none" layerid="3" net="" id="gge323" locked="" /><polyline points="4079.5 3072 4082 3069.5" stroke-width="1"  stroke-linecap="round" fill="none" layerid="3" net="" id="gge324" locked="" /><polyline points="4052 3069.5 4052 3054.5" stroke-width="1"  stroke-linecap="round" fill="none" layerid="3" net="" id="gge325" locked="" /><polyline points="4052 3054.5 4054.5 3052" stroke-width="1"  stroke-linecap="round" fill="none" layerid="3" net="" id="gge326" locked="" /><polyline points="4054.5 3052 4059.5 3052" stroke-width="1"  stroke-linecap="round" fill="none" layerid="3" net="" id="gge327" locked="" /><polyline points="4059.5 3052 4062 3054.5" stroke-width="1"  stroke-linecap="round" fill="none" layerid="3" net="" id="gge328" locked="" /><polyline points="4062 3054.5 4064.5 3052" stroke-width="1"  stroke-linecap="round" fill="none" layerid="3" net="" id="gge329" locked="" /><polyline points="4064.5 3052 4069.5 3052" stroke-width="1"  stroke-linecap="round" fill="none" layerid="3" net="" id="gge330" locked="" /><polyline points="4069.5 3052 4072 3054.5" stroke-width="1"  stroke-linecap="round" fill="none" layerid="3" net="" id="gge331" locked="" /><polyline points="4072 3054.5 4074.5 3052" stroke-width="1"  stroke-linecap="round" fill="none" layerid="3" net="" id="gge332" locked="" /><polyline points="4074.5 3052 4079.5 3052" stroke-width="1"  stroke-linecap="round" fill="none" layerid="3" net="" id="gge333" locked="" /><polyline points="4079.5 3052 4082 3054.5" stroke-width="1"  stroke-linecap="round" fill="none" layerid="3" net="" id="gge334" locked="" /><polyline points="4062 3054.5 4062 3069.5" stroke-width="1"  stroke-linecap="round" fill="none" layerid="3" net="" id="gge335" locked="" /><polyline points="4072 3054.5 4072 3069.5" stroke-width="1"  stroke-linecap="round" fill="none" layerid="3" net="" id="gge336" locked="" /><polyline points="4082 3054.5 4082 3069.5" stroke-width="1"  stroke-linecap="round" fill="none" layerid="3" net="" id="gge337" locked="" /><polyline points="4074.5 3072 4079.5 3072" stroke-width="1"  stroke-linecap="round" fill="none" layerid="3" net="" id="gge338" locked="" /><polyline points="4064.5 3072 4069.5 3072" stroke-width="1"  stroke-linecap="round" fill="none" layerid="3" net="" id="gge339" locked="" /><polyline points="4054.5 3072 4059.5 3072" stroke-width="1"  stroke-linecap="round" fill="none" layerid="3" net="" id="gge340" locked="" /><polyline points="4059.5 3073.3 4054.5 3073.3" stroke-width="1"  stroke-linecap="round" fill="none" layerid="3" net="" id="gge341" locked="" /><polyline points="4104.244 3116.021 4100.701 3116.021 4100.701 3089.839 4104.244 3089.839" stroke-width="1"  stroke-linecap="round" fill="none" layerid="3" net="" id="gge370" locked="" /><polyline points="4109.756 3089.839 4113.299 3089.839 4113.299 3116.021 4109.756 3116.021" stroke-width="1"  stroke-linecap="round" fill="none" layerid="3" net="" id="gge371" locked="" /><polyline points="4166.67 3128.75 4161.07 3128.75" stroke-width="1"  stroke-linecap="round" fill="none" layerid="3" net="" id="gge412" locked="" /><polyline points="4169.17 3135.75 4175.07 3135.75 4175.07 3128.75 4169.17 3128.75" stroke-width="1"  stroke-linecap="round" fill="none" layerid="3" net="" id="gge413" locked="" /><polyline points="4161.07 3128.75 4161.07 3135.75" stroke-width="1"  stroke-linecap="round" fill="none" layerid="3" net="" id="gge414" locked="" /><polyline points="4161.07 3135.75 4166.67 3135.75" stroke-width="1"  stroke-linecap="round" fill="none" layerid="3" net="" id="gge415" locked="" /><polyline points="4063.07 3082.17 4068.67 3082.17" stroke-width="1"  stroke-linecap="round" fill="none" layerid="3" net="" id="gge426" locked="" /><polyline points="4060.57 3075.17 4054.67 3075.17 4054.67 3082.17 4060.57 3082.17" stroke-width="1"  stroke-linecap="round" fill="none" layerid="3" net="" id="gge427" locked="" /><polyline points="4068.67 3082.17 4068.67 3075.17" stroke-width="1"  stroke-linecap="round" fill="none" layerid="3" net="" id="gge428" locked="" /><polyline points="4068.67 3075.17 4063.07 3075.17" stroke-width="1"  stroke-linecap="round" fill="none" layerid="3" net="" id="gge429" locked="" /><polyline points="4154.77 3114.06 4149.17 3114.06" stroke-width="1"  stroke-linecap="round" fill="none" layerid="3" net="" id="gge440" locked="" /><polyline points="4157.27 3121.06 4163.17 3121.06 4163.17 3114.06 4157.27 3114.06" stroke-width="1"  stroke-linecap="round" fill="none" layerid="3" net="" id="gge441" locked="" /><polyline points="4149.17 3114.06 4149.17 3121.06" stroke-width="1"  stroke-linecap="round" fill="none" layerid="3" net="" id="gge442" locked="" /><polyline points="4149.17 3121.06 4154.77 3121.06" stroke-width="1"  stroke-linecap="round" fill="none" layerid="3" net="" id="gge443" locked="" /><polyline points="4149.37 3112.45 4154.97 3112.45" stroke-width="1"  stroke-linecap="round" fill="none" layerid="3" net="" id="gge487" locked="" /><polyline points="4146.87 3105.45 4140.97 3105.45 4140.97 3112.45 4146.87 3112.45" stroke-width="1"  stroke-linecap="round" fill="none" layerid="3" net="" id="gge488" locked="" /><polyline points="4154.97 3112.45 4154.97 3105.45" stroke-width="1"  stroke-linecap="round" fill="none" layerid="3" net="" id="gge489" locked="" /><polyline points="4154.97 3105.45 4149.37 3105.45" stroke-width="1"  stroke-linecap="round" fill="none" layerid="3" net="" id="gge490" locked="" /><polyline points="4150.12 3129.95 4155.72 3129.95" stroke-width="1"  stroke-linecap="round" fill="none" layerid="3" net="" id="gge501" locked="" /><polyline points="4147.62 3122.95 4141.72 3122.95 4141.72 3129.95 4147.62 3129.95" stroke-width="1"  stroke-linecap="round" fill="none" layerid="3" net="" id="gge502" locked="" /><polyline points="4155.72 3129.95 4155.72 3122.95" stroke-width="1"  stroke-linecap="round" fill="none" layerid="3" net="" id="gge503" locked="" /><polyline points="4155.72 3122.95 4150.12 3122.95" stroke-width="1"  stroke-linecap="round" fill="none" layerid="3" net="" id="gge504" locked="" /><polyline points="4073.527 3117.748 4050.929 3117.748" stroke-width="1"  stroke-linecap="round" fill="none" layerid="3" net="" id="gge515" locked="" /><polyline points="4073.567 3117.748 4073.567 3086.252" stroke-width="1"  stroke-linecap="round" fill="none" layerid="3" net="" id="gge516" locked="" /><polyline points="4073.567 3086.252 4050.969 3086.252" stroke-width="1"  stroke-linecap="round" fill="none" layerid="3" net="" id="gge517" locked="" /><polyline points="4050.89 3117.748 4050.89 3086.252" stroke-width="1"  stroke-linecap="round" fill="none" layerid="3" net="" id="gge518" locked="" /><polyline points="4053.685 3115.346 4053.685 3088.693" stroke-width="1"  stroke-linecap="round" fill="none" layerid="3" net="" id="gge519" locked="" /><polyline points="4050.89 3117.669 4051.362 3117.669 4053.685 3115.346" stroke-width="1"  stroke-linecap="round" fill="none" layerid="3" net="" id="gge520" locked="" /><polyline points="4050.969 3086.37 4051.362 3086.37 4053.685 3088.693" stroke-width="1"  stroke-linecap="round" fill="none" layerid="3" net="" id="gge521" locked="" /><polyline points="4158.74 3151.35 4153.14 3151.35" stroke-width="1"  stroke-linecap="round" fill="none" layerid="3" net="" id="gge559" locked="" /><polyline points="4161.24 3158.35 4167.14 3158.35 4167.14 3151.35 4161.24 3151.35" stroke-width="1"  stroke-linecap="round" fill="none" layerid="3" net="" id="gge560" locked="" /><polyline points="4153.14 3151.35 4153.14 3158.35" stroke-width="1"  stroke-linecap="round" fill="none" layerid="3" net="" id="gge561" locked="" /><polyline points="4153.14 3158.35 4158.74 3158.35" stroke-width="1"  stroke-linecap="round" fill="none" layerid="3" net="" id="gge562" locked="" /><polyline points="4142 3176.2 4132 3176.2 4132 3166.2 4142 3166.2 4142 3173.7" stroke-width="0.8"  stroke-linecap="round" fill="none" layerid="3" net="" id="gge688" locked="" /><polyline points="4142 3176.2 4142 3173.7" stroke-width="0.79921"  stroke-linecap="round" fill="none" layerid="3" net="" id="gge689" locked="" /><polyline points="4155.04 3176.24 4145.04 3176.24 4145.04 3166.24 4155.04 3166.24 4155.04 3173.74" stroke-width="0.8"  stroke-linecap="round" fill="none" layerid="3" net="" id="gge697" locked="" /><polyline points="4155.04 3176.24 4155.04 3173.74" stroke-width="0.79921"  stroke-linecap="round" fill="none" layerid="3" net="" id="gge698" locked="" /><polyline points="4157.59 3079 4163.19 3079" stroke-width="1"  stroke-linecap="round" fill="none" layerid="3" net="" id="gge714" locked="" /><polyline points="4155.09 3072 4149.19 3072 4149.19 3079 4155.09 3079" stroke-width="1"  stroke-linecap="round" fill="none" layerid="3" net="" id="gge715" locked="" /><polyline points="4163.19 3079 4163.19 3072" stroke-width="1"  stroke-linecap="round" fill="none" layerid="3" net="" id="gge716" locked="" /><polyline points="4163.19 3072 4157.59 3072" stroke-width="1"  stroke-linecap="round" fill="none" layerid="3" net="" id="gge717" locked="" /><polyline points="4160.75 3053.5 4160.75 3063.4 4140.75 3063.4 4140.75 3053.5 4160.75 3053.5" stroke-width="0.8"  stroke-linecap="round" fill="none" layerid="3" net="" id="gge784" locked="" /><polyline points="4096 3064 4086 3064 4086 3054 4096 3054 4096 3061.5" stroke-width="0.8"  stroke-linecap="round" fill="none" layerid="3" net="" id="gge806" locked="" /><polyline points="4096 3064 4096 3061.5" stroke-width="0.79921"  stroke-linecap="round" fill="none" layerid="3" net="" id="gge807" locked="" /><polyline points="4082.47 3081.33 4088.07 3081.33" stroke-width="1"  stroke-linecap="round" fill="none" layerid="3" net="" id="gge836" locked="" /><polyline points="4079.97 3074.33 4074.07 3074.33 4074.07 3081.33 4079.97 3081.33" stroke-width="1"  stroke-linecap="round" fill="none" layerid="3" net="" id="gge837" locked="" /><polyline points="4088.07 3081.33 4088.07 3074.33" stroke-width="1"  stroke-linecap="round" fill="none" layerid="3" net="" id="gge838" locked="" /><polyline points="4088.07 3074.33 4082.47 3074.33" stroke-width="1"  stroke-linecap="round" fill="none" layerid="3" net="" id="gge839" locked="" /><polyline points="4168.4 3164.4 4162.8 3164.4" stroke-width="1"  stroke-linecap="round" fill="none" layerid="3" net="" id="gge850" locked="" /><polyline points="4170.9 3171.4 4176.8 3171.4 4176.8 3164.4 4170.9 3164.4" stroke-width="1"  stroke-linecap="round" fill="none" layerid="3" net="" id="gge851" locked="" /><polyline points="4162.8 3164.4 4162.8 3171.4" stroke-width="1"  stroke-linecap="round" fill="none" layerid="3" net="" id="gge852" locked="" /><polyline points="4162.8 3171.4 4168.4 3171.4" stroke-width="1"  stroke-linecap="round" fill="none" layerid="3" net="" id="gge853" locked="" /><polyline points="4167.09 3112.91 4167.09 3118.51" stroke-width="1"  stroke-linecap="round" fill="none" layerid="3" net="" id="gge864" locked="" /><polyline points="4174.09 3110.41 4174.09 3104.51 4167.09 3104.51 4167.09 3110.41" stroke-width="1"  stroke-linecap="round" fill="none" layerid="3" net="" id="gge865" locked="" /><polyline points="4167.09 3118.51 4174.09 3118.51" stroke-width="1"  stroke-linecap="round" fill="none" layerid="3" net="" id="gge866" locked="" /><polyline points="4174.09 3118.51 4174.09 3112.91" stroke-width="1"  stroke-linecap="round" fill="none" layerid="3" net="" id="gge867" locked="" /><polyline points="4123 3172 4123 3124.6" stroke-width="1"  stroke-linecap="round" fill="none" layerid="3" net="" id="gge910" locked="" /><polyline points="4123 3124.6 4051.7 3124.6" stroke-width="1"  stroke-linecap="round" fill="none" layerid="3" net="" id="gge911" locked="" /><polyline points="4051.7 3124.6 4051.7 3172" stroke-width="1"  stroke-linecap="round" fill="none" layerid="3" net="" id="gge912" locked="" /><polyline points="4051.7 3172 4123 3172" stroke-width="1"  stroke-linecap="round" fill="none" layerid="3" net="" id="gge913" locked="" /><g c_partid="part_pcbtext" c_etype="" c_origin="4115.4,3075.43" c_rotation="0" c_mirror="0" id="gge105" locked="" layerid="3" c_shapetype="group" ><path c_fontsize="4.5" c_fontfamily="" c_text="C12" d="M 4118.4701 3074 L 4118.2601 3073.59 L 4117.8501 3073.18 L 4117.4501 3072.98 L 4116.6301 3072.98 L 4116.2201 3073.18 L 4115.8101 3073.59 L 4115.6001 3074 L 4115.4001 3074.61 L 4115.4001 3075.63 L 4115.6001 3076.25 L 4115.8101 3076.66 L 4116.2201 3077.07 L 4116.6301 3077.27 L 4117.4501 3077.27 L 4117.8501 3077.07 L 4118.2601 3076.66 L 4118.4701 3076.25 M 4119.8201 3073.79 L 4120.2301 3073.59 L 4120.8401 3072.98 L 4120.8401 3077.27 M 4122.4001 3074 L 4122.4001 3073.79 L 4122.6001 3073.38 L 4122.8001 3073.18 L 4123.2101 3072.98 L 4124.0301 3072.98 L 4124.4401 3073.18 L 4124.6501 3073.38 L 4124.8501 3073.79 L 4124.8501 3074.2 L 4124.6501 3074.61 L 4124.2401 3075.23 L 4122.1901 3077.27 L 4125.0501 3077.27" fill="none"  stroke-width="0.7" c_note="note_pre" /></g><g c_partid="part_pcbtext" c_etype="" c_origin="4115.4,3067.43" c_rotation="0" c_mirror="false" id="rep3" locked="" layerid="3" c_shapetype="group" display="none"><path c_fontsize="4.5" c_fontfamily="" c_text="22pF" d="M 4115.6 3063.91L4115.6 3063.71 L4115.81 3063.3 L4116.01 3063.09 L4116.42 3062.89 L4117.24 3062.89 L4117.65 3063.09 L4117.85 3063.3 L4118.06 3063.71 L4118.06 3064.12 L4117.85 3064.53 L4117.45 3065.14 L4115.4 3067.18 L4118.26 3067.18 M 4119.82 3063.91L4119.82 3063.71 L4120.02 3063.3 L4120.23 3063.09 L4120.64 3062.89 L4121.45 3062.89 L4121.86 3063.09 L4122.07 3063.3 L4122.27 3063.71 L4122.27 3064.12 L4122.07 3064.53 L4121.66 3065.14 L4119.61 3067.18 L4122.48 3067.18 M 4123.83 3064.32L4123.83 3068.62 M 4123.83 3064.93L4124.24 3064.53 L4124.65 3064.32 L4125.26 3064.32 L4125.67 3064.53 L4126.08 3064.93 L4126.28 3065.55 L4126.28 3065.96 L4126.08 3066.57 L4125.67 3066.98 L4125.26 3067.18 L4124.65 3067.18 L4124.24 3066.98 L4123.83 3066.57 M 4127.63 3062.89L4127.63 3067.18 M 4127.63 3062.89L4130.29 3062.89 M 4127.63 3064.93L4129.27 3064.93 " fill="none"  stroke-width="0.7" c_note="note_name" /></g><g c_partid="part_pcbtext" c_etype="" c_origin="4122.05,3104.69" c_rotation="90" c_mirror="0" id="gge119" locked="" layerid="3" c_shapetype="group" ><path c_fontsize="4.5" c_fontfamily="" c_text="C13" d="M 4120.62 3101.6201 L 4120.21 3101.8301 L 4119.8 3102.2401 L 4119.6 3102.6401 L 4119.6 3103.4601 L 4119.8 3103.8701 L 4120.21 3104.2801 L 4120.62 3104.4901 L 4121.23 3104.6901 L 4122.25 3104.6901 L 4122.87 3104.4901 L 4123.28 3104.2801 L 4123.69 3103.8701 L 4123.89 3103.4601 L 4123.89 3102.6401 L 4123.69 3102.2401 L 4123.28 3101.8301 L 4122.87 3101.6201 M 4120.41 3100.2701 L 4120.21 3099.8601 L 4119.6 3099.2501 L 4123.89 3099.2501 M 4119.6 3097.4901 L 4119.6 3095.2401 L 4121.23 3096.4701 L 4121.23 3095.8501 L 4121.44 3095.4401 L 4121.64 3095.2401 L 4122.25 3095.0401 L 4122.66 3095.0401 L 4123.28 3095.2401 L 4123.69 3095.6501 L 4123.89 3096.2601 L 4123.89 3096.8801 L 4123.69 3097.4901 L 4123.48 3097.6901 L 4123.07 3097.9001" fill="none"  stroke-width="0.7" c_note="note_pre" /></g><g c_partid="part_pcbtext" c_etype="" c_origin="4130.05,3104.69" c_rotation="90" c_mirror="false" id="rep4" locked="" layerid="3" c_shapetype="group" display="none"><path c_fontsize="4.5" c_fontfamily="" c_text="22pF" d="M 4126.530000000001 3104.4900000000002L4126.33 3104.4900000000002 L4125.92 3104.28 L4125.71 3104.0800000000004 L4125.51 3103.6700000000005 L4125.51 3102.85 L4125.71 3102.44 L4125.92 3102.2400000000002 L4126.33 3102.03 L4126.74 3102.03 L4127.15 3102.2400000000002 L4127.76 3102.64 L4129.8 3104.69 L4129.8 3101.8300000000004 M 4126.530000000001 3100.27L4126.33 3100.27 L4125.92 3100.07 L4125.71 3099.86 L4125.51 3099.4500000000003 L4125.51 3098.64 L4125.71 3098.23 L4125.92 3098.02 L4126.33 3097.82 L4126.74 3097.82 L4127.15 3098.02 L4127.76 3098.43 L4129.8 3100.48 L4129.8 3097.61 M 4126.9400000000005 3096.2600000000007L4131.24 3096.2600000000007 M 4127.55 3096.2600000000007L4127.15 3095.85 L4126.9400000000005 3095.44 L4126.9400000000005 3094.8300000000004 L4127.15 3094.4200000000005 L4127.55 3094.0100000000007 L4128.17 3093.81 L4128.58 3093.81 L4129.1900000000005 3094.0100000000007 L4129.6 3094.4200000000005 L4129.8 3094.8300000000004 L4129.8 3095.44 L4129.6 3095.85 L4129.1900000000005 3096.2600000000007 M 4125.51 3092.4600000000005L4129.8 3092.4600000000005 M 4125.51 3092.4600000000005L4125.51 3089.8000000000006 M 4127.55 3092.4600000000005L4127.55 3090.82 " fill="none"  stroke-width="0.7" c_note="note_name" /></g><g c_partid="part_pcbtext" c_etype="" c_origin="4183.25,3055.31" c_rotation="0" c_mirror="0" id="gge133" locked="" layerid="3" c_shapetype="group" ><path c_fontsize="4.5" c_fontfamily="" c_text="P1" d="M 4183.25 3052.8499 L 4183.25 3057.1499 M 4183.25 3052.8499 L 4185.09 3052.8499 L 4185.7 3053.0599 L 4185.91 3053.2599 L 4186.11 3053.6699 L 4186.11 3054.2799 L 4185.91 3054.6899 L 4185.7 3054.8999 L 4185.09 3055.0999 L 4183.25 3055.0999 M 4187.46 3053.6699 L 4187.87 3053.4699 L 4188.49 3052.8499 L 4188.49 3057.1499" fill="none"  stroke-width="0.7" c_note="note_pre" /></g><g c_partid="part_pcbtext" c_etype="" c_origin="4101.71,3066.4" c_rotation="0" c_mirror="0" id="gge161" locked="" layerid="3" c_shapetype="group" ><path c_fontsize="3" c_fontfamily="" c_text="GND" d="M 4103.76 3065.45 L 4103.62 3065.17 L 4103.35 3064.9 L 4103.07 3064.76 L 4102.53 3064.76 L 4102.26 3064.9 L 4101.98 3065.17 L 4101.85 3065.45 L 4101.71 3065.85 L 4101.71 3066.54 L 4101.85 3066.95 L 4101.98 3067.22 L 4102.26 3067.49 L 4102.53 3067.63 L 4103.07 3067.63 L 4103.35 3067.49 L 4103.62 3067.22 L 4103.76 3066.95 L 4103.76 3066.54 M 4103.07 3066.54 L 4103.76 3066.54 M 4104.66 3064.76 L 4104.66 3067.63 M 4104.66 3064.76 L 4106.56 3067.63 M 4106.56 3064.76 L 4106.56 3067.63 M 4107.46 3064.76 L 4107.46 3067.63 M 4107.46 3064.76 L 4108.42 3064.76 L 4108.83 3064.9 L 4109.1 3065.17 L 4109.24 3065.45 L 4109.37 3065.85 L 4109.37 3066.54 L 4109.24 3066.95 L 4109.1 3067.22 L 4108.83 3067.49 L 4108.42 3067.63 L 4107.46 3067.63" fill="none"  stroke-width="0.6"  /></g><g c_partid="part_pcbtext" c_etype="" c_origin="4112.07,3066.39" c_rotation="0" c_mirror="0" id="gge163" locked="" layerid="3" c_shapetype="group" ><path c_fontsize="3" c_fontfamily="" c_text="VCC" d="M 4112.07 3064.75 L 4113.16 3067.62 M 4114.25 3064.75 L 4113.16 3067.62 M 4117.2 3065.44 L 4117.06 3065.16 L 4116.79 3064.89 L 4116.52 3064.75 L 4115.97 3064.75 L 4115.7 3064.89 L 4115.42 3065.16 L 4115.29 3065.44 L 4115.15 3065.84 L 4115.15 3066.53 L 4115.29 3066.94 L 4115.42 3067.21 L 4115.7 3067.48 L 4115.97 3067.62 L 4116.52 3067.62 L 4116.79 3067.48 L 4117.06 3067.21 L 4117.2 3066.94 M 4120.14 3065.44 L 4120.01 3065.16 L 4119.73 3064.89 L 4119.46 3064.75 L 4118.92 3064.75 L 4118.64 3064.89 L 4118.37 3065.16 L 4118.23 3065.44 L 4118.1 3065.84 L 4118.1 3066.53 L 4118.23 3066.94 L 4118.37 3067.21 L 4118.64 3067.48 L 4118.92 3067.62 L 4119.46 3067.62 L 4119.73 3067.48 L 4120.01 3067.21 L 4120.14 3066.94" fill="none"  stroke-width="0.6"  /></g><g c_partid="part_pcbtext" c_etype="" c_origin="4122.39,3066.39" c_rotation="0" c_mirror="0" id="gge165" locked="" layerid="3" c_shapetype="group" ><path c_fontsize="3" c_fontfamily="" c_text="SCL" d="M 4124.3 3065.16 L 4124.03 3064.89 L 4123.62 3064.75 L 4123.07 3064.75 L 4122.66 3064.89 L 4122.39 3065.16 L 4122.39 3065.44 L 4122.53 3065.71 L 4122.66 3065.84 L 4122.94 3065.98 L 4123.75 3066.25 L 4124.03 3066.39 L 4124.16 3066.53 L 4124.3 3066.79 L 4124.3 3067.21 L 4124.03 3067.48 L 4123.62 3067.61 L 4123.07 3067.61 L 4122.66 3067.48 L 4122.39 3067.21 M 4127.24 3065.44 L 4127.11 3065.16 L 4126.84 3064.89 L 4126.56 3064.75 L 4126.02 3064.75 L 4125.74 3064.89 L 4125.47 3065.16 L 4125.34 3065.44 L 4125.2 3065.84 L 4125.2 3066.53 L 4125.34 3066.94 L 4125.47 3067.21 L 4125.74 3067.48 L 4126.02 3067.61 L 4126.56 3067.61 L 4126.84 3067.48 L 4127.11 3067.21 L 4127.24 3066.94 M 4128.14 3064.75 L 4128.14 3067.61 M 4128.14 3067.61 L 4129.78 3067.61" fill="none"  stroke-width="0.6"  /></g><g c_partid="part_pcbtext" c_etype="" c_origin="4132.35,3066.4" c_rotation="0" c_mirror="0" id="gge167" locked="" layerid="3" c_shapetype="group" ><path c_fontsize="3" c_fontfamily="" c_text="SDA" d="M 4134.26 3065.17 L 4133.99 3064.9 L 4133.58 3064.76 L 4133.03 3064.76 L 4132.62 3064.9 L 4132.35 3065.17 L 4132.35 3065.45 L 4132.49 3065.72 L 4132.62 3065.85 L 4132.9 3065.99 L 4133.71 3066.26 L 4133.99 3066.4 L 4134.12 3066.54 L 4134.26 3066.81 L 4134.26 3067.22 L 4133.99 3067.49 L 4133.58 3067.63 L 4133.03 3067.63 L 4132.62 3067.49 L 4132.35 3067.22 M 4135.16 3064.76 L 4135.16 3067.63 M 4135.16 3064.76 L 4136.11 3064.76 L 4136.52 3064.9 L 4136.8 3065.17 L 4136.93 3065.45 L 4137.07 3065.85 L 4137.07 3066.54 L 4136.93 3066.95 L 4136.8 3067.22 L 4136.52 3067.49 L 4136.11 3067.63 L 4135.16 3067.63 M 4139.06 3064.76 L 4137.97 3067.63 M 4139.06 3064.76 L 4140.15 3067.63 M 4138.38 3066.67 L 4139.74 3066.67" fill="none"  stroke-width="0.6"  /></g><g c_partid="part_pcbtext" c_etype="" c_origin="4183.25,3047.31" c_rotation="0" c_mirror="false" id="rep5" locked="" layerid="3" c_shapetype="group" display="none"><path c_fontsize="4.5" c_fontfamily="" c_text="1.3 OLED" d="M 4183.25 3043.59L4183.66 3043.38 L4184.27 3042.77 L4184.27 3047.06 M 4185.83 3046.04L4185.62 3046.25 L4185.83 3046.45 L4186.03 3046.25 L4185.83 3046.04 M 4187.79 3042.77L4190.04 3042.77 L4188.81 3044.41 L4189.43 3044.41 L4189.84 3044.61 L4190.04 3044.81 L4190.25 3045.43 L4190.25 3045.84 L4190.04 3046.45 L4189.63 3046.86 L4189.02 3047.06 L4188.4 3047.06 L4187.79 3046.86 L4187.59 3046.66 L4187.38 3046.25 M 4195.97 3042.77L4195.56 3042.97 L4195.15 3043.38 L4194.95 3043.79 L4194.75 3044.41 L4194.75 3045.43 L4194.95 3046.04 L4195.15 3046.45 L4195.56 3046.86 L4195.97 3047.06 L4196.79 3047.06 L4197.2 3046.86 L4197.61 3046.45 L4197.81 3046.04 L4198.02 3045.43 L4198.02 3044.41 L4197.81 3043.79 L4197.61 3043.38 L4197.2 3042.97 L4196.79 3042.77 L4195.97 3042.77 M 4199.37 3042.77L4199.37 3047.06 M 4199.37 3047.06L4201.82 3047.06 M 4203.17 3042.77L4203.17 3047.06 M 4203.17 3042.77L4205.83 3042.77 M 4203.17 3044.81L4204.81 3044.81 M 4203.17 3047.06L4205.83 3047.06 M 4207.18 3042.77L4207.18 3047.06 M 4207.18 3042.77L4208.61 3042.77 L4209.23 3042.97 L4209.64 3043.38 L4209.84 3043.79 L4210.05 3044.41 L4210.05 3045.43 L4209.84 3046.04 L4209.64 3046.45 L4209.23 3046.86 L4208.61 3047.06 L4207.18 3047.06 " fill="none"  stroke-width="0.7" c_note="note_name" /></g><g c_partid="part_pcbtext" c_etype="" c_origin="4152.78,3085.81" c_rotation="0" c_mirror="0" id="gge171" locked="" layerid="3" c_shapetype="group" ><path c_fontsize="4.5" c_fontfamily="" c_text="U4" d="M 4152.7801 3083.3501 L 4152.7801 3086.4201 L 4152.9801 3087.0301 L 4153.3901 3087.4401 L 4154.0101 3087.6501 L 4154.4201 3087.6501 L 4155.0301 3087.4401 L 4155.4401 3087.0301 L 4155.6401 3086.4201 L 4155.6401 3083.3501 M 4159.0401 3083.3501 L 4156.9901 3086.2201 L 4160.0601 3086.2201 M 4159.0401 3083.3501 L 4159.0401 3087.6501" fill="none"  stroke-width="0.7" c_note="note_pre" /></g><g c_partid="part_pcbtext" c_etype="" c_origin="4152.78,3077.81" c_rotation="0" c_mirror="false" id="rep6" locked="" layerid="3" c_shapetype="group" display="none"><path c_fontsize="4.5" c_fontfamily="" c_text="DS1338Z-33" d="M 4152.78 3073.27L4152.78 3077.56 M 4152.78 3073.27L4154.21 3073.27 L4154.83 3073.47 L4155.23 3073.88 L4155.44 3074.29 L4155.64 3074.91 L4155.64 3075.93 L4155.44 3076.54 L4155.23 3076.95 L4154.83 3077.36 L4154.21 3077.56 L4152.78 3077.56 M 4159.86 3073.88L4159.45 3073.47 L4158.83 3073.27 L4158.02 3073.27 L4157.4 3073.47 L4156.99 3073.88 L4156.99 3074.29 L4157.2 3074.7 L4157.4 3074.91 L4157.81 3075.11 L4159.04 3075.52 L4159.45 3075.72 L4159.65 3075.93 L4159.86 3076.34 L4159.86 3076.95 L4159.45 3077.36 L4158.83 3077.56 L4158.02 3077.56 L4157.4 3077.36 L4156.99 3076.95 M 4161.21 3074.09L4161.62 3073.88 L4162.23 3073.27 L4162.23 3077.56 M 4163.99 3073.27L4166.24 3073.27 L4165.01 3074.91 L4165.63 3074.91 L4166.03 3075.11 L4166.24 3075.31 L4166.44 3075.93 L4166.44 3076.34 L4166.24 3076.95 L4165.83 3077.36 L4165.22 3077.56 L4164.6 3077.56 L4163.99 3077.36 L4163.78 3077.16 L4163.58 3076.75 M 4168.2 3073.27L4170.45 3073.27 L4169.23 3074.91 L4169.84 3074.91 L4170.25 3075.11 L4170.45 3075.31 L4170.66 3075.93 L4170.66 3076.34 L4170.45 3076.95 L4170.04 3077.36 L4169.43 3077.56 L4168.82 3077.56 L4168.2 3077.36 L4168 3077.16 L4167.79 3076.75 M 4173.03 3073.27L4172.42 3073.47 L4172.21 3073.88 L4172.21 3074.29 L4172.42 3074.7 L4172.83 3074.91 L4173.64 3075.11 L4174.26 3075.31 L4174.67 3075.72 L4174.87 3076.13 L4174.87 3076.75 L4174.67 3077.16 L4174.46 3077.36 L4173.85 3077.56 L4173.03 3077.56 L4172.42 3077.36 L4172.21 3077.16 L4172.01 3076.75 L4172.01 3076.13 L4172.21 3075.72 L4172.62 3075.31 L4173.23 3075.11 L4174.05 3074.91 L4174.46 3074.7 L4174.67 3074.29 L4174.67 3073.88 L4174.46 3073.47 L4173.85 3073.27 L4173.03 3073.27 M 4179.08 3073.27L4176.22 3077.56 M 4176.22 3073.27L4179.08 3073.27 M 4176.22 3077.56L4179.08 3077.56 M 4180.43 3075.72L4184.12 3075.72 M 4185.88 3073.27L4188.13 3073.27 L4186.9 3074.91 L4187.51 3074.91 L4187.92 3075.11 L4188.13 3075.31 L4188.33 3075.93 L4188.33 3076.34 L4188.13 3076.95 L4187.72 3077.36 L4187.1 3077.56 L4186.49 3077.56 L4185.88 3077.36 L4185.67 3077.16 L4185.47 3076.75 M 4190.09 3073.27L4192.34 3073.27 L4191.11 3074.91 L4191.73 3074.91 L4192.13 3075.11 L4192.34 3075.31 L4192.54 3075.93 L4192.54 3076.34 L4192.34 3076.95 L4191.93 3077.36 L4191.32 3077.56 L4190.7 3077.56 L4190.09 3077.36 L4189.88 3077.16 L4189.68 3076.75 " fill="none"  stroke-width="0.7" c_note="note_name" /></g><g c_partid="part_pcbtext" c_etype="" c_origin="4142.32,3079.02" c_rotation="90" c_mirror="0" id="gge201" locked="" layerid="3" c_shapetype="group" ><path c_fontsize="4.5" c_fontfamily="" c_text="X2" d="M 4139.8699 3079.02 L 4144.1599 3076.16 M 4139.8699 3076.16 L 4144.1599 3079.02 M 4140.8899 3074.6 L 4140.6799 3074.6 L 4140.2699 3074.4 L 4140.0699 3074.19 L 4139.8699 3073.78 L 4139.8699 3072.97 L 4140.0699 3072.56 L 4140.2699 3072.35 L 4140.6799 3072.15 L 4141.0899 3072.15 L 4141.4999 3072.35 L 4142.1199 3072.76 L 4144.1599 3074.81 L 4144.1599 3071.94" fill="none"  stroke-width="0.7" c_note="note_pre" /></g><g c_partid="part_pcbtext" c_etype="" c_origin="4150.32,3079.02" c_rotation="90" c_mirror="false" id="rep7" locked="" layerid="3" c_shapetype="group" display="none"><path c_fontsize="4.5" c_fontfamily="" c_text="32.768KHz" d="M 4145.78 3078.61L4145.78 3076.36 L4147.42 3077.5899999999997 L4147.42 3076.97 L4147.62 3076.5699999999993 L4147.82 3076.36 L4148.44 3076.1599999999994 L4148.85 3076.1599999999994 L4149.459999999999 3076.36 L4149.87 3076.77 L4150.07 3077.3799999999997 L4150.07 3077.9999999999995 L4149.87 3078.61 L4149.67 3078.8199999999993 L4149.26 3079.02 M 4146.799999999999 3074.6L4146.6 3074.6 L4146.19 3074.4 L4145.98 3074.19 L4145.78 3073.7799999999993 L4145.78 3072.97 L4145.98 3072.56 L4146.19 3072.35 L4146.6 3072.15 L4147.01 3072.15 L4147.42 3072.35 L4148.03 3072.7599999999998 L4150.07 3074.81 L4150.07 3071.94 M 4149.049999999999 3070.39L4149.26 3070.5899999999997 L4149.459999999999 3070.39 L4149.26 3070.18 L4149.049999999999 3070.39 M 4145.78 3065.97L4150.07 3068.02 M 4145.78 3068.8299999999995L4145.78 3065.97 M 4146.389999999999 3062.1699999999996L4145.98 3062.3699999999994 L4145.78 3062.98 L4145.78 3063.39 L4145.98 3064.0099999999998 L4146.6 3064.4199999999996 L4147.62 3064.6199999999994 L4148.639999999999 3064.6199999999994 L4149.459999999999 3064.4199999999996 L4149.87 3064.0099999999998 L4150.07 3063.39 L4150.07 3063.19 L4149.87 3062.5699999999993 L4149.459999999999 3062.1699999999996 L4148.85 3061.9599999999996 L4148.639999999999 3061.9599999999996 L4148.03 3062.1699999999996 L4147.62 3062.5699999999993 L4147.42 3063.19 L4147.42 3063.39 L4147.62 3064.0099999999998 L4148.03 3064.4199999999996 L4148.639999999999 3064.6199999999994 M 4145.78 3059.5899999999997L4145.98 3060.1999999999994 L4146.389999999999 3060.4099999999994 L4146.799999999999 3060.4099999999994 L4147.209999999999 3060.1999999999994 L4147.42 3059.7899999999995 L4147.62 3058.97 L4147.82 3058.36 L4148.23 3057.9499999999994 L4148.639999999999 3057.7499999999995 L4149.26 3057.7499999999995 L4149.67 3057.9499999999994 L4149.87 3058.1599999999994 L4150.07 3058.77 L4150.07 3059.5899999999997 L4149.87 3060.1999999999994 L4149.67 3060.4099999999994 L4149.26 3060.61 L4148.639999999999 3060.61 L4148.23 3060.4099999999994 L4147.82 3059.9999999999995 L4147.62 3059.3799999999997 L4147.42 3058.5699999999993 L4147.209999999999 3058.1599999999994 L4146.799999999999 3057.9499999999994 L4146.389999999999 3057.9499999999994 L4145.98 3058.1599999999994 L4145.78 3058.77 L4145.78 3059.5899999999997 M 4145.78 3056.4L4150.07 3056.4 M 4145.78 3053.5299999999993L4148.639999999999 3056.4 M 4147.62 3055.3699999999994L4150.07 3053.5299999999993 M 4145.78 3052.18L4150.07 3052.18 M 4145.78 3049.3199999999993L4150.07 3049.3199999999993 M 4147.82 3052.18L4147.82 3049.3199999999993 M 4147.209999999999 3045.72L4150.07 3047.97 M 4147.209999999999 3047.97L4147.209999999999 3045.72 M 4150.07 3047.97L4150.07 3045.72 " fill="none"  stroke-width="0.7" c_note="note_name" /></g><g c_partid="part_pcbtext" c_etype="" c_origin="4186.43,3082.84" c_rotation="90" c_mirror="0" id="gge212" locked="" layerid="3" c_shapetype="group" ><path c_fontsize="4.5" c_fontfamily="" c_text="SW3" d="M 4184.5898 3079.9799 L 4184.1798 3080.3899 L 4183.9798 3080.9999 L 4183.9798 3081.8199 L 4184.1798 3082.4299 L 4184.5898 3082.8399 L 4184.9998 3082.8399 L 4185.4098 3082.6399 L 4185.6098 3082.4299 L 4185.8198 3082.0199 L 4186.2298 3080.7899 L 4186.4298 3080.3899 L 4186.6298 3080.1799 L 4187.0398 3079.9799 L 4187.6598 3079.9799 L 4188.0698 3080.3899 L 4188.2698 3080.9999 L 4188.2698 3081.8199 L 4188.0698 3082.4299 L 4187.6598 3082.8399 M 4183.9798 3078.6299 L 4188.2698 3077.5999 M 4183.9798 3076.5799 L 4188.2698 3077.5999 M 4183.9798 3076.5799 L 4188.2698 3075.5599 M 4183.9798 3074.5399 L 4188.2698 3075.5599 M 4183.9798 3072.7799 L 4183.9798 3070.5299 L 4185.6098 3071.7499 L 4185.6098 3071.1399 L 4185.8198 3070.7299 L 4186.0198 3070.5299 L 4186.6298 3070.3199 L 4187.0398 3070.3199 L 4187.6598 3070.5299 L 4188.0698 3070.9399 L 4188.2698 3071.5499 L 4188.2698 3072.1599 L 4188.0698 3072.7799 L 4187.8598 3072.9799 L 4187.4498 3073.1899" fill="none"  stroke-width="0.7" c_note="note_pre" /></g><g c_partid="part_pcbtext" c_etype="" c_origin="4194.43,3082.84" c_rotation="90" c_mirror="false" id="rep8" locked="" layerid="3" c_shapetype="group" display="none"><path c_fontsize="4.5" c_fontfamily="" c_text="Tact-SW" d="M 4189.89 3081.4100000000008L4194.18 3081.4100000000008 M 4189.89 3082.84L4189.89 3079.9800000000005 M 4191.32 3076.17L4194.18 3076.17 M 4191.93 3076.17L4191.530000000001 3076.580000000001 L4191.32 3076.9900000000007 L4191.32 3077.6000000000004 L4191.530000000001 3078.01 L4191.93 3078.42 L4192.55 3078.63 L4192.96 3078.63 L4193.57 3078.42 L4193.98 3078.01 L4194.18 3077.6000000000004 L4194.18 3076.9900000000007 L4193.98 3076.580000000001 L4193.57 3076.17 M 4191.93 3072.370000000001L4191.530000000001 3072.7800000000007 L4191.32 3073.1900000000005 L4191.32 3073.8 L4191.530000000001 3074.21 L4191.93 3074.620000000001 L4192.55 3074.8200000000006 L4192.96 3074.8200000000006 L4193.57 3074.620000000001 L4193.98 3074.21 L4194.18 3073.8 L4194.18 3073.1900000000005 L4193.98 3072.7800000000007 L4193.57 3072.370000000001 M 4189.89 3070.4000000000005L4193.370000000001 3070.4000000000005 L4193.98 3070.2000000000007 L4194.18 3069.790000000001 L4194.18 3069.38 M 4191.32 3071.0200000000004L4191.32 3069.59 M 4192.34 3068.0300000000007L4192.34 3064.3500000000004 M 4190.5 3060.1400000000003L4190.09 3060.540000000001 L4189.89 3061.1600000000008 L4189.89 3061.9800000000005 L4190.09 3062.59 L4190.5 3063 L4190.91 3063 L4191.32 3062.790000000001 L4191.530000000001 3062.59 L4191.73 3062.1800000000003 L4192.14 3060.9500000000007 L4192.34 3060.540000000001 L4192.55 3060.34 L4192.96 3060.1400000000003 L4193.57 3060.1400000000003 L4193.98 3060.540000000001 L4194.18 3061.1600000000008 L4194.18 3061.9800000000005 L4193.98 3062.59 L4193.57 3063 M 4189.89 3058.790000000001L4194.18 3057.76 M 4189.89 3056.7400000000007L4194.18 3057.76 M 4189.89 3056.7400000000007L4194.18 3055.7200000000003 M 4189.89 3054.6900000000005L4194.18 3055.7200000000003 " fill="none"  stroke-width="0.7" c_note="note_name" /></g><g c_partid="part_pcbtext" c_etype="" c_origin="4185.82,3118.67" c_rotation="90" c_mirror="0" id="gge247" locked="" layerid="3" c_shapetype="group" ><path c_fontsize="4.5" c_fontfamily="" c_text="SW4" d="M 4183.9802 3115.8099 L 4183.5702 3116.2199 L 4183.3702 3116.8299 L 4183.3702 3117.6499 L 4183.5702 3118.2599 L 4183.9802 3118.6699 L 4184.3902 3118.6699 L 4184.8002 3118.4699 L 4185.0002 3118.2599 L 4185.2102 3117.8499 L 4185.6202 3116.6199 L 4185.8202 3116.2199 L 4186.0202 3116.0099 L 4186.4302 3115.8099 L 4187.0502 3115.8099 L 4187.4602 3116.2199 L 4187.6602 3116.8299 L 4187.6602 3117.6499 L 4187.4602 3118.2599 L 4187.0502 3118.6699 M 4183.3702 3114.4599 L 4187.6602 3113.4299 M 4183.3702 3112.4099 L 4187.6602 3113.4299 M 4183.3702 3112.4099 L 4187.6602 3111.3899 M 4183.3702 3110.3699 L 4187.6602 3111.3899 M 4183.3702 3106.9699 L 4186.2302 3109.0199 L 4186.2302 3105.9499 M 4183.3702 3106.9699 L 4187.6602 3106.9699" fill="none"  stroke-width="0.7" c_note="note_pre" /></g><g c_partid="part_pcbtext" c_etype="" c_origin="4193.82,3118.67" c_rotation="90" c_mirror="false" id="rep9" locked="" layerid="3" c_shapetype="group" display="none"><path c_fontsize="4.5" c_fontfamily="" c_text="Tact-SW" d="M 4189.28 3117.24L4193.57 3117.24 M 4189.28 3118.67L4189.28 3115.8099999999995 M 4190.709999999999 3112L4193.57 3112 M 4191.32 3112L4190.92 3112.41 L4190.709999999999 3112.8199999999997 L4190.709999999999 3113.4299999999994 L4190.92 3113.84 L4191.32 3114.25 L4191.94 3114.46 L4192.349999999999 3114.46 L4192.959999999999 3114.25 L4193.369999999999 3113.84 L4193.57 3113.4299999999994 L4193.57 3112.8199999999997 L4193.369999999999 3112.41 L4192.959999999999 3112 M 4191.32 3108.2L4190.92 3108.6099999999997 L4190.709999999999 3109.0199999999995 L4190.709999999999 3109.63 L4190.92 3110.04 L4191.32 3110.45 L4191.94 3110.6499999999996 L4192.349999999999 3110.6499999999996 L4192.959999999999 3110.45 L4193.369999999999 3110.04 L4193.57 3109.63 L4193.57 3109.0199999999995 L4193.369999999999 3108.6099999999997 L4192.959999999999 3108.2 M 4189.28 3106.2299999999996L4192.76 3106.2299999999996 L4193.369999999999 3106.0299999999997 L4193.57 3105.62 L4193.57 3105.21 M 4190.709999999999 3106.8499999999995L4190.709999999999 3105.42 M 4191.73 3103.8599999999997L4191.73 3100.1799999999994 M 4189.889999999999 3095.9699999999993L4189.48 3096.37 L4189.28 3096.99 L4189.28 3097.8099999999995 L4189.48 3098.42 L4189.889999999999 3098.83 L4190.299999999999 3098.83 L4190.709999999999 3098.62 L4190.92 3098.42 L4191.119999999999 3098.01 L4191.53 3096.7799999999997 L4191.73 3096.37 L4191.94 3096.17 L4192.349999999999 3095.9699999999993 L4192.959999999999 3095.9699999999993 L4193.369999999999 3096.37 L4193.57 3096.99 L4193.57 3097.8099999999995 L4193.369999999999 3098.42 L4192.959999999999 3098.83 M 4189.28 3094.62L4193.57 3093.59 M 4189.28 3092.5699999999997L4193.57 3093.59 M 4189.28 3092.5699999999997L4193.57 3091.55 M 4189.28 3090.5199999999995L4193.57 3091.55 " fill="none"  stroke-width="0.7" c_note="note_name" /></g><g c_partid="part_pcbtext" c_etype="" c_origin="4185.69,3155.42" c_rotation="90" c_mirror="0" id="gge282" locked="" layerid="3" c_shapetype="group" ><path c_fontsize="4.5" c_fontfamily="" c_text="SW1" d="M 4183.8498 3152.56 L 4183.4398 3152.97 L 4183.2398 3153.58 L 4183.2398 3154.4 L 4183.4398 3155.01 L 4183.8498 3155.42 L 4184.2598 3155.42 L 4184.6698 3155.22 L 4184.8698 3155.01 L 4185.0798 3154.6 L 4185.4898 3153.37 L 4185.6898 3152.97 L 4185.8898 3152.76 L 4186.2998 3152.56 L 4186.9198 3152.56 L 4187.3298 3152.97 L 4187.5298 3153.58 L 4187.5298 3154.4 L 4187.3298 3155.01 L 4186.9198 3155.42 M 4183.2398 3151.21 L 4187.5298 3150.18 M 4183.2398 3149.16 L 4187.5298 3150.18 M 4183.2398 3149.16 L 4187.5298 3148.14 M 4183.2398 3147.12 L 4187.5298 3148.14 M 4184.0498 3145.77 L 4183.8498 3145.36 L 4183.2398 3144.74 L 4187.5298 3144.74" fill="none"  stroke-width="0.7" c_note="note_pre" /></g><g c_partid="part_pcbtext" c_etype="" c_origin="4193.69,3155.42" c_rotation="90" c_mirror="false" id="rep10" locked="" layerid="3" c_shapetype="group" display="none"><path c_fontsize="4.5" c_fontfamily="" c_text="Tact-SW" d="M 4189.15 3153.99L4193.44 3153.99 M 4189.15 3155.42L4189.15 3152.5599999999995 M 4190.58 3148.75L4193.44 3148.75 M 4191.19 3148.75L4190.789999999999 3149.16 L4190.58 3149.5699999999997 L4190.58 3150.1799999999994 L4190.789999999999 3150.5899999999992 L4191.19 3151 L4191.8099999999995 3151.21 L4192.219999999999 3151.21 L4192.83 3151 L4193.24 3150.5899999999992 L4193.44 3150.1799999999994 L4193.44 3149.5699999999997 L4193.24 3149.16 L4192.83 3148.75 M 4191.19 3144.95L4190.789999999999 3145.3599999999997 L4190.58 3145.7699999999995 L4190.58 3146.38 L4190.789999999999 3146.79 L4191.19 3147.2 L4191.8099999999995 3147.3999999999996 L4192.219999999999 3147.3999999999996 L4192.83 3147.2 L4193.24 3146.79 L4193.44 3146.38 L4193.44 3145.7699999999995 L4193.24 3145.3599999999997 L4192.83 3144.95 M 4189.15 3142.9799999999996L4192.629999999999 3142.9799999999996 L4193.24 3142.7799999999997 L4193.44 3142.37 L4193.44 3141.96 M 4190.58 3143.5999999999995L4190.58 3142.17 M 4191.599999999999 3140.6099999999997L4191.599999999999 3136.9299999999994 M 4189.759999999999 3132.7199999999993L4189.349999999999 3133.12 L4189.15 3133.74 L4189.15 3134.5599999999995 L4189.349999999999 3135.17 L4189.759999999999 3135.58 L4190.17 3135.58 L4190.58 3135.37 L4190.789999999999 3135.17 L4190.99 3134.7599999999993 L4191.4 3133.5299999999997 L4191.599999999999 3133.12 L4191.8099999999995 3132.92 L4192.219999999999 3132.7199999999993 L4192.83 3132.7199999999993 L4193.24 3133.12 L4193.44 3133.74 L4193.44 3134.5599999999995 L4193.24 3135.17 L4192.83 3135.58 M 4189.15 3131.37L4193.44 3130.3399999999992 M 4189.15 3129.3199999999997L4193.44 3130.3399999999992 M 4189.15 3129.3199999999997L4193.44 3128.2999999999993 M 4189.15 3127.2699999999995L4193.44 3128.2999999999993 " fill="none"  stroke-width="0.7" c_note="note_name" /></g><g c_partid="part_pcbtext" c_etype="" c_origin="4063.45,3074.56" c_rotation="0" c_mirror="0" id="gge317" locked="" layerid="3" c_shapetype="group" ><path c_fontsize="4.5" c_fontfamily="" c_text="JP1" d="M 4065.5 3072.11 L 4065.5 3075.38 L 4065.29 3075.99 L 4065.09 3076.2 L 4064.68 3076.4 L 4064.27 3076.4 L 4063.86 3076.2 L 4063.65 3075.99 L 4063.45 3075.38 L 4063.45 3074.97 M 4066.85 3072.11 L 4066.85 3076.4 M 4066.85 3072.11 L 4068.69 3072.11 L 4069.3 3072.31 L 4069.5 3072.51 L 4069.71 3072.92 L 4069.71 3073.54 L 4069.5 3073.95 L 4069.3 3074.15 L 4068.69 3074.36 L 4066.85 3074.36 M 4071.06 3072.92 L 4071.47 3072.72 L 4072.08 3072.11 L 4072.08 3076.4" fill="none"  stroke-width="0.7" c_note="note_pre" /></g><g c_partid="part_pcbtext" c_etype="" c_origin="4063.45,3066.56" c_rotation="0" c_mirror="false" id="rep11" locked="" layerid="3" c_shapetype="group" display="none"><path c_fontsize="4.5" c_fontfamily="" c_text="AVR_SPI_PRG_6PTH" d="M 4065.09 3062.02L4063.45 3066.31 M 4065.09 3062.02L4066.72 3066.31 M 4064.06 3064.88L4066.11 3064.88 M 4068.07 3062.02L4069.71 3066.31 M 4071.35 3062.02L4069.71 3066.31 M 4072.7 3062.02L4072.7 3066.31 M 4072.7 3062.02L4074.54 3062.02 L4075.15 3062.22 L4075.35 3062.43 L4075.56 3062.84 L4075.56 3063.25 L4075.35 3063.66 L4075.15 3063.86 L4074.54 3064.06 L4072.7 3064.06 M 4074.13 3064.06L4075.56 3066.31 M 4076.91 3067.75L4080.59 3067.75 M 4084.8 3062.63L4084.4 3062.22 L4083.78 3062.02 L4082.96 3062.02 L4082.35 3062.22 L4081.94 3062.63 L4081.94 3063.04 L4082.15 3063.45 L4082.35 3063.66 L4082.76 3063.86 L4083.99 3064.27 L4084.4 3064.47 L4084.6 3064.68 L4084.8 3065.09 L4084.8 3065.7 L4084.4 3066.11 L4083.78 3066.31 L4082.96 3066.31 L4082.35 3066.11 L4081.94 3065.7 M 4086.15 3062.02L4086.15 3066.31 M 4086.15 3062.02L4088 3062.02 L4088.61 3062.22 L4088.81 3062.43 L4089.02 3062.84 L4089.02 3063.45 L4088.81 3063.86 L4088.61 3064.06 L4088 3064.27 L4086.15 3064.27 M 4090.37 3062.02L4090.37 3066.31 M 4091.72 3067.75L4095.4 3067.75 M 4096.75 3062.02L4096.75 3066.31 M 4096.75 3062.02L4098.59 3062.02 L4099.2 3062.22 L4099.41 3062.43 L4099.61 3062.84 L4099.61 3063.45 L4099.41 3063.86 L4099.2 3064.06 L4098.59 3064.27 L4096.75 3064.27 M 4100.96 3062.02L4100.96 3066.31 M 4100.96 3062.02L4102.8 3062.02 L4103.42 3062.22 L4103.62 3062.43 L4103.83 3062.84 L4103.83 3063.25 L4103.62 3063.66 L4103.42 3063.86 L4102.8 3064.06 L4100.96 3064.06 M 4102.4 3064.06L4103.83 3066.31 M 4108.25 3063.04L4108.04 3062.63 L4107.63 3062.22 L4107.22 3062.02 L4106.4 3062.02 L4106 3062.22 L4105.59 3062.63 L4105.38 3063.04 L4105.18 3063.66 L4105.18 3064.68 L4105.38 3065.29 L4105.59 3065.7 L4106 3066.11 L4106.4 3066.31 L4107.22 3066.31 L4107.63 3066.11 L4108.04 3065.7 L4108.25 3065.29 L4108.25 3064.68 M 4107.22 3064.68L4108.25 3064.68 M 4109.6 3067.75L4113.28 3067.75 M 4117.08 3062.63L4116.88 3062.22 L4116.26 3062.02 L4115.85 3062.02 L4115.24 3062.22 L4114.83 3062.84 L4114.63 3063.86 L4114.63 3064.88 L4114.83 3065.7 L4115.24 3066.11 L4115.85 3066.31 L4116.06 3066.31 L4116.67 3066.11 L4117.08 3065.7 L4117.29 3065.09 L4117.29 3064.88 L4117.08 3064.27 L4116.67 3063.86 L4116.06 3063.66 L4115.85 3063.66 L4115.24 3063.86 L4114.83 3064.27 L4114.63 3064.88 M 4118.64 3062.02L4118.64 3066.31 M 4118.64 3062.02L4120.48 3062.02 L4121.09 3062.22 L4121.3 3062.43 L4121.5 3062.84 L4121.5 3063.45 L4121.3 3063.86 L4121.09 3064.06 L4120.48 3064.27 L4118.64 3064.27 M 4124.28 3062.02L4124.28 3066.31 M 4122.85 3062.02L4125.71 3062.02 M 4127.06 3062.02L4127.06 3066.31 M 4129.93 3062.02L4129.93 3066.31 M 4127.06 3064.06L4129.93 3064.06 " fill="none"  stroke-width="0.7" c_note="note_name" /></g><g c_partid="part_pcbtext" c_etype="" c_origin="4105,3103.46" c_rotation="0" c_mirror="0" id="gge362" locked="" layerid="3" c_shapetype="group" ><path c_fontsize="4.5" c_fontfamily="" c_text="X1" d="M 4105 3100.9999 L 4107.86 3105.2999 M 4107.86 3100.9999 L 4105 3105.2999 M 4109.21 3101.8199 L 4109.62 3101.6199 L 4110.24 3100.9999 L 4110.24 3105.2999" fill="none"  stroke-width="0.7" c_note="note_pre" /></g><g c_partid="part_pcbtext" c_etype="" c_origin="4105,3095.46" c_rotation="0" c_mirror="false" id="rep12" locked="" layerid="3" c_shapetype="group" display="none"><path c_fontsize="4.5" c_fontfamily="" c_text="MHZ" d="M 4105 3090.92L4105 3095.21 M 4105 3090.92L4106.64 3095.21 M 4108.27 3090.92L4106.64 3095.21 M 4108.27 3090.92L4108.27 3095.21 M 4109.62 3090.92L4109.62 3095.21 M 4112.49 3090.92L4112.49 3095.21 M 4109.62 3092.96L4112.49 3092.96 M 4116.7 3090.92L4113.84 3095.21 M 4113.84 3090.92L4116.7 3090.92 M 4113.84 3095.21L4116.7 3095.21 " fill="none"  stroke-width="0.7" c_note="note_name" /></g><g c_partid="part_pcbtext" c_etype="" c_origin="4168.07,3123.75" c_rotation="0" c_mirror="0" id="gge410" locked="" layerid="3" c_shapetype="group" ><path c_fontsize="3" c_fontfamily="" c_text="R3" d="M 4168.07 3122.11 L 4168.07 3124.98 M 4168.07 3122.11 L 4169.3 3122.11 L 4169.71 3122.25 L 4169.84 3122.39 L 4169.98 3122.66 L 4169.98 3122.93 L 4169.84 3123.2 L 4169.71 3123.34 L 4169.3 3123.48 L 4168.07 3123.48 M 4169.02 3123.48 L 4169.98 3124.98 M 4171.15 3122.11 L 4172.65 3122.11 L 4171.83 3123.2 L 4172.24 3123.2 L 4172.52 3123.34 L 4172.65 3123.48 L 4172.79 3123.89 L 4172.79 3124.16 L 4172.65 3124.57 L 4172.38 3124.84 L 4171.97 3124.98 L 4171.56 3124.98 L 4171.15 3124.84 L 4171.02 3124.7 L 4170.88 3124.43" fill="none"  stroke-width="0.7" c_note="note_pre" /></g><g c_partid="part_pcbtext" c_etype="" c_origin="4168.07,3115.75" c_rotation="0" c_mirror="false" id="rep14" locked="" layerid="3" c_shapetype="group" display="none"><path c_fontsize="3" c_fontfamily="" c_text="1K" d="M 4168.07 3113.27L4168.34 3113.13 L4168.75 3112.72 L4168.75 3115.59 M 4169.65 3112.72L4169.65 3115.59 M 4171.56 3112.72L4169.65 3114.63 M 4170.33 3113.95L4171.56 3115.59 " fill="none"  stroke-width="0.7" c_note="note_name" /></g><g c_partid="part_pcbtext" c_etype="" c_origin="4067.56,3084.06" c_rotation="0" c_mirror="0" id="gge424" locked="" layerid="3" c_shapetype="group" ><path c_fontsize="4.5" c_fontfamily="" c_text="C1" d="M 4070.6301 3082.63 L 4070.4201 3082.22 L 4070.0101 3081.81 L 4069.6101 3081.61 L 4068.7901 3081.61 L 4068.3801 3081.81 L 4067.9701 3082.22 L 4067.7601 3082.63 L 4067.5601 3083.24 L 4067.5601 3084.26 L 4067.7601 3084.88 L 4067.9701 3085.29 L 4068.3801 3085.7 L 4068.7901 3085.9 L 4069.6101 3085.9 L 4070.0101 3085.7 L 4070.4201 3085.29 L 4070.6301 3084.88 M 4071.9801 3082.42 L 4072.3901 3082.22 L 4073.0001 3081.61 L 4073.0001 3085.9" fill="none"  stroke-width="0.7" c_note="note_pre" /></g><g c_partid="part_pcbtext" c_etype="" c_origin="4067.56,3076.06" c_rotation="0" c_mirror="false" id="rep15" locked="" layerid="3" c_shapetype="group" display="none"><path c_fontsize="4.5" c_fontfamily="" c_text="10uF" d="M 4067.56 3072.34L4067.97 3072.13 L4068.58 3071.52 L4068.58 3075.81 M 4071.16 3071.52L4070.55 3071.72 L4070.14 3072.34 L4069.93 3073.36 L4069.93 3073.97 L4070.14 3075 L4070.55 3075.61 L4071.16 3075.81 L4071.57 3075.81 L4072.18 3075.61 L4072.59 3075 L4072.8 3073.97 L4072.8 3073.36 L4072.59 3072.34 L4072.18 3071.72 L4071.57 3071.52 L4071.16 3071.52 M 4074.15 3072.95L4074.15 3075 L4074.35 3075.61 L4074.76 3075.81 L4075.37 3075.81 L4075.78 3075.61 L4076.4 3075 M 4076.4 3072.95L4076.4 3075.81 M 4077.75 3071.52L4077.75 3075.81 M 4077.75 3071.52L4080.41 3071.52 M 4077.75 3073.56L4079.38 3073.56 " fill="none"  stroke-width="0.7" c_note="note_name" /></g><g c_partid="part_pcbtext" c_etype="" c_origin="4142.52,3117.86" c_rotation="0" c_mirror="0" id="gge438" locked="" layerid="3" c_shapetype="group" ><path c_fontsize="3" c_fontfamily="" c_text="R4" d="M 4142.5201 3116.22 L 4142.5201 3119.09 M 4142.5201 3116.22 L 4143.7501 3116.22 L 4144.1601 3116.36 L 4144.2901 3116.5 L 4144.4301 3116.77 L 4144.4301 3117.04 L 4144.2901 3117.31 L 4144.1601 3117.45 L 4143.7501 3117.59 L 4142.5201 3117.59 M 4143.4701 3117.59 L 4144.4301 3119.09 M 4146.6901 3116.22 L 4145.3301 3118.13 L 4147.3701 3118.13 M 4146.6901 3116.22 L 4146.6901 3119.09" fill="none"  stroke-width="0.7" c_note="note_pre" /></g><g c_partid="part_pcbtext" c_etype="" c_origin="4142.52,3109.86" c_rotation="0" c_mirror="false" id="rep16" locked="" layerid="3" c_shapetype="group" display="none"><path c_fontsize="3" c_fontfamily="" c_text="1K" d="M 4142.52 3107.38L4142.79 3107.24 L4143.2 3106.83 L4143.2 3109.7 M 4144.1 3106.83L4144.1 3109.7 M 4146.01 3106.83L4144.1 3108.74 M 4144.78 3108.06L4146.01 3109.7 " fill="none"  stroke-width="0.7" c_note="note_name" /></g><g c_partid="part_pcbtext" c_etype="" c_origin="4145.47,3102.7" c_rotation="0" c_mirror="0" id="gge485" locked="" layerid="3" c_shapetype="group" ><path c_fontsize="3" c_fontfamily="" c_text="LED1" d="M 4145.4699 3101.0601 L 4145.4699 3103.9301 M 4145.4699 3103.9301 L 4147.1099 3103.9301 M 4148.0099 3101.0601 L 4148.0099 3103.9301 M 4148.0099 3101.0601 L 4149.7799 3101.0601 M 4148.0099 3102.4301 L 4149.0999 3102.4301 M 4148.0099 3103.9301 L 4149.7799 3103.9301 M 4150.6799 3101.0601 L 4150.6799 3103.9301 M 4150.6799 3101.0601 L 4151.6299 3101.0601 L 4152.0399 3101.2001 L 4152.3199 3101.4701 L 4152.4499 3101.7501 L 4152.5899 3102.1501 L 4152.5899 3102.8401 L 4152.4499 3103.2501 L 4152.3199 3103.5201 L 4152.0399 3103.7901 L 4151.6299 3103.9301 L 4150.6799 3103.9301 M 4153.4899 3101.6101 L 4153.7599 3101.4701 L 4154.1699 3101.0601 L 4154.1699 3103.9301" fill="none"  stroke-width="0.7" c_note="note_pre" /></g><g c_partid="part_pcbtext" c_etype="" c_origin="4145.47,3094.7" c_rotation="0" c_mirror="false" id="rep18" locked="" layerid="3" c_shapetype="group" display="none"><path c_fontsize="3" c_fontfamily="" c_text="0805G()" d="M 4146.29 3091.67L4145.88 3091.81 L4145.61 3092.22 L4145.47 3092.9 L4145.47 3093.31 L4145.61 3093.99 L4145.88 3094.4 L4146.29 3094.54 L4146.56 3094.54 L4146.97 3094.4 L4147.24 3093.99 L4147.38 3093.31 L4147.38 3092.9 L4147.24 3092.22 L4146.97 3091.81 L4146.56 3091.67 L4146.29 3091.67 M 4148.96 3091.67L4148.55 3091.81 L4148.42 3092.08 L4148.42 3092.35 L4148.55 3092.63 L4148.82 3092.76 L4149.37 3092.9 L4149.78 3093.04 L4150.05 3093.31 L4150.19 3093.58 L4150.19 3093.99 L4150.05 3094.26 L4149.92 3094.4 L4149.51 3094.54 L4148.96 3094.54 L4148.55 3094.4 L4148.42 3094.26 L4148.28 3093.99 L4148.28 3093.58 L4148.42 3093.31 L4148.69 3093.04 L4149.1 3092.9 L4149.64 3092.76 L4149.92 3092.63 L4150.05 3092.35 L4150.05 3092.08 L4149.92 3091.81 L4149.51 3091.67 L4148.96 3091.67 M 4151.91 3091.67L4151.5 3091.81 L4151.22 3092.22 L4151.09 3092.9 L4151.09 3093.31 L4151.22 3093.99 L4151.5 3094.4 L4151.91 3094.54 L4152.18 3094.54 L4152.59 3094.4 L4152.86 3093.99 L4153 3093.31 L4153 3092.9 L4152.86 3092.22 L4152.59 3091.81 L4152.18 3091.67 L4151.91 3091.67 M 4155.53 3091.67L4154.17 3091.67 L4154.03 3092.9 L4154.17 3092.76 L4154.58 3092.63 L4154.99 3092.63 L4155.4 3092.76 L4155.67 3093.04 L4155.81 3093.45 L4155.81 3093.72 L4155.67 3094.13 L4155.4 3094.4 L4154.99 3094.54 L4154.58 3094.54 L4154.17 3094.4 L4154.03 3094.26 L4153.9 3093.99 M 4158.75 3092.35L4158.62 3092.08 L4158.34 3091.81 L4158.07 3091.67 L4157.52 3091.67 L4157.25 3091.81 L4156.98 3092.08 L4156.84 3092.35 L4156.71 3092.76 L4156.71 3093.45 L4156.84 3093.85 L4156.98 3094.13 L4157.25 3094.4 L4157.52 3094.54 L4158.07 3094.54 L4158.34 3094.4 L4158.62 3094.13 L4158.75 3093.85 L4158.75 3093.45 M 4158.07 3093.45L4158.75 3093.45 M 4160.61 3091.13L4160.33 3091.4 L4160.06 3091.81 L4159.79 3092.35 L4159.65 3093.04 L4159.65 3093.58 L4159.79 3094.26 L4160.06 3094.81 L4160.33 3095.22 L4160.61 3095.49 M 4161.51 3091.13L4161.78 3091.4 L4162.05 3091.81 L4162.32 3092.35 L4162.46 3093.04 L4162.46 3093.58 L4162.32 3094.26 L4162.05 3094.81 L4161.78 3095.22 L4161.51 3095.49 " fill="none"  stroke-width="0.7" c_note="note_name" /></g><g c_partid="part_pcbtext" c_etype="" c_origin="4148.47,3133.17" c_rotation="0" c_mirror="0" id="gge499" locked="" layerid="3" c_shapetype="group" ><path c_fontsize="3" c_fontfamily="" c_text="LED3" d="M 4148.4698 3131.5301 L 4148.4698 3134.4001 M 4148.4698 3134.4001 L 4150.1098 3134.4001 M 4151.0098 3131.5301 L 4151.0098 3134.4001 M 4151.0098 3131.5301 L 4152.7798 3131.5301 M 4151.0098 3132.9001 L 4152.0998 3132.9001 M 4151.0098 3134.4001 L 4152.7798 3134.4001 M 4153.6798 3131.5301 L 4153.6798 3134.4001 M 4153.6798 3131.5301 L 4154.6298 3131.5301 L 4155.0398 3131.6701 L 4155.3198 3131.9401 L 4155.4498 3132.2201 L 4155.5898 3132.6201 L 4155.5898 3133.3101 L 4155.4498 3133.7201 L 4155.3198 3133.9901 L 4155.0398 3134.2601 L 4154.6298 3134.4001 L 4153.6798 3134.4001 M 4156.7598 3131.5301 L 4158.2598 3131.5301 L 4157.4398 3132.6201 L 4157.8498 3132.6201 L 4158.1198 3132.7601 L 4158.2598 3132.9001 L 4158.3998 3133.3101 L 4158.3998 3133.5801 L 4158.2598 3133.9901 L 4157.9898 3134.2601 L 4157.5798 3134.4001 L 4157.1698 3134.4001 L 4156.7598 3134.2601 L 4156.6198 3134.1201 L 4156.4898 3133.8501" fill="none"  stroke-width="0.7" c_note="note_pre" /></g><g c_partid="part_pcbtext" c_etype="" c_origin="4148.47,3125.17" c_rotation="0" c_mirror="false" id="rep19" locked="" layerid="3" c_shapetype="group" display="none"><path c_fontsize="3" c_fontfamily="" c_text="E6C0805UR" d="M 4148.47 3122.14L4148.47 3125.01 M 4148.47 3122.14L4150.24 3122.14 M 4148.47 3123.51L4149.56 3123.51 M 4148.47 3125.01L4150.24 3125.01 M 4152.78 3122.55L4152.64 3122.28 L4152.23 3122.14 L4151.96 3122.14 L4151.55 3122.28 L4151.28 3122.69 L4151.14 3123.37 L4151.14 3124.05 L4151.28 3124.6 L4151.55 3124.87 L4151.96 3125.01 L4152.1 3125.01 L4152.51 3124.87 L4152.78 3124.6 L4152.92 3124.19 L4152.92 3124.05 L4152.78 3123.64 L4152.51 3123.37 L4152.1 3123.23 L4151.96 3123.23 L4151.55 3123.37 L4151.28 3123.64 L4151.14 3124.05 M 4155.86 3122.82L4155.72 3122.55 L4155.45 3122.28 L4155.18 3122.14 L4154.63 3122.14 L4154.36 3122.28 L4154.09 3122.55 L4153.95 3122.82 L4153.82 3123.23 L4153.82 3123.92 L4153.95 3124.32 L4154.09 3124.6 L4154.36 3124.87 L4154.63 3125.01 L4155.18 3125.01 L4155.45 3124.87 L4155.72 3124.6 L4155.86 3124.32 M 4157.58 3122.14L4157.17 3122.28 L4156.9 3122.69 L4156.76 3123.37 L4156.76 3123.78 L4156.9 3124.46 L4157.17 3124.87 L4157.58 3125.01 L4157.85 3125.01 L4158.26 3124.87 L4158.53 3124.46 L4158.67 3123.78 L4158.67 3123.37 L4158.53 3122.69 L4158.26 3122.28 L4157.85 3122.14 L4157.58 3122.14 M 4160.25 3122.14L4159.84 3122.28 L4159.71 3122.55 L4159.71 3122.82 L4159.84 3123.1 L4160.12 3123.23 L4160.66 3123.37 L4161.07 3123.51 L4161.34 3123.78 L4161.48 3124.05 L4161.48 3124.46 L4161.34 3124.73 L4161.21 3124.87 L4160.8 3125.01 L4160.25 3125.01 L4159.84 3124.87 L4159.71 3124.73 L4159.57 3124.46 L4159.57 3124.05 L4159.71 3123.78 L4159.98 3123.51 L4160.39 3123.37 L4160.93 3123.23 L4161.21 3123.1 L4161.34 3122.82 L4161.34 3122.55 L4161.21 3122.28 L4160.8 3122.14 L4160.25 3122.14 M 4163.2 3122.14L4162.79 3122.28 L4162.52 3122.69 L4162.38 3123.37 L4162.38 3123.78 L4162.52 3124.46 L4162.79 3124.87 L4163.2 3125.01 L4163.47 3125.01 L4163.88 3124.87 L4164.15 3124.46 L4164.29 3123.78 L4164.29 3123.37 L4164.15 3122.69 L4163.88 3122.28 L4163.47 3122.14 L4163.2 3122.14 M 4166.82 3122.14L4165.46 3122.14 L4165.32 3123.37 L4165.46 3123.23 L4165.87 3123.1 L4166.28 3123.1 L4166.69 3123.23 L4166.96 3123.51 L4167.1 3123.92 L4167.1 3124.19 L4166.96 3124.6 L4166.69 3124.87 L4166.28 3125.01 L4165.87 3125.01 L4165.46 3124.87 L4165.32 3124.73 L4165.19 3124.46 M 4168 3122.14L4168 3124.19 L4168.13 3124.6 L4168.41 3124.87 L4168.82 3125.01 L4169.09 3125.01 L4169.5 3124.87 L4169.77 3124.6 L4169.91 3124.19 L4169.91 3122.14 M 4170.81 3122.14L4170.81 3125.01 M 4170.81 3122.14L4172.03 3122.14 L4172.44 3122.28 L4172.58 3122.42 L4172.72 3122.69 L4172.72 3122.96 L4172.58 3123.23 L4172.44 3123.37 L4172.03 3123.51 L4170.81 3123.51 M 4171.76 3123.51L4172.72 3125.01 " fill="none"  stroke-width="0.7" c_note="note_name" /></g><g c_partid="part_pcbtext" c_etype="" c_origin="4064,3108.45" c_rotation="90" c_mirror="0" id="gge513" locked="" layerid="3" c_shapetype="group" ><path c_fontsize="4.5" c_fontfamily="" c_text="USB1" d="M 4061.55 3108.45 L 4064.62 3108.45 L 4065.23 3108.25 L 4065.64 3107.84 L 4065.84 3107.23 L 4065.84 3106.82 L 4065.64 3106.2 L 4065.23 3105.79 L 4064.62 3105.59 L 4061.55 3105.59 M 4062.16 3101.38 L 4061.75 3101.78 L 4061.55 3102.4 L 4061.55 3103.22 L 4061.75 3103.83 L 4062.16 3104.24 L 4062.57 3104.24 L 4062.98 3104.03 L 4063.18 3103.83 L 4063.39 3103.42 L 4063.8 3102.19 L 4064 3101.78 L 4064.21 3101.58 L 4064.62 3101.38 L 4065.23 3101.38 L 4065.64 3101.78 L 4065.84 3102.4 L 4065.84 3103.22 L 4065.64 3103.83 L 4065.23 3104.24 M 4061.55 3100.03 L 4065.84 3100.03 M 4061.55 3100.03 L 4061.55 3098.18 L 4061.75 3097.57 L 4061.96 3097.37 L 4062.37 3097.16 L 4062.77 3097.16 L 4063.18 3097.37 L 4063.39 3097.57 L 4063.59 3098.18 M 4063.59 3100.03 L 4063.59 3098.18 L 4063.8 3097.57 L 4064 3097.37 L 4064.41 3097.16 L 4065.02 3097.16 L 4065.43 3097.37 L 4065.64 3097.57 L 4065.84 3098.18 L 4065.84 3100.03 M 4062.37 3095.81 L 4062.16 3095.4 L 4061.55 3094.79 L 4065.84 3094.79" fill="none"  stroke-width="0.7" c_note="note_pre" /></g><g c_partid="part_pcbtext" c_etype="" c_origin="4072,3108.45" c_rotation="90" c_mirror="false" id="rep20" locked="" layerid="3" c_shapetype="group" display="none"><path c_fontsize="4.5" c_fontfamily="" c_text="MICRO USB 5S B" d="M 4067.46 3108.45L4071.75 3108.45 M 4067.46 3108.45L4071.75 3106.81 M 4067.46 3105.18L4071.75 3106.81 M 4067.46 3105.18L4071.75 3105.18 M 4067.46 3103.83L4071.75 3103.83 M 4068.48 3099.41L4068.07 3099.6099999999997 L4067.6600000000003 3100.02 L4067.46 3100.43 L4067.46 3101.25 L4067.6600000000003 3101.66 L4068.07 3102.0699999999997 L4068.48 3102.27 L4069.1000000000004 3102.48 L4070.1200000000003 3102.48 L4070.73 3102.27 L4071.1400000000003 3102.0699999999997 L4071.55 3101.66 L4071.75 3101.25 L4071.75 3100.43 L4071.55 3100.02 L4071.1400000000003 3099.6099999999997 L4070.73 3099.41 M 4067.46 3098.06L4071.75 3098.06 M 4067.46 3098.06L4067.46 3096.22 L4067.6600000000003 3095.6 L4067.8700000000003 3095.3999999999996 L4068.28 3095.2 L4068.69 3095.2 L4069.1000000000004 3095.3999999999996 L4069.3 3095.6 L4069.5 3096.22 L4069.5 3098.06 M 4069.5 3096.6299999999997L4071.75 3095.2 M 4067.46 3092.62L4067.6600000000003 3093.0299999999997 L4068.07 3093.4399999999996 L4068.48 3093.64 L4069.1000000000004 3093.85 L4070.1200000000003 3093.85 L4070.73 3093.64 L4071.1400000000003 3093.4399999999996 L4071.55 3093.0299999999997 L4071.75 3092.62 L4071.75 3091.7999999999997 L4071.55 3091.39 L4071.1400000000003 3090.98 L4070.73 3090.7799999999997 L4070.1200000000003 3090.5699999999997 L4069.1000000000004 3090.5699999999997 L4068.48 3090.7799999999997 L4068.07 3090.98 L4067.6600000000003 3091.39 L4067.46 3091.7999999999997 L4067.46 3092.62 M 4067.46 3086.0699999999997L4070.53 3086.0699999999997 L4071.1400000000003 3085.87 L4071.55 3085.46 L4071.75 3084.85 L4071.75 3084.4399999999996 L4071.55 3083.8199999999997 L4071.1400000000003 3083.41 L4070.53 3083.21 L4067.46 3083.21 M 4068.07 3079L4067.6600000000003 3079.3999999999996 L4067.46 3080.0199999999995 L4067.46 3080.84 L4067.6600000000003 3081.45 L4068.07 3081.8599999999997 L4068.48 3081.8599999999997 L4068.8900000000003 3081.6499999999996 L4069.1000000000004 3081.45 L4069.3 3081.04 L4069.71 3079.8099999999995 L4069.9100000000003 3079.3999999999996 L4070.1200000000003 3079.2 L4070.53 3079 L4071.1400000000003 3079 L4071.55 3079.3999999999996 L4071.75 3080.0199999999995 L4071.75 3080.84 L4071.55 3081.45 L4071.1400000000003 3081.8599999999997 M 4067.46 3077.6499999999996L4071.75 3077.6499999999996 M 4067.46 3077.6499999999996L4067.46 3075.8 L4067.6600000000003 3075.1899999999996 L4067.8700000000003 3074.99 L4068.28 3074.7799999999997 L4068.69 3074.7799999999997 L4069.1000000000004 3074.99 L4069.3 3075.1899999999996 L4069.5 3075.8 M 4069.5 3077.6499999999996L4069.5 3075.8 L4069.71 3075.1899999999996 L4069.9100000000003 3074.99 L4070.32 3074.7799999999997 L4070.94 3074.7799999999997 L4071.3500000000004 3074.99 L4071.55 3075.1899999999996 L4071.75 3075.8 L4071.75 3077.6499999999996 M 4067.46 3067.83L4067.46 3069.87 L4069.3 3070.08 L4069.1000000000004 3069.87 L4068.8900000000003 3069.26 L4068.8900000000003 3068.6499999999996 L4069.1000000000004 3068.0299999999997 L4069.5 3067.62 L4070.1200000000003 3067.42 L4070.53 3067.42 L4071.1400000000003 3067.62 L4071.55 3068.0299999999997 L4071.75 3068.6499999999996 L4071.75 3069.26 L4071.55 3069.87 L4071.3500000000004 3070.08 L4070.94 3070.2799999999997 M 4068.07 3063.2L4067.6600000000003 3063.6099999999997 L4067.46 3064.2299999999996 L4067.46 3065.05 L4067.6600000000003 3065.66 L4068.07 3066.0699999999997 L4068.48 3066.0699999999997 L4068.8900000000003 3065.8599999999997 L4069.1000000000004 3065.66 L4069.3 3065.25 L4069.71 3064.0199999999995 L4069.9100000000003 3063.6099999999997 L4070.1200000000003 3063.41 L4070.53 3063.2 L4071.1400000000003 3063.2 L4071.55 3063.6099999999997 L4071.75 3064.2299999999996 L4071.75 3065.05 L4071.55 3065.66 L4071.1400000000003 3066.0699999999997 M 4067.46 3058.7L4071.75 3058.7 M 4067.46 3058.7L4067.46 3056.8599999999997 L4067.6600000000003 3056.25 L4067.8700000000003 3056.05 L4068.28 3055.84 L4068.69 3055.84 L4069.1000000000004 3056.05 L4069.3 3056.25 L4069.5 3056.8599999999997 M 4069.5 3058.7L4069.5 3056.8599999999997 L4069.71 3056.25 L4069.9100000000003 3056.05 L4070.32 3055.84 L4070.94 3055.84 L4071.3500000000004 3056.05 L4071.55 3056.25 L4071.75 3056.8599999999997 L4071.75 3058.7 " fill="none"  stroke-width="0.7" c_note="note_name" /></g><g c_partid="part_pcbtext" c_etype="" c_origin="4160.14,3146.35" c_rotation="0" c_mirror="0" id="gge557" locked="" layerid="3" c_shapetype="group" ><path c_fontsize="4.5" c_fontfamily="" c_text="R5" d="M 4160.14 3143.9 L 4160.14 3148.19 M 4160.14 3143.9 L 4161.98 3143.9 L 4162.59 3144.1 L 4162.8 3144.3 L 4163 3144.71 L 4163 3145.12 L 4162.8 3145.53 L 4162.59 3145.74 L 4161.98 3145.94 L 4160.14 3145.94 M 4161.57 3145.94 L 4163 3148.19 M 4166.81 3143.9 L 4164.76 3143.9 L 4164.56 3145.74 L 4164.76 3145.53 L 4165.38 3145.33 L 4165.99 3145.33 L 4166.6 3145.53 L 4167.01 3145.94 L 4167.22 3146.55 L 4167.22 3146.96 L 4167.01 3147.58 L 4166.6 3147.99 L 4165.99 3148.19 L 4165.38 3148.19 L 4164.76 3147.99 L 4164.56 3147.78 L 4164.35 3147.37" fill="none"  stroke-width="0.7" c_note="note_pre" /></g><g c_partid="part_pcbtext" c_etype="" c_origin="4160.14,3138.35" c_rotation="0" c_mirror="false" id="rep21" locked="" layerid="3" c_shapetype="group" display="none"><path c_fontsize="4.5" c_fontfamily="" c_text="3.3K" d="M 4160.55 3133.81L4162.8 3133.81 L4161.57 3135.45 L4162.19 3135.45 L4162.59 3135.65 L4162.8 3135.85 L4163 3136.47 L4163 3136.88 L4162.8 3137.49 L4162.39 3137.9 L4161.78 3138.1 L4161.16 3138.1 L4160.55 3137.9 L4160.34 3137.7 L4160.14 3137.29 M 4164.56 3137.08L4164.35 3137.29 L4164.56 3137.49 L4164.76 3137.29 L4164.56 3137.08 M 4166.52 3133.81L4168.77 3133.81 L4167.54 3135.45 L4168.16 3135.45 L4168.57 3135.65 L4168.77 3135.85 L4168.98 3136.47 L4168.98 3136.88 L4168.77 3137.49 L4168.36 3137.9 L4167.75 3138.1 L4167.14 3138.1 L4166.52 3137.9 L4166.32 3137.7 L4166.11 3137.29 M 4170.33 3133.81L4170.33 3138.1 M 4173.19 3133.81L4170.33 3136.67 M 4171.35 3135.65L4173.19 3138.1 " fill="none"  stroke-width="0.7" c_note="note_name" /></g><g c_partid="part_pcbtext" c_etype="" c_origin="4137,3161.2" c_rotation="0" c_mirror="0" id="gge683" locked="" layerid="3" c_shapetype="group" ><path c_fontsize="4.5" c_fontfamily="" c_text="B+" d="M 4137 3158.75 L 4137 3163.04 M 4137 3158.75 L 4138.84 3158.75 L 4139.45 3158.95 L 4139.66 3159.15 L 4139.86 3159.56 L 4139.86 3159.97 L 4139.66 3160.38 L 4139.45 3160.59 L 4138.84 3160.79 M 4137 3160.79 L 4138.84 3160.79 L 4139.45 3161 L 4139.66 3161.2 L 4139.86 3161.61 L 4139.86 3162.22 L 4139.66 3162.63 L 4139.45 3162.84 L 4138.84 3163.04 L 4137 3163.04 M 4143.05 3159.36 L 4143.05 3163.04 M 4141.21 3161.2 L 4144.9 3161.2" fill="none"  stroke-width="0.7" c_note="note_pre" /></g><g c_partid="part_pcbtext" c_etype="" c_origin="4137,3153.2" c_rotation="0" c_mirror="false" id="rep27" locked="" layerid="3" c_shapetype="group" display="none"><path c_fontsize="4.5" c_fontfamily="" c_text="B+" d="M 4137 3148.66L4137 3152.95 M 4137 3148.66L4138.84 3148.66 L4139.45 3148.86 L4139.66 3149.07 L4139.86 3149.48 L4139.86 3149.89 L4139.66 3150.3 L4139.45 3150.5 L4138.84 3150.7 M 4137 3150.7L4138.84 3150.7 L4139.45 3150.91 L4139.66 3151.11 L4139.86 3151.52 L4139.86 3152.14 L4139.66 3152.55 L4139.45 3152.75 L4138.84 3152.95 L4137 3152.95 M 4143.05 3149.27L4143.05 3152.95 M 4141.21 3151.11L4144.9 3151.11 " fill="none"  stroke-width="0.7" c_note="note_name" /></g><g c_partid="part_pcbtext" c_etype="" c_origin="4150.04,3161.24" c_rotation="0" c_mirror="0" id="gge692" locked="" layerid="3" c_shapetype="group" ><path c_fontsize="4.5" c_fontfamily="" c_text="B-" d="M 4150.04 3158.79 L 4150.04 3163.08 M 4150.04 3158.79 L 4151.88 3158.79 L 4152.49 3158.99 L 4152.7 3159.19 L 4152.9 3159.6 L 4152.9 3160.01 L 4152.7 3160.42 L 4152.49 3160.63 L 4151.88 3160.83 M 4150.04 3160.83 L 4151.88 3160.83 L 4152.49 3161.04 L 4152.7 3161.24 L 4152.9 3161.65 L 4152.9 3162.26 L 4152.7 3162.67 L 4152.49 3162.88 L 4151.88 3163.08 L 4150.04 3163.08 M 4154.25 3161.24 L 4157.94 3161.24" fill="none"  stroke-width="0.7" c_note="note_pre" /></g><g c_partid="part_pcbtext" c_etype="" c_origin="4150.04,3153.24" c_rotation="0" c_mirror="false" id="rep28" locked="" layerid="3" c_shapetype="group" display="none"><path c_fontsize="4.5" c_fontfamily="" c_text="B-" d="M 4150.04 3148.7L4150.04 3152.99 M 4150.04 3148.7L4151.88 3148.7 L4152.49 3148.9 L4152.7 3149.11 L4152.9 3149.52 L4152.9 3149.93 L4152.7 3150.34 L4152.49 3150.54 L4151.88 3150.74 M 4150.04 3150.74L4151.88 3150.74 L4152.49 3150.95 L4152.7 3151.15 L4152.9 3151.56 L4152.9 3152.18 L4152.7 3152.59 L4152.49 3152.79 L4151.88 3152.99 L4150.04 3152.99 M 4154.25 3151.15L4157.94 3151.15 " fill="none"  stroke-width="0.7" c_note="note_name" /></g><g c_partid="part_pcbtext" c_etype="" c_origin="4164.75,3075.22" c_rotation="0" c_mirror="0" id="gge712" locked="" layerid="3" c_shapetype="group" ><path c_fontsize="4.5" c_fontfamily="" c_text="R2" d="M 4164.7501 3072.77 L 4164.7501 3077.06 M 4164.7501 3072.77 L 4166.5901 3072.77 L 4167.2001 3072.97 L 4167.4101 3073.17 L 4167.6101 3073.58 L 4167.6101 3073.99 L 4167.4101 3074.4 L 4167.2001 3074.61 L 4166.5901 3074.81 L 4164.7501 3074.81 M 4166.1801 3074.81 L 4167.6101 3077.06 M 4169.1701 3073.79 L 4169.1701 3073.58 L 4169.3701 3073.17 L 4169.5801 3072.97 L 4169.9901 3072.77 L 4170.8001 3072.77 L 4171.2101 3072.97 L 4171.4201 3073.17 L 4171.6201 3073.58 L 4171.6201 3073.99 L 4171.4201 3074.4 L 4171.0101 3075.02 L 4168.9601 3077.06 L 4171.8301 3077.06" fill="none"  stroke-width="0.7" c_note="note_pre" /></g><g c_partid="part_pcbtext" c_etype="" c_origin="4164.75,3067.22" c_rotation="0" c_mirror="false" id="rep30" locked="" layerid="3" c_shapetype="group" display="none"><path c_fontsize="4.5" c_fontfamily="" c_text="1K" d="M 4164.75 3063.5L4165.16 3063.29 L4165.77 3062.68 L4165.77 3066.97 M 4167.12 3062.68L4167.12 3066.97 M 4169.99 3062.68L4167.12 3065.54 M 4168.15 3064.52L4169.99 3066.97 " fill="none"  stroke-width="0.7" c_note="note_name" /></g><g c_partid="part_pcbtext" c_etype="" c_origin="4148.67,3066.95" c_rotation="0" c_mirror="0" id="gge776" locked="" layerid="3" c_shapetype="group" ><path c_fontsize="4.5" c_fontfamily="" c_text="P7" d="M 4148.6699 3064.5 L 4148.6699 3068.79 M 4148.6699 3064.5 L 4150.5099 3064.5 L 4151.1199 3064.7 L 4151.3299 3064.9 L 4151.5299 3065.31 L 4151.5299 3065.93 L 4151.3299 3066.34 L 4151.1199 3066.54 L 4150.5099 3066.75 L 4148.6699 3066.75 M 4155.7499 3064.5 L 4153.6999 3068.79 M 4152.8799 3064.5 L 4155.7499 3064.5" fill="none"  stroke-width="0.7" c_note="note_pre" /></g><g c_partid="part_pcbtext" c_etype="" c_origin="4148.67,3058.95" c_rotation="0" c_mirror="false" id="rep35" locked="" layerid="3" c_shapetype="group" display="none"><path c_fontsize="4.5" c_fontfamily="" c_text="UART" d="M 4148.67 3054.41L4148.67 3057.48 L4148.87 3058.09 L4149.28 3058.5 L4149.9 3058.7 L4150.31 3058.7 L4150.92 3058.5 L4151.33 3058.09 L4151.53 3057.48 L4151.53 3054.41 M 4154.52 3054.41L4152.88 3058.7 M 4154.52 3054.41L4156.16 3058.7 M 4153.5 3057.27L4155.54 3057.27 M 4157.51 3054.41L4157.51 3058.7 M 4157.51 3054.41L4159.35 3054.41 L4159.96 3054.61 L4160.17 3054.82 L4160.37 3055.23 L4160.37 3055.64 L4160.17 3056.05 L4159.96 3056.25 L4159.35 3056.45 L4157.51 3056.45 M 4158.94 3056.45L4160.37 3058.7 M 4163.15 3054.41L4163.15 3058.7 M 4161.72 3054.41L4164.58 3054.41 " fill="none"  stroke-width="0.7" c_note="note_name" /></g><g c_partid="part_pcbtext" c_etype="" c_origin="4087,3068.45" c_rotation="0" c_mirror="0" id="gge801" locked="" layerid="3" c_shapetype="group" ><path c_fontsize="4.5" c_fontfamily="" c_text="P8" d="M 4087 3066 L 4087 3070.29 M 4087 3066 L 4088.84 3066 L 4089.45 3066.2 L 4089.66 3066.4 L 4089.86 3066.81 L 4089.86 3067.43 L 4089.66 3067.84 L 4089.45 3068.04 L 4088.84 3068.25 L 4087 3068.25 M 4092.24 3066 L 4091.62 3066.2 L 4091.42 3066.61 L 4091.42 3067.02 L 4091.62 3067.43 L 4092.03 3067.63 L 4092.85 3067.84 L 4093.46 3068.04 L 4093.87 3068.45 L 4094.08 3068.86 L 4094.08 3069.47 L 4093.87 3069.88 L 4093.67 3070.09 L 4093.05 3070.29 L 4092.24 3070.29 L 4091.62 3070.09 L 4091.42 3069.88 L 4091.21 3069.47 L 4091.21 3068.86 L 4091.42 3068.45 L 4091.83 3068.04 L 4092.44 3067.84 L 4093.26 3067.63 L 4093.67 3067.43 L 4093.87 3067.02 L 4093.87 3066.61 L 4093.67 3066.2 L 4093.05 3066 L 4092.24 3066" fill="none"  stroke-width="0.7" c_note="note_pre" /></g><g c_partid="part_pcbtext" c_etype="" c_origin="4087,3060.45" c_rotation="0" c_mirror="false" id="rep37" locked="" layerid="3" c_shapetype="group" display="none"><path c_fontsize="4.5" c_fontfamily="" c_text="DTR" d="M 4087 3055.91L4087 3060.2 M 4087 3055.91L4088.43 3055.91 L4089.05 3056.11 L4089.45 3056.52 L4089.66 3056.93 L4089.86 3057.55 L4089.86 3058.57 L4089.66 3059.18 L4089.45 3059.59 L4089.05 3060 L4088.43 3060.2 L4087 3060.2 M 4092.65 3055.91L4092.65 3060.2 M 4091.21 3055.91L4094.08 3055.91 M 4095.43 3055.91L4095.43 3060.2 M 4095.43 3055.91L4097.27 3055.91 L4097.88 3056.11 L4098.09 3056.32 L4098.29 3056.73 L4098.29 3057.14 L4098.09 3057.55 L4097.88 3057.75 L4097.27 3057.95 L4095.43 3057.95 M 4096.86 3057.95L4098.29 3060.2 " fill="none"  stroke-width="0.7" c_note="note_name" /></g><g c_partid="part_pcbtext" c_etype="" c_origin="4081.07,3086.33" c_rotation="0" c_mirror="0" id="gge834" locked="" layerid="3" c_shapetype="group" ><path c_fontsize="4.5" c_fontfamily="" c_text="C4" d="M 4084.14 3084.9 L 4083.93 3084.49 L 4083.52 3084.08 L 4083.12 3083.88 L 4082.3 3083.88 L 4081.89 3084.08 L 4081.48 3084.49 L 4081.27 3084.9 L 4081.07 3085.51 L 4081.07 3086.53 L 4081.27 3087.15 L 4081.48 3087.56 L 4081.89 3087.97 L 4082.3 3088.17 L 4083.12 3088.17 L 4083.52 3087.97 L 4083.93 3087.56 L 4084.14 3087.15 M 4087.53 3083.88 L 4085.49 3086.74 L 4088.56 3086.74 M 4087.53 3083.88 L 4087.53 3088.17" fill="none"  stroke-width="0.7" c_note="note_pre" /></g><g c_partid="part_pcbtext" c_etype="" c_origin="4081.07,3078.33" c_rotation="0" c_mirror="false" id="rep39" locked="" layerid="3" c_shapetype="group" display="none"><path c_fontsize="4.5" c_fontfamily="" c_text="0.1uF" d="M 4082.3 3073.79L4081.68 3073.99 L4081.27 3074.61 L4081.07 3075.63 L4081.07 3076.24 L4081.27 3077.27 L4081.68 3077.88 L4082.3 3078.08 L4082.71 3078.08 L4083.32 3077.88 L4083.73 3077.27 L4083.93 3076.24 L4083.93 3075.63 L4083.73 3074.61 L4083.32 3073.99 L4082.71 3073.79 L4082.3 3073.79 M 4085.49 3077.06L4085.28 3077.27 L4085.49 3077.47 L4085.69 3077.27 L4085.49 3077.06 M 4087.04 3074.61L4087.45 3074.4 L4088.07 3073.79 L4088.07 3078.08 M 4089.42 3075.22L4089.42 3077.27 L4089.62 3077.88 L4090.03 3078.08 L4090.64 3078.08 L4091.05 3077.88 L4091.67 3077.27 M 4091.67 3075.22L4091.67 3078.08 M 4093.02 3073.79L4093.02 3078.08 M 4093.02 3073.79L4095.67 3073.79 M 4093.02 3075.83L4094.65 3075.83 " fill="none"  stroke-width="0.7" c_note="note_name" /></g><g c_partid="part_pcbtext" c_etype="" c_origin="4169.8,3159.4" c_rotation="0" c_mirror="0" id="gge848" locked="" layerid="3" c_shapetype="group" ><path c_fontsize="4.5" c_fontfamily="" c_text="R1" d="M 4169.8 3156.95 L 4169.8 3161.24 M 4169.8 3156.95 L 4171.64 3156.95 L 4172.25 3157.15 L 4172.46 3157.35 L 4172.66 3157.76 L 4172.66 3158.17 L 4172.46 3158.58 L 4172.25 3158.79 L 4171.64 3158.99 L 4169.8 3158.99 M 4171.23 3158.99 L 4172.66 3161.24 M 4174.01 3157.76 L 4174.42 3157.56 L 4175.04 3156.95 L 4175.04 3161.24" fill="none"  stroke-width="0.7" c_note="note_pre" /></g><g c_partid="part_pcbtext" c_etype="" c_origin="4169.8,3151.4" c_rotation="0" c_mirror="false" id="rep40" locked="" layerid="3" c_shapetype="group" display="none"><path c_fontsize="4.5" c_fontfamily="" c_text="1K" d="M 4169.8 3147.68L4170.21 3147.47 L4170.82 3146.86 L4170.82 3151.15 M 4172.17 3146.86L4172.17 3151.15 M 4175.04 3146.86L4172.17 3149.72 M 4173.2 3148.7L4175.04 3151.15 " fill="none"  stroke-width="0.7" c_note="note_name" /></g><g c_partid="part_pcbtext" c_etype="" c_origin="4162.09,3111.51" c_rotation="90" c_mirror="0" id="gge862" locked="" layerid="3" c_shapetype="group" ><path c_fontsize="4.5" c_fontfamily="" c_text="R11" d="M 4159.64 3111.51 L 4163.93 3111.51 M 4159.64 3111.51 L 4159.64 3109.67 L 4159.84 3109.06 L 4160.04 3108.85 L 4160.45 3108.65 L 4160.86 3108.65 L 4161.27 3108.85 L 4161.48 3109.06 L 4161.68 3109.67 L 4161.68 3111.51 M 4161.68 3110.08 L 4163.93 3108.65 M 4160.45 3107.3 L 4160.25 3106.89 L 4159.64 3106.27 L 4163.93 3106.27 M 4160.45 3104.92 L 4160.25 3104.51 L 4159.64 3103.9 L 4163.93 3103.9" fill="none"  stroke-width="0.7" c_note="note_pre" /></g><g c_partid="part_pcbtext" c_etype="" c_origin="4170.09,3111.51" c_rotation="90" c_mirror="false" id="rep41" locked="" layerid="3" c_shapetype="group" display="none"><path c_fontsize="4.5" c_fontfamily="" c_text="1K" d="M 4166.37 3111.51L4166.16 3111.1000000000004 L4165.549999999999 3110.4900000000007 L4169.84 3110.4900000000007 M 4165.549999999999 3109.1400000000003L4169.84 3109.1400000000003 M 4165.549999999999 3106.2700000000004L4168.41 3109.1400000000003 M 4167.389999999999 3108.1100000000006L4169.84 3106.2700000000004 " fill="none"  stroke-width="0.7" c_note="note_name" /></g><g c_partid="part_pcbtext" c_etype="" c_origin="4064.45,3121.87" c_rotation="0" c_mirror="0" id="gge908" locked="" layerid="3" c_shapetype="group" ><path c_fontsize="4.5" c_fontfamily="" c_text="U6" d="M 4064.4499 3119.42 L 4064.4499 3122.48 L 4064.6499 3123.1 L 4065.0599 3123.51 L 4065.6799 3123.71 L 4066.0899 3123.71 L 4066.6999 3123.51 L 4067.1099 3123.1 L 4067.3099 3122.48 L 4067.3099 3119.42 M 4071.1199 3120.03 L 4070.9099 3119.62 L 4070.2999 3119.42 L 4069.8899 3119.42 L 4069.2799 3119.62 L 4068.8699 3120.23 L 4068.6599 3121.26 L 4068.6599 3122.28 L 4068.8699 3123.1 L 4069.2799 3123.51 L 4069.8899 3123.71 L 4070.0999 3123.71 L 4070.7099 3123.51 L 4071.1199 3123.1 L 4071.3199 3122.48 L 4071.3199 3122.28 L 4071.1199 3121.67 L 4070.7099 3121.26 L 4070.0999 3121.05 L 4069.8899 3121.05 L 4069.2799 3121.26 L 4068.8699 3121.67 L 4068.6599 3122.28" fill="none"  stroke-width="0.7" c_note="note_pre" /></g><g c_partid="part_pcbtext" c_etype="" c_origin="4064.45,3113.87" c_rotation="0" c_mirror="false" id="rep44" locked="" layerid="3" c_shapetype="group" display="none"><path c_fontsize="4.5" c_fontfamily="" c_text="BLE112-A" d="M 4064.45 3109.33L4064.45 3113.62 M 4064.45 3109.33L4066.29 3109.33 L4066.9 3109.53 L4067.11 3109.74 L4067.31 3110.15 L4067.31 3110.56 L4067.11 3110.97 L4066.9 3111.17 L4066.29 3111.37 M 4064.45 3111.37L4066.29 3111.37 L4066.9 3111.58 L4067.11 3111.78 L4067.31 3112.19 L4067.31 3112.81 L4067.11 3113.22 L4066.9 3113.42 L4066.29 3113.62 L4064.45 3113.62 M 4068.66 3109.33L4068.66 3113.62 M 4068.66 3113.62L4071.12 3113.62 M 4072.47 3109.33L4072.47 3113.62 M 4072.47 3109.33L4075.13 3109.33 M 4072.47 3111.37L4074.1 3111.37 M 4072.47 3113.62L4075.13 3113.62 M 4076.48 3110.15L4076.89 3109.94 L4077.5 3109.33 L4077.5 3113.62 M 4078.85 3110.15L4079.26 3109.94 L4079.87 3109.33 L4079.87 3113.62 M 4081.43 3110.35L4081.43 3110.15 L4081.63 3109.74 L4081.84 3109.53 L4082.25 3109.33 L4083.06 3109.33 L4083.47 3109.53 L4083.68 3109.74 L4083.88 3110.15 L4083.88 3110.56 L4083.68 3110.97 L4083.27 3111.58 L4081.22 3113.62 L4084.09 3113.62 M 4085.44 3111.78L4089.12 3111.78 M 4092.1 3109.33L4090.47 3113.62 M 4092.1 3109.33L4093.74 3113.62 M 4091.08 3112.19L4093.13 3112.19 " fill="none"  stroke-width="0.7" c_note="note_name" /></g><path d="M 4147.28 3079.39 A 0.7874 0.7874 0 1 0 4147.28 3079.4" locked=""  fill="none" stroke-width="1.5748" c_helper_type="arc2" net="" layerid="3" id="gge173" /><circle cx="4071" cy="3059.77" r="7.5" stroke-width="1" fill="none" layerid="3" id="gge145" locked=""  /><circle cx="4171" cy="3059.77" r="7.5" stroke-width="1" fill="none" layerid="3" id="gge146" locked=""  /><circle cx="4071" cy="3168.83" r="7.5" stroke-width="1" fill="none" layerid="3" id="gge147" locked=""  /><circle cx="4171" cy="3168.83" r="7.5" stroke-width="1" fill="none" layerid="3" id="gge148" locked=""  /><circle cx="4132.65" cy="3080.16" r="5.91" stroke-width="1" fill="none" layerid="3" id="gge209" locked=""  /><polyline points="4051.13 3051.33 4190.86 3051.23 4190.93 3177.31 4051.12 3177.28 4051.07 3051.36 4051.33 3051.39" stroke-width="1"  stroke-linecap="round" fill="none" layerid="10" net="" id="gge1026" locked="0" /></svg>