G04 ---------------------------- Layer name :TOP SILK LAYER*
G04 easyEDA 0.1*
G04 Scale: 100 percent, Rotated: No, Reflected: No *
G04 Dimensions in inches *
G04 leading zeros omitted , absolute positions ,2 integer and 4 * 
%FSLAX24Y24*%
%MOIN*%
G90*
G70D02*

%ADD10C,0.010000*%
%ADD11C,0.007874*%
%ADD12C,0.011811*%
%ADD13C,0.005000*%
%ADD14C,0.007000*%
%ADD15C,0.006000*%

%LPD*%
G54D10*
G01X8959Y17750D02*
G01X8400Y17750D01*
G01X9209Y17050D02*
G01X9800Y17050D01*
G01X9800Y17750D01*
G01X9209Y17750D01*
G01X8400Y17750D02*
G01X8400Y17050D01*
G01X8400Y17050D02*
G01X8959Y17050D01*
G01X12410Y16900D02*
G01X12410Y15000D01*
G01X13650Y15000D01*
G01X13650Y16900D01*
G01X13650Y16900D02*
G01X13280Y16900D01*
G01X12780Y16900D02*
G01X12410Y16900D01*
G01X8659Y16750D02*
G01X8100Y16750D01*
G01X8909Y16050D02*
G01X9500Y16050D01*
G01X9500Y16750D01*
G01X8909Y16750D01*
G01X8100Y16750D02*
G01X8100Y16050D01*
G01X8100Y16050D02*
G01X8659Y16050D01*
G54D11*
G01X8971Y21074D02*
G01X8971Y21475D01*
G01X10566Y21475D01*
G01X10566Y21074D01*
G01X8971Y20719D02*
G01X8971Y20318D01*
G01X10566Y20318D01*
G01X10566Y20719D01*
G54D10*
G01X3240Y27650D02*
G01X3800Y27650D01*
G01X2990Y28350D02*
G01X2400Y28350D01*
G01X2400Y27650D01*
G01X2990Y27650D01*
G01X3800Y27650D02*
G01X3800Y28350D01*
G01X3800Y28350D02*
G01X3240Y28350D01*
G01X3059Y27150D02*
G01X2500Y27150D01*
G01X3309Y26450D02*
G01X3900Y26450D01*
G01X3900Y27150D01*
G01X3309Y27150D01*
G01X2500Y27150D02*
G01X2500Y26450D01*
G01X2500Y26450D02*
G01X3059Y26450D01*
G01X12239Y19180D02*
G01X13760Y19180D01*
G01X12230Y17259D02*
G01X13760Y17259D01*
G01X12230Y19180D02*
G01X12230Y17259D01*
G01X13760Y19180D02*
G01X13760Y17259D01*
G01X1190Y24900D02*
G01X2009Y24900D01*
G01X3000Y24619D02*
G01X3000Y24269D01*
G01X3000Y22530D02*
G01X3000Y22180D01*
G01X2009Y21900D02*
G01X1190Y21900D01*
G01X7464Y23245D02*
G01X7464Y22654D01*
G01X3429Y22654D01*
G01X3429Y24229D01*
G01X7464Y24229D01*
G01X7464Y23638D01*
G01X10980Y22659D02*
G01X10839Y22519D01*
G01X8219Y22519D01*
G01X8219Y25280D01*
G01X10980Y25280D01*
G01X10980Y22659D01*
G01X9140Y19250D02*
G01X9700Y19250D01*
G01X8890Y19950D02*
G01X8300Y19950D01*
G01X8300Y19250D01*
G01X8890Y19250D01*
G01X9700Y19250D02*
G01X9700Y19950D01*
G01X9700Y19950D02*
G01X9140Y19950D01*
G01X14310Y23709D02*
G01X14430Y23709D01*
G01X14430Y23709D02*
G01X14430Y23819D01*
G01X13289Y23709D02*
G01X13169Y23709D01*
G01X13169Y23709D02*
G01X13169Y23819D01*
G01X13169Y24380D02*
G01X13169Y24490D01*
G01X13169Y24490D02*
G01X13289Y24490D01*
G01X14430Y24380D02*
G01X14430Y24490D01*
G01X14430Y24490D02*
G01X14310Y24490D01*
G01X10460Y19950D02*
G01X9900Y19950D01*
G01X10710Y19250D02*
G01X11300Y19250D01*
G01X11300Y19950D01*
G01X10710Y19950D01*
G01X9900Y19950D02*
G01X9900Y19250D01*
G01X9900Y19250D02*
G01X10460Y19250D01*
G01X6903Y26769D02*
G01X6903Y26269D01*
G01X4803Y26269D01*
G01X4803Y27519D01*
G01X6903Y27519D01*
G01X6903Y27069D01*
G01X100Y15300D02*
G01X100Y20615D01*
G01X7383Y20615D01*
G01X7383Y15300D01*
G01X100Y15300D01*
G01X100Y15300D01*
G01X959Y27250D02*
G01X400Y27250D01*
G01X1209Y26550D02*
G01X1800Y26550D01*
G01X1800Y27250D01*
G01X1209Y27250D01*
G01X400Y27250D02*
G01X400Y26550D01*
G01X400Y26550D02*
G01X959Y26550D01*
G01X2959Y29450D02*
G01X2400Y29450D01*
G01X3209Y28750D02*
G01X3800Y28750D01*
G01X3800Y29450D01*
G01X3209Y29450D01*
G01X2400Y29450D02*
G01X2400Y28750D01*
G01X2400Y28750D02*
G01X2959Y28750D01*
G01X10019Y19009D02*
G01X9319Y19009D01*
G01X9319Y18190D01*
G01X10019Y18190D01*
G01X10580Y18190D02*
G01X11280Y18190D01*
G01X11280Y19009D01*
G01X10580Y19009D01*
G01X819Y28509D02*
G01X119Y28509D01*
G01X119Y27690D01*
G01X819Y27690D01*
G01X1380Y27690D02*
G01X2080Y27690D01*
G01X2080Y28509D01*
G01X1380Y28509D01*
G01X12214Y29155D02*
G01X12474Y29155D01*
G01X12214Y29155D01*
G01X12474Y29155D01*
G01X12474Y28834D01*
G01X11325Y28834D02*
G01X11325Y29155D01*
G01X11585Y29155D01*
G54D11*
G01X11781Y28545D02*
G01X12018Y28545D01*
G54D10*
G01X8726Y15809D02*
G01X8026Y15809D01*
G01X8026Y14990D01*
G01X8726Y14990D01*
G01X9286Y14990D02*
G01X9985Y14990D01*
G01X9985Y15809D01*
G01X9286Y15809D01*
G01X919Y29509D02*
G01X219Y29509D01*
G01X219Y28690D01*
G01X919Y28690D01*
G01X1480Y28690D02*
G01X2180Y28690D01*
G01X2180Y29509D01*
G01X1480Y29509D01*
G01X12200Y25181D02*
G01X12200Y27543D01*
G01X14562Y27543D01*
G01X14562Y25181D01*
G01X12200Y25181D01*
G01X12200Y20281D02*
G01X12200Y22643D01*
G01X14562Y22643D01*
G01X14562Y20281D01*
G01X12200Y20281D01*
G01X9419Y27909D02*
G01X8719Y27909D01*
G01X8719Y27090D01*
G01X9419Y27090D01*
G01X9980Y27090D02*
G01X10680Y27090D01*
G01X10680Y27909D01*
G01X9980Y27909D01*
G54D14*
G01X9407Y18392D02*
G01X9386Y18434D01*
G01X9344Y18475D01*
G01X9305Y18494D01*
G01X9223Y18494D01*
G01X9182Y18475D01*
G01X9140Y18434D01*
G01X9119Y18392D01*
G01X9100Y18332D01*
G01X9100Y18230D01*
G01X9119Y18167D01*
G01X9140Y18127D01*
G01X9182Y18086D01*
G01X9223Y18065D01*
G01X9305Y18065D01*
G01X9344Y18086D01*
G01X9386Y18127D01*
G01X9407Y18167D01*
G01X9542Y18413D02*
G01X9582Y18434D01*
G01X9643Y18494D01*
G01X9643Y18065D01*
G01X13039Y17809D02*
G01X13039Y17503D01*
G01X13060Y17442D01*
G01X13101Y17401D01*
G01X13163Y17380D01*
G01X13203Y17380D01*
G01X13264Y17401D01*
G01X13306Y17442D01*
G01X13326Y17503D01*
G01X13326Y17809D01*
G01X13502Y17809D02*
G01X13727Y17809D01*
G01X13605Y17646D01*
G01X13665Y17646D01*
G01X13706Y17626D01*
G01X13727Y17605D01*
G01X13747Y17544D01*
G01X13747Y17503D01*
G01X13727Y17442D01*
G01X13685Y17401D01*
G01X13625Y17380D01*
G01X13564Y17380D01*
G01X13502Y17401D01*
G01X13481Y17421D01*
G01X13460Y17463D01*
G01X10006Y16498D02*
G01X9985Y16538D01*
G01X9944Y16580D01*
G01X9905Y16600D01*
G01X9822Y16600D01*
G01X9781Y16580D01*
G01X9740Y16538D01*
G01X9719Y16498D01*
G01X9700Y16436D01*
G01X9700Y16334D01*
G01X9719Y16273D01*
G01X9740Y16232D01*
G01X9781Y16190D01*
G01X9822Y16171D01*
G01X9905Y16171D01*
G01X9944Y16190D01*
G01X9985Y16232D01*
G01X10006Y16273D01*
G01X10161Y16498D02*
G01X10161Y16519D01*
G01X10182Y16559D01*
G01X10202Y16580D01*
G01X10243Y16600D01*
G01X10326Y16600D01*
G01X10367Y16580D01*
G01X10386Y16559D01*
G01X10407Y16519D01*
G01X10407Y16478D01*
G01X10386Y16436D01*
G01X10346Y16375D01*
G01X10142Y16171D01*
G01X10427Y16171D01*
G01X11646Y16700D02*
G01X12075Y16986D01*
G01X11646Y16986D02*
G01X12075Y16700D01*
G01X11727Y17121D02*
G01X11706Y17161D01*
G01X11646Y17223D01*
G01X12075Y17223D01*
G01X10700Y21200D02*
G01X10700Y20771D01*
G01X10700Y21200D02*
G01X10884Y21200D01*
G01X10945Y21180D01*
G01X10966Y21159D01*
G01X10986Y21117D01*
G01X10986Y21077D01*
G01X10966Y21036D01*
G01X10945Y21015D01*
G01X10884Y20996D01*
G01X10700Y20996D01*
G01X10843Y20996D02*
G01X10986Y20771D01*
G01X11142Y21098D02*
G01X11142Y21117D01*
G01X11162Y21159D01*
G01X11183Y21180D01*
G01X11224Y21200D01*
G01X11305Y21200D01*
G01X11346Y21180D01*
G01X11367Y21159D01*
G01X11387Y21117D01*
G01X11387Y21077D01*
G01X11367Y21036D01*
G01X11326Y20975D01*
G01X11121Y20771D01*
G01X11408Y20771D01*
G01X3061Y28045D02*
G01X3050Y28067D01*
G01X3028Y28088D01*
G01X3007Y28099D01*
G01X2963Y28099D01*
G01X2942Y28088D01*
G01X2921Y28067D01*
G01X2911Y28045D01*
G01X2900Y28013D01*
G01X2900Y27959D01*
G01X2911Y27927D01*
G01X2921Y27906D01*
G01X2942Y27884D01*
G01X2963Y27873D01*
G01X3007Y27873D01*
G01X3028Y27884D01*
G01X3050Y27906D01*
G01X3061Y27927D01*
G01X3238Y28099D02*
G01X3132Y27949D01*
G01X3292Y27949D01*
G01X3238Y28099D02*
G01X3238Y27873D01*
G01X3161Y26846D02*
G01X3150Y26867D01*
G01X3128Y26888D01*
G01X3107Y26900D01*
G01X3063Y26900D01*
G01X3042Y26888D01*
G01X3021Y26867D01*
G01X3011Y26846D01*
G01X3000Y26813D01*
G01X3000Y26759D01*
G01X3011Y26728D01*
G01X3021Y26707D01*
G01X3042Y26684D01*
G01X3063Y26673D01*
G01X3107Y26673D01*
G01X3128Y26684D01*
G01X3150Y26707D01*
G01X3161Y26728D01*
G01X3361Y26900D02*
G01X3253Y26900D01*
G01X3242Y26803D01*
G01X3253Y26813D01*
G01X3286Y26825D01*
G01X3317Y26825D01*
G01X3350Y26813D01*
G01X3371Y26792D01*
G01X3382Y26759D01*
G01X3382Y26738D01*
G01X3371Y26707D01*
G01X3350Y26684D01*
G01X3317Y26673D01*
G01X3286Y26673D01*
G01X3253Y26684D01*
G01X3242Y26696D01*
G01X3232Y26717D01*
G01X12700Y19400D02*
G01X12700Y19093D01*
G01X12719Y19032D01*
G01X12760Y18991D01*
G01X12822Y18971D01*
G01X12864Y18971D01*
G01X12925Y18991D01*
G01X12965Y19032D01*
G01X12985Y19093D01*
G01X12985Y19400D01*
G01X13407Y19400D02*
G01X13202Y18971D01*
G01X13121Y19400D02*
G01X13407Y19400D01*
G01X1100Y23599D02*
G01X1100Y23292D01*
G01X1119Y23231D01*
G01X1161Y23190D01*
G01X1223Y23169D01*
G01X1263Y23169D01*
G01X1325Y23190D01*
G01X1365Y23231D01*
G01X1386Y23292D01*
G01X1386Y23599D01*
G01X1623Y23599D02*
G01X1561Y23579D01*
G01X1542Y23538D01*
G01X1542Y23497D01*
G01X1561Y23456D01*
G01X1603Y23435D01*
G01X1684Y23415D01*
G01X1746Y23394D01*
G01X1786Y23354D01*
G01X1807Y23313D01*
G01X1807Y23251D01*
G01X1786Y23210D01*
G01X1767Y23190D01*
G01X1705Y23169D01*
G01X1623Y23169D01*
G01X1561Y23190D01*
G01X1542Y23210D01*
G01X1521Y23251D01*
G01X1521Y23313D01*
G01X1542Y23354D01*
G01X1582Y23394D01*
G01X1644Y23415D01*
G01X1726Y23435D01*
G01X1767Y23456D01*
G01X1786Y23497D01*
G01X1786Y23538D01*
G01X1767Y23579D01*
G01X1705Y23599D01*
G01X1623Y23599D01*
G01X5300Y23213D02*
G01X5606Y23213D01*
G01X5668Y23232D01*
G01X5709Y23273D01*
G01X5729Y23336D01*
G01X5729Y23377D01*
G01X5709Y23438D01*
G01X5668Y23478D01*
G01X5606Y23498D01*
G01X5300Y23498D01*
G01X5443Y23900D02*
G01X5504Y23880D01*
G01X5545Y23838D01*
G01X5565Y23778D01*
G01X5565Y23757D01*
G01X5545Y23696D01*
G01X5504Y23655D01*
G01X5443Y23634D01*
G01X5422Y23634D01*
G01X5361Y23655D01*
G01X5320Y23696D01*
G01X5300Y23757D01*
G01X5300Y23778D01*
G01X5320Y23838D01*
G01X5361Y23880D01*
G01X5443Y23900D01*
G01X5545Y23900D01*
G01X5647Y23880D01*
G01X5709Y23838D01*
G01X5729Y23778D01*
G01X5729Y23736D01*
G01X5709Y23675D01*
G01X5668Y23655D01*
G01X9200Y24200D02*
G01X9200Y23894D01*
G01X9219Y23832D01*
G01X9261Y23790D01*
G01X9323Y23771D01*
G01X9363Y23771D01*
G01X9425Y23790D01*
G01X9465Y23832D01*
G01X9486Y23894D01*
G01X9486Y24200D01*
G01X9621Y24119D02*
G01X9661Y24138D01*
G01X9723Y24200D01*
G01X9723Y23771D01*
G01X9981Y24200D02*
G01X9919Y24180D01*
G01X9878Y24119D01*
G01X9859Y24015D01*
G01X9859Y23955D01*
G01X9878Y23853D01*
G01X9919Y23790D01*
G01X9981Y23771D01*
G01X10022Y23771D01*
G01X10084Y23790D01*
G01X10125Y23853D01*
G01X10144Y23955D01*
G01X10144Y24015D01*
G01X10125Y24119D01*
G01X10084Y24180D01*
G01X10022Y24200D01*
G01X9981Y24200D01*
G01X8861Y19645D02*
G01X8850Y19667D01*
G01X8828Y19688D01*
G01X8807Y19699D01*
G01X8763Y19699D01*
G01X8742Y19688D01*
G01X8721Y19667D01*
G01X8711Y19645D01*
G01X8700Y19613D01*
G01X8700Y19559D01*
G01X8711Y19527D01*
G01X8721Y19506D01*
G01X8742Y19484D01*
G01X8763Y19473D01*
G01X8807Y19473D01*
G01X8828Y19484D01*
G01X8850Y19506D01*
G01X8861Y19527D01*
G01X8932Y19656D02*
G01X8953Y19667D01*
G01X8986Y19699D01*
G01X8986Y19473D01*
G01X9078Y19699D02*
G01X9196Y19699D01*
G01X9132Y19613D01*
G01X9163Y19613D01*
G01X9184Y19602D01*
G01X9196Y19591D01*
G01X9207Y19559D01*
G01X9207Y19538D01*
G01X9196Y19506D01*
G01X9175Y19484D01*
G01X9142Y19473D01*
G01X9109Y19473D01*
G01X9078Y19484D01*
G01X9067Y19495D01*
G01X9055Y19516D01*
G01X13800Y23119D02*
G01X13800Y22811D01*
G01X13819Y22751D01*
G01X13860Y22709D01*
G01X13922Y22688D01*
G01X13964Y22688D01*
G01X14025Y22709D01*
G01X14065Y22751D01*
G01X14085Y22811D01*
G01X14085Y23119D01*
G01X14221Y23036D02*
G01X14261Y23057D01*
G01X14323Y23119D01*
G01X14323Y22688D01*
G01X14459Y23036D02*
G01X14500Y23057D01*
G01X14560Y23119D01*
G01X14560Y22688D01*
G01X10560Y19645D02*
G01X10550Y19667D01*
G01X10528Y19688D01*
G01X10506Y19699D01*
G01X10464Y19699D01*
G01X10443Y19688D01*
G01X10421Y19667D01*
G01X10410Y19645D01*
G01X10400Y19613D01*
G01X10400Y19559D01*
G01X10410Y19527D01*
G01X10421Y19506D01*
G01X10443Y19484D01*
G01X10464Y19473D01*
G01X10506Y19473D01*
G01X10528Y19484D01*
G01X10550Y19506D01*
G01X10560Y19527D01*
G01X10631Y19656D02*
G01X10652Y19667D01*
G01X10685Y19699D01*
G01X10685Y19473D01*
G01X10906Y19699D02*
G01X10798Y19473D01*
G01X10756Y19699D02*
G01X10906Y19699D01*
G01X6300Y27089D02*
G01X6300Y26783D01*
G01X6319Y26721D01*
G01X6361Y26680D01*
G01X6423Y26660D01*
G01X6463Y26660D01*
G01X6525Y26680D01*
G01X6565Y26721D01*
G01X6586Y26783D01*
G01X6586Y27089D01*
G01X6721Y27008D02*
G01X6761Y27028D01*
G01X6823Y27089D01*
G01X6823Y26660D01*
G01X6978Y26987D02*
G01X6978Y27008D01*
G01X7000Y27049D01*
G01X7019Y27069D01*
G01X7061Y27089D01*
G01X7142Y27089D01*
G01X7184Y27069D01*
G01X7203Y27049D01*
G01X7225Y27008D01*
G01X7225Y26967D01*
G01X7203Y26926D01*
G01X7163Y26864D01*
G01X6959Y26660D01*
G01X7244Y26660D01*
G01X400Y17692D02*
G01X705Y17692D01*
G01X767Y17713D01*
G01X809Y17754D01*
G01X828Y17815D01*
G01X828Y17856D01*
G01X809Y17917D01*
G01X767Y17958D01*
G01X705Y17979D01*
G01X400Y17979D01*
G01X400Y18359D02*
G01X400Y18155D01*
G01X584Y18134D01*
G01X563Y18155D01*
G01X542Y18216D01*
G01X542Y18277D01*
G01X563Y18339D01*
G01X603Y18380D01*
G01X665Y18400D01*
G01X705Y18400D01*
G01X767Y18380D01*
G01X809Y18339D01*
G01X828Y18277D01*
G01X828Y18216D01*
G01X809Y18155D01*
G01X788Y18134D01*
G01X746Y18114D01*
G01X1061Y26946D02*
G01X1050Y26967D01*
G01X1028Y26988D01*
G01X1007Y27000D01*
G01X963Y27000D01*
G01X942Y26988D01*
G01X921Y26967D01*
G01X911Y26946D01*
G01X900Y26913D01*
G01X900Y26859D01*
G01X911Y26828D01*
G01X921Y26807D01*
G01X942Y26784D01*
G01X963Y26773D01*
G01X1007Y26773D01*
G01X1028Y26784D01*
G01X1050Y26807D01*
G01X1061Y26828D01*
G01X1153Y27000D02*
G01X1271Y27000D01*
G01X1207Y26913D01*
G01X1238Y26913D01*
G01X1261Y26903D01*
G01X1271Y26892D01*
G01X1282Y26859D01*
G01X1282Y26838D01*
G01X1271Y26807D01*
G01X1250Y26784D01*
G01X1217Y26773D01*
G01X1186Y26773D01*
G01X1153Y26784D01*
G01X1142Y26796D01*
G01X1132Y26817D01*
G01X3061Y29175D02*
G01X3050Y29196D01*
G01X3028Y29217D01*
G01X3007Y29228D01*
G01X2963Y29228D01*
G01X2942Y29217D01*
G01X2921Y29196D01*
G01X2911Y29175D01*
G01X2900Y29142D01*
G01X2900Y29088D01*
G01X2911Y29057D01*
G01X2921Y29036D01*
G01X2942Y29013D01*
G01X2963Y29003D01*
G01X3007Y29003D01*
G01X3028Y29013D01*
G01X3050Y29036D01*
G01X3061Y29057D01*
G01X3261Y29196D02*
G01X3250Y29217D01*
G01X3217Y29228D01*
G01X3196Y29228D01*
G01X3163Y29217D01*
G01X3142Y29186D01*
G01X3132Y29132D01*
G01X3132Y29078D01*
G01X3142Y29036D01*
G01X3163Y29013D01*
G01X3196Y29003D01*
G01X3207Y29003D01*
G01X3238Y29013D01*
G01X3261Y29036D01*
G01X3271Y29067D01*
G01X3271Y29078D01*
G01X3261Y29111D01*
G01X3238Y29132D01*
G01X3207Y29142D01*
G01X3196Y29142D01*
G01X3163Y29132D01*
G01X3142Y29111D01*
G01X3132Y29078D01*
G01X9969Y18800D02*
G01X9969Y18371D01*
G01X9969Y18800D02*
G01X10153Y18800D01*
G01X10214Y18780D01*
G01X10235Y18759D01*
G01X10256Y18719D01*
G01X10256Y18678D01*
G01X10235Y18636D01*
G01X10214Y18615D01*
G01X10153Y18596D01*
G01X9969Y18596D01*
G01X10113Y18596D02*
G01X10256Y18371D01*
G01X10677Y18800D02*
G01X10472Y18371D01*
G01X10390Y18800D02*
G01X10677Y18800D01*
G01X900Y28199D02*
G01X900Y27973D01*
G01X900Y28199D02*
G01X996Y28199D01*
G01X1028Y28188D01*
G01X1040Y28177D01*
G01X1050Y28156D01*
G01X1050Y28134D01*
G01X1040Y28113D01*
G01X1028Y28102D01*
G01X996Y28091D01*
G01X900Y28091D01*
G01X975Y28091D02*
G01X1050Y27973D01*
G01X1175Y28199D02*
G01X1142Y28188D01*
G01X1132Y28167D01*
G01X1132Y28145D01*
G01X1142Y28124D01*
G01X1163Y28113D01*
G01X1207Y28102D01*
G01X1238Y28091D01*
G01X1261Y28070D01*
G01X1271Y28049D01*
G01X1271Y28016D01*
G01X1261Y27995D01*
G01X1250Y27984D01*
G01X1217Y27973D01*
G01X1175Y27973D01*
G01X1142Y27984D01*
G01X1132Y27995D01*
G01X1121Y28016D01*
G01X1121Y28049D01*
G01X1132Y28070D01*
G01X1153Y28091D01*
G01X1186Y28102D01*
G01X1228Y28113D01*
G01X1250Y28124D01*
G01X1261Y28145D01*
G01X1261Y28167D01*
G01X1250Y28188D01*
G01X1217Y28199D01*
G01X1175Y28199D01*
G01X12022Y30384D02*
G01X11981Y30363D01*
G01X11940Y30321D01*
G01X11919Y30280D01*
G01X11900Y30219D01*
G01X11900Y30117D01*
G01X11919Y30055D01*
G01X11940Y30015D01*
G01X11981Y29973D01*
G01X12022Y29953D01*
G01X12105Y29953D01*
G01X12144Y29973D01*
G01X12185Y30015D01*
G01X12206Y30055D01*
G01X12227Y30117D01*
G01X12227Y30219D01*
G01X12206Y30280D01*
G01X12185Y30321D01*
G01X12144Y30363D01*
G01X12105Y30384D01*
G01X12022Y30384D01*
G01X12084Y30036D02*
G01X12206Y29913D01*
G01X12567Y30384D02*
G01X12361Y30096D01*
G01X12668Y30096D01*
G01X12567Y30384D02*
G01X12567Y29953D01*
G01X8605Y15600D02*
G01X8605Y15171D01*
G01X8605Y15600D02*
G01X8790Y15600D01*
G01X8851Y15580D01*
G01X8871Y15559D01*
G01X8892Y15519D01*
G01X8892Y15478D01*
G01X8871Y15436D01*
G01X8851Y15415D01*
G01X8790Y15396D01*
G01X8605Y15396D01*
G01X8748Y15396D02*
G01X8892Y15171D01*
G01X9026Y15519D02*
G01X9067Y15538D01*
G01X9130Y15600D01*
G01X9130Y15171D01*
G01X9386Y15600D02*
G01X9326Y15580D01*
G01X9284Y15519D01*
G01X9265Y15415D01*
G01X9265Y15355D01*
G01X9284Y15253D01*
G01X9326Y15190D01*
G01X9386Y15171D01*
G01X9428Y15171D01*
G01X9490Y15190D01*
G01X9530Y15253D01*
G01X9551Y15355D01*
G01X9551Y15415D01*
G01X9530Y15519D01*
G01X9490Y15580D01*
G01X9428Y15600D01*
G01X9386Y15600D01*
G01X1000Y29199D02*
G01X1000Y28973D01*
G01X1000Y29199D02*
G01X1096Y29199D01*
G01X1128Y29188D01*
G01X1140Y29177D01*
G01X1150Y29156D01*
G01X1150Y29134D01*
G01X1140Y29113D01*
G01X1128Y29102D01*
G01X1096Y29091D01*
G01X1000Y29091D01*
G01X1075Y29091D02*
G01X1150Y28973D01*
G01X1221Y29156D02*
G01X1242Y29167D01*
G01X1275Y29199D01*
G01X1275Y28973D01*
G01X1346Y29156D02*
G01X1367Y29167D01*
G01X1398Y29199D01*
G01X1398Y28973D01*
G01X11215Y26648D02*
G01X11175Y26607D01*
G01X11155Y26546D01*
G01X11155Y26465D01*
G01X11175Y26403D01*
G01X11215Y26363D01*
G01X11256Y26363D01*
G01X11297Y26382D01*
G01X11318Y26403D01*
G01X11339Y26444D01*
G01X11380Y26567D01*
G01X11400Y26607D01*
G01X11419Y26628D01*
G01X11460Y26648D01*
G01X11522Y26648D01*
G01X11564Y26607D01*
G01X11584Y26546D01*
G01X11584Y26465D01*
G01X11564Y26403D01*
G01X11522Y26363D01*
G01X11155Y26784D02*
G01X11584Y26886D01*
G01X11155Y26988D02*
G01X11584Y26886D01*
G01X11155Y26988D02*
G01X11584Y27090D01*
G01X11155Y27192D02*
G01X11584Y27090D01*
G01X11235Y27328D02*
G01X11215Y27369D01*
G01X11155Y27430D01*
G01X11584Y27430D01*
G01X11215Y21748D02*
G01X11175Y21707D01*
G01X11155Y21646D01*
G01X11155Y21565D01*
G01X11175Y21503D01*
G01X11215Y21463D01*
G01X11256Y21463D01*
G01X11297Y21482D01*
G01X11318Y21503D01*
G01X11339Y21544D01*
G01X11380Y21667D01*
G01X11400Y21707D01*
G01X11419Y21728D01*
G01X11460Y21748D01*
G01X11522Y21748D01*
G01X11564Y21707D01*
G01X11584Y21646D01*
G01X11584Y21565D01*
G01X11564Y21503D01*
G01X11522Y21463D01*
G01X11155Y21884D02*
G01X11584Y21986D01*
G01X11155Y22088D02*
G01X11584Y21986D01*
G01X11155Y22088D02*
G01X11584Y22190D01*
G01X11155Y22292D02*
G01X11584Y22190D01*
G01X11256Y22448D02*
G01X11235Y22448D01*
G01X11194Y22469D01*
G01X11175Y22488D01*
G01X11155Y22530D01*
G01X11155Y22611D01*
G01X11175Y22653D01*
G01X11194Y22673D01*
G01X11235Y22694D01*
G01X11277Y22694D01*
G01X11318Y22673D01*
G01X11380Y22632D01*
G01X11584Y22428D01*
G01X11584Y22713D01*
G01X9269Y27700D02*
G01X9269Y27271D01*
G01X9269Y27700D02*
G01X9453Y27700D01*
G01X9515Y27680D01*
G01X9536Y27659D01*
G01X9555Y27619D01*
G01X9555Y27578D01*
G01X9536Y27536D01*
G01X9515Y27515D01*
G01X9453Y27496D01*
G01X9269Y27496D01*
G01X9413Y27496D02*
G01X9555Y27271D01*
G01X9956Y27557D02*
G01X9936Y27496D01*
G01X9896Y27455D01*
G01X9835Y27434D01*
G01X9814Y27434D01*
G01X9752Y27455D01*
G01X9711Y27496D01*
G01X9690Y27557D01*
G01X9690Y27578D01*
G01X9711Y27638D01*
G01X9752Y27680D01*
G01X9814Y27700D01*
G01X9835Y27700D01*
G01X9896Y27680D01*
G01X9936Y27638D01*
G01X9956Y27557D01*
G01X9956Y27455D01*
G01X9936Y27353D01*
G01X9896Y27290D01*
G01X9835Y27271D01*
G01X9793Y27271D01*
G01X9731Y27290D01*
G01X9711Y27332D01*
G01X9300Y29100D02*
G01X9300Y28794D01*
G01X9319Y28732D01*
G01X9361Y28690D01*
G01X9423Y28671D01*
G01X9463Y28671D01*
G01X9525Y28690D01*
G01X9565Y28732D01*
G01X9586Y28794D01*
G01X9586Y29100D01*
G01X9742Y28998D02*
G01X9742Y29019D01*
G01X9761Y29059D01*
G01X9782Y29080D01*
G01X9823Y29100D01*
G01X9905Y29100D01*
G01X9946Y29080D01*
G01X9967Y29059D01*
G01X9986Y29019D01*
G01X9986Y28978D01*
G01X9967Y28936D01*
G01X9926Y28875D01*
G01X9721Y28671D01*
G01X10007Y28671D01*
G54D15*
G01X8680Y29548D02*
G01X8653Y29576D01*
G01X8613Y29590D01*
G01X8557Y29590D01*
G01X8517Y29576D01*
G01X8490Y29548D01*
G01X8490Y29521D01*
G01X8503Y29494D01*
G01X8517Y29480D01*
G01X8544Y29467D01*
G01X8626Y29440D01*
G01X8653Y29426D01*
G01X8667Y29411D01*
G01X8680Y29384D01*
G01X8680Y29344D01*
G01X8653Y29317D01*
G01X8613Y29303D01*
G01X8557Y29303D01*
G01X8517Y29317D01*
G01X8490Y29344D01*
G01X8771Y29590D02*
G01X8771Y29303D01*
G01X8771Y29590D02*
G01X8865Y29590D01*
G01X8907Y29576D01*
G01X8934Y29548D01*
G01X8948Y29521D01*
G01X8961Y29480D01*
G01X8961Y29411D01*
G01X8948Y29371D01*
G01X8934Y29344D01*
G01X8907Y29317D01*
G01X8865Y29303D01*
G01X8771Y29303D01*
G01X9161Y29590D02*
G01X9051Y29303D01*
G01X9161Y29590D02*
G01X9269Y29303D01*
G01X9092Y29398D02*
G01X9228Y29398D01*
G01X7671Y29553D02*
G01X7644Y29580D01*
G01X7603Y29594D01*
G01X7548Y29594D01*
G01X7507Y29580D01*
G01X7480Y29553D01*
G01X7480Y29525D01*
G01X7494Y29498D01*
G01X7507Y29484D01*
G01X7534Y29471D01*
G01X7615Y29444D01*
G01X7644Y29430D01*
G01X7657Y29415D01*
G01X7671Y29388D01*
G01X7671Y29348D01*
G01X7644Y29321D01*
G01X7603Y29307D01*
G01X7548Y29307D01*
G01X7507Y29321D01*
G01X7480Y29348D01*
G01X7965Y29525D02*
G01X7951Y29553D01*
G01X7925Y29580D01*
G01X7896Y29594D01*
G01X7842Y29594D01*
G01X7815Y29580D01*
G01X7788Y29553D01*
G01X7775Y29525D01*
G01X7761Y29484D01*
G01X7761Y29415D01*
G01X7775Y29375D01*
G01X7788Y29348D01*
G01X7815Y29321D01*
G01X7842Y29307D01*
G01X7896Y29307D01*
G01X7925Y29321D01*
G01X7951Y29348D01*
G01X7965Y29375D01*
G01X8055Y29594D02*
G01X8055Y29307D01*
G01X8055Y29307D02*
G01X8219Y29307D01*
G01X6655Y29530D02*
G01X6640Y29559D01*
G01X6613Y29586D01*
G01X6586Y29600D01*
G01X6532Y29600D01*
G01X6505Y29586D01*
G01X6476Y29559D01*
G01X6463Y29530D01*
G01X6450Y29490D01*
G01X6450Y29421D01*
G01X6463Y29380D01*
G01X6476Y29353D01*
G01X6505Y29327D01*
G01X6532Y29313D01*
G01X6586Y29313D01*
G01X6613Y29327D01*
G01X6640Y29353D01*
G01X6655Y29380D01*
G01X6655Y29421D01*
G01X6586Y29421D02*
G01X6655Y29421D01*
G01X6744Y29503D02*
G01X6744Y29313D01*
G01X6744Y29450D02*
G01X6784Y29490D01*
G01X6813Y29503D01*
G01X6853Y29503D01*
G01X6880Y29490D01*
G01X6894Y29450D01*
G01X6894Y29313D01*
G01X7148Y29600D02*
G01X7148Y29313D01*
G01X7148Y29463D02*
G01X7121Y29490D01*
G01X7094Y29503D01*
G01X7053Y29503D01*
G01X7025Y29490D01*
G01X6998Y29463D01*
G01X6984Y29421D01*
G01X6984Y29394D01*
G01X6998Y29353D01*
G01X7025Y29327D01*
G01X7053Y29313D01*
G01X7094Y29313D01*
G01X7121Y29327D01*
G01X7148Y29353D01*
G01X5523Y29559D02*
G01X5523Y29313D01*
G01X5400Y29436D02*
G01X5644Y29436D01*
G01X5763Y29600D02*
G01X5913Y29600D01*
G01X5830Y29490D01*
G01X5871Y29490D01*
G01X5898Y29477D01*
G01X5913Y29463D01*
G01X5926Y29421D01*
G01X5926Y29394D01*
G01X5913Y29353D01*
G01X5884Y29327D01*
G01X5844Y29313D01*
G01X5803Y29313D01*
G01X5763Y29327D01*
G01X5748Y29340D01*
G01X5734Y29367D01*
G01X6015Y29600D02*
G01X6125Y29313D01*
G01X6234Y29600D02*
G01X6125Y29313D01*
G54D10*
G75*
G01X13280Y16900D02*
G02X12780Y16900I-250J0D01*
G01*
G54D12*
G75*
G01X12039Y19259D02*
G03X12039Y19259I-59J0D01*
G01*
G54D10*
G75*
G01X7465Y23638D02*
G03X7465Y23244I0J-196D01*
G01*
G54D12*
G75*
G01X7405Y24846D02*
G03X7403Y24846I-2J59D01*
G01*
G54D10*
G75*
G01X6553Y27269D02*
G03X6553Y27269I50J0D01*
G01*
G75*
G01X6753Y26919D02*
G03X6903Y26769I150J0D01*
G01*
G75*
G01X6903Y27069D02*
G03X6753Y26919I0J-150D01*
G01*
G54D13*
G75*
G01X13397Y26936D02*
G03X13406Y26936I4J-535D01*
G01*
G75*
G01X13381Y27144D02*
G03X13393Y27144I6J-742D01*
G01*
G75*
G01X13397Y22036D02*
G03X13406Y22036I4J-535D01*
G01*
G75*
G01X13381Y22244D02*
G03X13393Y22244I6J-742D01*
G01*
G54D10*
G75*
G01X12255Y16990D02*
G03X12255Y16990I-75J0D01*
G01*
G75*
G01X11390Y16700D02*
G03X11390Y16700I-590J0D01*
G01*
G75*
G01X11300Y22350D02*
G03X11300Y22350I-150J0D01*
G01*
G75*
G01X14289Y24300D02*
G03X14289Y24300I-100J0D01*
G01*
G75*
G01X887Y15890D02*
G03X887Y15890I-197J0D01*
G01*

M00*
M02*