G04 ---------------------------- Layer name :TOP LAYER*
G04 easyEDA 0.1*
G04 Scale: 100 percent, Rotated: No, Reflected: No *
G04 Dimensions in inches *
G04 leading zeros omitted , absolute positions ,2 integer and 4 * 
%FSLAX24Y24*%
%MOIN*%
G90*
G70D02*

%ADD11C,0.005980*%
%ADD12C,0.027559*%
%ADD13C,0.023622*%
%ADD14C,0.015748*%
%ADD15C,0.020079*%
%ADD16R,0.039370X0.049212*%
%ADD17R,0.029528X0.031496*%
%ADD18R,0.022835X0.031496*%
%ADD19R,0.098425X0.137790*%
%ADD20R,0.098400X0.019700*%
%ADD21R,0.098400X0.078700*%
%ADD22R,0.050000X0.022000*%
%ADD23R,0.022000X0.050000*%
%ADD24R,0.020100X0.031500*%
%ADD25R,0.020000X0.067000*%
%ADD26R,0.035433X0.094500*%
%ADD27R,0.051181X0.062992*%
%ADD28R,0.027559X0.049213*%
%ADD29C,0.039370*%
%ADD31C,0.047240*%
%ADD33C,0.060000*%
%ADD35R,0.070000X0.070000*%
%ADD36C,0.070000*%

%LPD*%
G54D11*
G01X9238Y20469D02*
G01X9238Y20346D01*
G01X9238Y20592D02*
G01X9238Y20469D01*
G01X9130Y21869D02*
G01X9023Y21763D01*
G01X8894Y21763D01*
G01X9130Y22209D02*
G01X9130Y21869D01*
G01X9635Y15400D02*
G01X10023Y15400D01*
G01X10355Y15730D01*
G01X10253Y17482D02*
G01X9873Y17101D01*
G01X9873Y16848D01*
G01X9238Y20346D02*
G01X9817Y20346D01*
G01X10025Y20138D01*
G01X8800Y28900D02*
G01X12118Y28900D01*
G01X12273Y28744D01*
G01X12273Y28407D02*
G01X12273Y28744D01*
G01X7800Y28900D02*
G01X8661Y28038D01*
G01X10226Y28038D01*
G01X9440Y22209D02*
G01X9440Y22550D01*
G01X9669Y22621D02*
G01X9598Y22550D01*
G01X9440Y22550D01*
G01X8926Y20740D02*
G01X9036Y20850D01*
G01X9469Y20850D01*
G01X9611Y20707D01*
G01X9611Y20592D01*
G01X6800Y28900D02*
G01X8200Y27500D01*
G01X8723Y27500D01*
G01X6332Y22084D02*
G01X6332Y22519D01*
G01X7553Y23740D01*
G01X7569Y23740D01*
G01X10746Y15723D02*
G01X10017Y14994D01*
G01X8040Y14994D01*
G01X8023Y15011D01*
G01X8023Y15082D01*
G01X7126Y15978D01*
G01X5769Y15978D01*
G01X11830Y17950D02*
G01X11186Y17950D01*
G01X10343Y17107D01*
G01X10343Y16280D01*
G01X10746Y15878D01*
G01X10746Y15723D01*
G01X11850Y15200D02*
G01X11268Y15200D01*
G01X10746Y15723D01*
G01X4540Y21650D02*
G01X4613Y21578D01*
G01X5236Y21578D01*
G01X5309Y21650D01*
G01X4384Y21551D02*
G01X4482Y21650D01*
G01X4540Y21650D01*
G01X4540Y21650D02*
G01X4540Y22084D01*
G01X3261Y22769D02*
G01X3261Y21984D01*
G01X3696Y21551D01*
G01X4384Y21551D01*
G01X5257Y20052D02*
G01X4417Y20052D01*
G01X4384Y20084D01*
G01X4384Y21551D01*
G01X11630Y23430D02*
G01X11630Y22544D01*
G01X11289Y23430D02*
G01X11630Y23430D01*
G01X11119Y23430D02*
G01X11289Y23430D01*
G01X11830Y18950D02*
G01X11742Y19038D01*
G01X10644Y19038D01*
G01X10644Y19038D02*
G01X10300Y18692D01*
G01X10300Y18523D01*
G01X9544Y17767D01*
G01X8930Y17767D01*
G01X8563Y17400D01*
G01X11830Y17950D02*
G01X12256Y18377D01*
G01X12256Y18523D01*
G01X11830Y18950D01*
G01X10950Y24059D02*
G01X10950Y23430D01*
G01X5309Y21650D02*
G01X5380Y21578D01*
G01X6196Y21578D01*
G01X6332Y21713D01*
G01X6332Y22084D01*
G01X5538Y24419D02*
G01X5565Y24446D01*
G01X5565Y24800D01*
G01X2115Y24217D02*
G01X5336Y24217D01*
G01X5538Y24419D01*
G01X5538Y24419D02*
G01X5765Y24192D01*
G01X7909Y23740D02*
G01X10630Y23740D01*
G01X10950Y24059D01*
G01X7740Y23740D02*
G01X7909Y23740D01*
G01X3494Y29100D02*
G01X3494Y28000D01*
G01X2807Y26800D02*
G01X2226Y26800D01*
G01X11289Y24059D02*
G01X13000Y24059D01*
G01X13361Y24421D01*
G01X13801Y24421D01*
G01X3207Y28000D02*
G01X3207Y26913D01*
G01X3092Y26800D01*
G01X7740Y23740D02*
G01X7569Y23740D01*
G01X10644Y19038D02*
G01X10493Y19190D01*
G01X10493Y19600D01*
G01X5309Y22084D02*
G01X5309Y21650D01*
G01X11119Y23430D02*
G01X10950Y23430D01*
G01X2950Y26800D02*
G01X2807Y26800D01*
G01X2950Y26800D02*
G01X3092Y26800D01*
G01X2115Y24217D02*
G01X1523Y24809D01*
G01X9069Y27500D02*
G01X8723Y27500D01*
G01X2098Y22769D02*
G01X2098Y24201D01*
G01X2115Y24217D01*
G01X8407Y16400D02*
G01X8407Y17386D01*
G01X8419Y17400D01*
G01X9394Y19600D02*
G01X10206Y19600D01*
G01X8723Y27500D02*
G01X8723Y27542D01*
G01X8651Y27615D01*
G01X13001Y15767D02*
G01X12434Y15200D01*
G01X11850Y15200D01*
G01X3494Y28000D02*
G01X3207Y28000D01*
G01X3780Y29100D02*
G01X4050Y29369D01*
G01X6330Y29369D01*
G01X6800Y28900D01*
G01X2680Y22769D02*
G01X2098Y22769D01*
G01X2971Y22769D02*
G01X2680Y22769D01*
G01X2971Y22769D02*
G01X3261Y22769D01*
G01X8563Y17400D02*
G01X8419Y17400D01*
G01X8707Y17400D02*
G01X8563Y17400D01*
G01X6100Y25719D02*
G01X6100Y25653D01*
G01X5565Y25117D01*
G01X5565Y24800D01*
G01X5257Y20613D02*
G01X5257Y20052D01*
G01X10206Y19600D02*
G01X10493Y19600D01*
G01X3494Y29100D02*
G01X3780Y29100D01*
G01X11289Y24059D02*
G01X10950Y24059D01*
G01X13801Y24669D02*
G01X13801Y24421D01*
G01X6846Y17211D02*
G01X6846Y18932D01*
G01X6761Y19015D01*
G01X6761Y21159D01*
G01X6994Y21392D01*
G01X8694Y21392D01*
G01X8823Y21263D01*
G01X8823Y21263D01*
G01X8936Y21263D01*
G01X9000Y21198D01*
G01X6846Y17211D02*
G01X7028Y17211D01*
G01X7959Y16280D01*
G01X7959Y16265D01*
G01X8161Y16063D01*
G01X8642Y16063D01*
G01X8907Y16328D01*
G01X8907Y16400D01*
G01X8030Y15400D02*
G01X6644Y16784D01*
G01X5032Y16784D01*
G01X4828Y16988D01*
G01X4828Y17115D01*
G01X4925Y17211D01*
G01X6846Y17211D01*
G01X5600Y26144D02*
G01X5469Y26275D01*
G01X5290Y26275D01*
G01X6257Y24134D02*
G01X5746Y23623D01*
G01X5407Y23623D01*
G01X4984Y23200D01*
G01X5019Y23165D01*
G01X5019Y23065D01*
G01X4950Y22996D01*
G01X4851Y22996D01*
G01X4815Y23030D01*
G01X4521Y22736D01*
G01X4521Y22638D01*
G01X4284Y22402D01*
G01X4284Y22084D01*
G01X10544Y20384D02*
G01X10297Y20138D01*
G01X10759Y20809D02*
G01X10759Y20598D01*
G01X10544Y20384D01*
G01X10544Y20384D02*
G01X10993Y19936D01*
G01X9238Y21198D02*
G01X9000Y21198D01*
G01X9611Y21198D02*
G01X9238Y21198D01*
G01X10759Y20809D02*
G01X12200Y22250D01*
G01X9611Y20952D02*
G01X10615Y20952D01*
G01X10759Y20809D01*
G01X6257Y24134D02*
G01X6430Y23961D01*
G01X7471Y23961D01*
G01X7569Y24059D01*
G01X6332Y24800D02*
G01X6257Y24725D01*
G01X6257Y24134D01*
G01X10930Y18600D02*
G01X10584Y18600D01*
G01X9494Y17359D02*
G01X10584Y18448D01*
G01X10584Y18600D01*
G01X9494Y17359D02*
G01X9494Y17319D01*
G01X9494Y17400D02*
G01X9494Y17359D01*
G01X2298Y28913D02*
G01X2875Y28336D01*
G01X2980Y28336D01*
G01X2998Y28317D01*
G01X2998Y27719D01*
G01X2661Y27382D01*
G01X2084Y27382D01*
G01X1601Y26900D01*
G01X1565Y26900D01*
G01X8292Y24546D02*
G01X8400Y24546D01*
G01X10993Y19600D02*
G01X10993Y19936D01*
G01X14171Y24917D02*
G01X13293Y24917D01*
G01X12746Y24369D01*
G01X11289Y24369D01*
G01X11630Y23740D02*
G01X12200Y23169D01*
G01X12200Y22250D01*
G01X11630Y23740D02*
G01X13023Y23740D01*
G01X13464Y24178D01*
G01X13927Y24178D01*
G01X14171Y24421D01*
G01X14561Y27150D02*
G01X12200Y27150D01*
G01X6332Y24800D02*
G01X6332Y26048D01*
G01X6236Y26144D01*
G01X5600Y26144D01*
G01X3880Y26800D02*
G01X3880Y27665D01*
G01X5115Y28900D01*
G01X5800Y28900D01*
G01X8292Y24546D02*
G01X8150Y24690D01*
G01X8292Y24369D02*
G01X8292Y24546D01*
G01X8292Y24369D02*
G01X8292Y24103D01*
G01X8250Y24059D01*
G01X10950Y24369D02*
G01X8292Y24369D01*
G01X1565Y26900D02*
G01X1636Y26900D01*
G01X1494Y26900D02*
G01X1565Y26900D01*
G01X3307Y26800D02*
G01X3307Y26728D01*
G01X3028Y26448D01*
G01X2088Y26448D01*
G01X1636Y26900D01*
G01X9480Y16400D02*
G01X9480Y17051D01*
G01X9494Y17063D01*
G01X9194Y16400D02*
G01X8907Y16400D01*
G01X8376Y15400D02*
G01X8030Y15400D01*
G01X12200Y27150D02*
G01X11526Y27823D01*
G01X11526Y28071D01*
G01X3594Y26800D02*
G01X3880Y26800D01*
G01X9494Y17232D02*
G01X9494Y17063D01*
G01X9494Y17232D02*
G01X9494Y17319D01*
G01X14171Y24669D02*
G01X14171Y24917D01*
G01X14171Y24546D02*
G01X14171Y24669D01*
G01X11526Y28407D02*
G01X11526Y28071D01*
G01X8050Y24690D02*
G01X8150Y24690D01*
G01X7909Y24059D02*
G01X7569Y24059D01*
G01X3451Y26800D02*
G01X3594Y26800D01*
G01X3451Y26800D02*
G01X3307Y26800D01*
G01X8050Y24690D02*
G01X7909Y24690D01*
G01X9194Y16400D02*
G01X9480Y16400D01*
G01X7909Y24059D02*
G01X8250Y24059D01*
G01X14171Y24546D02*
G01X14171Y24421D01*
G01X5600Y25719D02*
G01X5600Y26144D01*
G01X11289Y24369D02*
G01X10950Y24369D01*
G01X11430Y23740D02*
G01X11289Y23740D01*
G01X11430Y23740D02*
G01X11630Y23740D01*
G01X9611Y21198D02*
G01X9611Y20952D01*
G01X11850Y16700D02*
G01X11035Y16700D01*
G01X10800Y16936D01*
G01X10800Y16463D02*
G01X11585Y16463D01*
G01X11850Y16200D01*
G01X12418Y19688D02*
G01X12788Y19688D01*
G01X13000Y19900D01*
G01X11850Y15700D02*
G01X12463Y15700D01*
G01X12889Y16126D01*
G01X13102Y16126D01*
G01X13347Y15882D01*
G01X13347Y15640D01*
G01X12852Y15144D01*
G01X14230Y16700D02*
G01X13885Y17042D01*
G01X11389Y17042D01*
G01X1730Y28100D02*
G01X1730Y27694D01*
G01X1859Y27427D02*
G01X1859Y27565D01*
G01X1730Y27694D01*
G01X2563Y28000D02*
G01X2419Y28000D01*
G01X1730Y28302D02*
G01X2117Y28302D01*
G01X2419Y28000D01*
G01X1730Y28127D02*
G01X1730Y28100D01*
G01X1730Y28127D02*
G01X1730Y28155D01*
G01X2563Y28000D02*
G01X2705Y28000D01*
G01X1730Y28201D02*
G01X1730Y28302D01*
G01X1730Y28201D02*
G01X1730Y28155D01*
G01X1730Y28302D02*
G01X1730Y28505D01*
G01X1830Y29100D02*
G01X1830Y28605D01*
G01X1730Y28505D01*
G01X469Y28100D02*
G01X815Y28100D01*
G01X815Y28100D02*
G01X1444Y28728D01*
G01X1444Y29459D01*
G01X1503Y29517D01*
G01X7805Y29517D01*
G01X8300Y29023D01*
G01X8300Y28715D01*
G01X8580Y28436D01*
G01X10430Y28436D01*
G01X10600Y28605D01*
G01X14230Y15700D02*
G01X13739Y15700D01*
G01X13131Y16307D01*
G01X12728Y16307D01*
G01X12372Y15950D01*
G01X10902Y15950D01*
G01X10463Y16388D01*
G01X10463Y17030D01*
G01X11132Y17700D01*
G01X12143Y17700D01*
G01X12418Y17973D01*
G01X12418Y18865D01*
G01X11922Y19361D01*
G01X11614Y19361D01*
G01X11900Y29055D02*
G01X12973Y29055D01*
G01X13793Y22501D02*
G01X13793Y20590D01*
G01X14813Y19571D01*
G01X14813Y15646D01*
G01X14367Y15200D01*
G01X14230Y15200D01*
G01X11900Y29392D02*
G01X11900Y29055D01*
G01X915Y29100D02*
G01X1515Y29698D01*
G01X11593Y29698D01*
G01X11900Y29392D01*
G01X569Y29100D02*
G01X915Y29100D01*
G01X8621Y23488D02*
G01X10261Y23488D01*
G01X10950Y22800D01*
G01X11289Y22800D02*
G01X10950Y22800D01*
G01X6655Y18853D02*
G01X6546Y18961D01*
G01X4005Y18961D01*
G01X10059Y21563D02*
G01X11231Y21563D01*
G01X13589Y21138D02*
G01X13589Y23071D01*
G01X13801Y23282D01*
G01X14169Y17450D02*
G01X14573Y17853D01*
G01X14573Y18034D01*
G01X14451Y18157D01*
G01X13888Y18157D01*
G01X13589Y18455D01*
G01X13589Y21138D01*
G01X12226Y21138D02*
G01X13589Y21138D01*
G01X13801Y23528D02*
G01X13801Y23282D01*
G01X7596Y16142D02*
G01X7936Y15805D01*
G01X10088Y15805D01*
G01X10318Y16034D01*
G01X11830Y17450D02*
G01X11156Y17450D01*
G01X14169Y18950D02*
G01X14693Y18426D01*
G01X14693Y17448D01*
G01X14478Y17234D01*
G01X12046Y17234D01*
G01X11830Y17450D01*
G01X11830Y18450D02*
G01X11490Y18450D01*
G01X10223Y17182D01*
G01X10223Y17182D01*
G01X10223Y16794D01*
G01X9367Y15938D01*
G01X8021Y15938D01*
G01X7840Y16117D01*
G01X7840Y16230D01*
G01X7048Y17021D01*
G01X5073Y17021D01*
G01X5053Y22084D02*
G01X5053Y22438D01*
G01X5276Y22661D01*
G01X4298Y22992D02*
G01X4298Y22721D01*
G01X3261Y24028D02*
G01X4298Y22992D01*
G01X4298Y22992D02*
G01X4834Y23530D01*
G01X4846Y23530D01*
G01X2680Y24028D02*
G01X3261Y24028D01*
G01X3773Y22084D02*
G01X3773Y22886D01*
G01X3261Y23398D01*
G01X2680Y23398D02*
G01X3261Y23398D01*
G01X4030Y22084D02*
G01X4030Y22942D01*
G01X3261Y23709D01*
G01X2680Y23709D02*
G01X3261Y23709D01*
G01X3486Y19426D02*
G01X5492Y19426D01*
G01X6171Y20105D01*
G01X6171Y21167D01*
G01X6515Y21511D01*
G01X9711Y21511D01*
G01X10069Y21869D01*
G01X3486Y19426D02*
G01X3303Y19426D01*
G01X1323Y21403D01*
G01X1323Y24902D01*
G01X2117Y25696D01*
G01X4830Y25696D01*
G01X3486Y19426D02*
G01X3486Y15861D01*
G01X3486Y15300D02*
G01X3486Y15861D01*
G01X10069Y22209D02*
G01X10069Y21869D01*
G01X7100Y24800D02*
G01X7100Y24401D01*
G01X6932Y24234D01*
G01X6465Y24234D01*
G01X7290Y24311D02*
G01X7290Y25257D01*
G01X7230Y25315D01*
G01X6953Y25315D01*
G01X6844Y25207D01*
G01X6844Y24800D01*
G01X6811Y22728D02*
G01X6940Y22600D01*
G01X9051Y22600D01*
G01X9328Y22876D01*
G01X10618Y22876D01*
G01X10901Y22594D01*
G01X10901Y21890D01*
G01X10881Y21869D01*
G01X10389Y21869D01*
G01X6076Y24800D02*
G01X6076Y24211D01*
G01X5690Y23826D01*
G01X5507Y23826D01*
G01X5507Y23826D01*
G01X10389Y22209D02*
G01X10389Y21869D01*
G01X4667Y15861D02*
G01X5338Y16532D01*
G01X6357Y16532D01*
G01X4667Y15300D02*
G01X4667Y15861D01*
G01X11289Y24690D02*
G01X12664Y24690D01*
G01X8892Y19600D02*
G01X8892Y19671D01*
G01X9157Y19936D01*
G01X10493Y19936D01*
G01X10613Y19815D01*
G01X10613Y19402D01*
G01X10751Y19263D01*
G01X11248Y19263D01*
G01X11418Y19434D01*
G01X11418Y20601D01*
G01X12853Y22036D01*
G01X12853Y22501D01*
G01X8605Y19600D02*
G01X8892Y19600D01*
G01X11630Y25000D02*
G01X11635Y24994D01*
G01X12664Y24994D01*
G01X11289Y25000D02*
G01X11630Y25000D01*
G01X10700Y25930D02*
G01X10700Y27476D01*
G01X10676Y27500D01*
G01X10700Y25300D02*
G01X10975Y25575D01*
G01X12200Y25575D01*
G01X10700Y25590D02*
G01X10700Y25300D01*
G01X14561Y25575D02*
G01X12200Y25575D01*
G01X10700Y25590D02*
G01X10700Y25930D01*
G01X10330Y27500D02*
G01X10676Y27500D01*
G01X10485Y26025D02*
G01X10389Y25930D01*
G01X10389Y25590D02*
G01X10389Y25930D01*
G01X10069Y25930D02*
G01X9580Y25930D01*
G01X8680Y26828D01*
G01X6513Y26828D01*
G01X5703Y27638D01*
G01X5411Y27638D01*
G01X5392Y27655D01*
G01X5392Y28380D01*
G01X5232Y28542D01*
G01X4950Y28542D01*
G01X4898Y28490D01*
G01X4898Y27655D01*
G01X5100Y27453D01*
G01X5100Y26144D01*
G01X10069Y25590D02*
G01X10069Y25930D01*
G01X5100Y25719D02*
G01X5100Y26144D01*
G01X5100Y27644D02*
G01X5242Y27502D01*
G01X5628Y27502D01*
G01X6550Y26580D01*
G01X8480Y26580D01*
G01X9130Y25930D01*
G01X9130Y25590D02*
G01X9130Y25930D01*
G01X5100Y28069D02*
G01X5100Y27644D01*
G01X5582Y27276D02*
G01X6398Y26459D01*
G01X8278Y26459D01*
G01X8809Y25930D01*
G01X6600Y27644D02*
G01X6846Y27644D01*
G01X6600Y28069D02*
G01X6600Y27644D01*
G01X8809Y25590D02*
G01X8809Y25930D01*
G01X8500Y25930D02*
G01X8413Y26017D01*
G01X6763Y26017D01*
G01X6690Y26090D01*
G01X6678Y26090D01*
G01X6623Y26144D01*
G01X6600Y26144D01*
G01X6600Y25719D02*
G01X6600Y26144D01*
G01X8500Y25590D02*
G01X8500Y25930D01*
G01X6100Y27644D02*
G01X6394Y27350D01*
G01X8498Y27350D01*
G01X8815Y27032D01*
G01X9893Y27032D01*
G01X7909Y25000D02*
G01X9856Y25000D01*
G01X9893Y24963D01*
G01X6100Y28069D02*
G01X6100Y27644D01*
G01X10289Y26484D02*
G01X9194Y26484D01*
G01X8615Y27063D01*
G01X6505Y27063D01*
G01X5600Y27969D01*
G01X5600Y28069D01*
G01X10700Y22550D02*
G01X10418Y22550D01*
G01X10289Y22678D01*
G01X10700Y22209D02*
G01X10700Y22550D01*
G01X13363Y22111D02*
G01X13363Y23215D01*
G01X13431Y23282D01*
G01X13431Y23528D02*
G01X13431Y23282D01*
G01X14171Y23528D02*
G01X14171Y22167D01*
G01X14093Y22090D01*
G01X7028Y20613D02*
G01X7028Y21177D01*
G01X7028Y21177D02*
G01X8590Y21177D01*
G01X8615Y21202D01*
G01X7028Y20455D02*
G01X7028Y20613D01*
G01X9496Y18600D02*
G01X8480Y18600D01*
G01X7028Y20052D01*
G01X9669Y18600D02*
G01X9496Y18600D01*
G01X7028Y20455D02*
G01X7028Y20052D01*
G01X2707Y29100D02*
G01X2992Y29100D01*
G01X2992Y29100D02*
G01X2992Y28723D01*
G01X3246Y28469D01*
G01X992Y26900D02*
G01X992Y26828D01*
G01X1511Y26309D01*
G01X3936Y26309D01*
G01X4880Y27255D01*
G01X6780Y26269D02*
G01X6161Y26269D01*
G01X5303Y27127D01*
G01X707Y26900D02*
G01X992Y26900D01*
G01X6865Y25728D02*
G01X7875Y25728D01*
G01X8400Y25200D01*
G01X10856Y25155D01*
G01X10946Y25246D01*
G01X11764Y25246D01*
G01X11825Y25184D01*
G01X13781Y25184D01*
G01X9238Y20469D02*
G01X8269Y20469D01*
G01X7909Y20830D01*
G54D12*
G01X11554Y16700D02*
G01X12145Y16700D01*
G01X11554Y16200D02*
G01X12145Y16200D01*
G01X11554Y15700D02*
G01X12145Y15700D01*
G01X11554Y15200D02*
G01X12145Y15200D01*
G01X13934Y16700D02*
G01X14525Y16700D01*
G01X13934Y16200D02*
G01X14525Y16200D01*
G01X13934Y15700D02*
G01X14525Y15700D01*
G01X13934Y15200D02*
G01X14525Y15200D01*
G54D13*
G01X13973Y17450D02*
G01X14366Y17450D01*
G01X13973Y17950D02*
G01X14366Y17950D01*
G01X13973Y18450D02*
G01X14366Y18450D01*
G01X13973Y18950D02*
G01X14366Y18950D01*
G01X11633Y17450D02*
G01X12026Y17450D01*
G01X11633Y17950D02*
G01X12026Y17950D01*
G01X11633Y18450D02*
G01X12026Y18450D01*
G01X11633Y18950D02*
G01X12026Y18950D01*
G54D14*
G01X7100Y25134D02*
G01X7100Y24465D01*
G01X6844Y25134D02*
G01X6844Y24465D01*
G01X6588Y25134D02*
G01X6588Y24465D01*
G01X6332Y25134D02*
G01X6332Y24465D01*
G01X6076Y25134D02*
G01X6076Y24465D01*
G01X5821Y25134D02*
G01X5821Y24465D01*
G01X5565Y25134D02*
G01X5565Y24465D01*
G01X5309Y25134D02*
G01X5309Y24465D01*
G01X5053Y25134D02*
G01X5053Y24465D01*
G01X4796Y25134D02*
G01X4796Y24465D01*
G01X4540Y25134D02*
G01X4540Y24465D01*
G01X4284Y25134D02*
G01X4284Y24465D01*
G01X4030Y25134D02*
G01X4030Y24465D01*
G01X3773Y25134D02*
G01X3773Y24465D01*
G01X7100Y22418D02*
G01X7100Y21749D01*
G01X6844Y22418D02*
G01X6844Y21749D01*
G01X6588Y22418D02*
G01X6588Y21749D01*
G01X6332Y22418D02*
G01X6332Y21749D01*
G01X6076Y22418D02*
G01X6076Y21749D01*
G01X5821Y22418D02*
G01X5821Y21749D01*
G01X5565Y22418D02*
G01X5565Y21749D01*
G01X5309Y22418D02*
G01X5309Y21749D01*
G01X5053Y22418D02*
G01X5053Y21749D01*
G01X4796Y22418D02*
G01X4796Y21749D01*
G01X4540Y22418D02*
G01X4540Y21749D01*
G01X4284Y22418D02*
G01X4284Y21749D01*
G01X4030Y22418D02*
G01X4030Y21749D01*
G01X3773Y22418D02*
G01X3773Y21749D01*
G54D16*
G01X8705Y17400D03*
G01X9494Y17400D03*
G01X8405Y16400D03*
G01X9194Y16400D03*
G54D17*
G01X10300Y21200D03*
G01X10300Y20594D03*
G54D18*
G01X9926Y21200D03*
G01X9926Y20594D03*
G01X9611Y21200D03*
G01X9611Y20594D03*
G54D17*
G01X9238Y21200D03*
G01X9238Y20594D03*
G54D16*
G01X3494Y28000D03*
G01X2705Y28000D03*
G01X2805Y26800D03*
G01X3594Y26800D03*
G54D19*
G01X13000Y18200D03*
G54D20*
G01X2680Y23400D03*
G01X2680Y23709D03*
G01X2680Y22769D03*
G01X2680Y23090D03*
G54D21*
G01X519Y21630D03*
G01X519Y25169D03*
G01X2680Y21630D03*
G01X2680Y25169D03*
G54D20*
G01X2680Y24030D03*
G54D22*
G01X11289Y22800D03*
G01X11289Y23109D03*
G01X11289Y23430D03*
G01X11289Y23740D03*
G01X11289Y24059D03*
G01X11289Y24369D03*
G01X11289Y24690D03*
G01X11289Y25000D03*
G54D23*
G01X10700Y25590D03*
G01X10389Y25590D03*
G01X10069Y25590D03*
G01X9760Y25590D03*
G01X9440Y25590D03*
G01X9130Y25590D03*
G01X8809Y25590D03*
G01X8500Y25590D03*
G54D22*
G01X7909Y25000D03*
G01X7909Y24690D03*
G01X7909Y24369D03*
G01X7909Y24059D03*
G01X7909Y23740D03*
G01X7909Y23430D03*
G01X7909Y23109D03*
G01X7909Y22800D03*
G54D23*
G01X8500Y22209D03*
G01X8809Y22209D03*
G01X9130Y22209D03*
G01X9440Y22209D03*
G01X9760Y22209D03*
G01X10069Y22209D03*
G01X10389Y22209D03*
G01X10700Y22209D03*
G54D16*
G01X9394Y19600D03*
G01X8605Y19600D03*
G54D24*
G01X13430Y23530D03*
G01X13800Y23530D03*
G01X14169Y23530D03*
G01X14169Y24669D03*
G01X13800Y24669D03*
G01X13430Y24669D03*
G54D16*
G01X10206Y19600D03*
G01X10993Y19600D03*
G54D25*
G01X6600Y28069D03*
G01X6100Y28069D03*
G01X5600Y28069D03*
G01X5100Y28069D03*
G01X5100Y25719D03*
G01X5600Y25719D03*
G01X6100Y25719D03*
G01X6600Y25719D03*
G54D26*
G01X2894Y15300D03*
G01X3486Y15300D03*
G01X4076Y15300D03*
G01X4667Y15300D03*
G01X5257Y15300D03*
G01X5848Y15300D03*
G01X6438Y15300D03*
G01X7028Y15300D03*
G01X2894Y20615D03*
G01X3486Y20615D03*
G01X4076Y20615D03*
G01X4667Y20615D03*
G01X5257Y20615D03*
G01X5848Y20615D03*
G01X6438Y20615D03*
G01X7028Y20615D03*
G54D16*
G01X705Y26900D03*
G01X1494Y26900D03*
G01X2705Y29100D03*
G01X3494Y29100D03*
G54D27*
G01X9669Y18600D03*
G01X10930Y18600D03*
G01X469Y28100D03*
G01X1730Y28100D03*
G54D28*
G01X11900Y29392D03*
G01X12273Y28407D03*
G01X11526Y28407D03*
G54D27*
G01X8376Y15400D03*
G01X9635Y15400D03*
G01X569Y29100D03*
G01X1830Y29100D03*
G01X9069Y27500D03*
G01X10330Y27500D03*
G54D29*
G01X10800Y16936D03*
G01X10800Y16463D03*
G54D31*
G01X13000Y19900D03*
G01X13001Y15767D03*
G54D33*
G01X14561Y27150D03*
G01X12200Y27150D03*
G01X14561Y25575D03*
G01X12200Y25575D03*
G01X14561Y22250D03*
G01X12200Y22250D03*
G01X14561Y20675D03*
G01X12200Y20675D03*
G54D35*
G01X5800Y28900D03*
G54D36*
G01X6800Y28900D03*
G01X7800Y28900D03*
G01X8800Y28900D03*
G54D15*
G01X7909Y20830D03*
G01X8894Y21763D03*
G01X10355Y15730D03*
G01X9873Y16848D03*
G01X10253Y17482D03*
G01X10025Y20138D03*
G01X10226Y28038D03*
G01X9669Y22621D03*
G01X8926Y20740D03*
G01X11630Y22544D03*
G01X5765Y24192D03*
G01X2226Y26800D03*
G01X5769Y15978D03*
G01X1523Y24809D03*
G01X8651Y27615D03*
G01X10297Y20138D03*
G01X5290Y26275D03*
G01X8400Y24546D03*
G01X2298Y28913D03*
G01X12418Y19688D03*
G01X12852Y15144D03*
G01X1859Y27427D03*
G01X11389Y17042D03*
G01X10600Y28605D03*
G01X11614Y19361D03*
G01X12973Y29055D03*
G01X13793Y22501D03*
G01X8621Y23488D03*
G01X12226Y21138D03*
G01X11231Y21563D03*
G01X10059Y21563D03*
G01X6655Y18853D03*
G01X4005Y18961D03*
G01X11156Y17450D03*
G01X10318Y16034D03*
G01X7596Y16142D03*
G01X5073Y17021D03*
G01X5276Y22661D03*
G01X4846Y23530D03*
G01X4298Y22721D03*
G01X6465Y24234D03*
G01X4830Y25696D03*
G01X7290Y24311D03*
G01X6811Y22728D03*
G01X6357Y16532D03*
G01X5507Y23826D03*
G01X12664Y24690D03*
G01X12853Y22501D03*
G01X12664Y24994D03*
G01X10485Y26025D03*
G01X5582Y27276D03*
G01X6846Y27644D03*
G01X9893Y27032D03*
G01X9893Y24963D03*
G01X10289Y22678D03*
G01X10289Y26484D03*
G01X13363Y22111D03*
G01X14093Y22090D03*
G01X8615Y21202D03*
G01X3246Y28469D03*
G01X6780Y26269D03*
G01X5303Y27127D03*
G01X4880Y27255D03*
G01X6865Y25728D03*
G01X13781Y25184D03*
G54D29*
G01X10800Y16936D03*
G01X10800Y16463D03*
G54D31*
G01X13000Y19900D03*
G01X13001Y15767D03*
G54D33*
G01X14561Y27150D03*
G01X12200Y27150D03*
G01X14561Y25575D03*
G01X12200Y25575D03*
G01X14561Y22250D03*
G01X12200Y22250D03*
G01X14561Y20675D03*
G01X12200Y20675D03*
G54D35*
G01X5800Y28900D03*
G54D36*
G01X6800Y28900D03*
G01X7800Y28900D03*
G01X8800Y28900D03*

M00*
M02*