;PTH Drill file created by EasyEDA 
M48
;Holesize 1 = 0.020 INCH
T01C0.020
;Holesize 2 = 0.034 INCH
T02C0.034
;Holesize 3 = 0.039 INCH
T03C0.039
;Holesize 4 = 0.012 INCH
T04C0.012
INCH,00.0000
%
G05
G90
T01
X010800Y016936
X010800Y016463
T02
X013000Y019900
X013001Y015767
T03
X014561Y027150
X012200Y027150
X014561Y025575
X012200Y025575
X014561Y022250
X012200Y022250
X014561Y020675
X012200Y020675
X005800Y028900
X006800Y028900
X007800Y028900
X008800Y028900
T04
X007909Y020830
X008894Y021763
X010355Y015730
X009873Y016848
X010253Y017482
X010025Y020138
X010226Y028038
X009669Y022621
X008926Y020740
X011630Y022544
X005765Y024192
X002226Y026800
X005769Y015978
X001523Y024809
X008651Y027615
X010297Y020138
X005290Y026275
X008400Y024546
X002298Y028913
X012418Y019688
X012852Y015144
X001859Y027427
X011389Y017042
X010600Y028605
X011614Y019361
X012973Y029055
X013793Y022501
X008621Y023488
X012226Y021138
X011231Y021563
X010059Y021563
X006655Y018853
X004005Y018961
X011156Y017450
X010318Y016034
X007596Y016142
X005073Y017021
X005276Y022661
X004846Y023530
X004298Y022721
X006465Y024234
X004830Y025696
X007290Y024311
X006811Y022728
X006357Y016532
X005507Y023826
X012664Y024690
X012853Y022501
X012664Y024994
X010485Y026025
X005582Y027276
X006846Y027644
X009893Y027032
X009893Y024963
X010289Y022678
X010289Y026484
X013363Y022111
X014093Y022090
X008615Y021202
X003246Y028469
X006780Y026269
X005303Y027127
X004880Y027255
X006865Y025728
X013781Y025184
M30
