<svg xmlns="http://www.w3.org/2000/svg" xmlns:xlink="http://www.w3.org/1999/xlink" width="45.72mm" height="33.452mm" viewBox="4040 3035.3 180 131.7"><title></title><style type="text/css">
*[layerid="1"] {stroke:#FF0000;fill:#FF0000;}
*[layerid="2"] {stroke:#0000FF;fill:#0000FF;}
*[layerid="3"] {stroke:#FFFF00;fill:#FFFF00;}
*[layerid="4"] {stroke:#808000;fill:#808000;}
*[layerid="5"] {stroke:#808080;fill:#808080;}
*[layerid="6"] {stroke:#800000;fill:#800000;}
*[layerid="7"] {stroke:#800080;fill:#800080;}
*[layerid="8"] {stroke:#AA00FF;fill:#AA00FF;}
*[layerid="9"] {stroke:#6464FF;fill:#6464FF;}
*[layerid="10"] {stroke:#FF00FF;fill:#FF00FF;}
*[layerid="11"] {stroke:#C0C0C0;fill:#C0C0C0;}
*[layerid="12"] {stroke:#FFFFFF;fill:#FFFFFF;}
*[layerid="13"] {stroke:#33CC99;fill:#33CC99;}
*[layerid="14"] {stroke:#5555FF;fill:#5555FF;}
*[layerid="15"] {stroke:#F022F0;fill:#F022F0;}
*[layerid="19"] {stroke:#66CCFF;fill:#66CCFF;}
*[layerid="21"] {stroke:#800000;fill:#800000;}
*[layerid="22"] {stroke:#008000;fill:#008000;}
*[layerid="23"] {stroke:#00FF00;fill:#00FF00;}
*[layerid="24"] {stroke:#000080;fill:#000080;}
*[layerid="25"] {stroke:#70DBFA;fill:#70DBFA;}
*[layerid="26"] {stroke:#00CC66;fill:#00CC66;}
*[layerid="27"] {stroke:#9966FF;fill:#9966FF;}
*[layerid="28"] {stroke:#800080;fill:#800080;}
*[layerid="29"] {stroke:#008080;fill:#008080;}
*[layerid="30"] {stroke:#15935F;fill:#15935F;}
*[layerid="31"] {stroke:#000080;fill:#000080;}
*[layerid="32"] {stroke:#00B400;fill:#00B400;}
*[layerid="33"] {stroke:#2E4756;fill:#2E4756;}
*[layerid="34"] {stroke:#99842F;fill:#99842F;}
*[layerid="35"] {stroke:#FFFFAA;fill:#FFFFAA;}
*[layerid="36"] {stroke:#99842F;fill:#99842F;}
*[layerid="37"] {stroke:#2E4756;fill:#2E4756;}
*[layerid="38"] {stroke:#3535FF;fill:#3535FF;}
*[layerid="39"] {stroke:#8000BC;fill:#8000BC;}
*[layerid="40"] {stroke:#43AE5F;fill:#43AE5F;}
*[layerid="41"] {stroke:#C3ECCE;fill:#C3ECCE;}
*[layerid="42"] {stroke:#728978;fill:#728978;}
*[layerid="43"] {stroke:#39503F;fill:#39503F;}
*[layerid="44"] {stroke:#0C715D;fill:#0C715D;}
*[layerid="45"] {stroke:#5A8A80;fill:#5A8A80;}
*[layerid="46"] {stroke:#2B937E;fill:#2B937E;}
*[layerid="47"] {stroke:#23999D;fill:#23999D;}
*[layerid="48"] {stroke:#45B4E3;fill:#45B4E3;}
*[layerid="49"] {stroke:#215DA1;fill:#215DA1;}
*[layerid="50"] {stroke:#4564D7;fill:#4564D7;}
*[layerid="51"] {stroke:#6969E9;fill:#6969E9;}
*[layerid="52"] {stroke:#9069E9;fill:#9069E9;}
*[layerid="99"] {stroke:#00CCCC;fill:#00CCCC;}
*[layerid="100"] {stroke:#CC9999;fill:#CC9999;}
*[layerid="Hole"] {stroke:#222222;fill:#222222;}
*[layerid="DRCError"] {stroke:#FFFFFF;fill:#FFFFFF;}
*[fill="none"] {fill: none;}
*[stroke="none"] {stroke: none;}
path, polyline, polygon, line {stroke-linecap:round;}
g[c_partid="part_pad"][layerid="1"] ellipse:not([c_etype="pad_outer"]) {fill:#FF0000;}
g[c_partid="part_pad"][layerid="1"] polygon:not([c_etype="pad_outer"]) {fill:#FF0000;}
g[c_partid="part_pad"][layerid="1"] polyline:not([c_etype="pad_outer"]) {stroke:#FF0000;}
g[c_partid="part_pad"][layerid="2"] ellipse:not([c_etype="pad_outer"]) {fill:#0000FF;}
g[c_partid="part_pad"][layerid="2"] polygon:not([c_etype="pad_outer"]) {fill:#0000FF;}
g[c_partid="part_pad"][layerid="2"] polyline:not([c_etype="pad_outer"]) {stroke:#0000FF;}
g[c_partid="part_pad"][layerid="11"] ellipse:not([c_etype="pad_outer"]) {fill:#C0C0C0;}
g[c_partid="part_pad"][layerid="11"] polygon:not([c_etype="pad_outer"]) {fill:#C0C0C0;}
g[c_partid="part_pad"][layerid="11"] polyline:not([c_etype="pad_outer"]) {stroke:#C0C0C0;}
g[c_partid="part_pad"][layerid="11"] circle {fill:#222222;}
g[c_partid="part_pad"][layerid="11"] > polyline:nth-of-type(2) {stroke:#222222;}
g[c_partid="part_pad"][layerid="11"][c_shape="ELLIPSE"]  polyline:nth-last-of-type(1) {stroke:#222222;}
g[c_partid="part_pad"][layerid="11"][c_shape="RECT"]  polyline:nth-last-of-type(1) {stroke:#222222;}
g[c_partid="part_pad"][layerid="11"][c_shape="POLYGON"]  polyline:nth-last-of-type(1) {stroke:#222222;}
g[c_partid="part_via"] > * + circle, #gCurParts g[c_partid="part_via"] > * + circle {fill:#222222;}
g[c_partid="part_pad"] > polygon[c_etype="pad_outer"], #gCurParts g[c_partid="part_pad"] > polygon[c_etype="pad_outer"] {stroke-linejoin: miter;stroke-miterlimit: 100;}
g[c_partid="part_hole"] > circle {fill: #222222;}path, polyline, polygon {stroke-linejoin:round;}
rect, circle, ellipse, polyline, line, polygon, path {shape-rendering:crispEdges;}
</style>
<rect x="4040" y="3035.3" width="180" height="131.7" fill="#000000" stroke="none"/><polyline points="4117.71 3121.21 4117.71 3077.26 4106.2 3065.75 4106.2 3061.69" stroke-width="0.8"  stroke-linecap="round" fill="none" layerid="1" net="VCC" id="gge203" locked="0" /><polyline points="4111.31 3063.27 4109.46 3063.27 4108.63 3064.1" stroke-width="0.8"  stroke-linecap="round" fill="none" layerid="1" net="R2_3" id="gge234" locked="0" /><polyline points="4111.31 3060.11 4111.31 3063.27" stroke-width="0.8"  stroke-linecap="round" fill="none" layerid="1" net="R2_3" id="gge233" locked="0" /><polyline points="4058.13 3097 4058.13 3099.08" stroke-width="0.8"  stroke-linecap="round" fill="none" layerid="1" net="R2_3" id="gge232" locked="0" /><polyline points="4058.13 3099.08 4065.72 3099.08" stroke-width="0.8"  stroke-linecap="round" fill="none" layerid="1" net="R2_3" id="gge230" locked="0" /><polyline points="4056.17 3099.08 4052.34 3099.08 4052.11 3098.85 4052.11 3053.43 4053.04 3052.5 4104.25 3052.5 4108.7 3056.94" stroke-width="0.8"  stroke-linecap="round" fill="none" layerid="1" net="R2_2" id="gge229" locked="0" /><polyline points="4056.17 3097 4056.17 3099.08" stroke-width="0.8"  stroke-linecap="round" fill="none" layerid="1" net="R2_2" id="gge228" locked="0" /><polyline points="4108.7 3060.11 4108.7 3056.94" stroke-width="0.8"  stroke-linecap="round" fill="none" layerid="1" net="R2_2" id="gge227" locked="0" /><polyline points="4063.11 3096.34 4062.75 3096.34 4062.09 3097" stroke-width="0.8"  stroke-linecap="round" fill="none" layerid="1" net="R2_4" id="gge224" locked="0" /><polyline points="4060.3 3097 4062.09 3097" stroke-width="0.8"  stroke-linecap="round" fill="none" layerid="1" net="R2_4" id="gge223" locked="0" /><polyline points="4113.81 3060.11 4113.81 3056.94" stroke-width="0.8"  stroke-linecap="round" fill="none" layerid="1" net="R2_4" id="gge222" locked="0" /><polyline points="4113.81 3056.94 4111.89 3056.94 4111.09 3056.14" stroke-width="0.8"  stroke-linecap="round" fill="none" layerid="1" net="R2_4" id="gge220" locked="0" /><polyline points="4113.81 3081.07 4074.88 3081.07 4062.09 3093.86" stroke-width="0.8"  stroke-linecap="round" fill="none" layerid="1" net="GND" id="gge219" locked="0" /><polyline points="4113.81 3077.91 4113.81 3081.07" stroke-width="0.8"  stroke-linecap="round" fill="none" layerid="1" net="GND" id="gge218" locked="0" /><polyline points="4056.17 3093.86 4058.13 3093.86" stroke-width="0.8"  stroke-linecap="round" fill="none" layerid="1" net="GND" id="gge217" locked="0" /><polyline points="4058.13 3093.86 4060.3 3093.86" stroke-width="0.8"  stroke-linecap="round" fill="none" layerid="1" net="GND" id="gge216" locked="0" /><polyline points="4060.3 3093.86 4062.09 3093.86" stroke-width="0.8"  stroke-linecap="round" fill="none" layerid="1" net="GND" id="gge215" locked="0" /><polyline points="4104.9 3140.81 4092.09 3140.81" stroke-width="0.8"  stroke-linecap="round" fill="none" layerid="1" net="GND" id="gge214" locked="0" /><polyline points="4062.09 3093.86 4063.89 3093.86 4092.09 3122.06 4092.09 3140.81" stroke-width="0.8"  stroke-linecap="round" fill="none" layerid="1" net="GND" id="gge213" locked="0" /><polyline points="4106.2 3077.91 4075.96 3077.91 4058.13 3060.08" stroke-width="0.8"  stroke-linecap="round" fill="none" layerid="1" net="R1_3" id="gge212" locked="0" /><polyline points="4058.13 3058 4058.13 3060.08" stroke-width="0.8"  stroke-linecap="round" fill="none" layerid="1" net="R1_3" id="gge211" locked="0" /><polyline points="4108.7 3077.91 4108.7 3074.74" stroke-width="0.8"  stroke-linecap="round" fill="none" layerid="1" net="R1_4" id="gge210" locked="0" /><polyline points="4060.3 3058 4062.09 3058" stroke-width="0.8"  stroke-linecap="round" fill="none" layerid="1" net="R1_4" id="gge209" locked="0" /><polyline points="4062.09 3058 4078.83 3074.74 4108.7 3074.74" stroke-width="0.8"  stroke-linecap="round" fill="none" layerid="1" net="R1_4" id="gge208" locked="0" /><polyline points="4106.2 3060.11 4106.2 3061.69" stroke-width="0.8"  stroke-linecap="round" fill="none" layerid="1" net="VCC" id="gge207" locked="0" /><polyline points="4058.13 3054.86 4060.3 3054.86" stroke-width="0.8"  stroke-linecap="round" fill="none" layerid="1" net="VCC" id="gge206" locked="0" /><polyline points="4104.9 3121.21 4117.71 3121.21" stroke-width="0.8"  stroke-linecap="round" fill="none" layerid="1" net="VCC" id="gge205" locked="0" /><polyline points="4106.2 3061.69 4099.37 3054.86 4060.3 3054.86" stroke-width="0.8"  stroke-linecap="round" fill="none" layerid="1" net="VCC" id="gge204" locked="0" /><g c_partid="part_pad" c_etype="pinpart" c_origin="4054,3058" layerid="1" number="1" net="" plated ="Y"  id="gge5" locked="" c_rotation="90" c_width="2.16535" c_height="1.5748" title="" c_shape="RECT" pasteexpansion="0" solderexpansion="0.4"><polygon  c_etype="pad_shell" points="4053.213 3059.083 4053.213 3056.917 4054.787 3056.917 4054.787 3059.083" layerid="1" stroke-width="0" /><circle c_etype="pad_hole" cx="4054" cy="3058" r="0" layerid="1" stroke-width="0"/></g><g c_partid="part_pad" c_etype="pinpart" c_origin="4060.3,3054.86" layerid="1" number="5" net="VCC" plated ="Y"  id="gge8" locked="" c_rotation="90" c_width="2.16535" c_height="1.5748" title="VCC" c_shape="RECT" pasteexpansion="0" solderexpansion="0.4"><polygon  c_etype="pad_shell" points="4059.513 3055.943 4059.513 3053.777 4061.087 3053.777 4061.087 3055.943" layerid="1" stroke-width="0" /><circle c_etype="pad_hole" cx="4060.3" cy="3054.86" r="0" layerid="1" stroke-width="0"/></g><g c_partid="part_pad" c_etype="pinpart" c_origin="4060.3,3058" layerid="1" number="4" net="R1_4" plated ="Y"  id="gge11" locked="" c_rotation="90" c_width="2.16535" c_height="1.5748" title="R1_4" c_shape="RECT" pasteexpansion="0" solderexpansion="0.4"><polygon  c_etype="pad_shell" points="4059.513 3059.083 4059.513 3056.917 4061.087 3056.917 4061.087 3059.083" layerid="1" stroke-width="0" /><circle c_etype="pad_hole" cx="4060.3" cy="3058" r="0" layerid="1" stroke-width="0"/></g><g c_partid="part_pad" c_etype="pinpart" c_origin="4056.171,3054.86" layerid="1" number="7" net="" plated ="Y"  id="gge14" locked="" c_rotation="90" c_width="2.16535" c_height="1.1811" title="" c_shape="RECT" pasteexpansion="0" solderexpansion="0.4"><polygon  c_etype="pad_shell" points="4055.58 3055.943 4055.58 3053.777 4056.761 3053.777 4056.761 3055.943" layerid="1" stroke-width="0" /><circle c_etype="pad_hole" cx="4056.171" cy="3054.86" r="0" layerid="1" stroke-width="0"/></g><g c_partid="part_pad" c_etype="pinpart" c_origin="4056.171,3058" layerid="1" number="2" net="" plated ="Y"  id="gge17" locked="" c_rotation="90" c_width="2.16535" c_height="1.1811" title="" c_shape="RECT" pasteexpansion="0" solderexpansion="0.4"><polygon  c_etype="pad_shell" points="4055.58 3059.083 4055.58 3056.917 4056.761 3056.917 4056.761 3059.083" layerid="1" stroke-width="0" /><circle c_etype="pad_hole" cx="4056.171" cy="3058" r="0" layerid="1" stroke-width="0"/></g><g c_partid="part_pad" c_etype="pinpart" c_origin="4058.131,3054.86" layerid="1" number="6" net="VCC" plated ="Y"  id="gge20" locked="" c_rotation="90" c_width="2.16535" c_height="1.1811" title="VCC" c_shape="RECT" pasteexpansion="0" solderexpansion="0.4"><polygon  c_etype="pad_shell" points="4057.54 3055.943 4057.54 3053.777 4058.721 3053.777 4058.721 3055.943" layerid="1" stroke-width="0" /><circle c_etype="pad_hole" cx="4058.131" cy="3054.86" r="0" layerid="1" stroke-width="0"/></g><g c_partid="part_pad" c_etype="pinpart" c_origin="4058.131,3058" layerid="1" number="3" net="R1_3" plated ="Y"  id="gge23" locked="" c_rotation="90" c_width="2.16535" c_height="1.1811" title="R1_3" c_shape="RECT" pasteexpansion="0" solderexpansion="0.4"><polygon  c_etype="pad_shell" points="4057.54 3059.083 4057.54 3056.917 4058.721 3056.917 4058.721 3059.083" layerid="1" stroke-width="0" /><circle c_etype="pad_hole" cx="4058.131" cy="3058" r="0" layerid="1" stroke-width="0"/></g><g c_partid="part_pad" c_etype="pinpart" c_origin="4054,3054.86" layerid="1" number="8" net="" plated ="Y"  id="gge26" locked="" c_rotation="90" c_width="2.16535" c_height="1.5748" title="" c_shape="RECT" pasteexpansion="0" solderexpansion="0.4"><polygon  c_etype="pad_shell" points="4053.213 3055.943 4053.213 3053.777 4054.787 3053.777 4054.787 3055.943" layerid="1" stroke-width="0" /><circle c_etype="pad_hole" cx="4054" cy="3054.86" r="0" layerid="1" stroke-width="0"/></g><g c_partid="part_pad" c_etype="pinpart" c_origin="4054,3097" layerid="1" number="1" net="" plated ="Y"  id="gge35" locked="" c_rotation="90" c_width="2.16535" c_height="1.5748" title="" c_shape="RECT" pasteexpansion="0" solderexpansion="0.4"><polygon  c_etype="pad_shell" points="4053.213 3098.083 4053.213 3095.917 4054.787 3095.917 4054.787 3098.083" layerid="1" stroke-width="0" /><circle c_etype="pad_hole" cx="4054" cy="3097" r="0" layerid="1" stroke-width="0"/></g><g c_partid="part_pad" c_etype="pinpart" c_origin="4060.3,3093.86" layerid="1" number="5" net="GND" plated ="Y"  id="gge38" locked="" c_rotation="90" c_width="2.16535" c_height="1.5748" title="GND" c_shape="RECT" pasteexpansion="0" solderexpansion="0.4"><polygon  c_etype="pad_shell" points="4059.513 3094.943 4059.513 3092.777 4061.087 3092.777 4061.087 3094.943" layerid="1" stroke-width="0" /><circle c_etype="pad_hole" cx="4060.3" cy="3093.86" r="0" layerid="1" stroke-width="0"/></g><g c_partid="part_pad" c_etype="pinpart" c_origin="4060.3,3097" layerid="1" number="4" net="R2_4" plated ="Y"  id="gge41" locked="" c_rotation="90" c_width="2.16535" c_height="1.5748" title="R2_4" c_shape="RECT" pasteexpansion="0" solderexpansion="0.4"><polygon  c_etype="pad_shell" points="4059.513 3098.083 4059.513 3095.917 4061.087 3095.917 4061.087 3098.083" layerid="1" stroke-width="0" /><circle c_etype="pad_hole" cx="4060.3" cy="3097" r="0" layerid="1" stroke-width="0"/></g><g c_partid="part_pad" c_etype="pinpart" c_origin="4056.171,3093.86" layerid="1" number="7" net="GND" plated ="Y"  id="gge44" locked="" c_rotation="90" c_width="2.16535" c_height="1.1811" title="GND" c_shape="RECT" pasteexpansion="0" solderexpansion="0.4"><polygon  c_etype="pad_shell" points="4055.58 3094.943 4055.58 3092.777 4056.761 3092.777 4056.761 3094.943" layerid="1" stroke-width="0" /><circle c_etype="pad_hole" cx="4056.171" cy="3093.86" r="0" layerid="1" stroke-width="0"/></g><g c_partid="part_pad" c_etype="pinpart" c_origin="4056.171,3097" layerid="1" number="2" net="R2_2" plated ="Y"  id="gge47" locked="" c_rotation="90" c_width="2.16535" c_height="1.1811" title="R2_2" c_shape="RECT" pasteexpansion="0" solderexpansion="0.4"><polygon  c_etype="pad_shell" points="4055.58 3098.083 4055.58 3095.917 4056.761 3095.917 4056.761 3098.083" layerid="1" stroke-width="0" /><circle c_etype="pad_hole" cx="4056.171" cy="3097" r="0" layerid="1" stroke-width="0"/></g><g c_partid="part_pad" c_etype="pinpart" c_origin="4058.131,3093.86" layerid="1" number="6" net="GND" plated ="Y"  id="gge50" locked="" c_rotation="90" c_width="2.16535" c_height="1.1811" title="GND" c_shape="RECT" pasteexpansion="0" solderexpansion="0.4"><polygon  c_etype="pad_shell" points="4057.54 3094.943 4057.54 3092.777 4058.721 3092.777 4058.721 3094.943" layerid="1" stroke-width="0" /><circle c_etype="pad_hole" cx="4058.131" cy="3093.86" r="0" layerid="1" stroke-width="0"/></g><g c_partid="part_pad" c_etype="pinpart" c_origin="4058.131,3097" layerid="1" number="3" net="R2_3" plated ="Y"  id="gge53" locked="" c_rotation="90" c_width="2.16535" c_height="1.1811" title="R2_3" c_shape="RECT" pasteexpansion="0" solderexpansion="0.4"><polygon  c_etype="pad_shell" points="4057.54 3098.083 4057.54 3095.917 4058.721 3095.917 4058.721 3098.083" layerid="1" stroke-width="0" /><circle c_etype="pad_hole" cx="4058.131" cy="3097" r="0" layerid="1" stroke-width="0"/></g><g c_partid="part_pad" c_etype="pinpart" c_origin="4054,3093.86" layerid="1" number="8" net="" plated ="Y"  id="gge56" locked="" c_rotation="90" c_width="2.16535" c_height="1.5748" title="" c_shape="RECT" pasteexpansion="0" solderexpansion="0.4"><polygon  c_etype="pad_shell" points="4053.213 3094.943 4053.213 3092.777 4054.787 3092.777 4054.787 3094.943" layerid="1" stroke-width="0" /><circle c_etype="pad_hole" cx="4054" cy="3093.86" r="0" layerid="1" stroke-width="0"/></g><g c_partid="part_pad" c_etype="pinpart" c_origin="4106.2,3077.9" layerid="1" number="1" net="R1_3" plated ="Y"  id="gge69" locked="" c_rotation="0" c_width="1.57" c_height="4.33" title="R1_3" c_shape="RECT" pasteexpansion="0" solderexpansion="0.4"><polygon  c_etype="pad_shell" points="4105.415 3075.735 4106.985 3075.735 4106.985 3080.065 4105.415 3080.065" layerid="1" stroke-width="0" /><circle c_etype="pad_hole" cx="4106.2" cy="3077.9" r="0" layerid="1" stroke-width="0"/></g><g c_partid="part_pad" c_etype="pinpart" c_origin="4108.7,3077.9" layerid="1" number="2" net="R1_4" plated ="Y"  id="gge72" locked="" c_rotation="0" c_width="1.57" c_height="4.33" title="R1_4" c_shape="RECT" pasteexpansion="0" solderexpansion="0.4"><polygon  c_etype="pad_shell" points="4107.915 3075.735 4109.485 3075.735 4109.485 3080.065 4107.915 3080.065" layerid="1" stroke-width="0" /><circle c_etype="pad_hole" cx="4108.7" cy="3077.9" r="0" layerid="1" stroke-width="0"/></g><g c_partid="part_pad" c_etype="pinpart" c_origin="4111.3,3077.9" layerid="1" number="3" net="U1_3" plated ="Y"  id="gge75" locked="" c_rotation="0" c_width="1.57" c_height="4.33" title="U1_3" c_shape="RECT" pasteexpansion="0" solderexpansion="0.4"><polygon  c_etype="pad_shell" points="4110.515 3075.735 4112.085 3075.735 4112.085 3080.065 4110.515 3080.065" layerid="1" stroke-width="0" /><circle c_etype="pad_hole" cx="4111.3" cy="3077.9" r="0" layerid="1" stroke-width="0"/></g><g c_partid="part_pad" c_etype="pinpart" c_origin="4113.8,3077.9" layerid="1" number="4" net="GND" plated ="Y"  id="gge78" locked="" c_rotation="0" c_width="1.57" c_height="4.33" title="GND" c_shape="RECT" pasteexpansion="0" solderexpansion="0.4"><polygon  c_etype="pad_shell" points="4113.015 3075.735 4114.585 3075.735 4114.585 3080.065 4113.015 3080.065" layerid="1" stroke-width="0" /><circle c_etype="pad_hole" cx="4113.8" cy="3077.9" r="0" layerid="1" stroke-width="0"/></g><g c_partid="part_pad" c_etype="pinpart" c_origin="4113.8,3060.1" layerid="1" number="5" net="R2_4" plated ="Y"  id="gge81" locked="" c_rotation="0" c_width="1.57" c_height="4.33" title="R2_4" c_shape="RECT" pasteexpansion="0" solderexpansion="0.4"><polygon  c_etype="pad_shell" points="4113.015 3057.935 4114.585 3057.935 4114.585 3062.265 4113.015 3062.265" layerid="1" stroke-width="0" /><circle c_etype="pad_hole" cx="4113.8" cy="3060.1" r="0" layerid="1" stroke-width="0"/></g><g c_partid="part_pad" c_etype="pinpart" c_origin="4111.3,3060.1" layerid="1" number="6" net="R2_3" plated ="Y"  id="gge84" locked="" c_rotation="0" c_width="1.57" c_height="4.33" title="R2_3" c_shape="RECT" pasteexpansion="0" solderexpansion="0.4"><polygon  c_etype="pad_shell" points="4110.515 3057.935 4112.085 3057.935 4112.085 3062.265 4110.515 3062.265" layerid="1" stroke-width="0" /><circle c_etype="pad_hole" cx="4111.3" cy="3060.1" r="0" layerid="1" stroke-width="0"/></g><g c_partid="part_pad" c_etype="pinpart" c_origin="4108.7,3060.1" layerid="1" number="7" net="R2_2" plated ="Y"  id="gge87" locked="" c_rotation="0" c_width="1.57" c_height="4.33" title="R2_2" c_shape="RECT" pasteexpansion="0" solderexpansion="0.4"><polygon  c_etype="pad_shell" points="4107.915 3057.935 4109.485 3057.935 4109.485 3062.265 4107.915 3062.265" layerid="1" stroke-width="0" /><circle c_etype="pad_hole" cx="4108.7" cy="3060.1" r="0" layerid="1" stroke-width="0"/></g><g c_partid="part_pad" c_etype="pinpart" c_origin="4106.2,3060.1" layerid="1" number="8" net="VCC" plated ="Y"  id="gge90" locked="" c_rotation="0" c_width="1.57" c_height="4.33" title="VCC" c_shape="RECT" pasteexpansion="0" solderexpansion="0.4"><polygon  c_etype="pad_shell" points="4105.415 3057.935 4106.985 3057.935 4106.985 3062.265 4105.415 3062.265" layerid="1" stroke-width="0" /><circle c_etype="pad_hole" cx="4106.2" cy="3060.1" r="0" layerid="1" stroke-width="0"/></g><g c_partid="part_pad" c_etype="pinpart" c_origin="4104.9,3121.2" layerid="1" number="+" net="VCC" plated ="Y"  id="gge113" locked="" c_rotation="90" c_width="11.81" c_height="23.62" title="VCC" c_shape="RECT" pasteexpansion="0" solderexpansion="0.4"><polygon  c_etype="pad_shell" points="4093.09 3127.105 4093.09 3115.295 4116.71 3115.295 4116.71 3127.105" layerid="1" stroke-width="0" /><circle c_etype="pad_hole" cx="4104.9" cy="3121.2" r="0" layerid="1" stroke-width="0"/></g><g c_partid="part_pad" c_etype="pinpart" c_origin="4104.9,3140.8" layerid="1" number="-" net="GND" plated ="Y"  id="gge116" locked="" c_rotation="90" c_width="11.81" c_height="23.62" title="GND" c_shape="RECT" pasteexpansion="0" solderexpansion="0.4"><polygon  c_etype="pad_shell" points="4093.09 3146.705 4093.09 3134.895 4116.71 3134.895 4116.71 3146.705" layerid="1" stroke-width="0" /><circle c_etype="pad_hole" cx="4104.9" cy="3140.8" r="0" layerid="1" stroke-width="0"/></g><g c_partid="part_via" c_etype="pinpart" c_shapetype="group" net="R2_4" c_origin="4063.11,3096.34" layerid="11" id="gge225" locked="" solderexpansion=""><circle cx="4063.11" cy="3096.34" r="1.200785" stroke-width="0" c_etype="pad_shell"/><circle cx="4063.11" cy="3096.34" r="0.6003925"  stroke-width="0" c_etype="pad_hole"/></g><g c_partid="part_via" c_etype="pinpart" c_shapetype="group" net="R2_4" c_origin="4111.09,3056.14" layerid="11" id="gge226" locked="" solderexpansion=""><circle cx="4111.09" cy="3056.14" r="1.200785" stroke-width="0" c_etype="pad_shell"/><circle cx="4111.09" cy="3056.14" r="0.6003925"  stroke-width="0" c_etype="pad_hole"/></g><g c_partid="part_via" c_etype="pinpart" c_shapetype="group" net="R2_3" c_origin="4065.72,3099.08" layerid="11" id="gge235" locked="" solderexpansion=""><circle cx="4065.72" cy="3099.08" r="1.200785" stroke-width="0" c_etype="pad_shell"/><circle cx="4065.72" cy="3099.08" r="0.6003925"  stroke-width="0" c_etype="pad_hole"/></g><g c_partid="part_via" c_etype="pinpart" c_shapetype="group" net="R2_3" c_origin="4108.63,3064.1" layerid="11" id="gge236" locked="" solderexpansion=""><circle cx="4108.63" cy="3064.1" r="1.200785" stroke-width="0" c_etype="pad_shell"/><circle cx="4108.63" cy="3064.1" r="0.6003925"  stroke-width="0" c_etype="pad_hole"/></g><polyline points="4062.071 3057.414 4062.071 3060.072 4052.229 3060.072 4052.229 3057.414" stroke-width="0.7874"  stroke-linecap="round" fill="none" layerid="3" net="" id="gge29" locked="" /><polyline points="4062.071 3055.446 4062.071 3052.788 4052.229 3052.788 4052.229 3055.446" stroke-width="0.7874"  stroke-linecap="round" fill="none" layerid="3" net="" id="gge30" locked="" /><polyline points="4062.071 3096.414 4062.071 3099.072 4052.229 3099.072 4052.229 3096.414" stroke-width="0.7874"  stroke-linecap="round" fill="none" layerid="3" net="" id="gge59" locked="" /><polyline points="4062.071 3094.446 4062.071 3091.788 4052.229 3091.788 4052.229 3094.446" stroke-width="0.7874"  stroke-linecap="round" fill="none" layerid="3" net="" id="gge60" locked="" /><polyline points="4114.9 3074.9 4105.2 3074.9" stroke-width="1"  stroke-linecap="round" fill="none" layerid="3" net="" id="gge65" locked="" /><polyline points="4105.2 3063.2 4114.9 3063.2" stroke-width="1"  stroke-linecap="round" fill="none" layerid="3" net="" id="gge66" locked="" /><polyline points="4104.2 3064.2 4104.2 3073.8" stroke-width="1"  stroke-linecap="round" fill="none" layerid="3" net="" id="gge67" locked="" /><polyline points="4115.8 3073.9 4115.8 3064.2" stroke-width="1"  stroke-linecap="round" fill="none" layerid="3" net="" id="gge68" locked="" /><polyline points="4118.7 3121.2 4122.6 3121.2" stroke-width="1"  stroke-linecap="round" fill="none" layerid="3" net="" id="gge105" locked="" /><polyline points="4120.7 3142.8 4120.7 3138.9" stroke-width="1"  stroke-linecap="round" fill="none" layerid="3" net="" id="gge106" locked="" /><polyline points="4120.7 3123.1 4120.7 3119.2" stroke-width="1"  stroke-linecap="round" fill="none" layerid="3" net="" id="gge107" locked="" /><polyline points="4116.7 3148.4 4116.7 3154.6" stroke-width="1"  stroke-linecap="round" fill="none" layerid="3" net="" id="gge108" locked="" /><polyline points="4116.7 3113.6 4116.7 3107.4" stroke-width="1"  stroke-linecap="round" fill="none" layerid="3" net="" id="gge110" locked="" /><polyline points="4116.7 3128.7 4116.7 3133.4" stroke-width="1"  stroke-linecap="round" fill="none" layerid="3" net="" id="gge111" locked="" /><polyline points="4207.3 3154.6 4207.3 3107.4" stroke-width="1"  stroke-linecap="round" fill="none" layerid="3" net="" id="gge112" locked="" /><g c_partid="part_pcbtext" c_etype="" c_origin="4057.15,3047.79" c_rotation="0" c_mirror="0" id="gge3" locked="" layerid="3" c_shapetype="group" ><path c_fontsize="4.5" c_fontfamily="" c_text="R1" d="M 4057.15 3045.33 L 4057.15 3049.63 M 4057.15 3045.33 L 4058.99 3045.33 L 4059.6 3045.54 L 4059.81 3045.74 L 4060.01 3046.15 L 4060.01 3046.56 L 4059.81 3046.97 L 4059.6 3047.17 L 4058.99 3047.38 L 4057.15 3047.38 M 4058.58 3047.38 L 4060.01 3049.63 M 4061.36 3046.15 L 4061.77 3045.95 L 4062.39 3045.33 L 4062.39 3049.63" fill="none"  stroke-width="0.7" c_note="note_pre" /></g><g c_partid="part_pcbtext" c_etype="" c_origin="4057.15,3039.79" c_rotation="0" c_mirror="false" id="rep2" locked="" layerid="3" c_shapetype="group" display="none"><path c_fontsize="4.5" c_fontfamily="" c_text="10KΩ" d="M 4057.15 3036.07L4057.56 3035.86 L4058.17 3035.25 L4058.17 3039.54 M 4060.75 3035.25L4060.14 3035.45 L4059.73 3036.07 L4059.52 3037.09 L4059.52 3037.7 L4059.73 3038.73 L4060.14 3039.34 L4060.75 3039.54 L4061.16 3039.54 L4061.77 3039.34 L4062.18 3038.73 L4062.39 3037.7 L4062.39 3037.09 L4062.18 3036.07 L4061.77 3035.45 L4061.16 3035.25 L4060.75 3035.25 M 4063.74 3035.25L4063.74 3039.54 M 4066.6 3035.25L4063.74 3038.11 M 4064.76 3037.09L4066.6 3039.54 " fill="none"  stroke-width="0.7" c_note="note_name" /></g><g c_partid="part_pcbtext" c_etype="" c_origin="4057.15,3086.79" c_rotation="0" c_mirror="0" id="gge33" locked="" layerid="3" c_shapetype="group" ><path c_fontsize="4.5" c_fontfamily="" c_text="R2" d="M 4057.15 3084.33 L 4057.15 3088.63 M 4057.15 3084.33 L 4058.99 3084.33 L 4059.6 3084.54 L 4059.81 3084.74 L 4060.01 3085.15 L 4060.01 3085.56 L 4059.81 3085.97 L 4059.6 3086.17 L 4058.99 3086.38 L 4057.15 3086.38 M 4058.58 3086.38 L 4060.01 3088.63 M 4061.57 3085.36 L 4061.57 3085.15 L 4061.77 3084.74 L 4061.98 3084.54 L 4062.39 3084.33 L 4063.2 3084.33 L 4063.61 3084.54 L 4063.82 3084.74 L 4064.02 3085.15 L 4064.02 3085.56 L 4063.82 3085.97 L 4063.41 3086.58 L 4061.36 3088.63 L 4064.23 3088.63" fill="none"  stroke-width="0.7" c_note="note_pre" /></g><g c_partid="part_pcbtext" c_etype="" c_origin="4057.15,3078.79" c_rotation="0" c_mirror="false" id="rep3" locked="" layerid="3" c_shapetype="group" display="none"><path c_fontsize="4.5" c_fontfamily="" c_text="10KΩ" d="M 4057.15 3075.07L4057.56 3074.86 L4058.17 3074.25 L4058.17 3078.54 M 4060.75 3074.25L4060.14 3074.45 L4059.73 3075.07 L4059.52 3076.09 L4059.52 3076.7 L4059.73 3077.73 L4060.14 3078.34 L4060.75 3078.54 L4061.16 3078.54 L4061.77 3078.34 L4062.18 3077.73 L4062.39 3076.7 L4062.39 3076.09 L4062.18 3075.07 L4061.77 3074.45 L4061.16 3074.25 L4060.75 3074.25 M 4063.74 3074.25L4063.74 3078.54 M 4066.6 3074.25L4063.74 3077.11 M 4064.76 3076.09L4066.6 3078.54 " fill="none"  stroke-width="0.7" c_note="note_name" /></g><g c_partid="part_pcbtext" c_etype="" c_origin="4110,3052.93" c_rotation="0" c_mirror="0" id="gge63" locked="" layerid="3" c_shapetype="group" ><path c_fontsize="4.5" c_fontfamily="" c_text="U1" d="M 4110 3050.48 L 4110 3053.55 L 4110.2 3054.16 L 4110.61 3054.57 L 4111.23 3054.78 L 4111.64 3054.78 L 4112.25 3054.57 L 4112.66 3054.16 L 4112.86 3053.55 L 4112.86 3050.48 M 4114.21 3051.3 L 4114.62 3051.09 L 4115.24 3050.48 L 4115.24 3054.78" fill="none"  stroke-width="0.7" c_note="note_pre" /></g><g c_partid="part_pcbtext" c_etype="" c_origin="4110,3044.93" c_rotation="0" c_mirror="false" id="rep4" locked="" layerid="3" c_shapetype="group" display="none"><path c_fontsize="4.5" c_fontfamily="" c_text="MCP9808-EMS" d="M 4110 3040.39L4110 3044.68 M 4110 3040.39L4111.64 3044.68 M 4113.27 3040.39L4111.64 3044.68 M 4113.27 3040.39L4113.27 3044.68 M 4117.69 3041.41L4117.49 3041 L4117.08 3040.59 L4116.67 3040.39 L4115.85 3040.39 L4115.44 3040.59 L4115.03 3041 L4114.83 3041.41 L4114.62 3042.03 L4114.62 3043.05 L4114.83 3043.66 L4115.03 3044.07 L4115.44 3044.48 L4115.85 3044.68 L4116.67 3044.68 L4117.08 3044.48 L4117.49 3044.07 L4117.69 3043.66 M 4119.04 3040.39L4119.04 3044.68 M 4119.04 3040.39L4120.88 3040.39 L4121.5 3040.59 L4121.7 3040.8 L4121.9 3041.21 L4121.9 3041.82 L4121.7 3042.23 L4121.5 3042.43 L4120.88 3042.64 L4119.04 3042.64 M 4125.91 3041.82L4125.71 3042.43 L4125.3 3042.84 L4124.69 3043.05 L4124.48 3043.05 L4123.87 3042.84 L4123.46 3042.43 L4123.25 3041.82 L4123.25 3041.62 L4123.46 3041 L4123.87 3040.59 L4124.48 3040.39 L4124.69 3040.39 L4125.3 3040.59 L4125.71 3041 L4125.91 3041.82 L4125.91 3042.84 L4125.71 3043.87 L4125.3 3044.48 L4124.69 3044.68 L4124.28 3044.68 L4123.66 3044.48 L4123.46 3044.07 M 4128.29 3040.39L4127.67 3040.59 L4127.47 3041 L4127.47 3041.41 L4127.67 3041.82 L4128.08 3042.03 L4128.9 3042.23 L4129.51 3042.43 L4129.92 3042.84 L4130.13 3043.25 L4130.13 3043.87 L4129.92 3044.28 L4129.72 3044.48 L4129.1 3044.68 L4128.29 3044.68 L4127.67 3044.48 L4127.47 3044.28 L4127.26 3043.87 L4127.26 3043.25 L4127.47 3042.84 L4127.88 3042.43 L4128.49 3042.23 L4129.31 3042.03 L4129.72 3041.82 L4129.92 3041.41 L4129.92 3041 L4129.72 3040.59 L4129.1 3040.39 L4128.29 3040.39 M 4132.7 3040.39L4132.09 3040.59 L4131.68 3041.21 L4131.48 3042.23 L4131.48 3042.84 L4131.68 3043.87 L4132.09 3044.48 L4132.7 3044.68 L4133.11 3044.68 L4133.73 3044.48 L4134.14 3043.87 L4134.34 3042.84 L4134.34 3042.23 L4134.14 3041.21 L4133.73 3040.59 L4133.11 3040.39 L4132.7 3040.39 M 4136.71 3040.39L4136.1 3040.59 L4135.9 3041 L4135.9 3041.41 L4136.1 3041.82 L4136.51 3042.03 L4137.33 3042.23 L4137.94 3042.43 L4138.35 3042.84 L4138.55 3043.25 L4138.55 3043.87 L4138.35 3044.28 L4138.15 3044.48 L4137.53 3044.68 L4136.71 3044.68 L4136.1 3044.48 L4135.9 3044.28 L4135.69 3043.87 L4135.69 3043.25 L4135.9 3042.84 L4136.3 3042.43 L4136.92 3042.23 L4137.74 3042.03 L4138.15 3041.82 L4138.35 3041.41 L4138.35 3041 L4138.15 3040.59 L4137.53 3040.39 L4136.71 3040.39 M 4139.9 3042.84L4143.59 3042.84 M 4144.94 3040.39L4144.94 3044.68 M 4144.94 3040.39L4147.6 3040.39 M 4144.94 3042.43L4146.57 3042.43 M 4144.94 3044.68L4147.6 3044.68 M 4148.95 3040.39L4148.95 3044.68 M 4148.95 3040.39L4150.58 3044.68 M 4152.22 3040.39L4150.58 3044.68 M 4152.22 3040.39L4152.22 3044.68 M 4156.43 3041L4156.02 3040.59 L4155.41 3040.39 L4154.59 3040.39 L4153.98 3040.59 L4153.57 3041 L4153.57 3041.41 L4153.77 3041.82 L4153.98 3042.03 L4154.39 3042.23 L4155.61 3042.64 L4156.02 3042.84 L4156.23 3043.05 L4156.43 3043.46 L4156.43 3044.07 L4156.02 3044.48 L4155.41 3044.68 L4154.59 3044.68 L4153.98 3044.48 L4153.57 3044.07 " fill="none"  stroke-width="0.7" c_note="note_name" /></g><g c_partid="part_pcbtext" c_etype="" c_origin="4088.09,3131" c_rotation="90" c_mirror="0" id="gge100" locked="" layerid="3" c_shapetype="group" ><path c_fontsize="4.5" c_fontfamily="" c_text="BAT1" d="M 4085.64 3131 L 4089.93 3131 M 4085.64 3131 L 4085.64 3129.16 L 4085.84 3128.55 L 4086.04 3128.34 L 4086.45 3128.14 L 4086.86 3128.14 L 4087.27 3128.34 L 4087.48 3128.55 L 4087.68 3129.16 M 4087.68 3131 L 4087.68 3129.16 L 4087.89 3128.55 L 4088.09 3128.34 L 4088.5 3128.14 L 4089.11 3128.14 L 4089.52 3128.34 L 4089.73 3128.55 L 4089.93 3129.16 L 4089.93 3131 M 4085.64 3125.15 L 4089.93 3126.79 M 4085.64 3125.15 L 4089.93 3123.51 M 4088.5 3126.17 L 4088.5 3124.13 M 4085.64 3120.73 L 4089.93 3120.73 M 4085.64 3122.16 L 4085.64 3119.3 M 4086.45 3117.95 L 4086.25 3117.54 L 4085.64 3116.93 L 4089.93 3116.93" fill="none"  stroke-width="0.7" c_note="note_pre" /></g><g c_partid="part_pcbtext" c_etype="" c_origin="4096.09,3131" c_rotation="90" c_mirror="false" id="rep5" locked="" layerid="3" c_shapetype="group" display="none"><path c_fontsize="4.5" c_fontfamily="" c_text="BATTERYLIPO-TABS" d="M 4091.55 3131L4095.84 3131 M 4091.55 3131L4091.55 3129.16 L4091.75 3128.55 L4091.96 3128.34 L4092.3700000000003 3128.1400000000003 L4092.78 3128.1400000000003 L4093.19 3128.34 L4093.3900000000003 3128.55 L4093.59 3129.16 M 4093.59 3131L4093.59 3129.16 L4093.8 3128.55 L4094 3128.34 L4094.4100000000003 3128.1400000000003 L4095.03 3128.1400000000003 L4095.44 3128.34 L4095.6400000000003 3128.55 L4095.84 3129.16 L4095.84 3131 M 4091.55 3125.1500000000005L4095.84 3126.79 M 4091.55 3125.1500000000005L4095.84 3123.51 M 4094.4100000000003 3126.17L4094.4100000000003 3124.13 M 4091.55 3120.7300000000005L4095.84 3120.7300000000005 M 4091.55 3122.16L4091.55 3119.3 M 4091.55 3116.5200000000004L4095.84 3116.5200000000004 M 4091.55 3117.95L4091.55 3115.09 M 4091.55 3113.74L4095.84 3113.74 M 4091.55 3113.74L4091.55 3111.08 M 4093.59 3113.74L4093.59 3112.1000000000004 M 4095.84 3113.74L4095.84 3111.08 M 4091.55 3109.7300000000005L4095.84 3109.7300000000005 M 4091.55 3109.7300000000005L4091.55 3107.8900000000003 L4091.75 3107.2700000000004 L4091.96 3107.0699999999997 L4092.3700000000003 3106.8600000000006 L4092.78 3106.8600000000006 L4093.19 3107.0699999999997 L4093.3900000000003 3107.2700000000004 L4093.59 3107.8900000000003 L4093.59 3109.7300000000005 M 4093.59 3108.3L4095.84 3106.8600000000006 M 4091.55 3105.51L4093.59 3103.88 L4095.84 3103.88 M 4091.55 3102.24L4093.59 3103.88 M 4091.55 3100.8900000000003L4095.84 3100.8900000000003 M 4095.84 3100.8900000000003L4095.84 3098.4400000000005 M 4091.55 3097.09L4095.84 3097.09 M 4091.55 3095.74L4095.84 3095.74 M 4091.55 3095.74L4091.55 3093.9000000000005 L4091.75 3093.2799999999997 L4091.96 3093.08 L4092.3700000000003 3092.87 L4092.98 3092.87 L4093.3900000000003 3093.08 L4093.59 3093.2799999999997 L4093.8 3093.9000000000005 L4093.8 3095.74 M 4091.55 3090.3L4091.75 3090.7 L4092.1600000000003 3091.1100000000006 L4092.57 3091.3199999999997 L4093.19 3091.5200000000004 L4094.21 3091.5200000000004 L4094.82 3091.3199999999997 L4095.23 3091.1100000000006 L4095.6400000000003 3090.7 L4095.84 3090.3 L4095.84 3089.4800000000005 L4095.6400000000003 3089.0699999999997 L4095.23 3088.66 L4094.82 3088.45 L4094.21 3088.25 L4093.19 3088.25 L4092.57 3088.45 L4092.1600000000003 3088.66 L4091.75 3089.0699999999997 L4091.55 3089.4800000000005 L4091.55 3090.3 M 4094 3086.9000000000005L4094 3083.2200000000003 M 4091.55 3080.4400000000005L4095.84 3080.4400000000005 M 4091.55 3081.87L4091.55 3079 M 4091.55 3076.0200000000004L4095.84 3077.6500000000005 M 4091.55 3076.0200000000004L4095.84 3074.38 M 4094.4100000000003 3077.04L4094.4100000000003 3075 M 4091.55 3073.0299999999997L4095.84 3073.0299999999997 M 4091.55 3073.0299999999997L4091.55 3071.1900000000005 L4091.75 3070.58 L4091.96 3070.37 L4092.3700000000003 3070.17 L4092.78 3070.17 L4093.19 3070.37 L4093.3900000000003 3070.58 L4093.59 3071.1900000000005 M 4093.59 3073.0299999999997L4093.59 3071.1900000000005 L4093.8 3070.58 L4094 3070.37 L4094.4100000000003 3070.17 L4095.03 3070.17 L4095.44 3070.37 L4095.6400000000003 3070.58 L4095.84 3071.1900000000005 L4095.84 3073.0299999999997 M 4092.1600000000003 3065.95L4091.75 3066.3600000000006 L4091.55 3066.9800000000005 L4091.55 3067.8 L4091.75 3068.41 L4092.1600000000003 3068.8199999999997 L4092.57 3068.8199999999997 L4092.98 3068.6100000000006 L4093.19 3068.41 L4093.3900000000003 3068 L4093.8 3066.7700000000004 L4094 3066.3600000000006 L4094.21 3066.16 L4094.6200000000003 3065.95 L4095.23 3065.95 L4095.6400000000003 3066.3600000000006 L4095.84 3066.9800000000005 L4095.84 3067.8 L4095.6400000000003 3068.41 L4095.23 3068.8199999999997 " fill="none"  stroke-width="0.7" c_note="note_name" /></g><path d="M 4104.1732 3064.1575 A 0.984 0.984 0 0 1 4105.1575 3063.1732" locked=""  fill="none" stroke-width="1" c_helper_type="arc2" net="" layerid="3" id="gge93" /><path d="M 4114.8425 3063.1732 A 0.984 0.984 0 0 1 4115.8268 3064.1575" locked=""  fill="none" stroke-width="1" c_helper_type="arc2" net="" layerid="3" id="gge94" /><path d="M 4114.8425 3074.8661 A 0.984 0.984 0 0 0 4115.8268 3073.8819" locked=""  fill="none" stroke-width="1" c_helper_type="arc2" net="" layerid="3" id="gge95" /><path d="M 4104.1732 3073.8819 A 0.984 0.984 0 0 0 4105.1575 3074.8661" locked=""  fill="none" stroke-width="1" c_helper_type="arc2" net="" layerid="3" id="gge96" /><circle cx="4107.4" cy="3071.6" r="1.3" stroke-width="1" fill="none" layerid="3" id="gge97" locked=""  /><polyline points="4050 3050 4210 3050 4210 3157 4050 3157 4050 3050" stroke-width="1"  stroke-linecap="round" fill="none" layerid="10" net="" id="gge119" locked="0" /></svg>