<?xml version="1.0" encoding="utf-8" standalone="no"?><svg xmlns="http://www.w3.org/2000/svg" xmlns:xlink="http://www.w3.org/1999/xlink" width="43.0784mm" height="43.0784mm" viewBox="3990 2990 169.6 169.6"><title>V1</title><style type="text/css">
path, polyline, polygon {stroke-linejoin:round;}
path, polyline, polygon, line {stroke-linecap:round;}
rect, circle, ellipse, polyline, polygon, line, path {shape-rendering:crispEdges;}
*[layerid="0"] {stroke:#FFFFFF; FILL:#FFFFFF;}*[layerid="1"] {stroke:#FF0000; fill:#FF0000;}*[layerid="2"] {stroke:#0000FF; fill:#0000FF;}*[layerid="3"] {stroke:#FFFF00; fill:#FFFF00;}*[layerid="4"] {stroke:#808000; fill:#808000;}*[layerid="5"] {stroke:#808080; fill:#808080;}*[layerid="6"] {stroke:#800000; fill:#800000;}*[layerid="7"] {stroke:#800080; fill:#800080;}*[layerid="8"] {stroke:#AA00FF; fill:#AA00FF;}*[layerid="9"] {display:none}*[layerid="10"] {stroke:#FF00FF; fill:#FF00FF;}*[layerid="11"] {stroke:#C0C0C0; fill:#C0C0C0;}*[layerid="12"] {stroke:#FFFFFF; fill:#FFFFFF;}*[layerid="13"] {stroke:#33CC99; fill:#33CC99;}*[layerid="14"] {stroke:#5555FF; fill:#5555FF;}*[layerid="15"] {stroke:#F022F0; fill:#F022F0;}*[layerid="16"] {stroke:#FFFFFF; FILL:#FFFFFF;}*[layerid="17"] {stroke:#FFFFFF; FILL:#FFFFFF;}*[layerid="18"] {stroke:#FFFFFF; FILL:#FFFFFF;}*[layerid="19"] {stroke:#66CCFF; fill:#66CCFF;}*[layerid="20"] {stroke:#FFFFFF; FILL:#FFFFFF;}*[layerid="21"] {stroke:#800000; fill:#800000;}*[layerid="22"] {stroke:#008000; fill:#008000;}*[layerid="23"] {stroke:#00FF00; fill:#00FF00;}*[layerid="24"] {stroke:#000080; fill:#000080;}*[fill="none"] {fill: none;}
*[stroke="none"] {stroke: none;}
g[c_partid="part_pad"] > * + circle {fill: #222222;}
g[c_partid="part_via"] > * + circle {fill: #222222;}
g[c_partid="part_pad"] > polyline:nth-of-type(2) {stroke: #222222;}g[c_partid="part_pad"][c_shape="ELLIPSE"]  polyline:nth-last-of-type(1) {stroke:#222222;}g[c_partid="part_pad"][c_shape="RECT"]  polyline:nth-last-of-type(1) {stroke:#222222;}g[c_partid="part_pad"][c_shape="POLYGON"]  polyline:nth-last-of-type(1) {stroke:#222222;}g[c_partid="part_pad"] > polygon[c_etype="pad_outer"], #gCurParts g[c_partid="part_pad"] > polygon[c_etype="pad_outer"] {stroke-linejoin: miter;stroke-miterlimit: 100;}</style>
<rect x="3990" y="2990" width="169.6" height="169.6" fill="#000000" stroke="none"/><g importFlag="0"><g><polyline points="4000 3000 4149.606 3000 4149.606 3149.606 4000 3149.606 4000 3000" stroke-width="1" c_shapetype="line" stroke-linecap="round" fill="none" layerid="10" locked=""/></g><g before-id="layer_other"><g c_origin="4011,3073" c_para="package`0402_X4`value`10K&#937;" c_partid="part_lib_gge1" locked="" c_shapetype="group" c_etype="pinpart" layerid="1" uuid="1a67d0d8f0cc47d5a94c3755e852872e" utime="1541683475"><g c_partid="part_pcbtext" c_etype="" c_origin="4014.15,3062.79" c_rotation="0" c_mirror="0" locked="" layerid="3" c_shapetype="group" style=""><path c_fontsize="4.5" c_fontfamily="" c_text="R1" d="M 4014.15 3060.33 L 4014.15 3064.63 M 4014.15 3060.33 L 4015.99 3060.33 L 4016.6 3060.54 L 4016.81 3060.74 L 4017.01 3061.15 L 4017.01 3061.56 L 4016.81 3061.97 L 4016.6 3062.17 L 4015.99 3062.38 L 4014.15 3062.38 M 4015.58 3062.38 L 4017.01 3064.63 M 4018.36 3061.15 L 4018.77 3060.95 L 4019.39 3060.33 L 4019.39 3064.63" fill="none" stroke-width="0.7" c_note="note_pre" style=""/></g><polyline points="4019.071 3072.414 4019.071 3075.072 4009.229 3075.072 4009.229 3072.414" stroke-width="0.7874" c_shapetype="line" stroke-linecap="round" fill="none" layerid="3" locked=""/><polyline points="4019.071 3070.446 4019.071 3067.788 4009.229 3067.788 4009.229 3070.446" stroke-width="0.7874" c_shapetype="line" stroke-linecap="round" fill="none" layerid="3" locked=""/><g c_partid="part_pcbtext" c_etype="" c_origin="4014.15,3054.79" c_rotation="0" c_mirror="false" locked="" layerid="3" c_shapetype="group" display="none" style=""><path c_fontsize="4.5" c_fontfamily="" c_text="10K&#937;" d="M 4014.15 3051.07L4014.56 3050.86 L4015.17 3050.25 L4015.17 3054.54 M 4017.75 3050.25L4017.14 3050.45 L4016.73 3051.07 L4016.52 3052.09 L4016.52 3052.7 L4016.73 3053.73 L4017.14 3054.34 L4017.75 3054.54 L4018.16 3054.54 L4018.77 3054.34 L4019.18 3053.73 L4019.39 3052.7 L4019.39 3052.09 L4019.18 3051.07 L4018.77 3050.45 L4018.16 3050.25 L4017.75 3050.25 M 4020.74 3050.25L4020.74 3054.54 M 4023.6 3050.25L4020.74 3053.11 M 4021.76 3052.09L4023.6 3054.54 " fill="none" stroke-width="0.7" c_note="note_name" style=""/></g><g c_partid="part_pad" c_etype="pinpart" c_origin="4011,3073" layerid="1" plated="Y" c_shapetype="group" locked="" c_rotation="90" c_width="2.16535" c_height="1.5748" c_shape="RECT" pasteexpansion="0" solderexpansion="0.4" before-id="gge8"><polygon points="4010.213 3074.083 4010.213 3071.917 4011.787 3071.917 4011.787 3074.083" layerid="7" stroke-width="0.8" c_etype="pad_outer"/><polygon points="4010.213 3074.083 4010.213 3071.917 4011.787 3071.917 4011.787 3074.083" layerid="5" stroke-width="0" c_etype="pad_outer"/><polygon c_etype="pad_shell" points="4010.213 3074.083 4010.213 3071.917 4011.787 3071.917 4011.787 3074.083" layerid="1" stroke-width="0" before-id="1"/><circle c_etype="pad_hole" cx="4011" cy="3073" r="0" layerid="1" stroke-width="0"/></g><g c_partid="part_pad" c_etype="pinpart" c_origin="4017.3,3069.86" layerid="1" plated="Y" c_shapetype="group" locked="" c_rotation="90" c_width="2.16535" c_height="1.5748" c_shape="RECT" pasteexpansion="0" solderexpansion="0.4" before-id="gge11"><polygon points="4016.513 3070.943 4016.513 3068.777 4018.087 3068.777 4018.087 3070.943" layerid="7" stroke-width="0.8" c_etype="pad_outer"/><polygon points="4016.513 3070.943 4016.513 3068.777 4018.087 3068.777 4018.087 3070.943" layerid="5" stroke-width="0" c_etype="pad_outer"/><polygon c_etype="pad_shell" points="4016.513 3070.943 4016.513 3068.777 4018.087 3068.777 4018.087 3070.943" layerid="1" stroke-width="0" before-id="1"/><circle c_etype="pad_hole" cx="4017.3" cy="3069.86" r="0" layerid="1" stroke-width="0"/></g><g c_partid="part_pad" c_etype="pinpart" c_origin="4017.3,3073" layerid="1" plated="Y" c_shapetype="group" locked="" c_rotation="90" c_width="2.16535" c_height="1.5748" c_shape="RECT" pasteexpansion="0" solderexpansion="0.4" before-id="gge14"><polygon points="4016.513 3074.083 4016.513 3071.917 4018.087 3071.917 4018.087 3074.083" layerid="7" stroke-width="0.8" c_etype="pad_outer"/><polygon points="4016.513 3074.083 4016.513 3071.917 4018.087 3071.917 4018.087 3074.083" layerid="5" stroke-width="0" c_etype="pad_outer"/><polygon c_etype="pad_shell" points="4016.513 3074.083 4016.513 3071.917 4018.087 3071.917 4018.087 3074.083" layerid="1" stroke-width="0" before-id="1"/><circle c_etype="pad_hole" cx="4017.3" cy="3073" r="0" layerid="1" stroke-width="0"/></g><g c_partid="part_pad" c_etype="pinpart" c_origin="4013.171,3069.86" layerid="1" plated="Y" c_shapetype="group" locked="" c_rotation="90" c_width="2.16535" c_height="1.1811" c_shape="RECT" pasteexpansion="0" solderexpansion="0.4" before-id="gge17"><polygon points="4012.58 3070.943 4012.58 3068.777 4013.761 3068.777 4013.761 3070.943" layerid="7" stroke-width="0.8" c_etype="pad_outer"/><polygon points="4012.58 3070.943 4012.58 3068.777 4013.761 3068.777 4013.761 3070.943" layerid="5" stroke-width="0" c_etype="pad_outer"/><polygon c_etype="pad_shell" points="4012.58 3070.943 4012.58 3068.777 4013.761 3068.777 4013.761 3070.943" layerid="1" stroke-width="0" before-id="1"/><circle c_etype="pad_hole" cx="4013.171" cy="3069.86" r="0" layerid="1" stroke-width="0"/></g><g c_partid="part_pad" c_etype="pinpart" c_origin="4013.171,3073" layerid="1" plated="Y" c_shapetype="group" locked="" c_rotation="90" c_width="2.16535" c_height="1.1811" c_shape="RECT" pasteexpansion="0" solderexpansion="0.4" before-id="gge20"><polygon points="4012.58 3074.083 4012.58 3071.917 4013.761 3071.917 4013.761 3074.083" layerid="7" stroke-width="0.8" c_etype="pad_outer"/><polygon points="4012.58 3074.083 4012.58 3071.917 4013.761 3071.917 4013.761 3074.083" layerid="5" stroke-width="0" c_etype="pad_outer"/><polygon c_etype="pad_shell" points="4012.58 3074.083 4012.58 3071.917 4013.761 3071.917 4013.761 3074.083" layerid="1" stroke-width="0" before-id="1"/><circle c_etype="pad_hole" cx="4013.171" cy="3073" r="0" layerid="1" stroke-width="0"/></g><g c_partid="part_pad" c_etype="pinpart" c_origin="4015.131,3069.86" layerid="1" plated="Y" c_shapetype="group" locked="" c_rotation="90" c_width="2.16535" c_height="1.1811" c_shape="RECT" pasteexpansion="0" solderexpansion="0.4" before-id="gge23"><polygon points="4014.54 3070.943 4014.54 3068.777 4015.721 3068.777 4015.721 3070.943" layerid="7" stroke-width="0.8" c_etype="pad_outer"/><polygon points="4014.54 3070.943 4014.54 3068.777 4015.721 3068.777 4015.721 3070.943" layerid="5" stroke-width="0" c_etype="pad_outer"/><polygon c_etype="pad_shell" points="4014.54 3070.943 4014.54 3068.777 4015.721 3068.777 4015.721 3070.943" layerid="1" stroke-width="0" before-id="1"/><circle c_etype="pad_hole" cx="4015.131" cy="3069.86" r="0" layerid="1" stroke-width="0"/></g><g c_partid="part_pad" c_etype="pinpart" c_origin="4015.131,3073" layerid="1" plated="Y" c_shapetype="group" locked="" c_rotation="90" c_width="2.16535" c_height="1.1811" c_shape="RECT" pasteexpansion="0" solderexpansion="0.4" before-id="gge26"><polygon points="4014.54 3074.083 4014.54 3071.917 4015.721 3071.917 4015.721 3074.083" layerid="7" stroke-width="0.8" c_etype="pad_outer"/><polygon points="4014.54 3074.083 4014.54 3071.917 4015.721 3071.917 4015.721 3074.083" layerid="5" stroke-width="0" c_etype="pad_outer"/><polygon c_etype="pad_shell" points="4014.54 3074.083 4014.54 3071.917 4015.721 3071.917 4015.721 3074.083" layerid="1" stroke-width="0" before-id="1"/><circle c_etype="pad_hole" cx="4015.131" cy="3073" r="0" layerid="1" stroke-width="0"/></g><g c_partid="part_pad" c_etype="pinpart" c_origin="4011,3069.86" layerid="1" plated="Y" c_shapetype="group" locked="" c_rotation="90" c_width="2.16535" c_height="1.5748" c_shape="RECT" pasteexpansion="0" solderexpansion="0.4" before-id="gge29"><polygon points="4010.213 3070.943 4010.213 3068.777 4011.787 3068.777 4011.787 3070.943" layerid="7" stroke-width="0.8" c_etype="pad_outer"/><polygon points="4010.213 3070.943 4010.213 3068.777 4011.787 3068.777 4011.787 3070.943" layerid="5" stroke-width="0" c_etype="pad_outer"/><polygon c_etype="pad_shell" points="4010.213 3070.943 4010.213 3068.777 4011.787 3068.777 4011.787 3070.943" layerid="1" stroke-width="0" before-id="1"/><circle c_etype="pad_hole" cx="4011" cy="3069.86" r="0" layerid="1" stroke-width="0"/></g></g><g c_origin="4055,3037" c_para="package`0402_X4`value`10K&#937;" c_partid="part_lib_gge31" locked="" c_shapetype="group" c_etype="pinpart" layerid="1" uuid="1a67d0d8f0cc47d5a94c3755e852872e" utime="1541683475"><g c_partid="part_pcbtext" c_etype="" c_origin="4058.15,3026.79" c_rotation="0" c_mirror="0" locked="" layerid="3" c_shapetype="group" style=""><path c_fontsize="4.5" c_fontfamily="" c_text="R2" d="M 4058.15 3024.33 L 4058.15 3028.63 M 4058.15 3024.33 L 4059.99 3024.33 L 4060.6 3024.54 L 4060.81 3024.74 L 4061.01 3025.15 L 4061.01 3025.56 L 4060.81 3025.97 L 4060.6 3026.17 L 4059.99 3026.38 L 4058.15 3026.38 M 4059.58 3026.38 L 4061.01 3028.63 M 4062.57 3025.36 L 4062.57 3025.15 L 4062.77 3024.74 L 4062.98 3024.54 L 4063.39 3024.33 L 4064.2 3024.33 L 4064.61 3024.54 L 4064.82 3024.74 L 4065.02 3025.15 L 4065.02 3025.56 L 4064.82 3025.97 L 4064.41 3026.58 L 4062.36 3028.63 L 4065.23 3028.63" fill="none" stroke-width="0.7" c_note="note_pre" style=""/></g><polyline points="4063.071 3036.414 4063.071 3039.072 4053.229 3039.072 4053.229 3036.414" stroke-width="0.7874" c_shapetype="line" stroke-linecap="round" fill="none" layerid="3" locked=""/><polyline points="4063.071 3034.446 4063.071 3031.788 4053.229 3031.788 4053.229 3034.446" stroke-width="0.7874" c_shapetype="line" stroke-linecap="round" fill="none" layerid="3" locked=""/><g c_partid="part_pcbtext" c_etype="" c_origin="4058.15,3018.79" c_rotation="0" c_mirror="false" locked="" layerid="3" c_shapetype="group" display="none" style=""><path c_fontsize="4.5" c_fontfamily="" c_text="10K&#937;" d="M 4058.15 3015.07L4058.56 3014.86 L4059.17 3014.25 L4059.17 3018.54 M 4061.75 3014.25L4061.14 3014.45 L4060.73 3015.07 L4060.52 3016.09 L4060.52 3016.7 L4060.73 3017.73 L4061.14 3018.34 L4061.75 3018.54 L4062.16 3018.54 L4062.77 3018.34 L4063.18 3017.73 L4063.39 3016.7 L4063.39 3016.09 L4063.18 3015.07 L4062.77 3014.45 L4062.16 3014.25 L4061.75 3014.25 M 4064.74 3014.25L4064.74 3018.54 M 4067.6 3014.25L4064.74 3017.11 M 4065.76 3016.09L4067.6 3018.54 " fill="none" stroke-width="0.7" c_note="note_name" style=""/></g><g c_partid="part_pad" c_etype="pinpart" c_origin="4055,3037" layerid="1" plated="Y" c_shapetype="group" locked="" c_rotation="90" c_width="2.16535" c_height="1.5748" c_shape="RECT" pasteexpansion="0" solderexpansion="0.4" before-id="gge38"><polygon points="4054.213 3038.083 4054.213 3035.917 4055.787 3035.917 4055.787 3038.083" layerid="7" stroke-width="0.8" c_etype="pad_outer"/><polygon points="4054.213 3038.083 4054.213 3035.917 4055.787 3035.917 4055.787 3038.083" layerid="5" stroke-width="0" c_etype="pad_outer"/><polygon c_etype="pad_shell" points="4054.213 3038.083 4054.213 3035.917 4055.787 3035.917 4055.787 3038.083" layerid="1" stroke-width="0" before-id="1"/><circle c_etype="pad_hole" cx="4055" cy="3037" r="0" layerid="1" stroke-width="0"/></g><g c_partid="part_pad" c_etype="pinpart" c_origin="4061.3,3033.86" layerid="1" plated="Y" c_shapetype="group" locked="" c_rotation="90" c_width="2.16535" c_height="1.5748" c_shape="RECT" pasteexpansion="0" solderexpansion="0.4" before-id="gge41"><polygon points="4060.513 3034.943 4060.513 3032.777 4062.087 3032.777 4062.087 3034.943" layerid="7" stroke-width="0.8" c_etype="pad_outer"/><polygon points="4060.513 3034.943 4060.513 3032.777 4062.087 3032.777 4062.087 3034.943" layerid="5" stroke-width="0" c_etype="pad_outer"/><polygon c_etype="pad_shell" points="4060.513 3034.943 4060.513 3032.777 4062.087 3032.777 4062.087 3034.943" layerid="1" stroke-width="0" before-id="1"/><circle c_etype="pad_hole" cx="4061.3" cy="3033.86" r="0" layerid="1" stroke-width="0"/></g><g c_partid="part_pad" c_etype="pinpart" c_origin="4061.3,3037" layerid="1" plated="Y" c_shapetype="group" locked="" c_rotation="90" c_width="2.16535" c_height="1.5748" c_shape="RECT" pasteexpansion="0" solderexpansion="0.4" before-id="gge44"><polygon points="4060.513 3038.083 4060.513 3035.917 4062.087 3035.917 4062.087 3038.083" layerid="7" stroke-width="0.8" c_etype="pad_outer"/><polygon points="4060.513 3038.083 4060.513 3035.917 4062.087 3035.917 4062.087 3038.083" layerid="5" stroke-width="0" c_etype="pad_outer"/><polygon c_etype="pad_shell" points="4060.513 3038.083 4060.513 3035.917 4062.087 3035.917 4062.087 3038.083" layerid="1" stroke-width="0" before-id="1"/><circle c_etype="pad_hole" cx="4061.3" cy="3037" r="0" layerid="1" stroke-width="0"/></g><g c_partid="part_pad" c_etype="pinpart" c_origin="4057.171,3033.86" layerid="1" plated="Y" c_shapetype="group" locked="" c_rotation="90" c_width="2.16535" c_height="1.1811" c_shape="RECT" pasteexpansion="0" solderexpansion="0.4" before-id="gge47"><polygon points="4056.58 3034.943 4056.58 3032.777 4057.761 3032.777 4057.761 3034.943" layerid="7" stroke-width="0.8" c_etype="pad_outer"/><polygon points="4056.58 3034.943 4056.58 3032.777 4057.761 3032.777 4057.761 3034.943" layerid="5" stroke-width="0" c_etype="pad_outer"/><polygon c_etype="pad_shell" points="4056.58 3034.943 4056.58 3032.777 4057.761 3032.777 4057.761 3034.943" layerid="1" stroke-width="0" before-id="1"/><circle c_etype="pad_hole" cx="4057.171" cy="3033.86" r="0" layerid="1" stroke-width="0"/></g><g c_partid="part_pad" c_etype="pinpart" c_origin="4057.171,3037" layerid="1" plated="Y" c_shapetype="group" locked="" c_rotation="90" c_width="2.16535" c_height="1.1811" c_shape="RECT" pasteexpansion="0" solderexpansion="0.4" before-id="gge50"><polygon points="4056.58 3038.083 4056.58 3035.917 4057.761 3035.917 4057.761 3038.083" layerid="7" stroke-width="0.8" c_etype="pad_outer"/><polygon points="4056.58 3038.083 4056.58 3035.917 4057.761 3035.917 4057.761 3038.083" layerid="5" stroke-width="0" c_etype="pad_outer"/><polygon c_etype="pad_shell" points="4056.58 3038.083 4056.58 3035.917 4057.761 3035.917 4057.761 3038.083" layerid="1" stroke-width="0" before-id="1"/><circle c_etype="pad_hole" cx="4057.171" cy="3037" r="0" layerid="1" stroke-width="0"/></g><g c_partid="part_pad" c_etype="pinpart" c_origin="4059.131,3033.86" layerid="1" plated="Y" c_shapetype="group" locked="" c_rotation="90" c_width="2.16535" c_height="1.1811" c_shape="RECT" pasteexpansion="0" solderexpansion="0.4" before-id="gge53"><polygon points="4058.54 3034.943 4058.54 3032.777 4059.721 3032.777 4059.721 3034.943" layerid="7" stroke-width="0.8" c_etype="pad_outer"/><polygon points="4058.54 3034.943 4058.54 3032.777 4059.721 3032.777 4059.721 3034.943" layerid="5" stroke-width="0" c_etype="pad_outer"/><polygon c_etype="pad_shell" points="4058.54 3034.943 4058.54 3032.777 4059.721 3032.777 4059.721 3034.943" layerid="1" stroke-width="0" before-id="1"/><circle c_etype="pad_hole" cx="4059.131" cy="3033.86" r="0" layerid="1" stroke-width="0"/></g><g c_partid="part_pad" c_etype="pinpart" c_origin="4059.131,3037" layerid="1" plated="Y" c_shapetype="group" locked="" c_rotation="90" c_width="2.16535" c_height="1.1811" c_shape="RECT" pasteexpansion="0" solderexpansion="0.4" before-id="gge56"><polygon points="4058.54 3038.083 4058.54 3035.917 4059.721 3035.917 4059.721 3038.083" layerid="7" stroke-width="0.8" c_etype="pad_outer"/><polygon points="4058.54 3038.083 4058.54 3035.917 4059.721 3035.917 4059.721 3038.083" layerid="5" stroke-width="0" c_etype="pad_outer"/><polygon c_etype="pad_shell" points="4058.54 3038.083 4058.54 3035.917 4059.721 3035.917 4059.721 3038.083" layerid="1" stroke-width="0" before-id="1"/><circle c_etype="pad_hole" cx="4059.131" cy="3037" r="0" layerid="1" stroke-width="0"/></g><g c_partid="part_pad" c_etype="pinpart" c_origin="4055,3033.86" layerid="1" plated="Y" c_shapetype="group" locked="" c_rotation="90" c_width="2.16535" c_height="1.5748" c_shape="RECT" pasteexpansion="0" solderexpansion="0.4" before-id="gge59"><polygon points="4054.213 3034.943 4054.213 3032.777 4055.787 3032.777 4055.787 3034.943" layerid="7" stroke-width="0.8" c_etype="pad_outer"/><polygon points="4054.213 3034.943 4054.213 3032.777 4055.787 3032.777 4055.787 3034.943" layerid="5" stroke-width="0" c_etype="pad_outer"/><polygon c_etype="pad_shell" points="4054.213 3034.943 4054.213 3032.777 4055.787 3032.777 4055.787 3034.943" layerid="1" stroke-width="0" before-id="1"/><circle c_etype="pad_hole" cx="4055" cy="3033.86" r="0" layerid="1" stroke-width="0"/></g></g><g c_origin="4022,3021" c_para="package`MSOP8`value`MCP9808-EMS" c_partid="part_lib_gge61" locked="" c_shapetype="group" c_etype="pinpart" layerid="1" uuid="11d3cdd34a4f43cfae68d3c4c36c3505" utime="1541685254"><g c_partid="part_pcbtext" c_etype="" c_origin="4022,3004.93" c_rotation="0" c_mirror="0" locked="" layerid="3" c_shapetype="group" style=""><path c_fontsize="4.5" c_fontfamily="" c_text="U1" d="M 4022 3002.48 L 4022 3005.55 L 4022.2 3006.16 L 4022.61 3006.57 L 4023.23 3006.78 L 4023.64 3006.78 L 4024.25 3006.57 L 4024.66 3006.16 L 4024.86 3005.55 L 4024.86 3002.48 M 4026.21 3003.3 L 4026.62 3003.09 L 4027.24 3002.48 L 4027.24 3006.78" fill="none" stroke-width="0.7" c_note="note_pre" style=""/></g><polyline points="4026.9 3026.9 4017.2 3026.9" stroke-width="1" c_shapetype="line" stroke-linecap="round" fill="none" layerid="3" locked=""/><polyline points="4017.2 3015.2 4026.9 3015.2" stroke-width="1" c_shapetype="line" stroke-linecap="round" fill="none" layerid="3" locked=""/><polyline points="4016.2 3016.2 4016.2 3025.8" stroke-width="1" c_shapetype="line" stroke-linecap="round" fill="none" layerid="3" locked=""/><polyline points="4027.8 3025.9 4027.8 3016.2" stroke-width="1" c_shapetype="line" stroke-linecap="round" fill="none" layerid="3" locked=""/><path d="M 4016.1732 3016.1575 A 0.984 0.984 0 0 1 4017.1575 3015.1732" locked="" c_shapetype="line" fill="none" stroke-width="1" c_helper_type="arc2" layerid="3"/><path d="M 4026.8425 3015.1732 A 0.984 0.984 0 0 1 4027.8268 3016.1575" locked="" c_shapetype="line" fill="none" stroke-width="1" c_helper_type="arc2" layerid="3"/><path d="M 4026.8425 3026.8661 A 0.984 0.984 0 0 0 4027.8268 3025.8819" locked="" c_shapetype="line" fill="none" stroke-width="1" c_helper_type="arc2" layerid="3"/><path d="M 4016.1732 3025.8819 A 0.984 0.984 0 0 0 4017.1575 3026.8661" locked="" c_shapetype="line" fill="none" stroke-width="1" c_helper_type="arc2" layerid="3"/><circle cx="4019.4" cy="3023.6" r="1.3" stroke-width="1" fill="none" layerid="3" locked="" c_shapetype="line"/><g c_partid="part_pcbtext" c_etype="" c_origin="4022,2996.93" c_rotation="0" c_mirror="false" locked="" layerid="3" c_shapetype="group" display="none" style=""><path c_fontsize="4.5" c_fontfamily="" c_text="MCP9808-EMS" d="M 4022 2992.39L4022 2996.68 M 4022 2992.39L4023.64 2996.68 M 4025.27 2992.39L4023.64 2996.68 M 4025.27 2992.39L4025.27 2996.68 M 4029.69 2993.41L4029.49 2993 L4029.08 2992.59 L4028.67 2992.39 L4027.85 2992.39 L4027.44 2992.59 L4027.03 2993 L4026.83 2993.41 L4026.62 2994.03 L4026.62 2995.05 L4026.83 2995.66 L4027.03 2996.07 L4027.44 2996.48 L4027.85 2996.68 L4028.67 2996.68 L4029.08 2996.48 L4029.49 2996.07 L4029.69 2995.66 M 4031.04 2992.39L4031.04 2996.68 M 4031.04 2992.39L4032.88 2992.39 L4033.5 2992.59 L4033.7 2992.8 L4033.9 2993.21 L4033.9 2993.82 L4033.7 2994.23 L4033.5 2994.43 L4032.88 2994.64 L4031.04 2994.64 M 4037.91 2993.82L4037.71 2994.43 L4037.3 2994.84 L4036.69 2995.05 L4036.48 2995.05 L4035.87 2994.84 L4035.46 2994.43 L4035.25 2993.82 L4035.25 2993.62 L4035.46 2993 L4035.87 2992.59 L4036.48 2992.39 L4036.69 2992.39 L4037.3 2992.59 L4037.71 2993 L4037.91 2993.82 L4037.91 2994.84 L4037.71 2995.87 L4037.3 2996.48 L4036.69 2996.68 L4036.28 2996.68 L4035.66 2996.48 L4035.46 2996.07 M 4040.29 2992.39L4039.67 2992.59 L4039.47 2993 L4039.47 2993.41 L4039.67 2993.82 L4040.08 2994.03 L4040.9 2994.23 L4041.51 2994.43 L4041.92 2994.84 L4042.13 2995.25 L4042.13 2995.87 L4041.92 2996.28 L4041.72 2996.48 L4041.1 2996.68 L4040.29 2996.68 L4039.67 2996.48 L4039.47 2996.28 L4039.26 2995.87 L4039.26 2995.25 L4039.47 2994.84 L4039.88 2994.43 L4040.49 2994.23 L4041.31 2994.03 L4041.72 2993.82 L4041.92 2993.41 L4041.92 2993 L4041.72 2992.59 L4041.1 2992.39 L4040.29 2992.39 M 4044.7 2992.39L4044.09 2992.59 L4043.68 2993.21 L4043.48 2994.23 L4043.48 2994.84 L4043.68 2995.87 L4044.09 2996.48 L4044.7 2996.68 L4045.11 2996.68 L4045.73 2996.48 L4046.14 2995.87 L4046.34 2994.84 L4046.34 2994.23 L4046.14 2993.21 L4045.73 2992.59 L4045.11 2992.39 L4044.7 2992.39 M 4048.71 2992.39L4048.1 2992.59 L4047.9 2993 L4047.9 2993.41 L4048.1 2993.82 L4048.51 2994.03 L4049.33 2994.23 L4049.94 2994.43 L4050.35 2994.84 L4050.55 2995.25 L4050.55 2995.87 L4050.35 2996.28 L4050.15 2996.48 L4049.53 2996.68 L4048.71 2996.68 L4048.1 2996.48 L4047.9 2996.28 L4047.69 2995.87 L4047.69 2995.25 L4047.9 2994.84 L4048.3 2994.43 L4048.92 2994.23 L4049.74 2994.03 L4050.15 2993.82 L4050.35 2993.41 L4050.35 2993 L4050.15 2992.59 L4049.53 2992.39 L4048.71 2992.39 M 4051.9 2994.84L4055.59 2994.84 M 4056.94 2992.39L4056.94 2996.68 M 4056.94 2992.39L4059.6 2992.39 M 4056.94 2994.43L4058.57 2994.43 M 4056.94 2996.68L4059.6 2996.68 M 4060.95 2992.39L4060.95 2996.68 M 4060.95 2992.39L4062.58 2996.68 M 4064.22 2992.39L4062.58 2996.68 M 4064.22 2992.39L4064.22 2996.68 M 4068.43 2993L4068.02 2992.59 L4067.41 2992.39 L4066.59 2992.39 L4065.98 2992.59 L4065.57 2993 L4065.57 2993.41 L4065.77 2993.82 L4065.98 2994.03 L4066.39 2994.23 L4067.61 2994.64 L4068.02 2994.84 L4068.23 2995.05 L4068.43 2995.46 L4068.43 2996.07 L4068.02 2996.48 L4067.41 2996.68 L4066.59 2996.68 L4065.98 2996.48 L4065.57 2996.07 " fill="none" stroke-width="0.7" c_note="note_name" style=""/></g><g c_partid="part_pad" c_etype="pinpart" c_origin="4018.2,3029.9" layerid="1" plated="Y" c_shapetype="group" locked="" c_rotation="0" c_width="1.57" c_height="4.33" c_shape="RECT" pasteexpansion="0" solderexpansion="0.4" before-id="gge72"><polygon points="4017.415 3027.735 4018.985 3027.735 4018.985 3032.065 4017.415 3032.065" layerid="7" stroke-width="0.8" c_etype="pad_outer"/><polygon points="4017.415 3027.735 4018.985 3027.735 4018.985 3032.065 4017.415 3032.065" layerid="5" stroke-width="0" c_etype="pad_outer"/><polygon c_etype="pad_shell" points="4017.415 3027.735 4018.985 3027.735 4018.985 3032.065 4017.415 3032.065" layerid="1" stroke-width="0" before-id="1"/><circle c_etype="pad_hole" cx="4018.2" cy="3029.9" r="0" layerid="1" stroke-width="0"/></g><g c_partid="part_pad" c_etype="pinpart" c_origin="4020.7,3029.9" layerid="1" plated="Y" c_shapetype="group" locked="" c_rotation="0" c_width="1.57" c_height="4.33" c_shape="RECT" pasteexpansion="0" solderexpansion="0.4" before-id="gge75"><polygon points="4019.915 3027.735 4021.485 3027.735 4021.485 3032.065 4019.915 3032.065" layerid="7" stroke-width="0.8" c_etype="pad_outer"/><polygon points="4019.915 3027.735 4021.485 3027.735 4021.485 3032.065 4019.915 3032.065" layerid="5" stroke-width="0" c_etype="pad_outer"/><polygon c_etype="pad_shell" points="4019.915 3027.735 4021.485 3027.735 4021.485 3032.065 4019.915 3032.065" layerid="1" stroke-width="0" before-id="1"/><circle c_etype="pad_hole" cx="4020.7" cy="3029.9" r="0" layerid="1" stroke-width="0"/></g><g c_partid="part_pad" c_etype="pinpart" c_origin="4023.3,3029.9" layerid="1" plated="Y" c_shapetype="group" locked="" c_rotation="0" c_width="1.57" c_height="4.33" c_shape="RECT" pasteexpansion="0" solderexpansion="0.4" before-id="gge78"><polygon points="4022.515 3027.735 4024.085 3027.735 4024.085 3032.065 4022.515 3032.065" layerid="7" stroke-width="0.8" c_etype="pad_outer"/><polygon points="4022.515 3027.735 4024.085 3027.735 4024.085 3032.065 4022.515 3032.065" layerid="5" stroke-width="0" c_etype="pad_outer"/><polygon c_etype="pad_shell" points="4022.515 3027.735 4024.085 3027.735 4024.085 3032.065 4022.515 3032.065" layerid="1" stroke-width="0" before-id="1"/><circle c_etype="pad_hole" cx="4023.3" cy="3029.9" r="0" layerid="1" stroke-width="0"/></g><g c_partid="part_pad" c_etype="pinpart" c_origin="4025.8,3029.9" layerid="1" plated="Y" c_shapetype="group" locked="" c_rotation="0" c_width="1.57" c_height="4.33" c_shape="RECT" pasteexpansion="0" solderexpansion="0.4" before-id="gge81"><polygon points="4025.015 3027.735 4026.585 3027.735 4026.585 3032.065 4025.015 3032.065" layerid="7" stroke-width="0.8" c_etype="pad_outer"/><polygon points="4025.015 3027.735 4026.585 3027.735 4026.585 3032.065 4025.015 3032.065" layerid="5" stroke-width="0" c_etype="pad_outer"/><polygon c_etype="pad_shell" points="4025.015 3027.735 4026.585 3027.735 4026.585 3032.065 4025.015 3032.065" layerid="1" stroke-width="0" before-id="1"/><circle c_etype="pad_hole" cx="4025.8" cy="3029.9" r="0" layerid="1" stroke-width="0"/></g><g c_partid="part_pad" c_etype="pinpart" c_origin="4025.8,3012.1" layerid="1" plated="Y" c_shapetype="group" locked="" c_rotation="0" c_width="1.57" c_height="4.33" c_shape="RECT" pasteexpansion="0" solderexpansion="0.4" before-id="gge84"><polygon points="4025.015 3009.935 4026.585 3009.935 4026.585 3014.265 4025.015 3014.265" layerid="7" stroke-width="0.8" c_etype="pad_outer"/><polygon points="4025.015 3009.935 4026.585 3009.935 4026.585 3014.265 4025.015 3014.265" layerid="5" stroke-width="0" c_etype="pad_outer"/><polygon c_etype="pad_shell" points="4025.015 3009.935 4026.585 3009.935 4026.585 3014.265 4025.015 3014.265" layerid="1" stroke-width="0" before-id="1"/><circle c_etype="pad_hole" cx="4025.8" cy="3012.1" r="0" layerid="1" stroke-width="0"/><title>R2_4</title></g><g c_partid="part_pad" c_etype="pinpart" c_origin="4023.3,3012.1" layerid="1" plated="Y" c_shapetype="group" locked="" c_rotation="0" c_width="1.57" c_height="4.33" c_shape="RECT" pasteexpansion="0" solderexpansion="0.4" before-id="gge87"><polygon points="4022.515 3009.935 4024.085 3009.935 4024.085 3014.265 4022.515 3014.265" layerid="7" stroke-width="0.8" c_etype="pad_outer"/><polygon points="4022.515 3009.935 4024.085 3009.935 4024.085 3014.265 4022.515 3014.265" layerid="5" stroke-width="0" c_etype="pad_outer"/><polygon c_etype="pad_shell" points="4022.515 3009.935 4024.085 3009.935 4024.085 3014.265 4022.515 3014.265" layerid="1" stroke-width="0" before-id="1"/><circle c_etype="pad_hole" cx="4023.3" cy="3012.1" r="0" layerid="1" stroke-width="0"/></g><g c_partid="part_pad" c_etype="pinpart" c_origin="4020.7,3012.1" layerid="1" plated="Y" c_shapetype="group" locked="" c_rotation="0" c_width="1.57" c_height="4.33" c_shape="RECT" pasteexpansion="0" solderexpansion="0.4" before-id="gge90"><polygon points="4019.915 3009.935 4021.485 3009.935 4021.485 3014.265 4019.915 3014.265" layerid="7" stroke-width="0.8" c_etype="pad_outer"/><polygon points="4019.915 3009.935 4021.485 3009.935 4021.485 3014.265 4019.915 3014.265" layerid="5" stroke-width="0" c_etype="pad_outer"/><polygon c_etype="pad_shell" points="4019.915 3009.935 4021.485 3009.935 4021.485 3014.265 4019.915 3014.265" layerid="1" stroke-width="0" before-id="1"/><circle c_etype="pad_hole" cx="4020.7" cy="3012.1" r="0" layerid="1" stroke-width="0"/></g><g c_partid="part_pad" c_etype="pinpart" c_origin="4018.2,3012.1" layerid="1" plated="Y" c_shapetype="group" locked="" c_rotation="0" c_width="1.57" c_height="4.33" c_shape="RECT" pasteexpansion="0" solderexpansion="0.4" before-id="gge93"><polygon points="4017.415 3009.935 4018.985 3009.935 4018.985 3014.265 4017.415 3014.265" layerid="7" stroke-width="0.8" c_etype="pad_outer"/><polygon points="4017.415 3009.935 4018.985 3009.935 4018.985 3014.265 4017.415 3014.265" layerid="5" stroke-width="0" c_etype="pad_outer"/><polygon c_etype="pad_shell" points="4017.415 3009.935 4018.985 3009.935 4018.985 3014.265 4017.415 3014.265" layerid="1" stroke-width="0" before-id="1"/><circle c_etype="pad_hole" cx="4018.2" cy="3012.1" r="0" layerid="1" stroke-width="0"/></g></g></g><g><line stroke="#6464FF" fill="none" x1="4059.131" x2="4023.3" y1="3037" y2="3012.1" c_shapetype="line" layerid="9" pad-ids="gge53,gge84"/><line stroke="#6464FF" fill="none" x1="4057.171" x2="4020.7" y1="3037" y2="3012.1" c_shapetype="line" layerid="9" pad-ids="gge47,gge87"/><line stroke="#6464FF" fill="none" x1="4061.3" x2="4025.8" y1="3037" y2="3012.1" c_shapetype="line" layerid="9" pad-ids="gge41,gge81"/><line stroke="#6464FF" fill="none" x1="4057.171" x2="4059.131" y1="3033.86" y2="3033.86" c_shapetype="line" layerid="9" pad-ids="gge44,gge50"/><line stroke="#6464FF" fill="none" x1="4061.3" x2="4059.131" y1="3033.86" y2="3033.86" c_shapetype="line" layerid="9" pad-ids="gge38,gge50"/><line stroke="#6464FF" fill="none" x1="4057.171" x2="4025.8" y1="3033.86" y2="3029.9" c_shapetype="line" layerid="9" pad-ids="gge44,gge78"/><line stroke="#6464FF" fill="none" x1="4015.131" x2="4018.2" y1="3073" y2="3029.9" c_shapetype="line" layerid="9" pad-ids="gge23,gge69"/><line stroke="#6464FF" fill="none" x1="4017.3" x2="4020.7" y1="3073" y2="3029.9" c_shapetype="line" layerid="9" pad-ids="gge11,gge72"/><line stroke="#6464FF" fill="none" x1="4017.3" x2="4015.131" y1="3069.86" y2="3069.86" c_shapetype="line" layerid="9" pad-ids="gge8,gge20"/><line stroke="#6464FF" fill="none" x1="4017.3" x2="4018.2" y1="3069.86" y2="3012.1" c_shapetype="line" layerid="9" pad-ids="gge8,gge90"/></g></g></svg>