G04 ---------------------------- Layer name :TOP SOLDER LAYER*
G04 easyEDA 0.1*
G04 Scale: 100 percent, Rotated: No, Reflected: No *
G04 Dimensions in inches *
G04 leading zeros omitted , absolute positions ,2 integer and 4 * 
%FSLAX24Y24*%
%MOIN*%
G90*
G70D02*

%ADD11C,0.035559*%
%ADD12C,0.059181*%
%ADD14R,0.047370X0.057212*%
%ADD15R,0.057212X0.047370*%
%ADD16R,0.088000X0.088000*%
%ADD17C,0.088000*%
%ADD19C,0.047370*%
%ADD21R,0.039496X0.065086*%
%ADD22R,0.058000X0.043433*%
%ADD23R,0.082000X0.082000*%
%ADD24R,0.102488X0.082803*%
%ADD25R,0.086740X0.025716*%
%ADD26C,0.067055*%
%ADD28R,0.055240X0.070992*%
%ADD29R,0.070000X0.070000*%
%ADD30C,0.070000*%
%ADD32R,0.041500X0.126100*%
%ADD33R,0.126100X0.041500*%

%LPD*%
G54D11*
G01X11541Y7911D02*
G01X11974Y7911D01*
G01X11541Y8411D02*
G01X11974Y8411D01*
G01X11541Y8911D02*
G01X11974Y8911D01*
G01X11541Y9411D02*
G01X11974Y9411D01*
G01X9101Y7911D02*
G01X9534Y7911D01*
G01X9101Y8411D02*
G01X9534Y8411D01*
G01X9101Y8911D02*
G01X9534Y8911D01*
G01X9101Y9411D02*
G01X9534Y9411D01*
G54D12*
G01X981Y6075D02*
G01X626Y6075D01*
G01X981Y8925D02*
G01X626Y8925D01*
G54D14*
G01X5746Y9440D03*
G01X6534Y9440D03*
G54D15*
G01X7093Y6661D03*
G01X7093Y5873D03*
G54D16*
G01X5498Y11907D03*
G54D17*
G01X6502Y11903D03*
G01X7497Y11907D03*
G01X8480Y11901D03*
G54D19*
G01X8164Y9448D03*
G01X8164Y9919D03*
G54D21*
G01X13661Y8715D03*
G01X13661Y11371D03*
G54D22*
G01X12922Y9213D03*
G01X12922Y10867D03*
G54D21*
G01X13651Y5057D03*
G01X13651Y7713D03*
G54D22*
G01X12910Y5555D03*
G01X12910Y7209D03*
G54D21*
G01X13663Y1382D03*
G01X13663Y4038D03*
G54D22*
G01X12922Y1880D03*
G01X12922Y3534D03*
G54D23*
G01X600Y11000D03*
G01X600Y12000D03*
G01X1600Y11000D03*
G01X1600Y12000D03*
G01X2600Y11000D03*
G01X2600Y12000D03*
G54D24*
G01X5600Y6600D03*
G01X5600Y8213D03*
G54D14*
G01X11313Y4475D03*
G01X12101Y4475D03*
G01X1461Y9832D03*
G01X673Y9832D03*
G01X10122Y5944D03*
G01X10910Y5944D03*
G01X10090Y6805D03*
G01X9302Y6805D03*
G01X10165Y5055D03*
G01X9377Y5055D03*
G54D25*
G01X2176Y6992D03*
G01X2176Y7248D03*
G01X2176Y7503D03*
G01X2176Y7759D03*
G01X2176Y8015D03*
G54D26*
G01X1867Y8448D03*
G01X1867Y6542D03*
G54D28*
G01X478Y6871D03*
G01X484Y8163D03*
G54D14*
G01X10519Y2215D03*
G01X11307Y2215D03*
G54D29*
G01X8600Y580D03*
G01X9903Y576D03*
G01X1761Y3953D03*
G54D30*
G01X761Y3953D03*
G54D14*
G01X10913Y10150D03*
G01X10125Y10150D03*
G54D29*
G01X1744Y1661D03*
G54D30*
G01X744Y1661D03*
G54D29*
G01X1746Y2780D03*
G54D30*
G01X746Y2780D03*
G54D29*
G01X9475Y11850D03*
G54D30*
G01X10475Y11850D03*
G54D29*
G01X4000Y11800D03*
G54D14*
G01X3401Y9917D03*
G01X2613Y9917D03*
G01X11485Y909D03*
G01X12273Y909D03*
G54D15*
G01X11959Y6155D03*
G01X11959Y6942D03*
G54D29*
G01X8200Y8400D03*
G54D30*
G01X8200Y7400D03*
G01X8200Y6400D03*
G01X8200Y5400D03*
G54D32*
G01X6330Y519D03*
G01X5839Y519D03*
G01X5350Y519D03*
G01X4860Y519D03*
G01X4369Y519D03*
G01X3869Y519D03*
G01X3380Y519D03*
G01X2890Y519D03*
G01X2400Y519D03*
G01X1900Y519D03*
G01X1409Y519D03*
G01X919Y519D03*
G01X430Y519D03*
G01X6330Y5219D03*
G01X5839Y5219D03*
G01X5350Y5219D03*
G01X4860Y5219D03*
G01X4369Y5219D03*
G01X3869Y5219D03*
G01X3380Y5219D03*
G01X2890Y5219D03*
G01X2400Y5219D03*
G54D33*
G01X7160Y1150D03*
G01X7160Y1640D03*
G01X7160Y2130D03*
G01X7160Y2630D03*
G01X7160Y3119D03*
G01X7160Y3609D03*
G01X7160Y4100D03*
G01X7160Y4590D03*
G54D29*
G01X3982Y3917D03*
G54D30*
G01X2982Y3917D03*
G54D29*
G01X3984Y2786D03*
G54D30*
G01X2984Y2786D03*
G54D25*
G01X2869Y8015D03*
G01X2878Y6992D03*
G01X2594Y8169D03*
G01X2600Y6817D03*
G01X2869Y8169D03*
G01X2875Y6819D03*

M00*
M02*