G04 Layer: BottomSolderMaskLayer*
G04 EasyEDA v6.4.7, 2020-10-05T14:23:05+01:00*
G04 80753c53b72f4884ac218c40b0928968,81cdacc9909441f8a3d49748f20dc12b,10*
G04 Gerber Generator version 0.2*
G04 Scale: 100 percent, Rotated: No, Reflected: No *
G04 Dimensions in millimeters *
G04 leading zeros omitted , absolute positions ,3 integer and 3 decimal *
%FSLAX33Y33*%
%MOMM*%
G90*
D02*

%ADD48C,0.903201*%
%ADD49C,1.503197*%
%ADD54C,2.235200*%
%ADD55C,1.203198*%
%ADD60C,1.703197*%
%ADD63C,1.778000*%
%ADD66C,0.803199*%
%ADD67C,2.203201*%

%LPD*%
G54D66*
G01X25907Y14254D02*
G01X25907Y13254D01*
G01X27177Y14254D02*
G01X27177Y13254D01*
G01X28447Y14254D02*
G01X28447Y13254D01*
G01X29717Y14254D02*
G01X29717Y13254D01*
G01X25907Y8310D02*
G01X25907Y7310D01*
G01X27177Y8310D02*
G01X27177Y7310D01*
G01X28447Y8310D02*
G01X28447Y7310D01*
G01X29717Y8310D02*
G01X29717Y7310D01*
G54D48*
G01X27449Y17102D02*
G01X27449Y15602D01*
G01X26179Y17102D02*
G01X26179Y15602D01*
G01X24909Y17102D02*
G01X24909Y15602D01*
G01X23639Y17102D02*
G01X23639Y15602D01*
G01X27449Y23147D02*
G01X27449Y21647D01*
G01X26179Y23147D02*
G01X26179Y21647D01*
G01X24909Y23147D02*
G01X24909Y21647D01*
G01X23639Y23147D02*
G01X23639Y21647D01*
G54D49*
G01X2474Y15509D02*
G01X1574Y15509D01*
G01X2474Y22748D02*
G01X1574Y22748D01*
G54D67*
G01X22588Y9210D02*
G01X22588Y7710D01*
G36*
G01X17762Y21541D02*
G01X17762Y22303D01*
G01X19235Y22303D01*
G01X19235Y21541D01*
G01X17762Y21541D01*
G37*
G36*
G01X17762Y20754D02*
G01X17762Y21516D01*
G01X19235Y21516D01*
G01X19235Y20754D01*
G01X17762Y20754D01*
G37*
G36*
G01X17762Y19941D02*
G01X17762Y20703D01*
G01X19235Y20703D01*
G01X19235Y19941D01*
G01X17762Y19941D01*
G37*
G36*
G01X17762Y19154D02*
G01X17762Y19916D01*
G01X19235Y19916D01*
G01X19235Y19154D01*
G01X17762Y19154D01*
G37*
G36*
G01X17762Y18341D02*
G01X17762Y19103D01*
G01X19235Y19103D01*
G01X19235Y18341D01*
G01X17762Y18341D01*
G37*
G36*
G01X17762Y17553D02*
G01X17762Y18315D01*
G01X19235Y18315D01*
G01X19235Y17553D01*
G01X17762Y17553D01*
G37*
G36*
G01X17762Y16741D02*
G01X17762Y17503D01*
G01X19235Y17503D01*
G01X19235Y16741D01*
G01X17762Y16741D01*
G37*
G36*
G01X17762Y15953D02*
G01X17762Y16715D01*
G01X19235Y16715D01*
G01X19235Y15953D01*
G01X17762Y15953D01*
G37*
G36*
G01X16619Y14099D02*
G01X16619Y15572D01*
G01X17381Y15572D01*
G01X17381Y14099D01*
G01X16619Y14099D01*
G37*
G36*
G01X15831Y14099D02*
G01X15831Y15572D01*
G01X16593Y15572D01*
G01X16593Y14099D01*
G01X15831Y14099D01*
G37*
G36*
G01X15019Y14099D02*
G01X15019Y15572D01*
G01X15781Y15572D01*
G01X15781Y14099D01*
G01X15019Y14099D01*
G37*
G36*
G01X14231Y14099D02*
G01X14231Y15572D01*
G01X14993Y15572D01*
G01X14993Y14099D01*
G01X14231Y14099D01*
G37*
G36*
G01X13418Y14099D02*
G01X13418Y15572D01*
G01X14180Y15572D01*
G01X14180Y14099D01*
G01X13418Y14099D01*
G37*
G36*
G01X12631Y14099D02*
G01X12631Y15572D01*
G01X13393Y15572D01*
G01X13393Y14099D01*
G01X12631Y14099D01*
G37*
G36*
G01X11818Y14099D02*
G01X11818Y15572D01*
G01X12580Y15572D01*
G01X12580Y14099D01*
G01X11818Y14099D01*
G37*
G36*
G01X11031Y14099D02*
G01X11031Y15572D01*
G01X11793Y15572D01*
G01X11793Y14099D01*
G01X11031Y14099D01*
G37*
G36*
G01X9177Y15953D02*
G01X9177Y16715D01*
G01X10650Y16715D01*
G01X10650Y15953D01*
G01X9177Y15953D01*
G37*
G36*
G01X9177Y16741D02*
G01X9177Y17503D01*
G01X10650Y17503D01*
G01X10650Y16741D01*
G01X9177Y16741D01*
G37*
G36*
G01X9177Y17553D02*
G01X9177Y18315D01*
G01X10650Y18315D01*
G01X10650Y17553D01*
G01X9177Y17553D01*
G37*
G36*
G01X9177Y18341D02*
G01X9177Y19103D01*
G01X10650Y19103D01*
G01X10650Y18341D01*
G01X9177Y18341D01*
G37*
G36*
G01X9177Y19154D02*
G01X9177Y19916D01*
G01X10650Y19916D01*
G01X10650Y19154D01*
G01X9177Y19154D01*
G37*
G36*
G01X9177Y19941D02*
G01X9177Y20703D01*
G01X10650Y20703D01*
G01X10650Y19941D01*
G01X9177Y19941D01*
G37*
G36*
G01X9177Y20754D02*
G01X9177Y21516D01*
G01X10650Y21516D01*
G01X10650Y20754D01*
G01X9177Y20754D01*
G37*
G36*
G01X9177Y21541D02*
G01X9177Y22303D01*
G01X10650Y22303D01*
G01X10650Y21541D01*
G01X9177Y21541D01*
G37*
G36*
G01X11031Y22684D02*
G01X11031Y24157D01*
G01X11793Y24157D01*
G01X11793Y22684D01*
G01X11031Y22684D01*
G37*
G36*
G01X11818Y22684D02*
G01X11818Y24157D01*
G01X12580Y24157D01*
G01X12580Y22684D01*
G01X11818Y22684D01*
G37*
G36*
G01X12631Y22684D02*
G01X12631Y24157D01*
G01X13393Y24157D01*
G01X13393Y22684D01*
G01X12631Y22684D01*
G37*
G36*
G01X13418Y22684D02*
G01X13418Y24157D01*
G01X14180Y24157D01*
G01X14180Y22684D01*
G01X13418Y22684D01*
G37*
G36*
G01X14231Y22684D02*
G01X14231Y24157D01*
G01X14993Y24157D01*
G01X14993Y22684D01*
G01X14231Y22684D01*
G37*
G36*
G01X15019Y22684D02*
G01X15019Y24157D01*
G01X15781Y24157D01*
G01X15781Y22684D01*
G01X15019Y22684D01*
G37*
G36*
G01X15831Y22684D02*
G01X15831Y24157D01*
G01X16593Y24157D01*
G01X16593Y22684D01*
G01X15831Y22684D01*
G37*
G36*
G01X16619Y22684D02*
G01X16619Y24157D01*
G01X17381Y24157D01*
G01X17381Y22684D01*
G01X16619Y22684D01*
G37*
G36*
G01X12829Y29204D02*
G01X12829Y31440D01*
G01X15064Y31440D01*
G01X15064Y29204D01*
G01X12829Y29204D01*
G37*
G54D54*
G01X16499Y30312D03*
G01X19024Y30322D03*
G01X21521Y30307D03*
G54D55*
G01X20721Y24076D03*
G01X20721Y25275D03*
G36*
G01X464Y26977D02*
G01X464Y29060D01*
G01X2547Y29060D01*
G01X2547Y26977D01*
G01X464Y26977D01*
G37*
G36*
G01X464Y29517D02*
G01X464Y31600D01*
G01X2547Y31600D01*
G01X2547Y29517D01*
G01X464Y29517D01*
G37*
G36*
G01X3004Y26977D02*
G01X3004Y29060D01*
G01X5087Y29060D01*
G01X5087Y26977D01*
G01X3004Y26977D01*
G37*
G36*
G01X3004Y29517D02*
G01X3004Y31600D01*
G01X5087Y31600D01*
G01X5087Y29517D01*
G01X3004Y29517D01*
G37*
G36*
G01X5544Y26977D02*
G01X5544Y29060D01*
G01X7627Y29060D01*
G01X7627Y26977D01*
G01X5544Y26977D01*
G37*
G36*
G01X5544Y29517D02*
G01X5544Y31600D01*
G01X7627Y31600D01*
G01X7627Y29517D01*
G01X5544Y29517D01*
G37*
G36*
G01X25961Y9431D02*
G01X25961Y12133D01*
G01X29664Y12133D01*
G01X29664Y9431D01*
G01X25961Y9431D01*
G37*
G54D60*
G01X4724Y21539D03*
G01X4724Y16697D03*
G36*
G01X14734Y3662D02*
G01X14734Y4665D01*
G01X15450Y4665D01*
G01X15450Y3662D01*
G01X14734Y3662D01*
G37*
G36*
G01X13797Y3662D02*
G01X13797Y4665D01*
G01X14511Y4665D01*
G01X14511Y3662D01*
G01X13797Y3662D01*
G37*
G36*
G01X12857Y3662D02*
G01X12857Y4665D01*
G01X13571Y4665D01*
G01X13571Y3662D01*
G01X12857Y3662D01*
G37*
G36*
G01X12857Y6558D02*
G01X12857Y7561D01*
G01X13571Y7561D01*
G01X13571Y6558D01*
G01X12857Y6558D01*
G37*
G36*
G01X13797Y6558D02*
G01X13797Y7561D01*
G01X14511Y7561D01*
G01X14511Y6558D01*
G01X13797Y6558D01*
G37*
G36*
G01X14734Y6558D02*
G01X14734Y7561D01*
G01X15450Y7561D01*
G01X15450Y6558D01*
G01X14734Y6558D01*
G37*
G36*
G01X18999Y4531D02*
G01X18999Y5984D01*
G01X20203Y5984D01*
G01X20203Y4531D01*
G01X18999Y4531D01*
G37*
G36*
G01X16997Y4531D02*
G01X16997Y5984D01*
G01X18201Y5984D01*
G01X18201Y4531D01*
G01X16997Y4531D01*
G37*
G36*
G01X18590Y411D02*
G01X18590Y1864D01*
G01X19794Y1864D01*
G01X19794Y411D01*
G01X18590Y411D01*
G37*
G36*
G01X16588Y411D02*
G01X16588Y1864D01*
G01X17792Y1864D01*
G01X17792Y411D01*
G01X16588Y411D01*
G37*
G36*
G01X12854Y10581D02*
G01X12854Y11584D01*
G01X13568Y11584D01*
G01X13568Y10581D01*
G01X12854Y10581D01*
G37*
G36*
G01X13792Y10581D02*
G01X13792Y11584D01*
G01X14508Y11584D01*
G01X14508Y10581D01*
G01X13792Y10581D01*
G37*
G36*
G01X14734Y10581D02*
G01X14734Y11584D01*
G01X15445Y11584D01*
G01X15445Y10581D01*
G01X14734Y10581D01*
G37*
G36*
G01X14734Y7686D02*
G01X14734Y8689D01*
G01X15445Y8689D01*
G01X15445Y7686D01*
G01X14734Y7686D01*
G37*
G36*
G01X13792Y7686D02*
G01X13792Y8689D01*
G01X14508Y8689D01*
G01X14508Y7686D01*
G01X13792Y7686D01*
G37*
G36*
G01X12854Y7686D02*
G01X12854Y8689D01*
G01X13568Y8689D01*
G01X13568Y7686D01*
G01X12854Y7686D01*
G37*
G36*
G01X7965Y23101D02*
G01X7965Y24554D01*
G01X9169Y24554D01*
G01X9169Y23101D01*
G01X7965Y23101D01*
G37*
G36*
G01X5963Y23101D02*
G01X5963Y24554D01*
G01X7167Y24554D01*
G01X7167Y23101D01*
G01X5963Y23101D01*
G37*
G36*
G01X20937Y662D02*
G01X20937Y2440D01*
G01X22715Y2440D01*
G01X22715Y662D01*
G01X20937Y662D01*
G37*
G36*
G01X24249Y652D02*
G01X24249Y2430D01*
G01X26027Y2430D01*
G01X26027Y652D01*
G01X24249Y652D01*
G37*
G36*
G01X3566Y9232D02*
G01X3566Y11010D01*
G01X5344Y11010D01*
G01X5344Y9232D01*
G01X3566Y9232D01*
G37*
G54D63*
G01X1915Y10121D03*
G36*
G01X5994Y12750D02*
G01X5994Y14203D01*
G01X7198Y14203D01*
G01X7198Y12750D01*
G01X5994Y12750D01*
G37*
G36*
G01X3992Y12750D02*
G01X3992Y14203D01*
G01X5196Y14203D01*
G01X5196Y12750D01*
G01X3992Y12750D01*
G37*
G36*
G01X31777Y19989D02*
G01X31777Y21442D01*
G01X32981Y21442D01*
G01X32981Y19989D01*
G01X31777Y19989D01*
G37*
G36*
G01X29776Y19989D02*
G01X29776Y21442D01*
G01X30980Y21442D01*
G01X30980Y19989D01*
G01X29776Y19989D01*
G37*
G36*
G01X3522Y3408D02*
G01X3522Y5186D01*
G01X5300Y5186D01*
G01X5300Y3408D01*
G01X3522Y3408D01*
G37*
G01X1871Y4297D03*
G36*
G01X3528Y6250D02*
G01X3528Y8028D01*
G01X5306Y8028D01*
G01X5306Y6250D01*
G01X3528Y6250D01*
G37*
G01X1877Y7139D03*
G36*
G01X23159Y29288D02*
G01X23159Y31066D01*
G01X24937Y31066D01*
G01X24937Y29288D01*
G01X23159Y29288D01*
G37*
G01X26588Y30177D03*
G36*
G01X6654Y3680D02*
G01X6654Y5133D01*
G01X7856Y5133D01*
G01X7856Y3680D01*
G01X6654Y3680D01*
G37*
G36*
G01X8653Y3680D02*
G01X8653Y5133D01*
G01X9857Y5133D01*
G01X9857Y3680D01*
G01X8653Y3680D01*
G37*
G36*
G01X9253Y29161D02*
G01X9253Y30939D01*
G01X11031Y30939D01*
G01X11031Y29161D01*
G01X9253Y29161D01*
G37*
G36*
G01X21991Y9438D02*
G01X21991Y11546D01*
G01X23185Y11546D01*
G01X23185Y9438D01*
G01X21991Y9438D01*
G37*
G36*
G01X20467Y10099D02*
G01X20467Y11496D01*
G01X21661Y11496D01*
G01X21661Y10099D01*
G01X20467Y10099D01*
G37*
G36*
G01X23515Y10099D02*
G01X23515Y11496D01*
G01X24709Y11496D01*
G01X24709Y10099D01*
G01X23515Y10099D01*
G37*
G36*
G01X27429Y25181D02*
G01X27429Y26634D01*
G01X28633Y26634D01*
G01X28633Y25181D01*
G01X27429Y25181D01*
G37*
G36*
G01X25427Y25181D02*
G01X25427Y26634D01*
G01X26631Y26634D01*
G01X26631Y25181D01*
G01X25427Y25181D01*
G37*
G36*
G01X19921Y20525D02*
G01X19921Y22303D01*
G01X21699Y22303D01*
G01X21699Y20525D01*
G01X19921Y20525D01*
G37*
G01X20810Y18874D03*
G01X20810Y16334D03*
G01X20810Y13794D03*
G36*
G01X9207Y9141D02*
G01X9207Y10919D01*
G01X10985Y10919D01*
G01X10985Y9141D01*
G01X9207Y9141D01*
G37*
G01X7556Y10030D03*
G36*
G01X9215Y6268D02*
G01X9215Y8046D01*
G01X10993Y8046D01*
G01X10993Y6268D01*
G01X9215Y6268D01*
G37*
G01X7564Y7157D03*
M00*
M02*
