G04 Layer: TopPasteMaskLayer*
G04 EasyEDA v6.4.7, 2020-10-05T14:23:05+01:00*
G04 80753c53b72f4884ac218c40b0928968,81cdacc9909441f8a3d49748f20dc12b,10*
G04 Gerber Generator version 0.2*
G04 Scale: 100 percent, Rotated: No, Reflected: No *
G04 Dimensions in millimeters *
G04 leading zeros omitted , absolute positions ,3 integer and 3 decimal *
%FSLAX33Y33*%
%MOMM*%
G90*
D02*

%ADD12C,0.700001*%
%ADD14R,1.999996X0.449999*%
%ADD15R,0.999998X1.249997*%
%ADD16R,1.249997X0.999998*%
%ADD19R,2.400000X1.899999*%
%ADD20R,1.199896X1.599997*%
%ADD21R,0.850900X2.999740*%
%ADD22R,2.999740X0.850900*%

%LPD*%
G54D12*
G01X29297Y20172D02*
G01X30397Y20172D01*
G01X29297Y21442D02*
G01X30397Y21442D01*
G01X29297Y22712D02*
G01X30397Y22712D01*
G01X29297Y23982D02*
G01X30397Y23982D01*
G01X23099Y20172D02*
G01X24199Y20172D01*
G01X23099Y21442D02*
G01X24199Y21442D01*
G01X23099Y22712D02*
G01X24199Y22712D01*
G01X23099Y23982D02*
G01X24199Y23982D01*
G54D14*
G01X7272Y20436D03*
G01X7294Y17840D03*
G01X6570Y20830D03*
G01X6586Y17396D03*
G01X7272Y20830D03*
G01X7284Y17401D03*
G36*
G01X14077Y24681D02*
G01X15077Y24681D01*
G01X15077Y23431D01*
G01X14077Y23431D01*
G01X14077Y24681D01*
G37*
G36*
G01X16077Y24681D02*
G01X17077Y24681D01*
G01X17077Y23431D01*
G01X16077Y23431D01*
G01X16077Y24681D01*
G37*
G54D16*
G01X17998Y16999D03*
G01X17998Y14999D03*
G36*
G01X34284Y21490D02*
G01X34284Y22938D01*
G01X35082Y22938D01*
G01X35082Y21490D01*
G01X34284Y21490D01*
G37*
G36*
G01X34284Y28237D02*
G01X34284Y29684D01*
G01X35082Y29684D01*
G01X35082Y28237D01*
G01X34284Y28237D01*
G37*
G36*
G01X32169Y23032D02*
G01X32169Y23931D01*
G01X33439Y23931D01*
G01X33439Y23032D01*
G01X32169Y23032D01*
G37*
G36*
G01X32169Y27233D02*
G01X32169Y28133D01*
G01X33439Y28133D01*
G01X33439Y27233D01*
G01X32169Y27233D01*
G37*
G36*
G01X34256Y12199D02*
G01X34256Y13647D01*
G01X35054Y13647D01*
G01X35054Y12199D01*
G01X34256Y12199D01*
G37*
G36*
G01X34256Y18945D02*
G01X34256Y20393D01*
G01X35054Y20393D01*
G01X35054Y18945D01*
G01X34256Y18945D01*
G37*
G36*
G01X32141Y13741D02*
G01X32141Y14640D01*
G01X33411Y14640D01*
G01X33411Y13741D01*
G01X32141Y13741D01*
G37*
G36*
G01X32141Y17942D02*
G01X32141Y18841D01*
G01X33411Y18841D01*
G01X33411Y17942D01*
G01X32141Y17942D01*
G37*
G36*
G01X34287Y2865D02*
G01X34287Y4312D01*
G01X35085Y4312D01*
G01X35085Y2865D01*
G01X34287Y2865D01*
G37*
G36*
G01X34287Y9611D02*
G01X34287Y11059D01*
G01X35085Y11059D01*
G01X35085Y9611D01*
G01X34287Y9611D01*
G37*
G36*
G01X32171Y4406D02*
G01X32171Y5306D01*
G01X33441Y5306D01*
G01X33441Y4406D01*
G01X32171Y4406D01*
G37*
G36*
G01X32171Y8608D02*
G01X32171Y9507D01*
G01X33441Y9507D01*
G01X33441Y8608D01*
G01X32171Y8608D01*
G37*
G54D19*
G01X14206Y16842D03*
G01X14206Y20942D03*
G36*
G01X28218Y12070D02*
G01X29218Y12070D01*
G01X29218Y10820D01*
G01X28218Y10820D01*
G01X28218Y12070D01*
G37*
G36*
G01X30218Y12070D02*
G01X31218Y12070D01*
G01X31218Y10820D01*
G01X30218Y10820D01*
G01X30218Y12070D01*
G37*
G54D15*
G01X3692Y25054D03*
G01X1692Y25054D03*
G36*
G01X25195Y15801D02*
G01X26195Y15801D01*
G01X26195Y14551D01*
G01X25195Y14551D01*
G01X25195Y15801D01*
G37*
G36*
G01X27195Y15801D02*
G01X28195Y15801D01*
G01X28195Y14551D01*
G01X27195Y14551D01*
G01X27195Y15801D01*
G37*
G01X25612Y17363D03*
G01X23612Y17363D03*
G01X25803Y12918D03*
G01X23803Y12918D03*
G54D14*
G01X5509Y17839D03*
G01X5509Y18489D03*
G01X5509Y19139D03*
G01X5509Y19789D03*
G01X5509Y20439D03*
G54D20*
G01X1197Y17533D03*
G01X1213Y20811D03*
G36*
G01X26203Y6329D02*
G01X27203Y6329D01*
G01X27203Y5079D01*
G01X26203Y5079D01*
G01X26203Y6329D01*
G37*
G36*
G01X28203Y6329D02*
G01X29203Y6329D01*
G01X29203Y5079D01*
G01X28203Y5079D01*
G01X28203Y6329D01*
G37*
G54D15*
G01X27700Y25859D03*
G01X25700Y25859D03*
G01X8619Y25267D03*
G01X6620Y25267D03*
G36*
G01X28657Y3015D02*
G01X29657Y3015D01*
G01X29657Y1765D01*
G01X28657Y1765D01*
G01X28657Y3015D01*
G37*
G36*
G01X30657Y3015D02*
G01X31657Y3015D01*
G01X31657Y1765D01*
G01X30657Y1765D01*
G01X30657Y3015D01*
G37*
G54D16*
G01X30358Y15713D03*
G01X30358Y17713D03*
G54D21*
G01X16060Y1399D03*
G01X14815Y1399D03*
G01X13571Y1399D03*
G01X12326Y1399D03*
G01X11082Y1399D03*
G01X9812Y1399D03*
G01X8567Y1399D03*
G01X7322Y1399D03*
G01X6078Y1399D03*
G01X4808Y1399D03*
G01X3563Y1399D03*
G01X2319Y1399D03*
G01X1074Y1399D03*
G01X16060Y13337D03*
G01X14815Y13337D03*
G01X13571Y13337D03*
G01X12326Y13337D03*
G01X11082Y13337D03*
G01X9812Y13337D03*
G01X8567Y13337D03*
G01X7322Y13337D03*
G01X6078Y13337D03*
G54D22*
G01X18168Y2999D03*
G01X18168Y4244D03*
G01X18168Y5488D03*
G01X18168Y6758D03*
G01X18168Y8003D03*
G01X18168Y9248D03*
G01X18168Y10492D03*
G01X18168Y11737D03*
M00*
M02*
