G04 Layer: TopSolderMaskLayer*
G04 EasyEDA v6.4.7, 2020-10-05T14:23:05+01:00*
G04 80753c53b72f4884ac218c40b0928968,81cdacc9909441f8a3d49748f20dc12b,10*
G04 Gerber Generator version 0.2*
G04 Scale: 100 percent, Rotated: No, Reflected: No *
G04 Dimensions in millimeters *
G04 leading zeros omitted , absolute positions ,3 integer and 3 decimal *
%FSLAX33Y33*%
%MOMM*%
G90*
D02*

%ADD48C,0.903201*%
%ADD49C,1.503197*%
%ADD54C,2.235200*%
%ADD55C,1.203198*%
%ADD60C,1.703197*%
%ADD63C,1.778000*%

%LPD*%
G54D48*
G01X29297Y20172D02*
G01X30397Y20172D01*
G01X29297Y21442D02*
G01X30397Y21442D01*
G01X29297Y22712D02*
G01X30397Y22712D01*
G01X29297Y23982D02*
G01X30397Y23982D01*
G01X23099Y20172D02*
G01X24199Y20172D01*
G01X23099Y21442D02*
G01X24199Y21442D01*
G01X23099Y22712D02*
G01X24199Y22712D01*
G01X23099Y23982D02*
G01X24199Y23982D01*
G54D49*
G01X2474Y15509D02*
G01X1574Y15509D01*
G01X2474Y22748D02*
G01X1574Y22748D01*
G36*
G01X6169Y20109D02*
G01X6169Y20764D01*
G01X8374Y20764D01*
G01X8374Y20109D01*
G01X6169Y20109D01*
G37*
G36*
G01X6192Y17513D02*
G01X6192Y18168D01*
G01X8397Y18168D01*
G01X8397Y17513D01*
G01X6192Y17513D01*
G37*
G36*
G01X5468Y20502D02*
G01X5468Y21158D01*
G01X7673Y21158D01*
G01X7673Y20502D01*
G01X5468Y20502D01*
G37*
G36*
G01X5483Y17068D02*
G01X5483Y17724D01*
G01X7688Y17724D01*
G01X7688Y17068D01*
G01X5483Y17068D01*
G37*
G36*
G01X6169Y20502D02*
G01X6169Y21158D01*
G01X8374Y21158D01*
G01X8374Y20502D01*
G01X6169Y20502D01*
G37*
G36*
G01X6182Y17073D02*
G01X6182Y17729D01*
G01X8387Y17729D01*
G01X8387Y17073D01*
G01X6182Y17073D01*
G37*
G36*
G01X13977Y23329D02*
G01X13977Y24782D01*
G01X15179Y24782D01*
G01X15179Y23329D01*
G01X13977Y23329D01*
G37*
G36*
G01X15976Y23329D02*
G01X15976Y24782D01*
G01X17180Y24782D01*
G01X17180Y23329D01*
G01X15976Y23329D01*
G37*
G36*
G01X17271Y16398D02*
G01X17271Y17599D01*
G01X18724Y17599D01*
G01X18724Y16398D01*
G01X17271Y16398D01*
G37*
G36*
G01X17271Y14396D02*
G01X17271Y15600D01*
G01X18724Y15600D01*
G01X18724Y14396D01*
G01X17271Y14396D01*
G37*
G36*
G01X12829Y29204D02*
G01X12829Y31440D01*
G01X15064Y31440D01*
G01X15064Y29204D01*
G01X12829Y29204D01*
G37*
G54D54*
G01X16499Y30312D03*
G01X19024Y30322D03*
G01X21521Y30307D03*
G54D55*
G01X20721Y24076D03*
G01X20721Y25275D03*
G36*
G01X34183Y21389D02*
G01X34183Y23040D01*
G01X35184Y23040D01*
G01X35184Y21389D01*
G01X34183Y21389D01*
G37*
G36*
G01X34183Y28135D02*
G01X34183Y29786D01*
G01X35184Y29786D01*
G01X35184Y28135D01*
G01X34183Y28135D01*
G37*
G36*
G01X32067Y22931D02*
G01X32067Y24033D01*
G01X33540Y24033D01*
G01X33540Y22931D01*
G01X32067Y22931D01*
G37*
G36*
G01X32067Y27132D02*
G01X32067Y28234D01*
G01X33540Y28234D01*
G01X33540Y27132D01*
G01X32067Y27132D01*
G37*
G36*
G01X34155Y12098D02*
G01X34155Y13749D01*
G01X35156Y13749D01*
G01X35156Y12098D01*
G01X34155Y12098D01*
G37*
G36*
G01X34155Y18844D02*
G01X34155Y20495D01*
G01X35156Y20495D01*
G01X35156Y18844D01*
G01X34155Y18844D01*
G37*
G36*
G01X32039Y13639D02*
G01X32039Y14742D01*
G01X33512Y14742D01*
G01X33512Y13639D01*
G01X32039Y13639D01*
G37*
G36*
G01X32039Y17840D02*
G01X32039Y18943D01*
G01X33512Y18943D01*
G01X33512Y17840D01*
G01X32039Y17840D01*
G37*
G36*
G01X34185Y2763D02*
G01X34185Y4414D01*
G01X35186Y4414D01*
G01X35186Y2763D01*
G01X34185Y2763D01*
G37*
G36*
G01X34185Y9509D02*
G01X34185Y11160D01*
G01X35186Y11160D01*
G01X35186Y9509D01*
G01X34185Y9509D01*
G37*
G36*
G01X32070Y4305D02*
G01X32070Y5407D01*
G01X33543Y5407D01*
G01X33543Y4305D01*
G01X32070Y4305D01*
G37*
G36*
G01X32070Y8506D02*
G01X32070Y9608D01*
G01X33543Y9608D01*
G01X33543Y8506D01*
G01X32070Y8506D01*
G37*
G36*
G01X464Y26977D02*
G01X464Y29060D01*
G01X2547Y29060D01*
G01X2547Y26977D01*
G01X464Y26977D01*
G37*
G36*
G01X464Y29517D02*
G01X464Y31600D01*
G01X2547Y31600D01*
G01X2547Y29517D01*
G01X464Y29517D01*
G37*
G36*
G01X3004Y26977D02*
G01X3004Y29060D01*
G01X5087Y29060D01*
G01X5087Y26977D01*
G01X3004Y26977D01*
G37*
G36*
G01X3004Y29517D02*
G01X3004Y31600D01*
G01X5087Y31600D01*
G01X5087Y29517D01*
G01X3004Y29517D01*
G37*
G36*
G01X5544Y26977D02*
G01X5544Y29060D01*
G01X7627Y29060D01*
G01X7627Y26977D01*
G01X5544Y26977D01*
G37*
G36*
G01X5544Y29517D02*
G01X5544Y31600D01*
G01X7627Y31600D01*
G01X7627Y29517D01*
G01X5544Y29517D01*
G37*
G36*
G01X12905Y15791D02*
G01X12905Y17894D01*
G01X15506Y17894D01*
G01X15506Y15791D01*
G01X12905Y15791D01*
G37*
G36*
G01X12905Y19890D02*
G01X12905Y21993D01*
G01X15506Y21993D01*
G01X15506Y19890D01*
G01X12905Y19890D01*
G37*
G36*
G01X28117Y10718D02*
G01X28117Y12171D01*
G01X29319Y12171D01*
G01X29319Y10718D01*
G01X28117Y10718D01*
G37*
G36*
G01X30116Y10718D02*
G01X30116Y12171D01*
G01X31320Y12171D01*
G01X31320Y10718D01*
G01X30116Y10718D01*
G37*
G36*
G01X3091Y24328D02*
G01X3091Y25781D01*
G01X4295Y25781D01*
G01X4295Y24328D01*
G01X3091Y24328D01*
G37*
G36*
G01X1089Y24328D02*
G01X1089Y25781D01*
G01X2293Y25781D01*
G01X2293Y24328D01*
G01X1089Y24328D01*
G37*
G36*
G01X25095Y14450D02*
G01X25095Y15902D01*
G01X26296Y15902D01*
G01X26296Y14450D01*
G01X25095Y14450D01*
G37*
G36*
G01X27094Y14450D02*
G01X27094Y15902D01*
G01X28298Y15902D01*
G01X28298Y14450D01*
G01X27094Y14450D01*
G37*
G36*
G01X25011Y16637D02*
G01X25011Y18089D01*
G01X26215Y18089D01*
G01X26215Y16637D01*
G01X25011Y16637D01*
G37*
G36*
G01X23009Y16637D02*
G01X23009Y18089D01*
G01X24213Y18089D01*
G01X24213Y16637D01*
G01X23009Y16637D01*
G37*
G36*
G01X25201Y12192D02*
G01X25201Y13644D01*
G01X26405Y13644D01*
G01X26405Y12192D01*
G01X25201Y12192D01*
G37*
G36*
G01X23200Y12192D02*
G01X23200Y13644D01*
G01X24404Y13644D01*
G01X24404Y12192D01*
G01X23200Y12192D01*
G37*
G36*
G01X4406Y17513D02*
G01X4406Y18166D01*
G01X6611Y18166D01*
G01X6611Y17513D01*
G01X4406Y17513D01*
G37*
G36*
G01X4406Y18163D02*
G01X4406Y18816D01*
G01X6611Y18816D01*
G01X6611Y18163D01*
G01X4406Y18163D01*
G37*
G36*
G01X4406Y18811D02*
G01X4406Y19466D01*
G01X6611Y19466D01*
G01X6611Y18811D01*
G01X4406Y18811D01*
G37*
G36*
G01X4406Y19461D02*
G01X4406Y20116D01*
G01X6611Y20116D01*
G01X6611Y19461D01*
G01X4406Y19461D01*
G37*
G36*
G01X4406Y20111D02*
G01X4406Y20764D01*
G01X6611Y20764D01*
G01X6611Y20111D01*
G01X4406Y20111D01*
G37*
G54D60*
G01X4724Y21539D03*
G01X4724Y16697D03*
G36*
G01X495Y16631D02*
G01X495Y18435D01*
G01X1899Y18435D01*
G01X1899Y16631D01*
G01X495Y16631D01*
G37*
G36*
G01X513Y19911D02*
G01X513Y21714D01*
G01X1915Y21714D01*
G01X1915Y19911D01*
G01X513Y19911D01*
G37*
G36*
G01X26101Y4978D02*
G01X26101Y6431D01*
G01X27304Y6431D01*
G01X27304Y4978D01*
G01X26101Y4978D01*
G37*
G36*
G01X28102Y4978D02*
G01X28102Y6431D01*
G01X29306Y6431D01*
G01X29306Y4978D01*
G01X28102Y4978D01*
G37*
G36*
G01X20937Y662D02*
G01X20937Y2440D01*
G01X22715Y2440D01*
G01X22715Y662D01*
G01X20937Y662D01*
G37*
G36*
G01X24249Y652D02*
G01X24249Y2430D01*
G01X26027Y2430D01*
G01X26027Y652D01*
G01X24249Y652D01*
G37*
G36*
G01X3566Y9232D02*
G01X3566Y11010D01*
G01X5344Y11010D01*
G01X5344Y9232D01*
G01X3566Y9232D01*
G37*
G54D63*
G01X1915Y10121D03*
G36*
G01X27099Y25133D02*
G01X27099Y26586D01*
G01X28303Y26586D01*
G01X28303Y25133D01*
G01X27099Y25133D01*
G37*
G36*
G01X25097Y25133D02*
G01X25097Y26586D01*
G01X26301Y26586D01*
G01X26301Y25133D01*
G01X25097Y25133D01*
G37*
G36*
G01X3522Y3408D02*
G01X3522Y5186D01*
G01X5300Y5186D01*
G01X5300Y3408D01*
G01X3522Y3408D01*
G37*
G01X1871Y4297D03*
G36*
G01X3528Y6250D02*
G01X3528Y8028D01*
G01X5306Y8028D01*
G01X5306Y6250D01*
G01X3528Y6250D01*
G37*
G01X1877Y7139D03*
G36*
G01X23159Y29288D02*
G01X23159Y31066D01*
G01X24937Y31066D01*
G01X24937Y29288D01*
G01X23159Y29288D01*
G37*
G01X26588Y30177D03*
G36*
G01X9253Y29161D02*
G01X9253Y30939D01*
G01X11031Y30939D01*
G01X11031Y29161D01*
G01X9253Y29161D01*
G37*
G36*
G01X8018Y24541D02*
G01X8018Y25994D01*
G01X9222Y25994D01*
G01X9222Y24541D01*
G01X8018Y24541D01*
G37*
G36*
G01X6017Y24541D02*
G01X6017Y25994D01*
G01X7221Y25994D01*
G01X7221Y24541D01*
G01X6017Y24541D01*
G37*
G36*
G01X28557Y1663D02*
G01X28557Y3116D01*
G01X29758Y3116D01*
G01X29758Y1663D01*
G01X28557Y1663D01*
G37*
G36*
G01X30556Y1663D02*
G01X30556Y3116D01*
G01X31760Y3116D01*
G01X31760Y1663D01*
G01X30556Y1663D01*
G37*
G36*
G01X29631Y15110D02*
G01X29631Y16314D01*
G01X31084Y16314D01*
G01X31084Y15110D01*
G01X29631Y15110D01*
G37*
G36*
G01X29631Y17111D02*
G01X29631Y18315D01*
G01X31084Y18315D01*
G01X31084Y17111D01*
G01X29631Y17111D01*
G37*
G36*
G01X19921Y20525D02*
G01X19921Y22303D01*
G01X21699Y22303D01*
G01X21699Y20525D01*
G01X19921Y20525D01*
G37*
G01X20810Y18874D03*
G01X20810Y16334D03*
G01X20810Y13794D03*
G36*
G01X15534Y-203D02*
G01X15534Y2999D01*
G01X16588Y2999D01*
G01X16588Y-203D01*
G01X15534Y-203D01*
G37*
G36*
G01X14290Y-203D02*
G01X14290Y2999D01*
G01X15344Y2999D01*
G01X15344Y-203D01*
G01X14290Y-203D01*
G37*
G36*
G01X13045Y-203D02*
G01X13045Y2999D01*
G01X14099Y2999D01*
G01X14099Y-203D01*
G01X13045Y-203D01*
G37*
G36*
G01X11800Y-203D02*
G01X11800Y2999D01*
G01X12852Y2999D01*
G01X12852Y-203D01*
G01X11800Y-203D01*
G37*
G36*
G01X10556Y-203D02*
G01X10556Y2999D01*
G01X11610Y2999D01*
G01X11610Y-203D01*
G01X10556Y-203D01*
G37*
G36*
G01X9286Y-203D02*
G01X9286Y2999D01*
G01X10340Y2999D01*
G01X10340Y-203D01*
G01X9286Y-203D01*
G37*
G36*
G01X8041Y-203D02*
G01X8041Y2999D01*
G01X9095Y2999D01*
G01X9095Y-203D01*
G01X8041Y-203D01*
G37*
G36*
G01X6797Y-203D02*
G01X6797Y2999D01*
G01X7851Y2999D01*
G01X7851Y-203D01*
G01X6797Y-203D01*
G37*
G36*
G01X5552Y-203D02*
G01X5552Y2999D01*
G01X6606Y2999D01*
G01X6606Y-203D01*
G01X5552Y-203D01*
G37*
G36*
G01X4282Y-203D02*
G01X4282Y2999D01*
G01X5336Y2999D01*
G01X5336Y-203D01*
G01X4282Y-203D01*
G37*
G36*
G01X3037Y-203D02*
G01X3037Y2999D01*
G01X4091Y2999D01*
G01X4091Y-203D01*
G01X3037Y-203D01*
G37*
G36*
G01X1793Y-203D02*
G01X1793Y2999D01*
G01X2847Y2999D01*
G01X2847Y-203D01*
G01X1793Y-203D01*
G37*
G36*
G01X548Y-203D02*
G01X548Y2999D01*
G01X1602Y2999D01*
G01X1602Y-203D01*
G01X548Y-203D01*
G37*
G36*
G01X15534Y11734D02*
G01X15534Y14937D01*
G01X16588Y14937D01*
G01X16588Y11734D01*
G01X15534Y11734D01*
G37*
G36*
G01X14290Y11734D02*
G01X14290Y14937D01*
G01X15344Y14937D01*
G01X15344Y11734D01*
G01X14290Y11734D01*
G37*
G36*
G01X13045Y11734D02*
G01X13045Y14937D01*
G01X14099Y14937D01*
G01X14099Y11734D01*
G01X13045Y11734D01*
G37*
G36*
G01X11800Y11734D02*
G01X11800Y14937D01*
G01X12852Y14937D01*
G01X12852Y11734D01*
G01X11800Y11734D01*
G37*
G36*
G01X10556Y11734D02*
G01X10556Y14937D01*
G01X11610Y14937D01*
G01X11610Y11734D01*
G01X10556Y11734D01*
G37*
G36*
G01X9286Y11734D02*
G01X9286Y14937D01*
G01X10340Y14937D01*
G01X10340Y11734D01*
G01X9286Y11734D01*
G37*
G36*
G01X8041Y11734D02*
G01X8041Y14937D01*
G01X9095Y14937D01*
G01X9095Y11734D01*
G01X8041Y11734D01*
G37*
G36*
G01X6797Y11734D02*
G01X6797Y14937D01*
G01X7851Y14937D01*
G01X7851Y11734D01*
G01X6797Y11734D01*
G37*
G36*
G01X5552Y11734D02*
G01X5552Y14937D01*
G01X6606Y14937D01*
G01X6606Y11734D01*
G01X5552Y11734D01*
G37*
G36*
G01X16568Y2471D02*
G01X16568Y3525D01*
G01X19771Y3525D01*
G01X19771Y2471D01*
G01X16568Y2471D01*
G37*
G36*
G01X16568Y3716D02*
G01X16568Y4770D01*
G01X19771Y4770D01*
G01X19771Y3716D01*
G01X16568Y3716D01*
G37*
G36*
G01X16568Y4960D02*
G01X16568Y6014D01*
G01X19771Y6014D01*
G01X19771Y4960D01*
G01X16568Y4960D01*
G37*
G36*
G01X16568Y6230D02*
G01X16568Y7284D01*
G01X19771Y7284D01*
G01X19771Y6230D01*
G01X16568Y6230D01*
G37*
G36*
G01X16568Y7475D02*
G01X16568Y8529D01*
G01X19771Y8529D01*
G01X19771Y7475D01*
G01X16568Y7475D01*
G37*
G36*
G01X16568Y8719D02*
G01X16568Y9773D01*
G01X19771Y9773D01*
G01X19771Y8719D01*
G01X16568Y8719D01*
G37*
G36*
G01X16568Y9964D02*
G01X16568Y11018D01*
G01X19771Y11018D01*
G01X19771Y9964D01*
G01X16568Y9964D01*
G37*
G36*
G01X16568Y11209D02*
G01X16568Y12263D01*
G01X19771Y12263D01*
G01X19771Y11209D01*
G01X16568Y11209D01*
G37*
G36*
G01X9207Y9141D02*
G01X9207Y10919D01*
G01X10985Y10919D01*
G01X10985Y9141D01*
G01X9207Y9141D01*
G37*
G01X7556Y10030D03*
G36*
G01X9215Y6268D02*
G01X9215Y8046D01*
G01X10993Y8046D01*
G01X10993Y6268D01*
G01X9215Y6268D01*
G37*
G01X7564Y7157D03*
M00*
M02*
