G04 ---------------------------- Layer name :BOTTOM SOLDER LAYER*
G04 easyEDA 0.1*
G04 Scale: 100 percent, Rotated: No, Reflected: No *
G04 Dimensions in inches *
G04 leading zeros omitted , absolute positions ,2 integer and 4 * 
%FSLAX24Y24*%
%MOIN*%
G90*
G70D02*

%ADD11C,0.031622*%
%ADD12C,0.035559*%
%ADD13C,0.059181*%
%ADD14C,0.086740*%
%ADD16R,0.058000X0.030000*%
%ADD17R,0.030000X0.058000*%
%ADD18R,0.088000X0.088000*%
%ADD19C,0.088000*%
%ADD21C,0.047370*%
%ADD23R,0.082000X0.082000*%
%ADD24R,0.145790X0.106425*%
%ADD25C,0.067055*%
%ADD27R,0.028100X0.039500*%
%ADD28R,0.047370X0.057212*%
%ADD29R,0.070000X0.070000*%
%ADD30C,0.070000*%
%ADD32R,0.047000X0.083000*%
%ADD33R,0.047000X0.055000*%

%LPD*%
G54D11*
G01X10206Y5580D02*
G01X10206Y5187D01*
G01X10706Y5580D02*
G01X10706Y5187D01*
G01X11206Y5580D02*
G01X11206Y5187D01*
G01X11706Y5580D02*
G01X11706Y5187D01*
G01X10206Y3240D02*
G01X10206Y2847D01*
G01X10706Y3240D02*
G01X10706Y2847D01*
G01X11206Y3240D02*
G01X11206Y2847D01*
G01X11706Y3240D02*
G01X11706Y2847D01*
G54D12*
G01X10814Y6702D02*
G01X10814Y6111D01*
G01X10314Y6702D02*
G01X10314Y6111D01*
G01X9814Y6702D02*
G01X9814Y6111D01*
G01X9314Y6702D02*
G01X9314Y6111D01*
G01X10814Y9082D02*
G01X10814Y8491D01*
G01X10314Y9082D02*
G01X10314Y8491D01*
G01X9814Y9082D02*
G01X9814Y8491D01*
G01X9314Y9082D02*
G01X9314Y8491D01*
G54D13*
G01X981Y6075D02*
G01X626Y6075D01*
G01X981Y8925D02*
G01X626Y8925D01*
G54D14*
G01X8900Y3595D02*
G01X8900Y3004D01*
G54D16*
G01X7289Y8600D03*
G01X7289Y8290D03*
G01X7289Y7969D03*
G01X7289Y7659D03*
G01X7289Y7340D03*
G01X7289Y7030D03*
G01X7289Y6709D03*
G01X7289Y6400D03*
G54D17*
G01X6700Y5809D03*
G01X6389Y5809D03*
G01X6069Y5809D03*
G01X5760Y5809D03*
G01X5439Y5809D03*
G01X5130Y5809D03*
G01X4810Y5809D03*
G01X4500Y5809D03*
G54D16*
G01X3909Y6400D03*
G01X3909Y6709D03*
G01X3909Y7030D03*
G01X3909Y7340D03*
G01X3909Y7659D03*
G01X3909Y7969D03*
G01X3909Y8290D03*
G01X3909Y8600D03*
G54D17*
G01X4500Y9190D03*
G01X4810Y9190D03*
G01X5130Y9190D03*
G01X5439Y9190D03*
G01X5760Y9190D03*
G01X6069Y9190D03*
G01X6389Y9190D03*
G01X6700Y9190D03*
G54D18*
G01X5498Y11907D03*
G54D19*
G01X6502Y11903D03*
G01X7497Y11907D03*
G01X8480Y11901D03*
G54D21*
G01X8164Y9448D03*
G01X8164Y9919D03*
G54D23*
G01X600Y11000D03*
G01X600Y12000D03*
G01X1600Y11000D03*
G01X1600Y12000D03*
G01X2600Y11000D03*
G01X2600Y12000D03*
G54D24*
G01X10956Y4213D03*
G54D25*
G01X1867Y8448D03*
G01X1867Y6542D03*
G54D27*
G01X5948Y1609D03*
G01X5578Y1609D03*
G01X5209Y1609D03*
G01X5209Y2748D03*
G01X5578Y2748D03*
G01X5948Y2748D03*
G54D28*
G01X7723Y2038D03*
G01X6935Y2038D03*
G01X7563Y417D03*
G01X6775Y417D03*
G54D27*
G01X5207Y4332D03*
G01X5577Y4332D03*
G01X5947Y4332D03*
G01X5947Y3192D03*
G01X5577Y3192D03*
G01X5207Y3192D03*
G54D28*
G01X3380Y9350D03*
G01X2592Y9350D03*
G54D29*
G01X8600Y580D03*
G01X9903Y576D03*
G01X1761Y3953D03*
G54D30*
G01X761Y3953D03*
G54D28*
G01X2603Y5275D03*
G01X1815Y5275D03*
G01X12755Y8125D03*
G01X11967Y8125D03*
G54D29*
G01X1744Y1661D03*
G54D30*
G01X744Y1661D03*
G54D29*
G01X1746Y2780D03*
G54D30*
G01X746Y2780D03*
G54D29*
G01X9475Y11850D03*
G54D30*
G01X10475Y11850D03*
G54D28*
G01X2863Y1703D03*
G01X3651Y1703D03*
G54D29*
G01X4000Y11800D03*
G54D32*
G01X8900Y4100D03*
G54D33*
G01X8300Y4219D03*
G01X9500Y4219D03*
G54D28*
G01X11042Y10169D03*
G01X10255Y10169D03*
G54D29*
G01X8200Y8400D03*
G54D30*
G01X8200Y7400D03*
G01X8200Y6400D03*
G01X8200Y5400D03*
G54D29*
G01X3982Y3917D03*
G54D30*
G01X2982Y3917D03*
G54D29*
G01X3984Y2786D03*
G54D30*
G01X2984Y2786D03*

M00*
M02*