G04 ---------------------------- Layer name :TOP SILK LAYER*
G04 easyEDA 0.1*
G04 Scale: 100 percent, Rotated: No, Reflected: No *
G04 Dimensions in inches *
G04 leading zeros omitted , absolute positions ,2 integer and 4 * 
%FSLAX24Y24*%
%MOIN*%
G90*
G70D02*

%ADD10C,0.010000*%
%ADD11C,0.007874*%
%ADD12C,0.003937*%
%ADD13C,0.001968*%
%ADD14C,0.008000*%
%ADD15C,0.007992*%
%ADD16C,0.015748*%
%ADD17C,0.007000*%
%ADD18C,0.006000*%

%LPD*%
G54D10*
G01X6000Y9790D02*
G01X5439Y9790D01*
G01X6250Y9090D02*
G01X6839Y9090D01*
G01X6839Y9790D01*
G01X6250Y9790D01*
G01X5439Y9790D02*
G01X5439Y9090D01*
G01X5439Y9090D02*
G01X6000Y9090D01*
G01X7443Y6407D02*
G01X7443Y6967D01*
G01X6743Y6157D02*
G01X6743Y5567D01*
G01X7443Y5567D01*
G01X7443Y6157D01*
G01X7443Y6967D02*
G01X6743Y6967D01*
G01X6743Y6967D02*
G01X6743Y6407D01*
G01X11Y12569D02*
G01X13988Y12569D01*
G01X11Y12569D02*
G01X11Y-29D01*
G01X13988Y12569D02*
G01X13988Y-29D01*
G01X11Y-29D02*
G01X4000Y-29D01*
G01X11Y10797D02*
G01X13988Y10797D01*
G01X11Y1742D02*
G01X13988Y1742D01*
G01X4500Y817D02*
G01X9500Y817D01*
G01X4500Y817D02*
G01X4000Y-29D01*
G01X9500Y817D02*
G01X10000Y-29D01*
G01X10000Y-29D02*
G01X13988Y-29D01*
G01X11089Y9605D02*
G01X9788Y9605D01*
G01X9788Y7716D01*
G01X11288Y7716D01*
G01X11288Y9605D01*
G01X11089Y9605D01*
G54D11*
G01X12590Y8958D02*
G01X12590Y11123D01*
G01X13910Y8348D02*
G01X13909Y11733D01*
G01X13909Y8348D02*
G01X13425Y8348D01*
G01X13909Y11733D02*
G01X13425Y11733D01*
G01X13425Y8958D02*
G01X13425Y8348D01*
G01X12590Y11123D02*
G01X13406Y11123D01*
G01X12590Y8958D02*
G01X13406Y8957D01*
G01X13425Y11123D02*
G01X13425Y11733D01*
G54D12*
G01X13909Y9450D02*
G01X14303Y9450D01*
G01X13909Y10631D02*
G01X14303Y10631D01*
G01X14303Y9450D02*
G01X14303Y10631D01*
G54D13*
G01X12568Y10040D02*
G01X12768Y10040D01*
G01X12868Y10040D02*
G01X12968Y10040D01*
G01X13068Y10040D02*
G01X13268Y10040D01*
G01X13368Y10040D02*
G01X13468Y10040D01*
G01X13568Y10040D02*
G01X13768Y10040D01*
G01X13868Y10040D02*
G01X13968Y10040D01*
G01X14068Y10040D02*
G01X14268Y10040D01*
G01X14368Y10040D02*
G01X14468Y10040D01*
G54D11*
G01X12580Y5300D02*
G01X12580Y7465D01*
G01X13898Y4690D02*
G01X13898Y8075D01*
G01X13898Y4690D02*
G01X13414Y4690D01*
G01X13897Y8075D02*
G01X13414Y8075D01*
G01X13414Y5300D02*
G01X13414Y4690D01*
G01X12579Y7465D02*
G01X13394Y7465D01*
G01X12579Y5300D02*
G01X13394Y5300D01*
G01X13414Y7465D02*
G01X13414Y8075D01*
G54D12*
G01X13898Y5792D02*
G01X14292Y5792D01*
G01X13898Y6973D02*
G01X14292Y6973D01*
G01X14292Y5792D02*
G01X14292Y6973D01*
G54D13*
G01X12556Y6382D02*
G01X12756Y6382D01*
G01X12856Y6382D02*
G01X12956Y6382D01*
G01X13056Y6382D02*
G01X13256Y6382D01*
G01X13356Y6382D02*
G01X13456Y6382D01*
G01X13556Y6382D02*
G01X13756Y6382D01*
G01X13856Y6382D02*
G01X13956Y6382D01*
G01X14056Y6382D02*
G01X14256Y6382D01*
G01X14356Y6382D02*
G01X14456Y6382D01*
G54D11*
G01X12592Y1625D02*
G01X12592Y3790D01*
G01X13910Y1015D02*
G01X13910Y4400D01*
G01X13910Y1015D02*
G01X13426Y1015D01*
G01X13910Y4400D02*
G01X13426Y4400D01*
G01X13426Y1625D02*
G01X13426Y1015D01*
G01X12591Y3790D02*
G01X13406Y3790D01*
G01X12591Y1625D02*
G01X13406Y1625D01*
G01X13426Y3790D02*
G01X13426Y4400D01*
G54D12*
G01X13910Y2117D02*
G01X14304Y2117D01*
G01X13910Y3298D02*
G01X14304Y3298D01*
G01X14304Y2117D02*
G01X14304Y3298D01*
G54D13*
G01X12568Y2707D02*
G01X12768Y2707D01*
G01X12868Y2707D02*
G01X12968Y2707D01*
G01X13068Y2707D02*
G01X13268Y2707D01*
G01X13368Y2707D02*
G01X13468Y2707D01*
G01X13568Y2707D02*
G01X13768Y2707D01*
G01X13868Y2707D02*
G01X13968Y2707D01*
G01X14068Y2707D02*
G01X14268Y2707D01*
G01X14368Y2707D02*
G01X14468Y2707D01*
G54D10*
G01X100Y10750D02*
G01X350Y10500D01*
G01X850Y10500D02*
G01X1100Y10750D01*
G01X1100Y10750D02*
G01X1350Y10500D01*
G01X1850Y10500D02*
G01X2100Y10750D01*
G01X2100Y10750D02*
G01X2350Y10500D01*
G01X2850Y10500D02*
G01X3100Y10750D01*
G01X100Y10750D02*
G01X100Y12250D01*
G01X100Y12250D02*
G01X350Y12500D01*
G01X350Y12500D02*
G01X850Y12500D01*
G01X850Y12500D02*
G01X1100Y12250D01*
G01X1100Y12250D02*
G01X1350Y12500D01*
G01X1350Y12500D02*
G01X1850Y12500D01*
G01X1850Y12500D02*
G01X2100Y12250D01*
G01X2100Y12250D02*
G01X2350Y12500D01*
G01X2350Y12500D02*
G01X2850Y12500D01*
G01X2850Y12500D02*
G01X3100Y12250D01*
G01X1100Y12250D02*
G01X1100Y10750D01*
G01X2100Y12250D02*
G01X2100Y10750D01*
G01X3100Y12250D02*
G01X3100Y10750D01*
G01X2350Y10500D02*
G01X2850Y10500D01*
G01X1350Y10500D02*
G01X1850Y10500D01*
G01X350Y10500D02*
G01X850Y10500D01*
G01X850Y10369D02*
G01X350Y10369D01*
G01X5324Y6097D02*
G01X4970Y6097D01*
G01X4970Y8716D01*
G01X5324Y8716D01*
G01X5875Y8716D02*
G01X6229Y8716D01*
G01X6229Y6097D01*
G01X5875Y6097D01*
G01X11567Y4825D02*
G01X11006Y4825D01*
G01X11817Y4125D02*
G01X12406Y4125D01*
G01X12406Y4825D01*
G01X11817Y4825D01*
G01X11006Y4825D02*
G01X11006Y4125D01*
G01X11006Y4125D02*
G01X11567Y4125D01*
G01X1207Y9482D02*
G01X1767Y9482D01*
G01X957Y10182D02*
G01X367Y10182D01*
G01X367Y9482D01*
G01X957Y9482D01*
G01X1767Y9482D02*
G01X1767Y10182D01*
G01X1767Y10182D02*
G01X1207Y10182D01*
G01X10377Y6294D02*
G01X9817Y6294D01*
G01X10627Y5594D02*
G01X11217Y5594D01*
G01X11217Y6294D01*
G01X10627Y6294D01*
G01X9817Y6294D02*
G01X9817Y5594D01*
G01X9817Y5594D02*
G01X10377Y5594D01*
G01X9836Y6455D02*
G01X10397Y6455D01*
G01X9586Y7155D02*
G01X8997Y7155D01*
G01X8997Y6455D01*
G01X9586Y6455D01*
G01X10397Y6455D02*
G01X10397Y7155D01*
G01X10397Y7155D02*
G01X9836Y7155D01*
G01X9911Y4705D02*
G01X10472Y4705D01*
G01X9661Y5405D02*
G01X9072Y5405D01*
G01X9072Y4705D01*
G01X9661Y4705D01*
G01X10472Y4705D02*
G01X10472Y5405D01*
G01X10472Y5405D02*
G01X9911Y5405D01*
G01X2252Y5925D02*
G01X-7Y5925D01*
G01X2256Y5925D02*
G01X2256Y9074D01*
G01X2256Y9074D02*
G01X-3Y9074D01*
G01X-11Y5925D02*
G01X-11Y9074D01*
G01X268Y6165D02*
G01X268Y8830D01*
G01X-11Y5933D02*
G01X36Y5933D01*
G01X268Y6165D01*
G01X-3Y9063D02*
G01X36Y9063D01*
G01X268Y8830D01*
G01X10773Y2565D02*
G01X10214Y2565D01*
G01X11023Y1865D02*
G01X11614Y1865D01*
G01X11614Y2565D01*
G01X11023Y2565D01*
G01X10214Y2565D02*
G01X10214Y1865D01*
G01X10214Y1865D02*
G01X10773Y1865D01*
G54D14*
G01X9100Y80D02*
G01X8100Y80D01*
G01X8100Y1080D01*
G01X9100Y1080D01*
G01X9100Y330D01*
G54D15*
G01X9100Y80D02*
G01X9100Y330D01*
G54D14*
G01X10403Y76D02*
G01X9403Y76D01*
G01X9403Y1076D01*
G01X10403Y1076D01*
G01X10403Y326D01*
G54D15*
G01X10403Y76D02*
G01X10403Y326D01*
G54D10*
G01X10659Y9800D02*
G01X11218Y9800D01*
G01X10409Y10500D02*
G01X9818Y10500D01*
G01X9818Y9800D01*
G01X10409Y9800D01*
G01X11218Y9800D02*
G01X11218Y10500D01*
G01X11218Y10500D02*
G01X10659Y10500D01*
G54D14*
G01X10975Y12350D02*
G01X10975Y11359D01*
G01X8975Y11359D01*
G01X8975Y12350D01*
G01X10975Y12350D01*
G01X4500Y11300D02*
G01X3500Y11300D01*
G01X3500Y12300D01*
G01X4500Y12300D01*
G01X4500Y11550D01*
G54D15*
G01X4500Y11300D02*
G01X4500Y11550D01*
G54D10*
G01X3146Y9567D02*
G01X3707Y9567D01*
G01X2896Y10267D02*
G01X2307Y10267D01*
G01X2307Y9567D01*
G01X2896Y9567D01*
G01X3707Y9567D02*
G01X3707Y10267D01*
G01X3707Y10267D02*
G01X3146Y10267D01*
G01X11739Y1259D02*
G01X11180Y1259D01*
G01X11989Y559D02*
G01X12580Y559D01*
G01X12580Y1259D01*
G01X11989Y1259D01*
G01X11180Y1259D02*
G01X11180Y559D01*
G01X11180Y559D02*
G01X11739Y559D01*
G01X11609Y6409D02*
G01X11609Y5848D01*
G01X12309Y6659D02*
G01X12309Y7248D01*
G01X11609Y7248D01*
G01X11609Y6659D01*
G01X11609Y5848D02*
G01X12309Y5848D01*
G01X12309Y5848D02*
G01X12309Y6409D01*
G01X7200Y500D02*
G01X7200Y5240D01*
G01X7200Y5240D02*
G01X69Y5240D01*
G01X69Y5240D02*
G01X69Y500D01*
G01X69Y500D02*
G01X7200Y500D01*
G54D17*
G01X6747Y10300D02*
G01X6726Y10340D01*
G01X6685Y10382D01*
G01X6645Y10401D01*
G01X6563Y10401D01*
G01X6522Y10382D01*
G01X6481Y10340D01*
G01X6460Y10300D01*
G01X6440Y10238D01*
G01X6440Y10136D01*
G01X6460Y10075D01*
G01X6481Y10034D01*
G01X6522Y9992D01*
G01X6563Y9973D01*
G01X6645Y9973D01*
G01X6685Y9992D01*
G01X6726Y10034D01*
G01X6747Y10075D01*
G01X6882Y10321D02*
G01X6923Y10340D01*
G01X6984Y10401D01*
G01X6984Y9973D01*
G01X7140Y10300D02*
G01X7140Y10321D01*
G01X7160Y10361D01*
G01X7180Y10382D01*
G01X7221Y10401D01*
G01X7303Y10401D01*
G01X7344Y10382D01*
G01X7365Y10361D01*
G01X7385Y10321D01*
G01X7385Y10280D01*
G01X7365Y10238D01*
G01X7324Y10176D01*
G01X7119Y9973D01*
G01X7405Y9973D01*
G01X6961Y7537D02*
G01X6921Y7516D01*
G01X6880Y7475D01*
G01X6860Y7435D01*
G01X6860Y7353D01*
G01X6880Y7312D01*
G01X6921Y7271D01*
G01X6961Y7250D01*
G01X7022Y7230D01*
G01X7125Y7230D01*
G01X7186Y7250D01*
G01X7227Y7271D01*
G01X7268Y7312D01*
G01X7289Y7353D01*
G01X7289Y7435D01*
G01X7268Y7475D01*
G01X7227Y7516D01*
G01X7186Y7537D01*
G01X6940Y7672D02*
G01X6921Y7713D01*
G01X6860Y7774D01*
G01X7289Y7774D01*
G01X6860Y7950D02*
G01X6860Y8175D01*
G01X7022Y8052D01*
G01X7022Y8114D01*
G01X7043Y8155D01*
G01X7064Y8175D01*
G01X7125Y8195D01*
G01X7165Y8195D01*
G01X7227Y8175D01*
G01X7268Y8134D01*
G01X7289Y8073D01*
G01X7289Y8011D01*
G01X7268Y7950D01*
G01X7247Y7930D01*
G01X7206Y7909D01*
G01X13225Y12415D02*
G01X13225Y11985D01*
G01X13225Y12415D02*
G01X13409Y12415D01*
G01X13469Y12394D01*
G01X13490Y12374D01*
G01X13510Y12333D01*
G01X13510Y12272D01*
G01X13490Y12231D01*
G01X13469Y12210D01*
G01X13409Y12190D01*
G01X13225Y12190D01*
G01X13646Y12333D02*
G01X13686Y12353D01*
G01X13748Y12415D01*
G01X13748Y11985D01*
G54D18*
G01X5276Y11155D02*
G01X5261Y11182D01*
G01X5235Y11209D01*
G01X5206Y11223D01*
G01X5152Y11223D01*
G01X5126Y11209D01*
G01X5097Y11182D01*
G01X5085Y11155D01*
G01X5071Y11115D01*
G01X5071Y11046D01*
G01X5085Y11005D01*
G01X5097Y10978D01*
G01X5126Y10951D01*
G01X5152Y10936D01*
G01X5206Y10936D01*
G01X5235Y10951D01*
G01X5261Y10978D01*
G01X5276Y11005D01*
G01X5276Y11046D01*
G01X5206Y11046D02*
G01X5276Y11046D01*
G01X5365Y11223D02*
G01X5365Y10936D01*
G01X5365Y11223D02*
G01X5556Y10936D01*
G01X5556Y11223D02*
G01X5556Y10936D01*
G01X5646Y11223D02*
G01X5646Y10936D01*
G01X5646Y11223D02*
G01X5742Y11223D01*
G01X5782Y11209D01*
G01X5810Y11182D01*
G01X5823Y11155D01*
G01X5836Y11115D01*
G01X5836Y11046D01*
G01X5823Y11005D01*
G01X5810Y10978D01*
G01X5782Y10951D01*
G01X5742Y10936D01*
G01X5646Y10936D01*
G01X6106Y11225D02*
G01X6215Y10938D01*
G01X6325Y11225D02*
G01X6215Y10938D01*
G01X6619Y11155D02*
G01X6606Y11184D01*
G01X6578Y11211D01*
G01X6552Y11225D01*
G01X6497Y11225D01*
G01X6469Y11211D01*
G01X6442Y11184D01*
G01X6428Y11155D01*
G01X6414Y11115D01*
G01X6414Y11046D01*
G01X6428Y11005D01*
G01X6442Y10978D01*
G01X6469Y10951D01*
G01X6497Y10938D01*
G01X6552Y10938D01*
G01X6578Y10951D01*
G01X6606Y10978D01*
G01X6619Y11005D01*
G01X6914Y11155D02*
G01X6901Y11184D01*
G01X6872Y11211D01*
G01X6846Y11225D01*
G01X6792Y11225D01*
G01X6764Y11211D01*
G01X6736Y11184D01*
G01X6722Y11155D01*
G01X6710Y11115D01*
G01X6710Y11046D01*
G01X6722Y11005D01*
G01X6736Y10978D01*
G01X6764Y10951D01*
G01X6792Y10938D01*
G01X6846Y10938D01*
G01X6872Y10951D01*
G01X6901Y10978D01*
G01X6914Y11005D01*
G01X7330Y11184D02*
G01X7302Y11211D01*
G01X7261Y11225D01*
G01X7206Y11225D01*
G01X7165Y11211D01*
G01X7139Y11184D01*
G01X7139Y11155D01*
G01X7152Y11128D01*
G01X7165Y11115D01*
G01X7193Y11101D01*
G01X7275Y11075D01*
G01X7302Y11061D01*
G01X7315Y11046D01*
G01X7330Y11021D01*
G01X7330Y10978D01*
G01X7302Y10951D01*
G01X7261Y10938D01*
G01X7206Y10938D01*
G01X7165Y10951D01*
G01X7139Y10978D01*
G01X7623Y11155D02*
G01X7610Y11184D01*
G01X7584Y11211D01*
G01X7556Y11225D01*
G01X7502Y11225D01*
G01X7473Y11211D01*
G01X7447Y11184D01*
G01X7434Y11155D01*
G01X7419Y11115D01*
G01X7419Y11046D01*
G01X7434Y11005D01*
G01X7447Y10978D01*
G01X7473Y10951D01*
G01X7502Y10938D01*
G01X7556Y10938D01*
G01X7584Y10951D01*
G01X7610Y10978D01*
G01X7623Y11005D01*
G01X7714Y11225D02*
G01X7714Y10938D01*
G01X7714Y10938D02*
G01X7877Y10938D01*
G01X8326Y11182D02*
G01X8298Y11209D01*
G01X8257Y11223D01*
G01X8202Y11223D01*
G01X8161Y11209D01*
G01X8135Y11182D01*
G01X8135Y11155D01*
G01X8148Y11128D01*
G01X8161Y11115D01*
G01X8189Y11101D01*
G01X8271Y11073D01*
G01X8298Y11059D01*
G01X8311Y11046D01*
G01X8326Y11019D01*
G01X8326Y10978D01*
G01X8298Y10951D01*
G01X8257Y10936D01*
G01X8202Y10936D01*
G01X8161Y10951D01*
G01X8135Y10978D01*
G01X8415Y11223D02*
G01X8415Y10936D01*
G01X8415Y11223D02*
G01X8510Y11223D01*
G01X8552Y11209D01*
G01X8580Y11182D01*
G01X8593Y11155D01*
G01X8606Y11115D01*
G01X8606Y11046D01*
G01X8593Y11005D01*
G01X8580Y10978D01*
G01X8552Y10951D01*
G01X8510Y10936D01*
G01X8415Y10936D01*
G01X8806Y11223D02*
G01X8697Y10936D01*
G01X8806Y11223D02*
G01X8914Y10936D01*
G01X8738Y11032D02*
G01X8873Y11032D01*
G54D17*
G01X10178Y9364D02*
G01X10178Y9057D01*
G01X10198Y8996D01*
G01X10239Y8955D01*
G01X10301Y8934D01*
G01X10342Y8934D01*
G01X10403Y8955D01*
G01X10444Y8996D01*
G01X10464Y9057D01*
G01X10464Y9364D01*
G01X10804Y9364D02*
G01X10599Y9077D01*
G01X10906Y9077D01*
G01X10804Y9364D02*
G01X10804Y8934D01*
G01X8886Y9798D02*
G01X9315Y10084D01*
G01X8886Y10084D02*
G01X9315Y9798D01*
G01X8988Y10240D02*
G01X8967Y10240D01*
G01X8926Y10259D01*
G01X8906Y10280D01*
G01X8886Y10321D01*
G01X8886Y10403D01*
G01X8906Y10444D01*
G01X8926Y10465D01*
G01X8967Y10484D01*
G01X9008Y10484D01*
G01X9049Y10465D01*
G01X9111Y10423D01*
G01X9315Y10219D01*
G01X9315Y10505D01*
G01X13358Y9702D02*
G01X13317Y9661D01*
G01X13297Y9600D01*
G01X13297Y9518D01*
G01X13317Y9457D01*
G01X13358Y9416D01*
G01X13399Y9416D01*
G01X13440Y9436D01*
G01X13460Y9457D01*
G01X13481Y9498D01*
G01X13522Y9621D01*
G01X13542Y9661D01*
G01X13562Y9682D01*
G01X13603Y9702D01*
G01X13665Y9702D01*
G01X13706Y9661D01*
G01X13726Y9600D01*
G01X13726Y9518D01*
G01X13706Y9457D01*
G01X13665Y9416D01*
G01X13297Y9837D02*
G01X13726Y9940D01*
G01X13297Y10042D02*
G01X13726Y9940D01*
G01X13297Y10042D02*
G01X13726Y10144D01*
G01X13297Y10246D02*
G01X13726Y10144D01*
G01X13297Y10422D02*
G01X13297Y10647D01*
G01X13460Y10525D01*
G01X13460Y10586D01*
G01X13481Y10627D01*
G01X13501Y10647D01*
G01X13562Y10668D01*
G01X13603Y10668D01*
G01X13665Y10647D01*
G01X13706Y10606D01*
G01X13726Y10545D01*
G01X13726Y10484D01*
G01X13706Y10422D01*
G01X13685Y10402D01*
G01X13644Y10381D01*
G01X13298Y6119D02*
G01X13257Y6078D01*
G01X13237Y6017D01*
G01X13237Y5935D01*
G01X13257Y5874D01*
G01X13298Y5833D01*
G01X13339Y5833D01*
G01X13380Y5853D01*
G01X13400Y5874D01*
G01X13421Y5915D01*
G01X13462Y6038D01*
G01X13482Y6078D01*
G01X13502Y6099D01*
G01X13543Y6119D01*
G01X13605Y6119D01*
G01X13646Y6078D01*
G01X13666Y6017D01*
G01X13666Y5935D01*
G01X13646Y5874D01*
G01X13605Y5833D01*
G01X13237Y6254D02*
G01X13666Y6357D01*
G01X13237Y6459D02*
G01X13666Y6357D01*
G01X13237Y6459D02*
G01X13666Y6561D01*
G01X13237Y6663D02*
G01X13666Y6561D01*
G01X13237Y7003D02*
G01X13523Y6798D01*
G01X13523Y7105D01*
G01X13237Y7003D02*
G01X13666Y7003D01*
G01X13284Y2444D02*
G01X13243Y2403D01*
G01X13223Y2342D01*
G01X13223Y2259D01*
G01X13243Y2198D01*
G01X13284Y2157D01*
G01X13325Y2157D01*
G01X13366Y2178D01*
G01X13386Y2198D01*
G01X13407Y2240D01*
G01X13448Y2363D01*
G01X13468Y2403D01*
G01X13488Y2423D01*
G01X13529Y2444D01*
G01X13591Y2444D01*
G01X13632Y2403D01*
G01X13652Y2342D01*
G01X13652Y2259D01*
G01X13632Y2198D01*
G01X13591Y2157D01*
G01X13223Y2578D02*
G01X13652Y2682D01*
G01X13223Y2784D02*
G01X13652Y2682D01*
G01X13223Y2784D02*
G01X13652Y2886D01*
G01X13223Y2988D02*
G01X13652Y2886D01*
G01X13304Y3123D02*
G01X13284Y3163D01*
G01X13223Y3226D01*
G01X13652Y3226D01*
G01X1450Y10488D02*
G01X1450Y10161D01*
G01X1428Y10101D01*
G01X1409Y10080D01*
G01X1367Y10059D01*
G01X1326Y10059D01*
G01X1286Y10080D01*
G01X1265Y10101D01*
G01X1244Y10161D01*
G01X1244Y10203D01*
G01X1584Y10488D02*
G01X1584Y10059D01*
G01X1584Y10488D02*
G01X1769Y10488D01*
G01X1830Y10469D01*
G01X1850Y10448D01*
G01X1871Y10407D01*
G01X1871Y10346D01*
G01X1850Y10305D01*
G01X1830Y10284D01*
G01X1769Y10263D01*
G01X1584Y10263D01*
G01X2005Y10407D02*
G01X2046Y10428D01*
G01X2107Y10488D01*
G01X2107Y10059D01*
G01X5400Y7600D02*
G01X5685Y7170D01*
G01X5685Y7600D02*
G01X5400Y7170D01*
G01X5821Y7518D02*
G01X5861Y7538D01*
G01X5923Y7600D01*
G01X5923Y7170D01*
G01X11706Y5488D02*
G01X11706Y5201D01*
G01X11706Y5488D02*
G01X11830Y5488D01*
G01X11871Y5475D01*
G01X11884Y5461D01*
G01X11897Y5434D01*
G01X11897Y5407D01*
G01X11884Y5380D01*
G01X11871Y5365D01*
G01X11830Y5351D01*
G01X11706Y5351D01*
G01X11802Y5351D02*
G01X11897Y5201D01*
G01X12014Y5488D02*
G01X12164Y5488D01*
G01X12082Y5380D01*
G01X12123Y5380D01*
G01X12152Y5365D01*
G01X12164Y5351D01*
G01X12178Y5311D01*
G01X12178Y5284D01*
G01X12164Y5242D01*
G01X12138Y5215D01*
G01X12097Y5201D01*
G01X12056Y5201D01*
G01X12014Y5215D01*
G01X12002Y5230D01*
G01X11988Y5257D01*
G01X1963Y9436D02*
G01X1942Y9478D01*
G01X1901Y9519D01*
G01X1861Y9538D01*
G01X1779Y9538D01*
G01X1738Y9519D01*
G01X1697Y9478D01*
G01X1676Y9436D01*
G01X1656Y9376D01*
G01X1656Y9273D01*
G01X1676Y9211D01*
G01X1697Y9171D01*
G01X1738Y9130D01*
G01X1779Y9109D01*
G01X1861Y9109D01*
G01X1901Y9130D01*
G01X1942Y9171D01*
G01X1963Y9211D01*
G01X2098Y9457D02*
G01X2139Y9478D01*
G01X2200Y9538D01*
G01X2200Y9109D01*
G01X9152Y6078D02*
G01X9152Y5790D01*
G01X9152Y6078D02*
G01X9275Y6078D01*
G01X9316Y6063D01*
G01X9329Y6050D01*
G01X9343Y6023D01*
G01X9343Y5996D01*
G01X9329Y5969D01*
G01X9316Y5955D01*
G01X9275Y5940D01*
G01X9152Y5940D01*
G01X9247Y5940D02*
G01X9343Y5790D01*
G01X9569Y6078D02*
G01X9433Y5886D01*
G01X9637Y5886D01*
G01X9569Y6078D02*
G01X9569Y5790D01*
G01X9446Y7593D02*
G01X9446Y7306D01*
G01X9446Y7306D02*
G01X9610Y7306D01*
G01X9700Y7593D02*
G01X9700Y7306D01*
G01X9700Y7593D02*
G01X9877Y7593D01*
G01X9700Y7456D02*
G01X9809Y7456D01*
G01X9700Y7306D02*
G01X9877Y7306D01*
G01X9967Y7593D02*
G01X9967Y7306D01*
G01X9967Y7593D02*
G01X10062Y7593D01*
G01X10103Y7579D01*
G01X10131Y7552D01*
G01X10144Y7524D01*
G01X10158Y7484D01*
G01X10158Y7415D01*
G01X10144Y7374D01*
G01X10131Y7347D01*
G01X10103Y7320D01*
G01X10062Y7306D01*
G01X9967Y7306D01*
G01X10248Y7538D02*
G01X10275Y7552D01*
G01X10316Y7593D01*
G01X10316Y7306D01*
G01X9746Y4546D02*
G01X9746Y4259D01*
G01X9746Y4259D02*
G01X9910Y4259D01*
G01X10000Y4546D02*
G01X10000Y4259D01*
G01X10000Y4546D02*
G01X10177Y4546D01*
G01X10000Y4409D02*
G01X10109Y4409D01*
G01X10000Y4259D02*
G01X10177Y4259D01*
G01X10267Y4546D02*
G01X10267Y4259D01*
G01X10267Y4546D02*
G01X10362Y4546D01*
G01X10403Y4532D01*
G01X10431Y4505D01*
G01X10444Y4477D01*
G01X10458Y4437D01*
G01X10458Y4368D01*
G01X10444Y4327D01*
G01X10431Y4300D01*
G01X10403Y4273D01*
G01X10362Y4259D01*
G01X10267Y4259D01*
G01X10575Y4546D02*
G01X10725Y4546D01*
G01X10643Y4437D01*
G01X10684Y4437D01*
G01X10711Y4423D01*
G01X10725Y4409D01*
G01X10739Y4368D01*
G01X10739Y4341D01*
G01X10725Y4300D01*
G01X10698Y4273D01*
G01X10657Y4259D01*
G01X10616Y4259D01*
G01X10575Y4273D01*
G01X10561Y4287D01*
G01X10548Y4314D01*
G01X1055Y6855D02*
G01X1361Y6855D01*
G01X1423Y6875D01*
G01X1463Y6915D01*
G01X1484Y6976D01*
G01X1484Y7017D01*
G01X1463Y7080D01*
G01X1423Y7121D01*
G01X1361Y7140D01*
G01X1055Y7140D01*
G01X1115Y7561D02*
G01X1075Y7521D01*
G01X1055Y7459D01*
G01X1055Y7378D01*
G01X1075Y7317D01*
G01X1115Y7276D01*
G01X1157Y7276D01*
G01X1198Y7296D01*
G01X1217Y7317D01*
G01X1238Y7357D01*
G01X1280Y7480D01*
G01X1300Y7521D01*
G01X1321Y7542D01*
G01X1361Y7561D01*
G01X1423Y7561D01*
G01X1463Y7521D01*
G01X1484Y7459D01*
G01X1484Y7378D01*
G01X1463Y7317D01*
G01X1423Y7276D01*
G01X1055Y7696D02*
G01X1484Y7696D01*
G01X1055Y7696D02*
G01X1055Y7882D01*
G01X1075Y7942D01*
G01X1096Y7963D01*
G01X1136Y7984D01*
G01X1176Y7984D01*
G01X1217Y7963D01*
G01X1238Y7942D01*
G01X1259Y7882D01*
G01X1259Y7696D02*
G01X1259Y7882D01*
G01X1280Y7942D01*
G01X1300Y7963D01*
G01X1340Y7984D01*
G01X1401Y7984D01*
G01X1442Y7963D01*
G01X1463Y7942D01*
G01X1484Y7882D01*
G01X1484Y7696D01*
G01X1136Y8119D02*
G01X1115Y8159D01*
G01X1055Y8221D01*
G01X1484Y8221D01*
G01X10914Y3309D02*
G01X10914Y2880D01*
G01X10914Y3309D02*
G01X11097Y3309D01*
G01X11159Y3290D01*
G01X11180Y3269D01*
G01X11200Y3228D01*
G01X11200Y3188D01*
G01X11180Y3146D01*
G01X11159Y3126D01*
G01X11097Y3105D01*
G01X10914Y3105D01*
G01X11056Y3105D02*
G01X11200Y2880D01*
G01X11581Y3309D02*
G01X11376Y3309D01*
G01X11356Y3126D01*
G01X11376Y3146D01*
G01X11438Y3167D01*
G01X11498Y3167D01*
G01X11560Y3146D01*
G01X11601Y3105D01*
G01X11622Y3044D01*
G01X11622Y3003D01*
G01X11601Y2942D01*
G01X11560Y2901D01*
G01X11498Y2880D01*
G01X11438Y2880D01*
G01X11376Y2901D01*
G01X11356Y2921D01*
G01X11335Y2963D01*
G01X8600Y1825D02*
G01X8600Y1396D01*
G01X8600Y1825D02*
G01X8784Y1825D01*
G01X8844Y1805D01*
G01X8865Y1784D01*
G01X8885Y1744D01*
G01X8885Y1703D01*
G01X8865Y1661D01*
G01X8844Y1640D01*
G01X8784Y1621D01*
G01X8600Y1621D02*
G01X8784Y1621D01*
G01X8844Y1600D01*
G01X8865Y1580D01*
G01X8885Y1538D01*
G01X8885Y1478D01*
G01X8865Y1436D01*
G01X8844Y1415D01*
G01X8784Y1396D01*
G01X8600Y1396D01*
G01X9205Y1763D02*
G01X9205Y1396D01*
G01X9021Y1580D02*
G01X9389Y1580D01*
G01X9903Y1821D02*
G01X9903Y1392D01*
G01X9903Y1821D02*
G01X10088Y1821D01*
G01X10148Y1801D01*
G01X10169Y1780D01*
G01X10189Y1740D01*
G01X10189Y1698D01*
G01X10169Y1657D01*
G01X10148Y1636D01*
G01X10088Y1617D01*
G01X9903Y1617D02*
G01X10088Y1617D01*
G01X10148Y1596D01*
G01X10169Y1576D01*
G01X10189Y1534D01*
G01X10189Y1473D01*
G01X10169Y1432D01*
G01X10148Y1411D01*
G01X10088Y1392D01*
G01X9903Y1392D01*
G01X10325Y1576D02*
G01X10693Y1576D01*
G01X11375Y10423D02*
G01X11375Y9994D01*
G01X11375Y10423D02*
G01X11559Y10423D01*
G01X11620Y10403D01*
G01X11641Y10382D01*
G01X11661Y10342D01*
G01X11661Y10301D01*
G01X11641Y10259D01*
G01X11620Y10238D01*
G01X11559Y10219D01*
G01X11375Y10219D01*
G01X11518Y10219D02*
G01X11661Y9994D01*
G01X11817Y10321D02*
G01X11817Y10342D01*
G01X11837Y10382D01*
G01X11858Y10403D01*
G01X11899Y10423D01*
G01X11980Y10423D01*
G01X12021Y10403D01*
G01X12042Y10382D01*
G01X12062Y10342D01*
G01X12062Y10301D01*
G01X12042Y10259D01*
G01X12001Y10198D01*
G01X11796Y9994D01*
G01X12083Y9994D01*
G01X9766Y11250D02*
G01X9766Y10821D01*
G01X9766Y11250D02*
G01X9950Y11250D01*
G01X10011Y11230D01*
G01X10032Y11209D01*
G01X10052Y11169D01*
G01X10052Y11107D01*
G01X10032Y11065D01*
G01X10011Y11046D01*
G01X9950Y11025D01*
G01X9766Y11025D01*
G01X10474Y11250D02*
G01X10269Y10821D01*
G01X10187Y11250D02*
G01X10474Y11250D01*
G01X3600Y11100D02*
G01X3600Y10671D01*
G01X3600Y11100D02*
G01X3784Y11100D01*
G01X3844Y11080D01*
G01X3865Y11059D01*
G01X3886Y11019D01*
G01X3886Y10957D01*
G01X3865Y10915D01*
G01X3844Y10896D01*
G01X3784Y10875D01*
G01X3600Y10875D01*
G01X4123Y11100D02*
G01X4061Y11080D01*
G01X4042Y11038D01*
G01X4042Y10998D01*
G01X4061Y10957D01*
G01X4103Y10936D01*
G01X4184Y10915D01*
G01X4246Y10896D01*
G01X4286Y10855D01*
G01X4307Y10813D01*
G01X4307Y10753D01*
G01X4286Y10711D01*
G01X4267Y10690D01*
G01X4205Y10671D01*
G01X4123Y10671D01*
G01X4061Y10690D01*
G01X4042Y10711D01*
G01X4021Y10753D01*
G01X4021Y10813D01*
G01X4042Y10855D01*
G01X4082Y10896D01*
G01X4144Y10915D01*
G01X4226Y10936D01*
G01X4267Y10957D01*
G01X4286Y10998D01*
G01X4286Y11038D01*
G01X4267Y11080D01*
G01X4205Y11100D01*
G01X4123Y11100D01*
G01X3313Y9209D02*
G01X3292Y9251D01*
G01X3251Y9292D01*
G01X3211Y9311D01*
G01X3130Y9311D01*
G01X3088Y9292D01*
G01X3048Y9251D01*
G01X3026Y9209D01*
G01X3007Y9148D01*
G01X3007Y9046D01*
G01X3026Y8984D01*
G01X3048Y8944D01*
G01X3088Y8903D01*
G01X3130Y8882D01*
G01X3211Y8882D01*
G01X3251Y8903D01*
G01X3292Y8944D01*
G01X3313Y8984D01*
G01X3653Y9311D02*
G01X3448Y9026D01*
G01X3755Y9026D01*
G01X3653Y9311D02*
G01X3653Y8882D01*
G01X11880Y2005D02*
G01X11880Y1576D01*
G01X11880Y2005D02*
G01X12064Y2005D01*
G01X12125Y1984D01*
G01X12146Y1965D01*
G01X12165Y1923D01*
G01X12165Y1882D01*
G01X12146Y1842D01*
G01X12125Y1821D01*
G01X12064Y1801D01*
G01X11880Y1801D01*
G01X12022Y1801D02*
G01X12165Y1576D01*
G01X12301Y1923D02*
G01X12342Y1944D01*
G01X12403Y2005D01*
G01X12403Y1576D01*
G01X10864Y6548D02*
G01X11293Y6548D01*
G01X10864Y6548D02*
G01X10864Y6732D01*
G01X10884Y6794D01*
G01X10903Y6815D01*
G01X10944Y6834D01*
G01X10985Y6834D01*
G01X11027Y6815D01*
G01X11047Y6794D01*
G01X11068Y6732D01*
G01X11068Y6548D01*
G01X11068Y6692D02*
G01X11293Y6834D01*
G01X10944Y6969D02*
G01X10925Y7011D01*
G01X10864Y7073D01*
G01X11293Y7073D01*
G01X10944Y7207D02*
G01X10925Y7248D01*
G01X10864Y7309D01*
G01X11293Y7309D01*
G01X1344Y5757D02*
G01X1344Y5451D01*
G01X1364Y5390D01*
G01X1405Y5348D01*
G01X1467Y5328D01*
G01X1508Y5328D01*
G01X1569Y5348D01*
G01X1610Y5390D01*
G01X1630Y5451D01*
G01X1630Y5757D01*
G01X2011Y5696D02*
G01X1990Y5738D01*
G01X1929Y5757D01*
G01X1888Y5757D01*
G01X1827Y5738D01*
G01X1786Y5676D01*
G01X1765Y5573D01*
G01X1765Y5471D01*
G01X1786Y5390D01*
G01X1827Y5348D01*
G01X1888Y5328D01*
G01X1909Y5328D01*
G01X1970Y5348D01*
G01X2011Y5390D01*
G01X2031Y5451D01*
G01X2031Y5471D01*
G01X2011Y5532D01*
G01X1970Y5573D01*
G01X1909Y5594D01*
G01X1888Y5594D01*
G01X1827Y5573D01*
G01X1786Y5532D01*
G01X1765Y5471D01*
G54D16*
G75*
G01X9627Y9761D02*
G03X9627Y9759I-78J-1D01*
G01*
G54D10*
G75*
G01X2750Y11723D02*
G03X2750Y11723I-750J0D01*
G01*
G75*
G01X12750Y11723D02*
G03X12750Y11723I-750J0D01*
G01*
G75*
G01X2750Y817D02*
G03X2750Y817I-750J0D01*
G01*
G75*
G01X12750Y817D02*
G03X12750Y817I-750J0D01*
G01*
G75*
G01X8755Y9684D02*
G03X8755Y9684I-591J0D01*
G01*

M00*
M02*