G04 ---------------------------- Layer name :BOTTOM LAYER*
G04 easyEDA 0.1*
G04 Scale: 100 percent, Rotated: No, Reflected: No *
G04 Dimensions in inches *
G04 leading zeros omitted , absolute positions ,2 integer and 4 * 
%FSLAX24Y24*%
%MOIN*%
G90*
G70D02*

%ADD11C,0.005980*%
%ADD12C,0.008000*%
%ADD13C,0.020079*%
%ADD14R,0.043300X0.015700*%
%ADD15R,0.047200X0.021700*%
%ADD16R,0.031500X0.047200*%
%ADD17R,0.031496X0.029528*%
%ADD18R,0.031496X0.022835*%
%ADD19R,0.050000X0.057900*%
%ADD20R,0.236200X0.118100*%
%ADD21R,0.039370X0.049212*%
%ADD22R,0.090551X0.106300*%
%ADD23R,0.080000X0.070000*%
%ADD24R,0.027559X0.049213*%
%ADD25R,0.068100X0.013000*%
%ADD26R,0.096900X0.091300*%
%ADD27R,0.118100X0.236200*%
%ADD28R,0.051181X0.062992*%
%ADD29C,0.039370*%
%ADD31C,0.047240*%
%ADD33C,0.060000*%
%ADD35R,0.070000X0.070000*%
%ADD36C,0.070000*%

%LPD*%
G54D11*
G01X8894Y26871D02*
G01X8894Y21763D01*
G01X8894Y26871D02*
G01X9019Y26871D01*
G01X9092Y26944D01*
G01X9092Y27561D01*
G01X8800Y27853D01*
G01X8800Y28900D01*
G01X8519Y26900D02*
G01X8548Y26871D01*
G01X8894Y26871D01*
G01X10025Y20138D02*
G01X10247Y20359D01*
G01X10368Y20359D01*
G01X10503Y20223D01*
G01X10503Y17957D01*
G01X10253Y17709D01*
G01X10253Y17482D01*
G01X9873Y16848D02*
G01X9873Y16211D01*
G01X10355Y15730D01*
G01X8800Y28900D02*
G01X8178Y29521D01*
G01X3738Y29521D01*
G01X3696Y29478D01*
G01X8090Y26900D02*
G01X8519Y26900D01*
G01X3390Y29478D02*
G01X3696Y29478D01*
G01X10226Y27207D02*
G01X10226Y28038D01*
G01X7800Y28900D02*
G01X7800Y28144D01*
G01X8519Y27426D01*
G01X8519Y27100D01*
G01X10100Y21803D02*
G01X10100Y26563D01*
G01X10226Y26690D01*
G01X10226Y26690D01*
G01X10226Y27207D01*
G01X8569Y17800D02*
G01X8569Y19023D01*
G01X10256Y20709D01*
G01X10256Y21646D01*
G01X10100Y21803D01*
G01X9953Y21769D02*
G01X10064Y21769D01*
G01X10100Y21803D01*
G01X9953Y21769D02*
G01X9669Y22052D01*
G01X9669Y22621D01*
G01X8926Y20740D02*
G01X9953Y21769D01*
G01X3390Y29228D02*
G01X4290Y29228D01*
G01X5061Y28457D01*
G01X6188Y28457D01*
G01X6257Y28527D01*
G01X6257Y29059D01*
G01X6598Y29402D01*
G01X7298Y29402D01*
G01X7800Y28900D01*
G01X8090Y27100D02*
G01X8519Y27100D01*
G01X7690Y24198D02*
G01X5761Y26130D01*
G01X5761Y26780D01*
G01X5880Y26900D01*
G01X11630Y22544D02*
G01X11306Y22869D01*
G01X11306Y23600D01*
G01X5084Y17898D02*
G01X5263Y17719D01*
G01X5263Y16942D01*
G01X5151Y16832D01*
G01X3367Y16832D01*
G01X3280Y16919D01*
G01X7690Y24198D02*
G01X8334Y24198D01*
G01X8709Y24575D01*
G01X8709Y26538D01*
G01X8548Y26700D01*
G01X8090Y26700D01*
G01X3696Y28719D02*
G01X4084Y28330D01*
G01X6230Y28330D01*
G01X6800Y28900D01*
G01X5084Y17898D02*
G01X5084Y22678D01*
G01X4663Y23100D01*
G01X2009Y16919D02*
G01X3280Y16919D01*
G01X7690Y24198D02*
G01X7690Y23886D01*
G01X7098Y23294D01*
G01X6726Y23294D01*
G01X6563Y23457D01*
G01X6563Y23819D01*
G01X6190Y24190D01*
G01X5765Y24190D01*
G01X5765Y24192D01*
G01X7690Y15128D02*
G01X7217Y15128D01*
G01X5769Y16578D01*
G01X6311Y26900D02*
G01X5880Y26900D01*
G01X1523Y24809D02*
G01X1523Y26096D01*
G01X2226Y26800D01*
G01X5769Y16500D02*
G01X5769Y15978D01*
G01X5769Y16578D02*
G01X5769Y16655D01*
G01X5769Y16500D02*
G01X5769Y16578D01*
G01X1523Y23565D02*
G01X1523Y24809D01*
G01X1523Y23565D02*
G01X4282Y23565D01*
G01X4507Y23340D01*
G01X4507Y23100D01*
G01X1194Y23565D02*
G01X1523Y23565D01*
G01X8826Y27544D02*
G01X8721Y27544D01*
G01X8651Y27615D01*
G01X8826Y27207D02*
G01X8826Y27544D01*
G01X4663Y23100D02*
G01X4507Y23100D01*
G01X4794Y23100D02*
G01X4663Y23100D01*
G01X1194Y23565D02*
G01X1194Y23700D01*
G01X1194Y22800D02*
G01X1194Y23565D01*
G01X3390Y28719D02*
G01X3696Y28719D01*
G01X907Y23700D02*
G01X907Y27555D01*
G01X401Y28061D01*
G01X401Y28673D02*
G01X401Y28300D01*
G01X401Y28988D02*
G01X401Y28673D01*
G01X401Y29361D02*
G01X401Y28988D01*
G01X5580Y17898D02*
G01X5084Y17898D01*
G01X401Y28300D02*
G01X401Y28061D01*
G01X1194Y23700D02*
G01X907Y23700D01*
G01X5769Y16702D02*
G01X5769Y16905D01*
G01X5769Y16702D02*
G01X5769Y16655D01*
G01X1194Y21900D02*
G01X1194Y22800D01*
G01X5769Y16905D02*
G01X5580Y17094D01*
G01X5580Y17898D01*
G01X1007Y28300D02*
G01X1253Y28300D01*
G01X1253Y28300D02*
G01X1253Y28363D01*
G01X1611Y28719D01*
G01X1007Y28673D02*
G01X1253Y28673D01*
G01X1253Y28673D02*
G01X1253Y28809D01*
G01X1413Y28969D01*
G01X1611Y28969D01*
G01X1611Y29228D02*
G01X1303Y29228D01*
G01X1007Y28988D02*
G01X1253Y28988D01*
G01X1253Y28988D02*
G01X1253Y29178D01*
G01X1303Y29228D01*
G01X2298Y28913D02*
G01X4934Y26275D01*
G01X5290Y26275D01*
G01X10973Y26871D02*
G01X11055Y26790D01*
G01X11055Y25630D01*
G01X11610Y25076D01*
G01X11610Y22840D01*
G01X12200Y22250D01*
G01X10176Y17800D02*
G01X10297Y17921D01*
G01X10297Y20138D01*
G01X9830Y17800D02*
G01X10176Y17800D01*
G01X1917Y29478D02*
G01X1917Y29294D01*
G01X2298Y28913D01*
G01X8400Y24546D02*
G01X8519Y24667D01*
G01X8519Y26509D01*
G01X14561Y27150D02*
G01X14561Y26251D01*
G01X14127Y25815D01*
G01X14127Y22684D01*
G01X14561Y22250D01*
G01X8090Y26509D02*
G01X8519Y26509D01*
G01X1611Y29478D02*
G01X1917Y29478D01*
G01X9743Y17800D02*
G01X9830Y17800D01*
G01X8857Y16800D02*
G01X9484Y17426D01*
G01X9484Y17800D01*
G01X9743Y17800D02*
G01X9484Y17800D01*
G01X10973Y27207D02*
G01X10973Y26871D01*
G01X12200Y22250D02*
G01X12257Y22307D01*
G01X14503Y22307D01*
G01X14561Y22250D01*
G01X1457Y29478D02*
G01X1611Y29478D01*
G01X1457Y29478D02*
G01X1303Y29478D01*
G01X405Y22800D02*
G01X692Y22800D01*
G01X692Y22800D02*
G01X692Y26946D01*
G01X153Y27486D01*
G01X153Y29582D01*
G01X171Y29600D01*
G01X1286Y29600D01*
G01X1303Y29582D01*
G01X1303Y29478D01*
G01X8611Y16800D02*
G01X8857Y16800D01*
G01X12852Y15144D02*
G01X12418Y15578D01*
G01X12418Y19688D01*
G01X1859Y27427D02*
G01X1923Y27427D01*
G01X4969Y24380D01*
G01X4969Y23680D01*
G01X5376Y23273D01*
G01X5376Y23105D01*
G01X5723Y22757D01*
G01X5723Y20253D01*
G01X5898Y20078D01*
G01X5898Y19176D01*
G01X6163Y18909D01*
G01X6163Y16405D01*
G01X7069Y15498D01*
G01X8709Y15498D01*
G01X9689Y15498D02*
G01X10068Y15119D01*
G01X11372Y15119D01*
G01X11389Y15138D01*
G01X11389Y17042D01*
G01X8873Y15498D02*
G01X8709Y15498D01*
G01X9350Y15498D02*
G01X9689Y15498D01*
G01X9036Y15498D02*
G01X9350Y15498D01*
G01X8873Y15498D02*
G01X9036Y15498D01*
G01X8709Y15869D02*
G01X9036Y15869D01*
G01X9036Y15498D02*
G01X9036Y15869D01*
G01X10600Y28192D02*
G01X10600Y28605D01*
G01X10600Y27855D02*
G01X10600Y26859D01*
G01X10934Y26525D01*
G01X10934Y20042D01*
G01X11614Y19361D01*
G01X10600Y28192D02*
G01X10600Y27855D01*
G01X13793Y22501D02*
G01X12973Y23319D01*
G01X12973Y29055D01*
G01X10710Y15498D02*
G01X10278Y15498D01*
G01X9619Y16159D01*
G01X8305Y16159D01*
G01X8015Y15869D02*
G01X8305Y16159D01*
G01X8305Y16159D02*
G01X7990Y16473D01*
G01X7990Y16800D02*
G01X7990Y16473D01*
G01X7690Y15869D02*
G01X8015Y15869D01*
G01X11050Y15498D02*
G01X10710Y15498D01*
G01X6105Y23700D02*
G01X6392Y23700D01*
G01X6392Y23700D02*
G01X6392Y23413D01*
G01X6692Y23113D01*
G01X8246Y23113D01*
G01X8621Y23488D01*
G01X6105Y23700D02*
G01X5963Y23700D01*
G01X759Y29361D02*
G01X759Y28113D01*
G01X1255Y27617D01*
G01X1984Y27617D01*
G01X5819Y23782D01*
G01X5819Y23700D01*
G01X5963Y23700D02*
G01X5819Y23700D01*
G01X1007Y29361D02*
G01X759Y29361D01*
G01X4005Y18961D02*
G01X3363Y18961D01*
G01X3280Y18878D01*
G01X4005Y23100D02*
G01X4005Y18961D01*
G01X12226Y21138D02*
G01X11656Y21138D01*
G01X11231Y21563D01*
G01X6655Y18853D02*
G01X7348Y18853D01*
G01X10059Y21563D01*
G01X2009Y18878D02*
G01X738Y18878D01*
G01X405Y23700D02*
G01X119Y23700D01*
G01X119Y23700D02*
G01X119Y19498D01*
G01X738Y18878D01*
G01X2009Y18878D02*
G01X3280Y18878D01*
G01X7596Y16142D02*
G01X7550Y16094D01*
G01X6736Y16094D01*
G01X6684Y16148D01*
G01X6684Y18555D01*
G01X6465Y18775D01*
G01X6465Y18948D01*
G01X6357Y19055D01*
G01X6357Y20100D01*
G01X6194Y20263D01*
G01X6194Y20600D02*
G01X6194Y20263D01*
G01X10318Y16034D02*
G01X10318Y16911D01*
G01X10856Y17450D01*
G01X11156Y17450D01*
G01X4219Y17278D02*
G01X4817Y17278D01*
G01X5073Y17021D01*
G01X4219Y17898D02*
G01X4219Y17278D01*
G01X5405Y20936D02*
G01X5276Y21065D01*
G01X5276Y22661D01*
G01X4846Y23530D02*
G01X4951Y23530D01*
G01X5225Y23257D01*
G01X5225Y22713D01*
G01X5276Y22661D01*
G01X5405Y20600D02*
G01X5405Y20936D01*
G01X5469Y19805D02*
G01X5405Y19869D01*
G01X5405Y20600D01*
G01X2651Y21900D02*
G01X2651Y22361D01*
G01X3734Y23446D01*
G01X4232Y23446D01*
G01X4298Y23380D01*
G01X4298Y22721D01*
G01X2651Y21900D02*
G01X2507Y21900D01*
G01X2794Y21900D02*
G01X2651Y21900D01*
G01X407Y21900D02*
G01X692Y21900D01*
G01X692Y21900D02*
G01X692Y21828D01*
G01X957Y21563D01*
G01X2242Y21563D01*
G01X2507Y21828D01*
G01X2507Y21900D01*
G01X5469Y19400D02*
G01X5469Y19805D01*
G01X4830Y25696D02*
G01X5003Y25696D01*
G01X6465Y24234D01*
G01X6894Y23700D02*
G01X7180Y23700D01*
G01X7180Y23700D02*
G01X7180Y24203D01*
G01X7290Y24311D01*
G01X6357Y16532D02*
G01X6344Y16546D01*
G01X6344Y18898D01*
G01X6238Y19005D01*
G01X6238Y19967D01*
G01X5882Y20323D01*
G01X5882Y22728D01*
G01X5507Y23826D02*
G01X5507Y23298D01*
G01X5882Y22923D01*
G01X5882Y22728D01*
G01X5882Y22728D02*
G01X6811Y22728D01*
G01X12100Y24430D02*
G01X12403Y24430D01*
G01X12664Y24690D01*
G01X12100Y24430D02*
G01X12100Y24209D01*
G01X12100Y24650D02*
G01X12100Y24430D01*
G01X12093Y23600D02*
G01X12093Y24203D01*
G01X12100Y24209D01*
G01X12664Y24994D02*
G01X12853Y24803D01*
G01X12853Y22501D01*
G01X12100Y26350D02*
G01X12664Y25786D01*
G01X12664Y24994D01*
G01X10485Y26025D02*
G01X10694Y25815D01*
G01X10694Y23578D01*
G01X10760Y23511D01*
G01X10760Y19915D01*
G01X11635Y19038D01*
G01X11635Y19038D02*
G01X11598Y19002D01*
G01X11598Y18753D01*
G01X10488Y17642D01*
G01X10488Y17463D01*
G01X10443Y17419D01*
G01X10443Y17403D01*
G01X10332Y17292D01*
G01X10135Y17292D01*
G01X9943Y17098D01*
G01X9840Y17098D01*
G01X9217Y16473D01*
G01X8378Y16473D01*
G01X8238Y16613D01*
G01X8238Y17113D01*
G01X8223Y17127D01*
G01X7742Y17127D01*
G01X7376Y16759D01*
G01X7376Y16500D01*
G01X12200Y20675D02*
G01X12200Y19603D01*
G01X11635Y19038D01*
G01X12200Y20675D02*
G01X14561Y20675D01*
G01X7030Y16500D02*
G01X7376Y16500D01*
G01X5582Y27276D02*
G01X5951Y27644D01*
G01X6846Y27644D01*
G01X9893Y27032D02*
G01X9893Y24963D01*
G01X10289Y26484D02*
G01X10289Y22678D01*
G01X13406Y21500D02*
G01X13406Y21836D01*
G01X13406Y21836D02*
G01X13363Y21878D01*
G01X13363Y22111D01*
G01X14193Y21836D02*
G01X14193Y21988D01*
G01X14093Y22090D01*
G01X14193Y21500D02*
G01X14193Y21836D01*
G01X9200Y28192D02*
G01X9200Y27855D01*
G01X8615Y21202D02*
G01X9278Y21865D01*
G01X9278Y27777D01*
G01X9200Y27855D01*
G01X9573Y26871D02*
G01X9423Y26721D01*
G01X9423Y21740D01*
G01X7082Y19400D01*
G01X7076Y19400D01*
G01X9573Y27207D02*
G01X9573Y26871D01*
G01X6730Y19400D02*
G01X7076Y19400D01*
G01X8090Y27290D02*
G01X8055Y27290D01*
G01X7203Y28142D01*
G01X3573Y28142D01*
G01X3246Y28469D01*
G01X5303Y27127D02*
G01X5007Y27127D01*
G01X4880Y27255D01*
G01X6311Y27290D02*
G01X5865Y27290D01*
G01X5659Y27082D01*
G01X5348Y27082D01*
G01X5303Y27127D01*
G01X6311Y26509D02*
G01X6550Y26269D01*
G01X6780Y26269D01*
G01X13781Y27890D02*
G01X13781Y25184D01*
G01X6311Y26700D02*
G01X5880Y26700D01*
G01X6865Y25728D02*
G01X6542Y25728D01*
G01X5880Y26390D01*
G01X5880Y26700D01*
G01X6311Y27100D02*
G01X5846Y27100D01*
G01X5682Y26936D01*
G01X4486Y26936D01*
G01X2996Y28427D01*
G01X2996Y29534D01*
G01X3161Y29700D01*
G01X11281Y29700D01*
G01X11819Y29161D01*
G01X11819Y27890D02*
G01X11819Y29161D01*
G01X7909Y20830D02*
G01X8842Y21763D01*
G01X8894Y21763D01*
G54D12*
G01X4815Y20100D02*
G01X4815Y19788D01*
G01X4815Y20100D02*
G01X4696Y19788D01*
G01X4577Y20100D02*
G01X4696Y19788D01*
G01X4577Y20100D02*
G01X4577Y19788D01*
G01X4301Y19996D02*
G01X4301Y19788D01*
G01X4301Y19951D02*
G01X4331Y19981D01*
G01X4360Y19996D01*
G01X4405Y19996D01*
G01X4435Y19981D01*
G01X4464Y19951D01*
G01X4479Y19906D01*
G01X4479Y19877D01*
G01X4464Y19832D01*
G01X4435Y19802D01*
G01X4405Y19788D01*
G01X4360Y19788D01*
G01X4331Y19802D01*
G01X4301Y19832D01*
G01X4025Y20100D02*
G01X4025Y19788D01*
G01X4025Y19951D02*
G01X4054Y19981D01*
G01X4084Y19996D01*
G01X4129Y19996D01*
G01X4158Y19981D01*
G01X4188Y19951D01*
G01X4203Y19906D01*
G01X4203Y19877D01*
G01X4188Y19832D01*
G01X4158Y19802D01*
G01X4129Y19788D01*
G01X4084Y19788D01*
G01X4054Y19802D01*
G01X4025Y19832D01*
G01X3927Y19906D02*
G01X3748Y19906D01*
G01X3748Y19936D01*
G01X3763Y19966D01*
G01X3778Y19981D01*
G01X3808Y19996D01*
G01X3852Y19996D01*
G01X3882Y19981D01*
G01X3912Y19951D01*
G01X3927Y19906D01*
G01X3927Y19877D01*
G01X3912Y19832D01*
G01X3882Y19802D01*
G01X3852Y19788D01*
G01X3808Y19788D01*
G01X3778Y19802D01*
G01X3748Y19832D01*
G01X3422Y20100D02*
G01X3422Y19788D01*
G01X3422Y19951D02*
G01X3392Y19981D01*
G01X3362Y19996D01*
G01X3318Y19996D01*
G01X3288Y19981D01*
G01X3258Y19951D01*
G01X3243Y19906D01*
G01X3243Y19877D01*
G01X3258Y19832D01*
G01X3288Y19802D01*
G01X3318Y19788D01*
G01X3362Y19788D01*
G01X3392Y19802D01*
G01X3422Y19832D01*
G01X3131Y19996D02*
G01X3041Y19788D01*
G01X2952Y19996D02*
G01X3041Y19788D01*
G01X3071Y19728D01*
G01X3101Y19698D01*
G01X3131Y19684D01*
G01X3145Y19684D01*
G01X2477Y20100D02*
G01X2477Y19862D01*
G01X2492Y19817D01*
G01X2507Y19802D01*
G01X2536Y19788D01*
G01X2566Y19788D01*
G01X2596Y19802D01*
G01X2611Y19817D01*
G01X2626Y19862D01*
G01X2626Y19892D01*
G01X2201Y19996D02*
G01X2201Y19788D01*
G01X2201Y19951D02*
G01X2230Y19981D01*
G01X2260Y19996D01*
G01X2305Y19996D01*
G01X2334Y19981D01*
G01X2364Y19951D01*
G01X2379Y19906D01*
G01X2379Y19877D01*
G01X2364Y19832D01*
G01X2334Y19802D01*
G01X2305Y19788D01*
G01X2260Y19788D01*
G01X2230Y19802D01*
G01X2201Y19832D01*
G01X2103Y20100D02*
G01X2103Y19788D01*
G01X1954Y19996D02*
G01X2103Y19847D01*
G01X2043Y19906D02*
G01X1939Y19788D01*
G01X1841Y19906D02*
G01X1663Y19906D01*
G01X1663Y19936D01*
G01X1678Y19966D01*
G01X1693Y19981D01*
G01X1722Y19996D01*
G01X1767Y19996D01*
G01X1797Y19981D01*
G01X1826Y19951D01*
G01X1841Y19906D01*
G01X1841Y19877D01*
G01X1826Y19832D01*
G01X1797Y19802D01*
G01X1767Y19788D01*
G01X1722Y19788D01*
G01X1693Y19802D01*
G01X1663Y19832D01*
G01X1336Y20100D02*
G01X1336Y19788D01*
G01X1336Y20100D02*
G01X1232Y20100D01*
G01X1188Y20085D01*
G01X1158Y20055D01*
G01X1143Y20025D01*
G01X1128Y19981D01*
G01X1128Y19906D01*
G01X1143Y19862D01*
G01X1158Y19832D01*
G01X1188Y19802D01*
G01X1232Y19788D01*
G01X1336Y19788D01*
G01X1030Y19996D02*
G01X1030Y19788D01*
G01X1030Y19906D02*
G01X1015Y19951D01*
G01X986Y19981D01*
G01X956Y19996D01*
G01X911Y19996D01*
G01X813Y19906D02*
G01X635Y19906D01*
G01X635Y19936D01*
G01X650Y19966D01*
G01X665Y19981D01*
G01X695Y19996D01*
G01X739Y19996D01*
G01X769Y19981D01*
G01X799Y19951D01*
G01X813Y19906D01*
G01X813Y19877D01*
G01X799Y19832D01*
G01X769Y19802D01*
G01X739Y19788D01*
G01X695Y19788D01*
G01X665Y19802D01*
G01X635Y19832D01*
G01X537Y19996D02*
G01X478Y19788D01*
G01X418Y19996D02*
G01X478Y19788D01*
G01X418Y19996D02*
G01X359Y19788D01*
G01X300Y19996D02*
G01X359Y19788D01*
G54D14*
G01X3390Y29480D03*
G01X3390Y29230D03*
G01X3390Y28969D03*
G01X3390Y28719D03*
G01X1609Y28719D03*
G01X1609Y28969D03*
G01X1609Y29230D03*
G01X1609Y29480D03*
G54D15*
G01X8709Y15869D03*
G01X8709Y15500D03*
G01X8709Y15130D03*
G01X7690Y15130D03*
G01X7690Y15869D03*
G54D16*
G01X8609Y16800D03*
G01X7990Y16800D03*
G54D17*
G01X400Y28300D03*
G01X1005Y28300D03*
G54D18*
G01X400Y28673D03*
G01X1005Y28673D03*
G01X400Y28988D03*
G01X1005Y28988D03*
G54D17*
G01X400Y29361D03*
G01X1005Y29361D03*
G54D19*
G01X11050Y15500D03*
G01X9350Y15500D03*
G54D20*
G01X2009Y18880D03*
G01X2009Y16919D03*
G54D21*
G01X1194Y23700D03*
G01X405Y23700D03*
G01X6194Y20600D03*
G01X5405Y20600D03*
G54D22*
G01X5580Y17900D03*
G01X4219Y17900D03*
G54D21*
G01X1194Y22800D03*
G01X405Y22800D03*
G01X405Y21900D03*
G01X1194Y21900D03*
G01X2794Y21900D03*
G01X2005Y21900D03*
G54D23*
G01X12100Y24650D03*
G01X12100Y26350D03*
G54D21*
G01X12093Y23600D03*
G01X11306Y23600D03*
G01X6894Y23700D03*
G01X6105Y23700D03*
G01X14193Y21500D03*
G01X13406Y21500D03*
G01X4794Y23100D03*
G01X4005Y23100D03*
G54D24*
G01X9200Y28192D03*
G01X8826Y27207D03*
G01X9573Y27207D03*
G54D25*
G01X8090Y27290D03*
G01X8090Y27100D03*
G01X8090Y26900D03*
G01X8090Y26700D03*
G01X8090Y26509D03*
G01X6309Y26509D03*
G01X6309Y26700D03*
G01X6309Y26900D03*
G01X6309Y27100D03*
G01X6309Y27290D03*
G54D26*
G01X7200Y26900D03*
G54D27*
G01X13780Y27890D03*
G01X11819Y27890D03*
G54D28*
G01X5469Y19400D03*
G01X6730Y19400D03*
G54D24*
G01X10600Y28192D03*
G01X10226Y27207D03*
G01X10973Y27207D03*
G54D28*
G01X9830Y17800D03*
G01X8569Y17800D03*
G01X5769Y16500D03*
G01X7030Y16500D03*
G36*
G01X12606Y19900D02*
G01X12606Y19663D01*
G01X13354Y19663D01*
G01X13354Y19900D01*
G01X12606Y19900D01*
G37*
G36*
G01X12606Y15766D02*
G01X12606Y16002D01*
G01X13354Y16002D01*
G01X13354Y15766D01*
G01X12606Y15766D01*
G37*
G54D29*
G01X10800Y16936D03*
G01X10800Y16463D03*
G54D31*
G01X13000Y19900D03*
G01X13001Y15767D03*
G54D33*
G01X14561Y27150D03*
G01X12200Y27150D03*
G01X14561Y25575D03*
G01X12200Y25575D03*
G01X14561Y22250D03*
G01X12200Y22250D03*
G01X14561Y20675D03*
G01X12200Y20675D03*
G54D35*
G01X5800Y28900D03*
G54D36*
G01X6800Y28900D03*
G01X7800Y28900D03*
G01X8800Y28900D03*
G54D13*
G01X7909Y20830D03*
G01X8894Y21763D03*
G01X10355Y15730D03*
G01X9873Y16848D03*
G01X10253Y17482D03*
G01X10025Y20138D03*
G01X10226Y28038D03*
G01X9669Y22621D03*
G01X8926Y20740D03*
G01X11630Y22544D03*
G01X5765Y24192D03*
G01X2226Y26800D03*
G01X5769Y15978D03*
G01X1523Y24809D03*
G01X8651Y27615D03*
G01X10297Y20138D03*
G01X5290Y26275D03*
G01X8400Y24546D03*
G01X2298Y28913D03*
G01X12418Y19688D03*
G01X12852Y15144D03*
G01X1859Y27427D03*
G01X11389Y17042D03*
G01X10600Y28605D03*
G01X11614Y19361D03*
G01X12973Y29055D03*
G01X13793Y22501D03*
G01X8621Y23488D03*
G01X12226Y21138D03*
G01X11231Y21563D03*
G01X10059Y21563D03*
G01X6655Y18853D03*
G01X4005Y18961D03*
G01X11156Y17450D03*
G01X10318Y16034D03*
G01X7596Y16142D03*
G01X5073Y17021D03*
G01X5276Y22661D03*
G01X4846Y23530D03*
G01X4298Y22721D03*
G01X6465Y24234D03*
G01X4830Y25696D03*
G01X7290Y24311D03*
G01X6811Y22728D03*
G01X6357Y16532D03*
G01X5507Y23826D03*
G01X12664Y24690D03*
G01X12853Y22501D03*
G01X12664Y24994D03*
G01X10485Y26025D03*
G01X5582Y27276D03*
G01X6846Y27644D03*
G01X9893Y27032D03*
G01X9893Y24963D03*
G01X10289Y22678D03*
G01X10289Y26484D03*
G01X13363Y22111D03*
G01X14093Y22090D03*
G01X8615Y21202D03*
G01X3246Y28469D03*
G01X6780Y26269D03*
G01X5303Y27127D03*
G01X4880Y27255D03*
G01X6865Y25728D03*
G01X13781Y25184D03*
G54D29*
G01X10800Y16936D03*
G01X10800Y16463D03*
G54D31*
G01X13000Y19900D03*
G01X13001Y15767D03*
G54D33*
G01X14561Y27150D03*
G01X12200Y27150D03*
G01X14561Y25575D03*
G01X12200Y25575D03*
G01X14561Y22250D03*
G01X12200Y22250D03*
G01X14561Y20675D03*
G01X12200Y20675D03*
G54D35*
G01X5800Y28900D03*
G54D36*
G01X6800Y28900D03*
G01X7800Y28900D03*
G01X8800Y28900D03*

M00*
M02*