G04 ---------------------------- Layer name :BOTTOM PASTER LAYER*
G04 easyEDA 0.1*
G04 Scale: 100 percent, Rotated: No, Reflected: No *
G04 Dimensions in inches *
G04 leading zeros omitted , absolute positions ,2 integer and 4 * 
%FSLAX24Y24*%
%MOIN*%
G90*
G70D02*

%ADD12R,0.043300X0.015700*%
%ADD13R,0.047200X0.021700*%
%ADD14R,0.031500X0.047200*%
%ADD15R,0.031496X0.029528*%
%ADD16R,0.031496X0.022835*%
%ADD17R,0.050000X0.057900*%
%ADD18R,0.236200X0.118100*%
%ADD19R,0.039370X0.049212*%
%ADD20R,0.090551X0.106300*%
%ADD21R,0.080000X0.070000*%
%ADD22R,0.027559X0.049213*%
%ADD23R,0.068100X0.013000*%
%ADD24R,0.096900X0.091300*%
%ADD25R,0.118100X0.236200*%
%ADD26R,0.051181X0.062992*%

%LPD*%
G54D12*
G01X3390Y29480D03*
G01X3390Y29230D03*
G01X3390Y28969D03*
G01X3390Y28719D03*
G01X1609Y28719D03*
G01X1609Y28969D03*
G01X1609Y29230D03*
G01X1609Y29480D03*
G54D13*
G01X8709Y15869D03*
G01X8709Y15500D03*
G01X8709Y15130D03*
G01X7690Y15130D03*
G01X7690Y15869D03*
G54D14*
G01X8609Y16800D03*
G01X7990Y16800D03*
G54D15*
G01X400Y28300D03*
G01X1005Y28300D03*
G54D16*
G01X400Y28673D03*
G01X1005Y28673D03*
G01X400Y28988D03*
G01X1005Y28988D03*
G54D15*
G01X400Y29361D03*
G01X1005Y29361D03*
G54D17*
G01X11050Y15500D03*
G01X9350Y15500D03*
G54D18*
G01X2009Y18880D03*
G01X2009Y16919D03*
G54D19*
G01X1194Y23700D03*
G01X405Y23700D03*
G01X6194Y20600D03*
G01X5405Y20600D03*
G54D20*
G01X5580Y17900D03*
G01X4219Y17900D03*
G54D19*
G01X1194Y22800D03*
G01X405Y22800D03*
G01X405Y21900D03*
G01X1194Y21900D03*
G01X2794Y21900D03*
G01X2005Y21900D03*
G54D21*
G01X12100Y24650D03*
G01X12100Y26350D03*
G54D19*
G01X12093Y23600D03*
G01X11306Y23600D03*
G01X6894Y23700D03*
G01X6105Y23700D03*
G01X14193Y21500D03*
G01X13406Y21500D03*
G01X4794Y23100D03*
G01X4005Y23100D03*
G54D22*
G01X9200Y28192D03*
G01X8826Y27207D03*
G01X9573Y27207D03*
G54D23*
G01X8090Y27290D03*
G01X8090Y27100D03*
G01X8090Y26900D03*
G01X8090Y26700D03*
G01X8090Y26509D03*
G01X6309Y26509D03*
G01X6309Y26700D03*
G01X6309Y26900D03*
G01X6309Y27100D03*
G01X6309Y27290D03*
G54D24*
G01X7200Y26900D03*
G54D25*
G01X13780Y27890D03*
G01X11819Y27890D03*
G54D26*
G01X5469Y19400D03*
G01X6730Y19400D03*
G54D22*
G01X10600Y28192D03*
G01X10226Y27207D03*
G01X10973Y27207D03*
G54D26*
G01X9830Y17800D03*
G01X8569Y17800D03*
G01X5769Y16500D03*
G01X7030Y16500D03*

M00*
M02*